<!-- < ?xml version="1.0" encoding="utf-8"? >-->
<!-- Generator: Adobe Illustrator 16.2.1, SVG Export Plug-In . SVG Version: 6.00 Build 0)  -->
<!-- <!DOCTYPE svg PUBLIC "-//W3C//DTD SVG 1.1//EN" "http://www.w3.org/Graphics/SVG/1.1/DTD/svg11.dtd"> -->
<svg
  xmlns="http://www.w3.org/2000/svg"
  xmlns:xlink="http://www.w3.org/1999/xlink"
  version="1.1"
  id="audio_player"
  x="16px"
  y="17px"
  width="609px"
  height="194px"
  viewBox="16 17 609 194"
  enable-background="new 16 17 608 193"
  xml:space="preserve">
	<rect x="16.5" y="17.5" fill="#FFFFFF" stroke="#CCCCCC" stroke-miterlimit="10" width="608" height="193"/>	
	<g id="hifi-audio-play-button" class="hifi-button">
		<circle id="hifi-greenlight" stroke="#CCCCCC" stroke-miterlimit="10" cx="487" cy="80" r="5"/>
		<rect x="459.5" y="93.5" fill="#FFFFFF" stroke="#CCCCCC" stroke-miterlimit="10" width="55" height="42"/>
		<path class="hifi-button-content" fill="#FFFFFF" stroke="#CCCCCC" stroke-miterlimit="10" d="M475.5,104.204L498.127,114l-22.627,9.796V104.204z"/>
	</g>
	<g id="hifi-audio-pause-button" class="hifi-button">
		<circle id="hifi-orangelight"  stroke="#CCCCCC" stroke-miterlimit="10" cx="552" cy="80" r="5"/>
		<rect x="524.5" y="93.5" fill="#FFFFFF" stroke="#CCCCCC" stroke-miterlimit="10" width="55" height="42"/>
		<rect class="hifi-button-content" x="538.5" y="104.5" fill="#FFFFFF" stroke="#CCCCCC" stroke-miterlimit="10" width="10" height="22"/>
		<rect class="hifi-button-content" x="554.5" y="104.5" fill="#FFFFFF" stroke="#CCCCCC" stroke-miterlimit="10" width="10" height="22"/>
	</g>
	<path fill="#FFFFFF" stroke="#CCCCCC" stroke-miterlimit="10" d="M225.5,58.5v111h66.729c4.891-11.323,16.152-19.25,29.271-19.25  s24.381,7.927,29.271,19.25H415.5v-111H225.5z"/>
	<path fill="none" stroke="#000000" stroke-width="3.1" stroke-miterlimit="10" d="M255.182,109.178  c22.418-6.954,46.09-10.678,70.561-10.678c6.302,0,12.551,0.247,18.738,0.732"/>
	<line fill="none" stroke="#000000" stroke-miterlimit="10" x1="243.002" y1="98.5" x2="258.867" y2="112.34"/>
	<line fill="none" stroke="#AF383D" stroke-miterlimit="10" x1="399.443" y1="96.785" x2="387.141" y2="108.037"/>
	<line fill="none" stroke="#AF383D" stroke-miterlimit="10" x1="378.491" y1="91.41" x2="369.358" y2="103.838"/>
	<line fill="none" stroke="#AF383D" stroke-miterlimit="10" x1="361.36" y1="88.178" x2="354.643" y2="101.823"/>
	<line id="hifi-audio-needle" fill="none" stroke="#000000" stroke-miterlimit="10" x1="243.002" y1="98.5" x2="305.865" y2="154.345"/>
	<line fill="none" stroke="#000000" stroke-miterlimit="10" x1="249.002" y1="96.5" x2="260.829" y2="107.335"/>
	<line fill="none" stroke="#000000" stroke-miterlimit="10" x1="262.079" y1="98.861" x2="267.254" y2="105.42"/>
	<line fill="none" stroke="#000000" stroke-miterlimit="10" x1="274.079" y1="90.861" x2="281.713" y2="102.59"/>
	<line fill="none" stroke="#000000" stroke-miterlimit="10" x1="294.396" y1="87.431" x2="298.713" y2="99.59"/>
	<line fill="none" stroke="#000000" stroke-miterlimit="10" x1="280.824" y1="94.416" x2="284.771" y2="101.144"/>
	<line fill="none" stroke="#000000" stroke-miterlimit="10" x1="285.824" y1="93.416" x2="289.372" y2="100.144"/>
	<line fill="none" stroke="#000000" stroke-miterlimit="10" x1="290.471" y1="93.019" x2="293.84" y2="100.144"/>
	<line fill="none" stroke="#000000" stroke-miterlimit="10" x1="302.91" y1="91.821" x2="304.84" y2="99.144"/>
	<line fill="none" stroke="#000000" stroke-miterlimit="10" x1="309.096" y1="91" x2="310.56" y2="98.5"/>
	<line fill="none" stroke="#000000" stroke-miterlimit="10" x1="316.414" y1="86.033" x2="317.678" y2="98.5"/>
	<line fill="none" stroke="#000000" stroke-miterlimit="10" x1="325.994" y1="90.357" x2="325.742" y2="98.5"/>
	<line fill="none" stroke="#000000" stroke-miterlimit="10" x1="336.57" y1="86.033" x2="334.56" y2="98.5"/>
	<line fill="none" stroke="#000000" stroke-miterlimit="10" x1="348.346" y1="86.766" x2="344.088" y2="100.27"/>
	<path fill="#AF383D" d="M348.346,95.482l-2.129,5.661c0,0,15.617,1.534,21.45,2.695s12.938,2.757,19.667,4.661  c2.333-1.834,5.166-4.661,5.166-4.661s-11.337-3.838-22.181-5.597C357.48,96.158,348.346,95.482,348.346,95.482z"/>
	<g>
		<path d="M241.6,91.834l0-0.845l3.641-4.641c0.346-0.45,0.519-0.905,0.519-1.365c0-0.511-0.141-0.917-0.422-1.216   c-0.282-0.299-0.678-0.448-1.189-0.448c-0.468,0-0.854,0.136-1.157,0.41c-0.303,0.273-0.455,0.695-0.455,1.267H241.6   c0-0.736,0.234-1.339,0.702-1.807c0.468-0.468,1.083-0.702,1.846-0.702c0.762,0,1.378,0.225,1.846,0.676   c0.468,0.45,0.702,1.057,0.702,1.818c0,0.364-0.054,0.678-0.163,0.942c-0.109,0.265-0.303,0.574-0.582,0.929l-3.238,4.15h3.982   v0.832H241.6z"/>
		<path d="M250.895,91.899c-0.737,0-1.344-0.234-1.82-0.702c-0.477-0.468-0.715-1.083-0.715-1.846v-4.316   c0-0.754,0.241-1.367,0.722-1.839c0.481-0.472,1.085-0.708,1.813-0.708c0.736,0,1.343,0.234,1.82,0.702   c0.477,0.468,0.715,1.083,0.715,1.846v4.316c0,0.754-0.241,1.368-0.722,1.84S251.623,91.899,250.895,91.899z M252.494,85.087   c0-0.52-0.141-0.945-0.423-1.274c-0.282-0.33-0.674-0.494-1.176-0.494c-0.503,0-0.895,0.163-1.177,0.487   c-0.282,0.325-0.422,0.752-0.422,1.281v4.212c0,0.52,0.141,0.945,0.422,1.274c0.282,0.33,0.674,0.494,1.177,0.494   c0.502,0,0.895-0.163,1.176-0.488c0.282-0.325,0.423-0.751,0.423-1.28V85.087z"/>
	</g>
	<g>
		<path d="M264.464,87.444v-8.229l-1.729,1.521l-0.003-1.07l1.733-1.49l0.936,0v9.269H264.464z"/>
		<path d="M271.289,87.509c-0.737,0-1.344-0.234-1.82-0.702c-0.477-0.468-0.715-1.083-0.715-1.846v-4.316   c0-0.754,0.241-1.367,0.722-1.839c0.481-0.472,1.085-0.708,1.813-0.708c0.736,0,1.343,0.234,1.82,0.702   c0.477,0.468,0.715,1.083,0.715,1.846v4.316c0,0.754-0.241,1.368-0.722,1.84S272.017,87.509,271.289,87.509z M272.888,80.697   c0-0.52-0.141-0.945-0.423-1.274c-0.282-0.33-0.674-0.494-1.176-0.494c-0.503,0-0.895,0.163-1.177,0.487   c-0.282,0.325-0.422,0.752-0.422,1.281v4.212c0,0.52,0.141,0.945,0.422,1.274c0.282,0.33,0.674,0.494,1.177,0.494   c0.502,0,0.895-0.163,1.176-0.488c0.282-0.325,0.423-0.751,0.423-1.28V80.697z"/>
	</g>
	<g>
		<path d="M318.979,143.564h-0.806l-3.042-9.27h1.04l2.405,7.496l2.405-7.496h1.04L318.979,143.564z"/>
		<path d="M326.557,143.629c-0.944,0-1.718-0.293-2.32-0.877c-0.602-0.586-0.903-1.338-0.903-2.256v-6.201h0.987v6.123   c0,0.701,0.204,1.266,0.611,1.689c0.408,0.426,0.949,0.637,1.625,0.637c0.668,0,1.209-0.211,1.625-0.637   c0.416-0.424,0.625-0.988,0.625-1.689v-6.123h0.987v6.201c0,0.928-0.304,1.682-0.91,2.262S327.502,143.629,326.557,143.629z"/>
	</g>
	<g>
		<path d="M291.681,84.009c-0.78,0-1.404-0.243-1.872-0.728c-0.468-0.485-0.702-1.131-0.702-1.937c0-0.606,0.195-1.3,0.585-2.08   l2.275-4.589l0.958-0.002l-2.063,4.162c0.286-0.13,0.611-0.195,0.975-0.195c0.71,0,1.289,0.245,1.735,0.734   c0.446,0.49,0.669,1.121,0.669,1.892c0,0.806-0.232,1.465-0.695,1.976C293.083,83.753,292.461,84.009,291.681,84.009z    M291.668,79.433c-0.494,0-0.888,0.169-1.183,0.507c-0.295,0.338-0.442,0.793-0.442,1.365c0,0.572,0.147,1.027,0.442,1.365   c0.294,0.338,0.689,0.507,1.183,0.507c0.494,0,0.891-0.171,1.19-0.514c0.299-0.342,0.448-0.795,0.448-1.358   c0-0.537-0.143-0.983-0.429-1.339C292.591,79.61,292.188,79.433,291.668,79.433z"/>
	</g>
	<g>
		<path d="M315.043,82.355c-0.78,0-1.428-0.208-1.944-0.624s-0.773-1.022-0.773-1.82h0.936c0,0.538,0.176,0.94,0.526,1.209   c0.351,0.269,0.769,0.403,1.255,0.403c0.511,0,0.936-0.16,1.274-0.479s0.507-0.755,0.507-1.308c0-0.579-0.147-1.021-0.442-1.328   c-0.295-0.307-0.754-0.46-1.378-0.46h-0.195v-0.832h0.195c0.554,0,0.968-0.145,1.241-0.436c0.273-0.29,0.41-0.704,0.41-1.242   c0-0.537-0.152-0.953-0.455-1.248c-0.303-0.294-0.689-0.442-1.157-0.442c-0.477,0-0.863,0.139-1.157,0.416   c-0.295,0.278-0.464,0.655-0.507,1.131h-0.936c0-0.728,0.249-1.307,0.748-1.736c0.498-0.429,1.116-0.644,1.853-0.644   c0.754,0,1.367,0.232,1.839,0.697c0.472,0.464,0.708,1.069,0.708,1.815c0,0.989-0.416,1.675-1.248,2.057   c0.944,0.355,1.417,1.108,1.417,2.259c0,0.823-0.256,1.463-0.767,1.922C316.481,82.126,315.832,82.355,315.043,82.355z"/>
	</g>
	<g>
		<path d="M336.968,81.277v-8.229l-1.729,1.521l-0.003-1.07l1.733-1.49l0.936,0v9.269H336.968z"/>
	</g>
	<g>
		<path fill="#AF383D" d="M349.883,82.009c-0.736,0-1.344-0.234-1.82-0.702c-0.477-0.468-0.715-1.083-0.715-1.846v-4.316   c0-0.754,0.24-1.367,0.722-1.839c0.481-0.472,1.085-0.708,1.813-0.708c0.736,0,1.344,0.234,1.82,0.702   c0.477,0.468,0.715,1.083,0.715,1.846v4.316c0,0.754-0.24,1.368-0.722,1.84S350.611,82.009,349.883,82.009z M351.482,75.197   c0-0.52-0.142-0.945-0.424-1.274c-0.281-0.33-0.674-0.494-1.176-0.494c-0.503,0-0.895,0.163-1.177,0.487   c-0.282,0.325-0.423,0.752-0.423,1.281v4.212c0,0.52,0.141,0.945,0.423,1.274c0.282,0.33,0.674,0.494,1.177,0.494   c0.502,0,0.895-0.163,1.176-0.488c0.282-0.325,0.424-0.751,0.424-1.28V75.197z"/>
	</g>
	<g>
		<path fill="#AF383D" d="M364.844,84.777v-8.229l-1.729,1.521l-0.003-1.07l1.732-1.49l0.936,0v9.269H364.844z"/>
	</g>
	<g>
		<path fill="#AF383D" d="M379.706,87.444l0.001-0.845l3.641-4.641c0.346-0.45,0.519-0.905,0.519-1.365   c0-0.511-0.142-0.917-0.423-1.216c-0.281-0.299-0.678-0.448-1.189-0.448c-0.468,0-0.854,0.136-1.156,0.41   c-0.304,0.273-0.455,0.695-0.455,1.267h-0.937c0-0.736,0.234-1.339,0.702-1.807c0.469-0.468,1.084-0.702,1.846-0.702   c0.763,0,1.379,0.225,1.846,0.676c0.469,0.45,0.703,1.057,0.703,1.818c0,0.364-0.055,0.678-0.164,0.942   c-0.108,0.265-0.303,0.574-0.581,0.929l-3.237,4.15h3.982v0.832H379.706z"/>
	</g>
	<g>
		<path fill="#AF383D" d="M403.82,95.091c-0.779,0-1.428-0.208-1.943-0.624s-0.773-1.022-0.773-1.82h0.936   c0,0.538,0.176,0.94,0.527,1.209c0.351,0.269,0.769,0.403,1.254,0.403c0.512,0,0.937-0.16,1.274-0.479s0.507-0.755,0.507-1.308   c0-0.579-0.147-1.021-0.441-1.328c-0.295-0.307-0.754-0.46-1.379-0.46h-0.195v-0.832h0.195c0.555,0,0.969-0.145,1.242-0.436   c0.272-0.29,0.409-0.704,0.409-1.242c0-0.537-0.151-0.953-0.455-1.248c-0.304-0.294-0.688-0.442-1.157-0.442   c-0.477,0-0.862,0.139-1.156,0.416c-0.295,0.278-0.465,0.655-0.508,1.131h-0.936c0-0.728,0.249-1.307,0.748-1.736   c0.498-0.429,1.115-0.644,1.852-0.644c0.754,0,1.367,0.232,1.84,0.697s0.709,1.069,0.709,1.815c0,0.989-0.416,1.675-1.248,2.057   c0.943,0.355,1.416,1.108,1.416,2.259c0,0.823-0.256,1.463-0.767,1.922C405.26,94.862,404.609,95.091,403.82,95.091z"/>
	</g>
	<rect x="392" y="113" fill="#AF383D" width="9" height="1"/>
	<rect x="240" y="114" width="9" height="1"/>
	<rect x="396" y="109" fill="#AF383D" width="1" height="9"/>
	<g class="hifi-audio-volume-knob">
		<circle fill="#FFFFFF" stroke="#CCCCCC" stroke-miterlimit="10" cx="117.096" cy="114" r="44.572"/>
		<g>
			<path class="hifi-audio-volume-knob-mark" fill="#EEEEEE" stroke="#CCCCCC" stroke-miterlimit="10" d="M116.5,95c-1.104,0-2-0.896-2-2V82c0-1.104,0.896-2,2-2    s2,0.896,2,2v11C118.5,94.104,117.604,95,116.5,95z"/>
		</g>
	</g>
	<g>
		<path fill="#999999" d="M97.537,171.801h-0.744l-2.808-8.557h0.959l2.22,6.919l2.22-6.919h0.96L97.537,171.801z"/>
		<path fill="#999999" d="M106.524,170.973c-0.592,0.592-1.32,0.887-2.184,0.887c-0.864,0-1.536-0.239-2.016-0.719   c-0.48-0.48-0.762-0.949-0.846-1.404c-0.084-0.456-0.126-1.196-0.126-2.221c0-0.848,0.024-1.525,0.072-2.033   c0.048-0.508,0.33-1.021,0.846-1.536c0.516-0.517,1.206-0.774,2.07-0.774c0.864,0,1.536,0.24,2.016,0.721   c0.48,0.479,0.762,0.947,0.846,1.403s0.126,1.196,0.126,2.22c0,0.849-0.024,1.526-0.072,2.035   C107.208,170.059,106.964,170.532,106.524,170.973z M105.816,164.6c-0.392-0.408-0.884-0.611-1.476-0.611s-1.052,0.17-1.38,0.51   s-0.526,0.691-0.594,1.057c-0.068,0.363-0.102,1.018-0.102,1.961c0,0.937,0.034,1.59,0.102,1.963   c0.068,0.371,0.266,0.726,0.594,1.062s0.788,0.504,1.38,0.504s1.052-0.17,1.38-0.51s0.526-0.692,0.594-1.056   c0.068-0.364,0.102-1.019,0.102-1.963c0-0.936-0.034-1.59-0.102-1.961C106.247,165.182,106.081,164.864,105.816,164.6z"/>
		<path fill="#999999" d="M109.476,171.801v-8.557h0.912v7.74h4.368v0.816H109.476z"/>
		<path fill="#999999" d="M119.208,171.859c-0.872,0-1.586-0.27-2.142-0.809c-0.556-0.541-0.834-1.234-0.834-2.082v-5.725h0.912   v5.652c0,0.647,0.188,1.168,0.564,1.56s0.876,0.588,1.5,0.588c0.616,0,1.116-0.196,1.5-0.588c0.384-0.392,0.576-0.912,0.576-1.56   v-5.652h0.912v5.725c0,0.855-0.28,1.551-0.84,2.088C120.796,171.592,120.08,171.859,119.208,171.859z"/>
		<path fill="#999999" d="M130.957,171.801v-6.5l-2.341,5.143l-0.784,0.003l-2.371-5.132v6.486h-0.912v-8.557h0.912l2.784,6.06   l2.712-6.06h0.912v8.557H130.957z"/>
		<path fill="#999999" d="M134.34,171.801v-8.557h5.304v0.816h-4.392v3.012h3.744v0.816h-3.744v3.096h4.392v0.816H134.34z"/>
	</g>
</svg>
