<?xml version="1.0" encoding="utf-8"?>
<!DOCTYPE svg PUBLIC "-//W3C//DTD SVG 1.1//EN" "http://www.w3.org/Graphics/SVG/1.1/DTD/svg11.dtd">
<svg version="1.1" id="Layer_1" xmlns="http://www.w3.org/2000/svg" xmlns:xlink="http://www.w3.org/1999/xlink" x="0px" y="0px"
  viewBox="0 0 77.4 57.7" enable-background="new 0 0 77.4 57.7" xml:space="preserve">
  <g opacity="0.8">
    <path fill-rule="evenodd" clip-rule="evenodd" d="M13.6,48.9c-0.3-1.4-1.4-1.8-2.7-1.9c-4.1-0.4-4.8,2.7-4.8,4
c0,2.2,0.6,4.1,4.7,4.1c0.7,0,2.8-0.8,2.8-2h5.8c-0.2,3.7-6.4,4.6-9.1,4.6c-5.6,0-10.4-1-10.2-6.6c0.2-3.9,3.9-6.7,11.3-6.5
c4.1,0.1,8.1,1.4,8.1,4.4H13.6L13.6,48.9z"/>
    <path fill-rule="evenodd" clip-rule="evenodd" d="M71.5,48.9c-0.3-1.4-1.4-1.8-2.7-1.9c-4.1-0.4-4.8,2.7-4.8,4
c0,2.2,0.6,4.1,4.7,4.1c0.7,0,2.8-0.8,2.8-2h5.8c-0.2,3.7-6.4,4.6-9.1,4.6c-5.6,0-10.4-1-10.2-6.6c0.2-3.9,3.9-6.7,11.3-6.5
c4.1,0.1,8.1,1.4,8.1,4.4H71.5L71.5,48.9z"/>
    <polygon fill-rule="evenodd" clip-rule="evenodd" points="20.4,44.8 27.9,44.8 34.4,53.9 34.4,53.9 34.4,44.8 39.2,44.8 39.2,57.4 
32,57.4 25.3,48.3 25.2,48.3 25.2,57.4 20.4,57.4 20.4,44.8   "/>
    <path fill-rule="evenodd" clip-rule="evenodd" d="M40.7,44.8h9.1c4.4,0,7,1.2,7,3.1c0,1.1-1.1,2.5-3.5,2.8v0c2.9,0.2,4,2,4,3.1
c0,2.2-2.5,3.4-7.4,3.4h-9.2V44.8L40.7,44.8L40.7,44.8z M46,49.7h1.5c2.3,0,3.6-0.2,3.6-1.2c0-1-1-1.4-3.1-1.4h-2V49.7L46,49.7
L46,49.7z M46,54.7h1.5c2.8,0,3.8-0.3,3.8-1.3c0-1-1.3-1.4-3.4-1.4h-2V54.7L46,54.7z"/>
    <path fill-rule="evenodd" clip-rule="evenodd" fill="#FFFFFF" d="M70.8,42.8c-1.2,0.5-2.6,0.8-4,0.8l-58.2,0
c-3.3-0.3-6.5-3-7.4-6.2c-1-3.2,0-6.6,2.1-9c2.1-2.1,4.7-3,7.7-2.7c-2.8-1.9-4-5-3.6-8.4c0.4-2.9,2.5-5.8,5.2-6.9
c3.1-1.4,7-0.6,9.4,1.7c-0.5-1.7-0.8-4.2-0.1-5.9c0.8-2.8,3.5-5.2,6.3-5.8c3.7-0.8,7.1,0.6,9.2,3.7c0.4,0.6,0.6,1.3,0.9,1.9
c1.1-3,4.1-5.5,7.2-5.8c3.2-0.4,6.2,1,8.2,3.6c1.6,2.2,2.1,5.6,1.1,8.2H55c2.3-2.1,5.8-2.8,8.8-1.7c2.8,0.9,5.3,4,5.6,7
c0.4,3.3-0.7,6.2-3.2,8.3c3.8-0.2,7.4,1.8,9,5.3c1.4,3.1,1,7.2-1.3,9.7C72.9,41.5,71.9,42.3,70.8,42.8L70.8,42.8z"/>
    <path fill-rule="evenodd" clip-rule="evenodd" d="M64.7,25.7L43.1,40l7.2-17.2l3.4-8c1.4-2.6,4-4.2,6.9-4.3c2.7,0,5.2,1.3,6.7,3.7
c1.6,2.4,1.7,6.2,0.1,8.6C66.8,23.9,65.8,24.9,64.7,25.7L64.7,25.7z"/>
    <path fill-rule="evenodd" clip-rule="evenodd" d="M54,12.1L43.3,37.2l-0.5-2.7l-3.2-20.6c-0.1-1.3,0.4-2.3,1.4-3l1.5-0.9
c0.1-0.3-0.4-0.4-0.6-0.5l-3,0c-0.2-3,1.1-5.7,3.6-7.3c2-1.3,4.9-1.6,7.1-0.6c2.8,1.2,4.8,4.2,4.8,7.2C54.6,9.9,54.4,11.1,54,12.1
L54,12.1z"/>
    <path fill-rule="evenodd" clip-rule="evenodd" d="M33.5,37.3L23,12.1c-1.1-2.7-0.7-6.2,1.3-8.4c2.1-2.3,5-3.3,8-2.5
c2.5,0.6,4.9,3,5.5,5.6C38.1,7.8,38,9,38,10L33.5,37.3L33.5,37.3z"/>
    <path fill-rule="evenodd" clip-rule="evenodd" d="M11.1,24.7C9,22.9,8,20.4,8.3,17.5c0.3-2.9,2.6-5.8,5.4-6.6
c2.8-0.9,5.9-0.2,7.9,1.9c0.9,0.8,1.4,1.8,1.8,2.8l10.1,24.5L11.1,24.7L11.1,24.7z"/>
    <path fill-rule="evenodd" clip-rule="evenodd" d="M8.8,42.7c-2.8-0.3-5-1.8-6.3-4.4c-1.3-2.6-1-6.3,0.8-8.6c2-2.3,4.8-3.5,7.6-2.9
c1.2,0.2,2.1,0.7,3,1.3l21.8,14.6L8.8,42.7L8.8,42.7z"/>
    <path fill-rule="evenodd" clip-rule="evenodd" d="M68,42.7c2.8-0.3,5-1.8,6.3-4.4c1.3-2.6,1-6.3-0.8-8.6c-2-2.3-4.8-3.5-7.6-2.9
c-1.2,0.2-2.1,0.7-3,1.3L41,42.7L68,42.7L68,42.7z"/>
  </g>
</svg>
