<?xml version="1.0" encoding="utf-8"?>
<!DOCTYPE svg PUBLIC "-//W3C//DTD SVG 1.1//EN" "http://www.w3.org/Graphics/SVG/1.1/DTD/svg11.dtd">
<svg version="1.1" id="Layer_1" xmlns="http://www.w3.org/2000/svg" xmlns:xlink="http://www.w3.org/1999/xlink" x="0px" y="0px"
   viewBox="0 0 64.8 64.7" enable-background="new 0 0 64.8 64.7" xml:space="preserve">
<g opacity="0.8">
  <path fill-rule="evenodd" clip-rule="evenodd" d="M32.4,64.7c17.9,0,32.4-14.5,32.4-32.4C64.8,14.5,50.3,0,32.4,0
    C14.5,0,0,14.5,0,32.4C0,50.3,14.5,64.7,32.4,64.7L32.4,64.7z"/>
  <polygon fill-rule="evenodd" clip-rule="evenodd" fill="#FFFFFF" points="20.2,51.7 22.4,51.7 22.4,14.9 20.2,14.9 20.2,51.7   "/>
  <polygon fill-rule="evenodd" clip-rule="evenodd" fill="#FFFFFF" points="20.2,51.7 22.4,51.7 22.4,14.9 20.2,14.9 20.2,51.7   "/>
  <path fill-rule="evenodd" clip-rule="evenodd" fill="#FFFFFF" d="M10.9,28.3c0-2.3,4.1-2.4,4.1-0.1l0,2h3.1v-1.8
    c0.2-6.2-10.3-6.1-10.3-0.2v10.6c-0.1,6,10.5,6.2,10.3,0v-2.2H15V39c0,2.3-4,2.3-4.1,0V28.2L10.9,28.3L10.9,28.3z"/>
  <path fill-rule="evenodd" clip-rule="evenodd" fill="#FFFFFF" d="M28.4,25.9c0,0,0.5-0.8,1.9-1.6c1.8-1,3.5,0,3.3-0.1
    c1.4,0.6,1.9,2.1,2,3.8v12.5h2v2.3h-5.1l0-15c0-2.2-3.7-2.1-3.7,0.1l0-0.1v15h-4.6v-2.3l1.4,0v-14l-1.7,0v-2.3h4.4L28.4,25.9
    L28.4,25.9z"/>
  <path fill-rule="evenodd" clip-rule="evenodd" fill="#FFFFFF" d="M51.4,38.8c0.1,1.7,0.6,3.2,2,3.8c-0.3-0.1,0.7,0.4,1.7,0.3
    c0.5,0,3,0,3,0v-2.3c0,0-1.3,0-1.9,0c-0.8,0-1.6-0.4-1.6-1.6l0-12.4l0,0h3v-2.3h-3l0,0v-4.8h-3.1L51.4,38.8L51.4,38.8z"/>
  <path fill-rule="evenodd" clip-rule="evenodd" fill="#FFFFFF" d="M45.8,36.6V39c0,2.3-4,2.3-4,0V34l6.6,0c0.3,0,0.6-0.3,0.6-0.6
    l0-5.1c0.2-6.2-10.3-6.1-10.3-0.2v10.6c-0.1,6,10.5,6.2,10.3,0v-2.2H45.8L45.8,36.6L45.8,36.6L45.8,36.6z M41.8,28.2
    c0-2.3,4-2.3,4,0l0,3.5l-4,0V28.2L41.8,28.2z"/>
</g>
</svg>
