<?xml version="1.0" encoding="UTF-8"?>
<!-- Generator: Adobe Illustrator 18.0.0, SVG Export Plug-In . SVG Version: 6.00 Build 0)  -->
<!DOCTYPE svg PUBLIC "-//W3C//DTD SVG 1.1//EN" "http://www.w3.org/Graphics/SVG/1.1/DTD/svg11.dtd">
<svg version="1.1" id="Layer_1" xmlns="http://www.w3.org/2000/svg" xmlns:xlink="http://www.w3.org/1999/xlink" x="0px" y="0px" viewBox="0 0 170.2 24" enable-background="new 0 0 170.2 24" xml:space="preserve">
<g>
	<path fill="#5B5B5B" d="M64,9.4V20h-3.9V9.4h-3.9V6h11.7v3.4H64z"/>
	<path fill="#5B5B5B" d="M77,15.8h-6.2c0.1,1.2,0.8,1.7,1.8,1.7c0.9,0,1.7-0.2,2.7-0.7l1.4,2.3c-1.3,0.8-2.6,1.2-4.3,1.2   c-3.2,0-4.9-2.2-4.9-5.5c0-3.6,2-5.5,4.8-5.5c2.9,0,4.7,1.9,4.7,5.8C77,15.4,77,15.6,77,15.8z M72.2,11.9c-0.8,0-1.3,0.6-1.4,1.6h3   C73.6,12.5,73.3,11.9,72.2,11.9z"/>
	<path fill="#5B5B5B" d="M83.7,20.2c-3.1,0-4.9-2-4.9-5.5c0-3.2,1.6-5.4,5-5.4c2,0,3.1,0.9,4,2.4l-2.5,1.9c-0.5-0.9-0.8-1.4-1.6-1.4   c-0.9,0-1.4,0.9-1.4,2.6c0,1.7,0.5,2.5,1.5,2.5c0.7,0,1.2-0.4,1.8-1.4l2.3,1.8C86.7,19.5,85.5,20.2,83.7,20.2z"/>
	<path fill="#5B5B5B" d="M95.9,20v-6c0-1.4-0.5-1.7-1.2-1.7c-0.8,0-1.2,0.4-1.2,1.7v6h-3.6V6.9l3.6-1.4v4.8c0.7-0.5,1.4-0.9,2.6-0.9   c2.3,0,3.4,1.5,3.4,4.3V20H95.9z"/>
	<path d="M108.2,20.2c-4.2,0-6.4-3.1-6.4-7.2c0-4.5,2.6-7.2,6.4-7.2c3.4,0,4.8,1.5,5.8,4.1l-3.5,1.4c-0.5-1.3-1-2.1-2.3-2.1   c-1.6,0-2.3,1.6-2.3,3.8c0,2.1,0.7,3.8,2.4,3.8c1.2,0,1.7-0.7,2.5-2l3.3,1.7C113.1,18.4,111.5,20.2,108.2,20.2z"/>
	<path d="M122.9,13.5c-0.5-0.5-1-0.9-1.7-0.9c-0.9,0-1.4,0.4-1.4,1.7V20h-3.6V9.5h3.6v0.8c0.6-0.6,1.3-1,2.2-1   c0.8,0,1.3,0.2,1.7,0.4L122.9,13.5z"/>
	<path d="M131.4,20v-0.7c-0.6,0.5-1.4,0.9-2.6,0.9c-2.3,0-3.4-1.5-3.4-4.3V9.5h3.6v6c0,1.4,0.5,1.7,1.2,1.7s1.2-0.4,1.2-1.7v-6h3.6   V20H131.4z"/>
	<path d="M143.7,20v-6c0-1.4-0.5-1.7-1.2-1.7c-0.8,0-1.2,0.4-1.2,1.7v6h-3.6V9.5h3.6v0.7c0.7-0.5,1.4-0.9,2.6-0.9   c2.3,0,3.4,1.5,3.4,4.3V20H143.7z"/>
	<path d="M154.3,20.2c-3.1,0-4.9-2-4.9-5.5c0-3.2,1.6-5.4,5-5.4c2,0,3.1,0.9,4,2.4l-2.5,1.9c-0.5-0.9-0.8-1.4-1.6-1.4   c-0.9,0-1.4,0.9-1.4,2.6c0,1.7,0.5,2.5,1.5,2.5c0.7,0,1.2-0.4,1.8-1.4l2.3,1.8C157.3,19.5,156.2,20.2,154.3,20.2z"/>
	<path d="M166.6,20v-6c0-1.4-0.5-1.7-1.2-1.7c-0.8,0-1.2,0.4-1.2,1.7v6h-3.6V6.9l3.6-1.4v4.8c0.7-0.5,1.4-0.9,2.6-0.9   c2.3,0,3.4,1.5,3.4,4.3V20H166.6z"/>
</g>
<g>
	<polygon fill="#5B5B5B" points="0,0 0,8 8,8 8,24 16,24 16,8 24,8 24,0  "/>
	<polygon fill="#5B5B5B" points="32,16 32,8 24,8 24,24 48,24 48,16  "/>
	<rect x="32" fill="#5B5B5B" width="16" height="8"/>
</g>
</svg>