<?xml version="1.0" encoding="utf-8"?>
<!-- Generator: Adobe Illustrator 18.1.0, SVG Export Plug-In . SVG Version: 6.00 Build 0)  -->
<!DOCTYPE svg PUBLIC "-//W3C//DTD SVG 1.1//EN" "http://www.w3.org/Graphics/SVG/1.1/DTD/svg11.dtd">
<svg version="1.1" id="Content" xmlns="http://www.w3.org/2000/svg" xmlns:xlink="http://www.w3.org/1999/xlink" x="0px" y="0px"
	 viewBox="0 0 89.9 21.4" enable-background="new 0 0 89.9 21.4" xml:space="preserve">
<g>
	<g id="Winlogo_1_">
		<g id="TM_1_">
			<path fill="#0F9DBE" d="M56.4,18.2h-0.3v0.9H56v-0.9h-0.3v-0.1h0.7V18.2z"/>
			<path fill="#0F9DBE" d="M57.6,19.1h-0.1v-0.7c0-0.1,0-0.1,0-0.2h0c0,0,0,0.1,0,0.1l-0.4,0.8H57l-0.4-0.8c0,0,0-0.1,0-0.1h0
				c0,0,0,0.1,0,0.2v0.7h-0.1v-1h0.2l0.3,0.7c0,0.1,0,0.1,0,0.1h0c0-0.1,0-0.1,0-0.1l0.3-0.7h0.2V19.1z"/>
		</g>
		<polygon fill="#0F9DBE" points="55.1,9.9 55.1,1.4 45.3,2.9 45.3,9.9 		"/>
		<polygon fill="#0F9DBE" points="44.7,3 37.6,4 37.6,9.9 44.7,9.9 		"/>
		<polygon fill="#0F9DBE" points="37.6,10.6 37.6,16.6 44.7,17.6 44.7,10.6 		"/>
		<polygon fill="#0F9DBE" points="45.3,17.7 55.1,19.2 55.1,10.6 45.3,10.6 		"/>
	</g>
	<g>
		<path fill-rule="evenodd" clip-rule="evenodd" fill="#0F9DBE" d="M0,0h11.7C8.2,8,8.6,11.6,8.6,11.6h3.8c-0.1,0.4-0.3,5.3,0.7,9H0
			L0,0L0,0z"/>
		<path fill-rule="evenodd" clip-rule="evenodd" fill="#B5DFEA" d="M20.6,20.6h-8c-0.5-3.4-0.5-8.6-0.4-9H8.3c0,0-0.1-4.5,3.1-11.6
			h9.1V20.6L20.6,20.6z"/>
		<polygon fill-rule="evenodd" clip-rule="evenodd" fill="#333333" points="13.8,3.1 14.9,3.1 14.9,6.1 13.8,6.1 13.8,3.1 		"/>
		<polygon fill-rule="evenodd" clip-rule="evenodd" fill="#333333" points="5,3.1 6.1,3.1 6.1,6.1 5,6.1 5,3.1 		"/>
		<path fill-rule="evenodd" clip-rule="evenodd" fill="#333333" d="M11.3,15.6c-3.4,0.2-5.7-0.5-7.7-1.7l-0.5,0.9
			c2,1.5,5.2,2.1,8.2,2L11.3,15.6L11.3,15.6z"/>
		<path fill-rule="evenodd" clip-rule="evenodd" fill="#333333" d="M11.3,16.8c2.1-0.2,4.9-1,6.3-2L17,13.8c-1.6,1-3.5,1.5-5.7,1.8"
			/>
	</g>
	<g>
		<path fill-rule="evenodd" clip-rule="evenodd" fill="#0F9DBE" d="M78.8,18.4c0.7-0.1,0.8-0.8,0.5-1.2C79,17,77.4,15.8,77,15.4
			c-0.2-0.2-0.4-0.3-0.5-0.5c-0.2-0.5-0.4-1.3-0.1-1.9c0.1-0.1,0.1-0.1,0,0.2c-0.2,1.2,0.5,2.1,0.7,1.6c0.1-0.3,0-0.9,0.1-1.4
			c0.1-0.9,0.9-2.5,1.2-2.6C77.9,9.8,79,9,79,8.2c0-0.6,0.5,0.7,1,0.9c0.6,0.3,1.2-0.6,2-1c0.2-0.1,0.6-0.3,0.5-0.4
			c-0.1-0.5-1.1,0.6-2.1,0.7c-0.4,0-0.6-0.1-0.7-0.2c-0.5-0.5,0.1-0.1,0.8-0.2c0.3-0.1,0.4-0.1,0.8-0.3c0.3-0.1,0.7-0.3,1.1-0.5
			c0.3-0.1,0.3-0.3,0.1-0.3c-0.1,0-0.2,0-0.2,0.1c-0.2,0.3-1,0.5-1.2,0.5c-0.3,0.1-0.7,0.2-1.1,0.2c-0.7,0-0.5-0.4-1.1-0.6
			c-0.1-0.1-0.1-0.3,0.1-0.5c0.1-0.1,0.4-0.2,0.5-0.4c0,0,0.2-0.2,0.3-0.3c0,0,0.1-0.9-0.4-0.9c-0.4,0-0.5,0.3-0.5,0.6
			c0,0.3,0.2,0.5,0.3,0.5c0.2,0,0,0.2-0.1,0.3c-0.2,0.1-0.4-0.7-0.4-1c0-0.4,0.2-1,0.7-1c0.4,0,0.7,0.5,0.7,1.4
			c0,0.1,0.7-0.1,0.9,0.2c0.2,0.2-0.5-1.5,1-1.7c0.4,0.1,0.8,0.2,1,1.1c-0.1,0.1,0.1,0.7-0.1,0.8c-0.3,0.1-0.5,0-0.3-0.3
			c0.1-0.3,0-1-0.6-1c-0.6,0-0.5,1.1-0.4,1.2c0.2,0,0.6,0.3,0.9,0.4c1,0.2,0.3,0.7,0.4,1.4c0.1,0.8,0.6,0.6,1.1,2.6
			c0.1,0.1,0.5,0.2,0.8,1.8c0.3,1.4-0.1,2.4,0.7,2.3c0.2,0,0.4-0.1,0.6-0.5c0.3-1-0.1-2.3-0.6-3.1c-0.3-0.5-0.5-0.8-0.6-0.9
			c0.5,0.3,1.2,1.3,1.3,2c0.2,0.9,0.3,1.3,0,2.3c0.2,0.1,0.6,0.3,0.6,0.5c-0.5-0.4-1.8-0.4-1.9,0.4c-0.2,0-0.4,0-0.6,0.2
			c-0.6,0.7,0,2-0.1,2.7c0,0.6-0.2,1.2-0.3,1.9c-0.3,0-0.3-0.3-0.2-0.6c0.1-0.3,0.2-0.7,0.3-1c0-0.3,0-0.5-0.1-0.6
			c-0.1-0.1-0.2,0.1-0.4,0.3c-0.4,0.6-1.2,0.9-2,1c-0.8,0.1-1.5,0-1.9-0.4c-0.1-0.1-0.3,0-0.4,0.1c0,0.1,0.1,0.2,0.2,0.4
			c0.2,0.3,0.3,0.8-0.1,1C79.5,19.2,79.1,19.1,78.8,18.4L78.8,18.4z M78.5,18.4c0.3,0.4,1.2,2.3-0.5,2.5c-0.6,0.1-1.5-0.3-2.4-0.5
			c-0.8-0.2-1.6-0.3-2.1-0.4c-0.3-0.1-0.4-0.2-0.4-0.3c-0.1-0.3,0.3-0.7,0.4-1.1c0-0.4-0.1-0.5-0.3-0.8c-0.1-0.3-0.2-0.5-0.1-0.6
			c0.1-0.1,0.2-0.1,0.5-0.1c0.3,0,0.7,0,0.9-0.2c0.4-0.2,0.5-0.7,0.4-1.2c0,0.5-0.2,0.7-0.6,1c-0.4,0.2-1,0-1.3,0.3
			c-0.3,0.3,0.1,1.1,0.1,1.6c0,0.4-0.5,0.9-0.3,1.4c0.2,0.4,1.1,0.5,2.1,0.7c1.4,0.3,2.2,0.8,2.9,0.8c0.9,0,1.1-0.9,2.6-0.9
			c0.4,0,0.9,0,1.3,0c0.5,0,1,0,1.4,0c1,0,0.6,0.5,1.3,0.9c0.5,0.3,1.5,0.2,1.7-0.1c0.3-0.3,1.2-1,1.8-1.3c0.8-0.4,2.7-1.1,1.3-2
			c-0.3-0.2-1.1-0.4-1.1-1.9c-0.3,0.3-0.3,1.6,0.5,1.9c0.9,0.3,1.5,0.8-0.2,1.4c-1.1,0.4-1.3,0.5-2.2,1.2c-0.9,0.7-2.2,0.4-2-1.1
			c0.1-0.8,0.2-1.5,0-2.2c-0.1-0.3-0.1-0.8-0.1-1.1c0.1-0.6,0.5-0.8,0.8-0.2c0.2,0.4,0.3,0.8,1,0.8c1.1,0.1,1.3-1.1,1.7-1.1
			c0.2,0,0.5-0.7,0.3-1.8c-0.2-1.2-0.9-3-1.8-4c-0.7-0.8-1.2-1.5-1.5-2.4c-0.2-0.8-0.4-1.6-0.3-2.4c0.1-1-0.5-2.4-1.4-3
			c-0.5-0.4-1.4-0.6-2.2-0.6c-0.4,0-0.8,0.1-1.2,0.2c-1.3,0.7-1.5,1.7-1.5,2.8c0,1.1,0.1,2.3,0.2,3.5c-0.1,0.5-0.9,1.6-1.4,2.2
			c-0.6,0.6-1,1.9-1.4,3c-0.2,0.6-0.6,0.8-0.6,1.6c0,0.2,0,0.7,0.2,0.6C76.1,14.7,77.1,16.1,78.5,18.4L78.5,18.4z M82.4,2.9
			c0,0.1-0.2,0.2-0.1,0.3c0.1,0.1,0.2-0.1,0.4-0.2c0.1,0,0.3,0,0.4-0.1c0-0.1-0.1-0.1-0.2-0.2c-0.1-0.1-0.2-0.2-0.3-0.2
			C82.4,2.5,82.5,2.8,82.4,2.9L82.4,2.9z M83.8,7.3c0.1-0.1,0.1,0.1,0.3,0.3c0.2,0.1,0.3,0,0.4,0.2c0,0.2-0.1,0.3-0.2,0.3
			C84,8.1,83.5,7.6,83.8,7.3L83.8,7.3z M80.2,6c-0.4,0-0.4,0.2-0.3,0.2C80.1,6.2,80,6,80.2,6L80.2,6z M79.6,5.3c0,0,0.1,0.1,0.1,0.2
			c0,0.1,0,0.2,0.1,0.2c0,0,0,0,0,0c0-0.3-0.1-0.5-0.2-0.5C79.5,5.1,79.5,5.3,79.6,5.3L79.6,5.3z M82.2,5.2c0.1,0,0.2,0.2,0.2,0.4
			c0,0,0.1,0,0.1-0.1c0-0.3-0.2-0.4-0.3-0.4C82.1,5.1,82.1,5.2,82.2,5.2L82.2,5.2z M80.8,6c0.3-0.1,0.4,0.1,0.3,0.1
			C81.1,6.2,81.1,6,80.8,6L80.8,6z M77,11.5c-0.2,0,0-0.1,0.1-0.3c0.1-0.2,0.1-0.4,0.2-0.3c0.1,0,0,0.1,0,0.3
			C77.2,11.4,77,11.5,77,11.5L77,11.5z"/>
	</g>
</g>
</svg>
