<?xml version="1.0" encoding="utf-8"?>
<!-- Generator: Adobe Illustrator 18.1.0, SVG Export Plug-In . SVG Version: 6.00 Build 0)  -->
<!DOCTYPE svg PUBLIC "-//W3C//DTD SVG 1.1//EN" "http://www.w3.org/Graphics/SVG/1.1/DTD/svg11.dtd">
<svg version="1.1" id="Content" xmlns="http://www.w3.org/2000/svg" xmlns:xlink="http://www.w3.org/1999/xlink" x="0px" y="0px"
	 viewBox="0 0 124 124" enable-background="new 0 0 124 124" xml:space="preserve">
<g>
	<g>
		<circle fill="#0F9DBE" cx="62" cy="62" r="62"/>
	</g>
	<g>
		<path fill="#0B9DB5" d="M119.2,38.3c13,31.7-2,67.9-33.7,80.9s-67.9-2-80.9-33.7"/>
	</g>
	<g opacity="0.9">
		<g>
			<path fill="#FFFFFF" d="M62,97.8c-1,0-2-0.3-2.7-0.8L31.2,76.1c-1.5-1.1-2.2-3.4-1.7-5.1l10.8-33.5c0.6-1.8,2.5-3.2,4.4-3.2h34.8
				c1.9,0,3.8,1.4,4.4,3.2l10.8,33.6c0.6,1.8-0.2,4-1.7,5.2L64.7,96.9C64,97.5,63,97.8,62,97.8z M44.6,36.3c-0.9,0-2,0.9-2.3,1.8
				L31.5,71.6c-0.3,0.9,0.1,2.2,0.9,2.8l28.2,20.8c0.4,0.3,0.9,0.4,1.4,0.4s1.1-0.2,1.4-0.4l28.2-20.7c0.8-0.6,1.2-1.9,0.9-2.8
				L81.7,38.1c-0.3-0.9-1.4-1.8-2.3-1.8H44.6z"/>
		</g>
	</g>
	<g opacity="0.7">
		<g>
			<path fill="#FFFFFF" d="M83.9,101.3H40.1c-2.8,0-5.5-2.3-6.4-4.9L20.2,53.9c-0.8-2.6,0.2-5.9,2.4-7.6L58,20.3
				c1.1-0.8,2.5-1.3,4-1.3c1.5,0,2.9,0.4,4,1.2l35.4,26.2c2.2,1.6,3.3,4.9,2.4,7.5L90.3,96.3C89.4,99,86.7,101.3,83.9,101.3z
				 M40.2,94.3h43.7c0.1,0,0.3-0.1,0.4-0.2L97.7,52c0-0.1-0.1-0.3-0.1-0.4L62.2,25.4c0,0-0.1,0-0.2,0c-0.1,0-0.2,0-0.2,0l-35.4,26
				c-0.1,0.1-0.2,0.3-0.1,0.5L39.8,94C39.9,94.1,40,94.3,40.2,94.3z"/>
		</g>
	</g>
	<g opacity="0.21">
		<g>
			<path fill="#FFFFFF" d="M62,0.9c8.3,0,16.3,1.6,23.8,4.8c7.3,3.1,13.8,7.5,19.4,13.1s10,12.2,13.1,19.4
				c3.2,7.5,4.8,15.5,4.8,23.8s-1.6,16.3-4.8,23.8c-3.1,7.3-7.5,13.8-13.1,19.4c-5.6,5.6-12.2,10-19.4,13.1
				c-7.5,3.2-15.5,4.8-23.8,4.8s-16.3-1.6-23.8-4.8c-7.3-3.1-13.8-7.5-19.4-13.1c-5.6-5.6-10-12.2-13.1-19.4
				C2.5,78.3,0.9,70.3,0.9,62s1.6-16.3,4.8-23.8c3.1-7.3,7.5-13.8,13.1-19.4s12.2-10,19.4-13.1C45.7,2.5,53.7,0.9,62,0.9 M62,0
				C27.8,0,0,27.8,0,62s27.8,62,62,62s62-27.8,62-62S96.2,0,62,0L62,0z"/>
		</g>
	</g>
</g>
</svg>
