<?xml version="1.0" encoding="utf-8"?>
<!-- Generator: Adobe Illustrator 18.1.0, SVG Export Plug-In . SVG Version: 6.00 Build 0)  -->
<!DOCTYPE svg PUBLIC "-//W3C//DTD SVG 1.1//EN" "http://www.w3.org/Graphics/SVG/1.1/DTD/svg11.dtd">
<svg version="1.1" id="Content" xmlns="http://www.w3.org/2000/svg" xmlns:xlink="http://www.w3.org/1999/xlink" x="0px" y="0px"
	 viewBox="0 0 124 124" enable-background="new 0 0 124 124" xml:space="preserve">
<g>
	<circle fill="#0F9DBE" cx="62" cy="62" r="62"/>
	<path fill="#0B9DB5" d="M119.2,38.3c13,31.7-2,67.9-33.7,80.9s-67.9-2-80.9-33.7"/>
	<g>
		<g>
			<g>
				<path fill="#FFFFFF" d="M18.1,43c-1,0-1.9,0.8-1.9,1.9v12.8c0,1,0.8,1.9,1.9,1.9h87.8c1,0,1.9-0.8,1.9-1.9V44.9
					c0-1-0.8-1.9-1.9-1.9H18.1z"/>
				<ellipse fill="#0F9DBE" cx="18.8" cy="57.9" rx="1.5" ry="0.9"/>
				<ellipse fill="#0F9DBE" cx="18.8" cy="44.7" rx="1.5" ry="0.9"/>
				<ellipse fill="#0F9DBE" cx="105.2" cy="57.9" rx="1.5" ry="0.9"/>
				<ellipse fill="#0F9DBE" cx="105.2" cy="44.7" rx="1.5" ry="0.9"/>
			</g>
			<path fill="#0F9DBE" d="M23.5,57.1L23.5,57.1c-0.3,0-0.6-0.3-0.6-0.6V46c0-0.3,0.3-0.6,0.6-0.6l0,0c0.3,0,0.6,0.3,0.6,0.6v10.5
				C24.1,56.9,23.8,57.1,23.5,57.1z"/>
			<path fill="#0F9DBE" d="M27.2,57.1L27.2,57.1c-0.3,0-0.6-0.3-0.6-0.6V46c0-0.3,0.3-0.6,0.6-0.6l0,0c0.3,0,0.6,0.3,0.6,0.6v10.5
				C27.8,56.9,27.6,57.1,27.2,57.1z"/>
			<path fill="#0F9DBE" d="M31,57.1L31,57.1c-0.3,0-0.6-0.3-0.6-0.6V46c0-0.3,0.3-0.6,0.6-0.6h0c0.3,0,0.6,0.3,0.6,0.6v10.5
				C31.5,56.9,31.3,57.1,31,57.1z"/>
			<path fill="#0F9DBE" d="M34.7,57.1L34.7,57.1c-0.3,0-0.6-0.3-0.6-0.6V46c0-0.3,0.3-0.6,0.6-0.6l0,0c0.3,0,0.6,0.3,0.6,0.6v10.5
				C35.3,56.9,35,57.1,34.7,57.1z"/>
			<path fill="#0F9DBE" d="M38.4,57.1L38.4,57.1c-0.3,0-0.6-0.3-0.6-0.6V46c0-0.3,0.3-0.6,0.6-0.6h0c0.3,0,0.6,0.3,0.6,0.6v10.5
				C39,56.9,38.8,57.1,38.4,57.1z"/>
			<path fill="#0F9DBE" d="M42.2,57.1L42.2,57.1c-0.3,0-0.6-0.3-0.6-0.6V46c0-0.3,0.3-0.6,0.6-0.6h0c0.3,0,0.6,0.3,0.6,0.6v10.5
				C42.7,56.9,42.5,57.1,42.2,57.1z"/>
			<path fill="#0F9DBE" d="M45.9,57.1L45.9,57.1c-0.3,0-0.6-0.3-0.6-0.6V46c0-0.3,0.3-0.6,0.6-0.6h0c0.3,0,0.6,0.3,0.6,0.6v10.5
				C46.5,56.9,46.2,57.1,45.9,57.1z"/>
			<path fill="#0F9DBE" d="M49.6,57.1L49.6,57.1c-0.3,0-0.6-0.3-0.6-0.6V46c0-0.3,0.3-0.6,0.6-0.6l0,0c0.3,0,0.6,0.3,0.6,0.6v10.5
				C50.2,56.9,50,57.1,49.6,57.1z"/>
			<path fill="#0F9DBE" d="M53.4,57.1L53.4,57.1c-0.3,0-0.6-0.3-0.6-0.6V46c0-0.3,0.3-0.6,0.6-0.6l0,0c0.3,0,0.6,0.3,0.6,0.6v10.5
				C53.9,56.9,53.7,57.1,53.4,57.1z"/>
			<path fill="#0F9DBE" d="M57.1,57.1L57.1,57.1c-0.3,0-0.6-0.3-0.6-0.6V46c0-0.3,0.3-0.6,0.6-0.6l0,0c0.3,0,0.6,0.3,0.6,0.6v10.5
				C57.7,56.9,57.4,57.1,57.1,57.1z"/>
			<g>
				<path fill="#0F9DBE" d="M98.6,47c-1.1-1.1-2.7-1.8-4.3-1.8c-1.6,0-3.1,0.6-4.3,1.8c-1.1,1.1-1.8,2.7-1.8,4.3
					c0,1.6,0.6,3.1,1.8,4.3c1.1,1.1,2.7,1.8,4.3,1.8c1.6,0,3.1-0.6,4.3-1.8c1.1-1.1,1.8-2.7,1.8-4.3C100.4,49.7,99.7,48.2,98.6,47z
					 M99.5,51.3c0,1.4-0.5,2.7-1.5,3.7c-1,1-2.3,1.5-3.7,1.5c-1.4,0-2.7-0.5-3.7-1.5c-1-1-1.5-2.3-1.5-3.7c0-1.4,0.5-2.7,1.5-3.7
					c1-1,2.3-1.5,3.7-1.5c1.4,0,2.7,0.5,3.7,1.5C98.9,48.6,99.5,49.9,99.5,51.3z"/>
				<path fill="#0F9DBE" d="M95.5,53.7v-4c1,0,0.5-0.1,0.6-0.1c0.2-0.2,0.4-0.4,0.4-0.6c0-0.2,0-0.4-0.1-0.6
					c-0.2-0.2-0.3-0.2-0.5-0.2c-0.2,0-0.4,0.1-0.5,0.2c-0.3,0.3-0.3,0.8,0,1.1c0,0,0.1,0,0.1,0c0,0,0.1,0.1,0.1,0.1v1.6l-3-1.1v-1.4
					c1,0,0.4-0.1,0.5-0.1c0.2-0.2,0.4-0.4,0.4-0.6c0-0.2,0-0.4-0.2-0.6c-0.2-0.2-0.3-0.2-0.5-0.2c-0.2,0-0.4,0.1-0.5,0.2
					c-0.3,0.3-0.3,0.8,0,1.1c0,0,0.2,0,0.2,0c0,0,0.2,0.1,0.2,0.1v4c0,0-0.2,0.1-0.2,0.1c0,0-0.1,0-0.1,0c-0.1,0.1-0.2,0.3-0.2,0.6
					c0,0.2,0.1,0.4,0.2,0.6c0.1,0.1,0.3,0.2,0.6,0.2c0.2,0,0.4-0.1,0.6-0.2c0.2-0.2,0.2-0.4,0.2-0.6c0-0.2-0.3-0.4-0.5-0.6
					c-0.1-0.1,0.5-0.1-0.5-0.1v-1.8l3,1.1V53.7c0,0-0.1,0.1-0.1,0.1c0,0,0,0-0.1,0c-0.3,0.3-0.3,0.8,0,1.1c0.1,0.1,0.4,0.2,0.6,0.2
					c0.2,0,0.4-0.1,0.6-0.2c0.2-0.2,0.2-0.4,0.2-0.6c0-0.2-0.4-0.4-0.6-0.6C96,53.8,96.5,53.7,95.5,53.7z"/>
			</g>
		</g>
		<g>
			<g>
				<path fill="#FFFFFF" d="M18.1,64.4c-1,0-1.9,0.8-1.9,1.9v12.8c0,1,0.8,1.9,1.9,1.9h87.8c1,0,1.9-0.8,1.9-1.9V66.3
					c0-1-0.8-1.9-1.9-1.9H18.1z"/>
				<ellipse fill="#0F9DBE" cx="18.8" cy="79.3" rx="1.5" ry="0.9"/>
				<ellipse fill="#0F9DBE" cx="18.8" cy="66.1" rx="1.5" ry="0.9"/>
				<ellipse fill="#0F9DBE" cx="105.2" cy="79.3" rx="1.5" ry="0.9"/>
				<ellipse fill="#0F9DBE" cx="105.2" cy="66.1" rx="1.5" ry="0.9"/>
			</g>
			<path fill="#0F9DBE" d="M23.5,78.5L23.5,78.5c-0.3,0-0.6-0.3-0.6-0.6V67.4c0-0.3,0.3-0.6,0.6-0.6l0,0c0.3,0,0.6,0.3,0.6,0.6V78
				C24.1,78.3,23.8,78.5,23.5,78.5z"/>
			<path fill="#0F9DBE" d="M27.2,78.5L27.2,78.5c-0.3,0-0.6-0.3-0.6-0.6V67.4c0-0.3,0.3-0.6,0.6-0.6l0,0c0.3,0,0.6,0.3,0.6,0.6V78
				C27.8,78.3,27.6,78.5,27.2,78.5z"/>
			<path fill="#0F9DBE" d="M31,78.5L31,78.5c-0.3,0-0.6-0.3-0.6-0.6V67.4c0-0.3,0.3-0.6,0.6-0.6h0c0.3,0,0.6,0.3,0.6,0.6V78
				C31.5,78.3,31.3,78.5,31,78.5z"/>
			<path fill="#0F9DBE" d="M34.7,78.5L34.7,78.5c-0.3,0-0.6-0.3-0.6-0.6V67.4c0-0.3,0.3-0.6,0.6-0.6l0,0c0.3,0,0.6,0.3,0.6,0.6V78
				C35.3,78.3,35,78.5,34.7,78.5z"/>
			<path fill="#0F9DBE" d="M38.4,78.5L38.4,78.5c-0.3,0-0.6-0.3-0.6-0.6V67.4c0-0.3,0.3-0.6,0.6-0.6h0c0.3,0,0.6,0.3,0.6,0.6V78
				C39,78.3,38.8,78.5,38.4,78.5z"/>
			<path fill="#0F9DBE" d="M42.2,78.5L42.2,78.5c-0.3,0-0.6-0.3-0.6-0.6V67.4c0-0.3,0.3-0.6,0.6-0.6h0c0.3,0,0.6,0.3,0.6,0.6V78
				C42.7,78.3,42.5,78.5,42.2,78.5z"/>
			<path fill="#0F9DBE" d="M45.9,78.5L45.9,78.5c-0.3,0-0.6-0.3-0.6-0.6V67.4c0-0.3,0.3-0.6,0.6-0.6h0c0.3,0,0.6,0.3,0.6,0.6V78
				C46.5,78.3,46.2,78.5,45.9,78.5z"/>
			<path fill="#0F9DBE" d="M49.6,78.5L49.6,78.5c-0.3,0-0.6-0.3-0.6-0.6V67.4c0-0.3,0.3-0.6,0.6-0.6l0,0c0.3,0,0.6,0.3,0.6,0.6V78
				C50.2,78.3,50,78.5,49.6,78.5z"/>
			<path fill="#0F9DBE" d="M53.4,78.5L53.4,78.5c-0.3,0-0.6-0.3-0.6-0.6V67.4c0-0.3,0.3-0.6,0.6-0.6l0,0c0.3,0,0.6,0.3,0.6,0.6V78
				C53.9,78.3,53.7,78.5,53.4,78.5z"/>
			<path fill="#0F9DBE" d="M57.1,78.5L57.1,78.5c-0.3,0-0.6-0.3-0.6-0.6V67.4c0-0.3,0.3-0.6,0.6-0.6l0,0c0.3,0,0.6,0.3,0.6,0.6V78
				C57.7,78.3,57.4,78.5,57.1,78.5z"/>
			<g>
				<path fill="#0F9DBE" d="M98.6,68.4c-1.1-1.1-2.7-1.8-4.3-1.8c-1.6,0-3.1,0.6-4.3,1.8c-1.1,1.1-1.8,2.7-1.8,4.3
					c0,1.6,0.6,3.1,1.8,4.3c1.1,1.1,2.7,1.8,4.3,1.8c1.6,0,3.1-0.6,4.3-1.8c1.1-1.1,1.8-2.7,1.8-4.3C100.4,71.1,99.7,69.6,98.6,68.4
					z M99.5,72.7c0,1.4-0.5,2.7-1.5,3.7c-1,1-2.3,1.5-3.7,1.5c-1.4,0-2.7-0.5-3.7-1.5c-1-1-1.5-2.3-1.5-3.7c0-1.4,0.5-2.7,1.5-3.7
					c1-1,2.3-1.5,3.7-1.5c1.4,0,2.7,0.5,3.7,1.5C98.9,70,99.5,71.3,99.5,72.7z"/>
				<path fill="#0F9DBE" d="M95.5,75.1v-4c1,0,0.5-0.1,0.6-0.1c0.2-0.2,0.4-0.4,0.4-0.6c0-0.2,0-0.4-0.1-0.6
					c-0.2-0.2-0.3-0.2-0.5-0.2c-0.2,0-0.4,0.1-0.5,0.2c-0.3,0.3-0.3,0.8,0,1.1c0,0,0.1,0,0.1,0c0,0,0.1,0.1,0.1,0.1v1.6l-3-1.1v-1.4
					c1,0,0.4-0.1,0.5-0.1c0.2-0.2,0.4-0.4,0.4-0.6c0-0.2,0-0.4-0.2-0.6c-0.2-0.2-0.3-0.2-0.5-0.2c-0.2,0-0.4,0.1-0.5,0.2
					c-0.3,0.3-0.3,0.8,0,1.1c0,0,0.2,0,0.2,0c0,0,0.2,0.1,0.2,0.1v4c0,0-0.2,0.1-0.2,0.1c0,0-0.1,0-0.1,0c-0.1,0.1-0.2,0.3-0.2,0.6
					c0,0.2,0.1,0.4,0.2,0.6c0.1,0.1,0.3,0.2,0.6,0.2c0.2,0,0.4-0.1,0.6-0.2c0.2-0.2,0.2-0.4,0.2-0.6c0-0.2-0.3-0.4-0.5-0.6
					c-0.1-0.1,0.5-0.1-0.5-0.1v-1.8l3,1.1V75.1c0,0-0.1,0.1-0.1,0.1c0,0,0,0-0.1,0c-0.3,0.3-0.3,0.8,0,1.1c0.1,0.1,0.4,0.2,0.6,0.2
					c0.2,0,0.4-0.1,0.6-0.2c0.2-0.2,0.2-0.4,0.2-0.6c0-0.2-0.4-0.4-0.6-0.6C96,75.2,96.5,75.2,95.5,75.1z"/>
			</g>
		</g>
	</g>
</g>
</svg>
