<?xml version="1.0" encoding="utf-8"?>
<!-- Generator: Adobe Illustrator 18.0.0, SVG Export Plug-In . SVG Version: 6.00 Build 0)  -->
<!DOCTYPE svg PUBLIC "-//W3C//DTD SVG 1.1//EN" "http://www.w3.org/Graphics/SVG/1.1/DTD/svg11.dtd">
<svg version="1.1" id="Layer_1" xmlns="http://www.w3.org/2000/svg" xmlns:xlink="http://www.w3.org/1999/xlink" x="0px" y="0px"
	 viewBox="0 0 728.1 109.2" enable-background="new 0 0 728.1 109.2" xml:space="preserve">
<polyline fill="none" stroke="#D8D8D8" stroke-width="3" stroke-miterlimit="10" points="34.8,91.9 34.8,107.4 623.8,107.4 
	623.8,91.9 "/>
<g id="Your_Icon">
	<g>
		<path fill="#3398CB" d="M594.6,88.9c-0.2,0-0.3,0-0.5-0.1c-0.7-0.3-0.9-1.1-0.7-1.7c3.7-8.3,8-15.3,11.8-21.4
			c4.6-7.5,8.3-13.4,8.4-17.9c0.1-2.7-1.1-5.6-2.5-9.3c-2.8-7.3-6.7-17.2-5.9-34.7c0-0.7,0.6-1.3,1.3-1.2c0.7,0,1.3,0.6,1.2,1.3
			c-0.8,17,3,26.6,5.7,33.6c1.6,4,2.8,7.1,2.7,10.3c-0.1,5.2-3.9,11.4-8.8,19.3c-3.8,6.1-8,13-11.7,21.1
			C595.6,88.6,595.1,88.9,594.6,88.9z"/>
	</g>
	<path fill="#3398CB" d="M662.8,55.6c-0.2-1.2-1.8-9.8-9.3-14.4c-2.6-1.6-5.2-3-7.7-4.2c-6.2-3.2-12.3-6.3-12.3-12.3
		c0-0.6-0.4-1.2-1.1-1.3c-0.6-0.1-1.2,0.2-1.4,0.8c-0.6,1.5-0.8,2.8-0.8,4.3c-2.7-3-3.8-4.4-5.8-9.7c-0.2-0.6-0.9-1-1.5-0.8
		c-0.6,0.2-1.1,0.8-1,1.4c0.9,6.6,2.3,14.8,9.7,19.6c-0.6,0.7-1.1,1.6-1.6,2.5c-1.5,3.1-2.6,7.3-2.7,11.6c0,3,0.5,6.1,1.4,8.8
		c0.6,1.8,1.3,3.5,2.2,4.8c-3.5,1.5-5.9,3.6-8,8c-0.3,0.6,0,1.4,0.6,1.7c0.2,0.1,0.4,0.1,0.5,0.1c0.4,0,0.8-0.2,1.1-0.5
		c0.1-0.1,0.2-0.2,0.2-0.3c3.1-6.1,7.2-7,17-9.1l0.5-0.1c12-2.6,18.1-5.7,19.9-10.2C662.8,56.1,662.9,55.9,662.8,55.6z M631.7,51.9
		c-2.8-0.7-0.4-8.5,1.4-8.3C635.3,43.9,634,52.4,631.7,51.9z M641.1,64c-0.6,0.1-1.2,0.3-1.8,0.4c1.1-3,1.7-6.9,1.8-11.2
		c0.1-4.2-0.5-8-1.4-11c7.2,2.6,15.9,6.5,19.3,13.6C657.3,59.2,651.4,61.8,641.1,64z"/>
</g>
<g id="Your_Icon_4_">
	<g>
		<path fill="#3398CB" d="M64.3,88.1c0.2,0,0.3,0,0.5-0.1c0.7-0.2,1.1-0.9,0.9-1.6c-2.7-8.8-6.2-16.3-9.2-22.9
			c-3.7-8.1-6.7-14.5-6.2-19c0.3-2.7,1.8-5.5,3.7-9c3.7-6.9,8.8-16.4,10.2-34C64.2,0.7,63.7,0,62.9,0c-0.7-0.1-1.3,0.5-1.4,1.2
			c-1.3,17.1-6.3,26.3-9.9,33c-2,3.8-3.7,6.8-4,10c-0.5,5.3,2.5,11.9,6.4,20.4c3,6.6,6.4,14,9.1,22.6C63.4,87.7,63.8,88,64.3,88.1z"
			/>
	</g>
	<path fill="#3398CB" d="M0,47.2c1.2,4.7,4.6,6.8,16.3,10.9l0.4,0.2c9.6,3.3,15.3,4.6,17.7,11.1c0,0.1,0.1,0.2,0.2,0.3
		c0.2,0.4,0.1,0.6,0.5,0.7c0.2,0,0.4,0,0.6-0.1c0.7-0.2,1-1,0.8-1.7c-1.6-4.6-2.5-5.3-5.9-7.2c1-1.2,1.9-2.8,2.7-4.5
		c1.2-2.6,2.1-5.6,2.5-8.6c0.5-4.3-0.1-8.7-1.3-12c-0.4-1-0.8-2-1.3-2.7c8-3.8,9.9-11,11.7-17.5c0.2-0.6,1.9-4.8,1.3-5.1
		c-0.6-0.2-1.3,0-1.6,0.6c-2.6,5.1-5.4,9-8.5,11.6c0.1-1.5,0-3.1-0.4-4.7c-0.2-0.6-0.7-1-1.3-1c-0.6,0-1.1,0.5-1.2,1.1
		c-0.7,6-7.1,8.7-13.7,11.1c-2.6,0.9-5.4,1.9-8.2,3.2C3.1,36.8,0.4,45.3,0.1,46.4C0,46.6,0,46.9,0,47.2z M32,37.1
		c1.9-0.1,3.3,8.1,0.4,8.5C30.8,43.5,29.7,37.2,32,37.1z M3.9,47.1c4.2-6.7,13.4-9.5,21-11.3c-1.3,2.9-2.3,6.6-2.8,10.9
		c-0.5,4.3-0.3,8.3,0.4,11.4c-0.6-0.2-1.1-0.4-1.7-0.6C10.7,54,5.2,50.6,3.9,47.1z"/>
</g>
<g>
	<path fill="#CCCCCC" d="M637.4,108.9v-9.7l-2.2,2.3l-1.6-1.7l4.2-4.2h2.5v13.3H637.4z"/>
	<path fill="#CCCCCC" d="M642.2,102.3c0-3.4,1.7-6.9,5.5-6.9s5.5,3.4,5.5,6.9c0,3.4-1.7,6.9-5.5,6.9S642.2,105.7,642.2,102.3z
		 M650.4,102.3c0-2.5-0.7-4.4-2.6-4.4c-1.9,0-2.6,1.9-2.6,4.4c0,2.5,0.7,4.4,2.6,4.4S650.4,104.7,650.4,102.3z"/>
	<path fill="#CCCCCC" d="M654.6,102.3c0-3.4,1.7-6.9,5.5-6.9c3.8,0,5.5,3.4,5.5,6.9c0,3.4-1.7,6.9-5.5,6.9
		C656.3,109.2,654.6,105.7,654.6,102.3z M662.8,102.3c0-2.5-0.7-4.4-2.6-4.4c-1.9,0-2.6,1.9-2.6,4.4c0,2.5,0.7,4.4,2.6,4.4
		S662.8,104.7,662.8,102.3z"/>
	<path fill="#CCCCCC" d="M684.4,108.9v-9.6l-3.8,9.6h-1.2l-3.8-9.6v9.6h-2.8V95.6h4l3.2,8.3l3.2-8.3h4v13.3H684.4z"/>
	<path fill="#CCCCCC" d="M689,107.7l1.1-1.8c0.7,0.7,2.1,1.3,3.3,1.3c1.1,0,1.6-0.4,1.6-1c0-1.6-5.7-0.3-5.7-4.1c0-1.6,1.4-3,4-3
		c1.6,0,2.9,0.6,3.9,1.3l-1,1.8c-0.6-0.6-1.7-1.1-2.9-1.1c-0.9,0-1.5,0.4-1.5,0.9c0,1.4,5.7,0.2,5.7,4.1c0,1.8-1.5,3.1-4.2,3.1
		C691.7,109.2,690,108.6,689,107.7z"/>
	<path fill="#CCCCCC" d="M698.8,104.1c0-2.8,2.1-5.1,5-5.1c2.9,0,4.8,2.2,4.8,5.3v0.6h-7.2c0.2,1.2,1.1,2.2,2.8,2.2
		c0.8,0,1.9-0.3,2.6-0.9l1.1,1.7c-1,0.9-2.5,1.3-4,1.3C701,109.2,698.8,107.2,698.8,104.1z M703.8,101.1c-1.6,0-2.3,1.1-2.4,2.1h4.8
		C706.1,102.2,705.5,101.1,703.8,101.1z"/>
	<path fill="#CCCCCC" d="M709.8,104.1c0-3,2.2-5.1,5.1-5.1c2,0,3.2,0.9,3.8,1.7l-1.7,1.6c-0.5-0.7-1.2-1-2-1c-1.5,0-2.6,1.1-2.6,2.8
		c0,1.7,1.1,2.8,2.6,2.8c0.9,0,1.6-0.4,2-1.1l1.7,1.6c-0.6,0.9-1.8,1.8-3.8,1.8C712,109.2,709.8,107.1,709.8,104.1z"/>
	<path fill="#CCCCCC" d="M719.6,107.7l1.1-1.8c0.7,0.7,2.1,1.3,3.3,1.3c1.1,0,1.6-0.4,1.6-1c0-1.6-5.7-0.3-5.7-4.1c0-1.6,1.4-3,4-3
		c1.6,0,2.9,0.6,3.9,1.3l-1,1.8c-0.6-0.6-1.7-1.1-2.9-1.1c-0.9,0-1.5,0.4-1.5,0.9c0,1.4,5.7,0.2,5.7,4.1c0,1.8-1.5,3.1-4.2,3.1
		C722.2,109.2,720.6,108.6,719.6,107.7z"/>
</g>
</svg>
