<?xml version="1.0" encoding="utf-8"?>
<!-- Generator: Adobe Illustrator 18.0.0, SVG Export Plug-In . SVG Version: 6.00 Build 0)  -->
<!DOCTYPE svg PUBLIC "-//W3C//DTD SVG 1.1//EN" "http://www.w3.org/Graphics/SVG/1.1/DTD/svg11.dtd">
<svg version="1.1" id="Layer_1" xmlns="http://www.w3.org/2000/svg" xmlns:xlink="http://www.w3.org/1999/xlink" x="0px" y="0px"
	 viewBox="0 0 17.3 22.5" enable-background="new 0 0 17.3 22.5" xml:space="preserve">
<g>
	<g>
		<path fill="#3398CB" d="M8.7,21.4H8.6c-0.1,0-0.1,0-0.1,0.1v0.1c0,0.1,0,0.1,0.1,0.1h0.1c0.1,0,0.1,0,0.1-0.1L8.7,21.4
			C8.8,21.4,8.8,21.4,8.7,21.4z"/>
		<path fill="#3398CB" d="M16.6,0H0.7C0.3,0,0,0.3,0,0.7v21.1c0,0.4,0.3,0.7,0.7,0.7h15.9c0.4,0,0.7-0.3,0.7-0.7V0.7
			C17.3,0.3,17,0,16.6,0z M8.7,0.9c0.1,0,0.1,0.1,0.1,0.1c0,0.1-0.1,0.1-0.1,0.1c-0.1,0-0.1-0.1-0.1-0.1C8.5,1,8.6,0.9,8.7,0.9z
			 M8.9,21.6c0,0.1-0.1,0.1-0.1,0.1H8.6c-0.1,0-0.1-0.1-0.1-0.1v-0.1c0-0.1,0.1-0.1,0.1-0.1h0.2c0.1,0,0.1,0.1,0.1,0.1V21.6z
			 M15.6,20.5H1.8V2h13.8V20.5z"/>
	</g>
</g>
</svg>
