<?xml version="1.0" encoding="utf-8"?>
<!-- Generator: Adobe Illustrator 18.0.0, SVG Export Plug-In . SVG Version: 6.00 Build 0)  -->
<!DOCTYPE svg PUBLIC "-//W3C//DTD SVG 1.1//EN" "http://www.w3.org/Graphics/SVG/1.1/DTD/svg11.dtd">
<svg version="1.1" id="Layer_1" xmlns="http://www.w3.org/2000/svg" xmlns:xlink="http://www.w3.org/1999/xlink" x="0px" y="0px"
	 viewBox="0 0 57.6 16.9" enable-background="new 0 0 57.6 16.9" xml:space="preserve">
<g>
	<g>
		<path fill="#3398CB" d="M42.7,10.3c0.1,0,0.2-0.7,0.2-1.6s-0.1-1.6-0.2-1.6c-0.1,0-0.2,0.7-0.2,1.6C42.5,9.6,42.6,10.3,42.7,10.3z
			"/>
		<path fill="#3398CB" d="M50.6,10.3c0.1,0,0.2-0.7,0.2-1.6s-0.1-1.6-0.2-1.6c-0.1,0-0.2,0.7-0.2,1.6C50.3,9.6,50.4,10.3,50.6,10.3z
			"/>
		<path fill="#3398CB" d="M46.7,10.3c0.1,0,0.2-0.7,0.2-1.6s-0.1-1.6-0.2-1.6c-0.1,0-0.2,0.7-0.2,1.6C46.4,9.6,46.5,10.3,46.7,10.3z
			"/>
		<path fill="#3398CB" d="M44.7,10.3c0.1,0,0.2-0.7,0.2-1.6s-0.1-1.6-0.2-1.6c-0.1,0-0.2,0.7-0.2,1.6C44.5,9.6,44.6,10.3,44.7,10.3z
			"/>
		<path fill="#3398CB" d="M52.5,10.3c0.1,0,0.2-0.7,0.2-1.6s-0.1-1.6-0.2-1.6c-0.1,0-0.2,0.7-0.2,1.6C52.3,9.6,52.4,10.3,52.5,10.3z
			"/>
		<path fill="#3398CB" d="M48.6,10.3c0.1,0,0.2-0.7,0.2-1.6s-0.1-1.6-0.2-1.6c-0.1,0-0.2,0.7-0.2,1.6C48.4,9.6,48.5,10.3,48.6,10.3z
			"/>
		<path fill="#3398CB" d="M9.5,16c0.1,0,0.2-0.7,0.2-1.6c0-0.9-0.1-1.6-0.2-1.6c-0.1,0-0.2,0.7-0.2,1.6C9.3,15.3,9.4,16,9.5,16z"/>
		<path fill="#3398CB" d="M11.5,16c0.1,0,0.2-0.7,0.2-1.6c0-0.9-0.1-1.6-0.2-1.6c-0.1,0-0.2,0.7-0.2,1.6C11.2,15.3,11.3,16,11.5,16z
			"/>
		<path fill="#3398CB" d="M7.5,16c0.1,0,0.2-0.7,0.2-1.6c0-0.9-0.1-1.6-0.2-1.6c-0.1,0-0.2,0.7-0.2,1.6C7.3,15.3,7.4,16,7.5,16z"/>
		<path fill="#3398CB" d="M5.6,16c0.1,0,0.2-0.7,0.2-1.6c0-0.9-0.1-1.6-0.2-1.6c-0.1,0-0.2,0.7-0.2,1.6C5.4,15.3,5.5,16,5.6,16z"/>
		<path fill="#3398CB" d="M27.1,10.3c0.1,0,0.2-0.7,0.2-1.6s-0.1-1.6-0.2-1.6c-0.1,0-0.2,0.7-0.2,1.6C26.9,9.6,27,10.3,27.1,10.3z"
			/>
		<path fill="#3398CB" d="M13.4,16c0.1,0,0.2-0.7,0.2-1.6c0-0.9-0.1-1.6-0.2-1.6c-0.1,0-0.2,0.7-0.2,1.6C13.2,15.3,13.3,16,13.4,16z
			"/>
		<path fill="#3398CB" d="M40.8,10.3c0.1,0,0.2-0.7,0.2-1.6s-0.1-1.6-0.2-1.6c-0.1,0-0.2,0.7-0.2,1.6C40.6,9.6,40.7,10.3,40.8,10.3z
			"/>
		<path fill="#3398CB" d="M29.1,10.3c0.1,0,0.2-0.7,0.2-1.6s-0.1-1.6-0.2-1.6c-0.1,0-0.2,0.7-0.2,1.6C28.8,9.6,28.9,10.3,29.1,10.3z
			"/>
		<path fill="#3398CB" d="M25.1,10.3c0.1,0,0.2-0.7,0.2-1.6s-0.1-1.6-0.2-1.6c-0.1,0-0.2,0.7-0.2,1.6C24.9,9.6,25,10.3,25.1,10.3z"
			/>
		<path fill="#3398CB" d="M23.2,10.3c0.1,0,0.2-0.7,0.2-1.6s-0.1-1.6-0.2-1.6c-0.1,0-0.2,0.7-0.2,1.6C23,9.6,23.1,10.3,23.2,10.3z"
			/>
		<path fill="#3398CB" d="M31,10.3c0.1,0,0.2-0.7,0.2-1.6S31.1,7.1,31,7.1c-0.1,0-0.2,0.7-0.2,1.6C30.8,9.6,30.9,10.3,31,10.3z"/>
		<path fill="#3398CB" d="M38.8,10.3c0.1,0,0.2-0.7,0.2-1.6S39,7.1,38.8,7.1c-0.1,0-0.2,0.7-0.2,1.6C38.6,9.6,38.7,10.3,38.8,10.3z"
			/>
		<path fill="#3398CB" d="M36.9,10.3c0.1,0,0.2-0.7,0.2-1.6S37,7.1,36.9,7.1c-0.1,0-0.2,0.7-0.2,1.6C36.7,9.6,36.8,10.3,36.9,10.3z"
			/>
		<path fill="#3398CB" d="M34.9,10.3c0.1,0,0.2-0.7,0.2-1.6S35,7.1,34.9,7.1c-0.1,0-0.2,0.7-0.2,1.6C34.7,9.6,34.8,10.3,34.9,10.3z"
			/>
		<path fill="#3398CB" d="M33,10.3c0.1,0,0.2-0.7,0.2-1.6S33.1,7.1,33,7.1c-0.1,0-0.2,0.7-0.2,1.6C32.7,9.6,32.8,10.3,33,10.3z"/>
		<path fill="#3398CB" d="M19.3,16c0.1,0,0.2-0.7,0.2-1.6c0-0.9-0.1-1.6-0.2-1.6c-0.1,0-0.2,0.7-0.2,1.6C19,15.3,19.2,16,19.3,16z"
			/>
		<path fill="#3398CB" d="M44.7,16c0.1,0,0.2-0.7,0.2-1.6c0-0.9-0.1-1.6-0.2-1.6c-0.1,0-0.2,0.7-0.2,1.6C44.5,15.3,44.6,16,44.7,16z
			"/>
		<path fill="#3398CB" d="M40.8,16c0.1,0,0.2-0.7,0.2-1.6c0-0.9-0.1-1.6-0.2-1.6c-0.1,0-0.2,0.7-0.2,1.6C40.6,15.3,40.7,16,40.8,16z
			"/>
		<path fill="#3398CB" d="M42.7,16c0.1,0,0.2-0.7,0.2-1.6c0-0.9-0.1-1.6-0.2-1.6c-0.1,0-0.2,0.7-0.2,1.6C42.5,15.3,42.6,16,42.7,16z
			"/>
		<path fill="#3398CB" d="M38.8,16c0.1,0,0.2-0.7,0.2-1.6c0-0.9-0.1-1.6-0.2-1.6c-0.1,0-0.2,0.7-0.2,1.6C38.6,15.3,38.7,16,38.8,16z
			"/>
		<path fill="#3398CB" d="M34.9,16c0.1,0,0.2-0.7,0.2-1.6c0-0.9-0.1-1.6-0.2-1.6c-0.1,0-0.2,0.7-0.2,1.6C34.7,15.3,34.8,16,34.9,16z
			"/>
		<path fill="#3398CB" d="M36.9,16c0.1,0,0.2-0.7,0.2-1.6c0-0.9-0.1-1.6-0.2-1.6c-0.1,0-0.2,0.7-0.2,1.6C36.7,15.3,36.8,16,36.9,16z
			"/>
		<path fill="#3398CB" d="M46.7,16c0.1,0,0.2-0.7,0.2-1.6c0-0.9-0.1-1.6-0.2-1.6c-0.1,0-0.2,0.7-0.2,1.6C46.4,15.3,46.5,16,46.7,16z
			"/>
		<path fill="#3398CB" d="M52.5,16c0.1,0,0.2-0.7,0.2-1.6c0-0.9-0.1-1.6-0.2-1.6c-0.1,0-0.2,0.7-0.2,1.6C52.3,15.3,52.4,16,52.5,16z
			"/>
		<path fill="#3398CB" d="M50.6,16c0.1,0,0.2-0.7,0.2-1.6c0-0.9-0.1-1.6-0.2-1.6c-0.1,0-0.2,0.7-0.2,1.6C50.3,15.3,50.4,16,50.6,16z
			"/>
		<path fill="#3398CB" d="M48.6,16c0.1,0,0.2-0.7,0.2-1.6c0-0.9-0.1-1.6-0.2-1.6c-0.1,0-0.2,0.7-0.2,1.6C48.4,15.3,48.5,16,48.6,16z
			"/>
		<path fill="#3398CB" d="M31,16c0.1,0,0.2-0.7,0.2-1.6c0-0.9-0.1-1.6-0.2-1.6c-0.1,0-0.2,0.7-0.2,1.6C30.8,15.3,30.9,16,31,16z"/>
		<path fill="#3398CB" d="M21.2,16c0.1,0,0.2-0.7,0.2-1.6c0-0.9-0.1-1.6-0.2-1.6c-0.1,0-0.2,0.7-0.2,1.6C21,15.3,21.1,16,21.2,16z"
			/>
		<path fill="#3398CB" d="M21.2,10.3c0.1,0,0.2-0.7,0.2-1.6s-0.1-1.6-0.2-1.6c-0.1,0-0.2,0.7-0.2,1.6C21,9.6,21.1,10.3,21.2,10.3z"
			/>
		<path fill="#3398CB" d="M17.3,16c0.1,0,0.2-0.7,0.2-1.6c0-0.9-0.1-1.6-0.2-1.6c-0.1,0-0.2,0.7-0.2,1.6C17.1,15.3,17.2,16,17.3,16z
			"/>
		<path fill="#3398CB" d="M23.2,16c0.1,0,0.2-0.7,0.2-1.6c0-0.9-0.1-1.6-0.2-1.6c-0.1,0-0.2,0.7-0.2,1.6C23,15.3,23.1,16,23.2,16z"
			/>
		<path fill="#3398CB" d="M33,16c0.1,0,0.2-0.7,0.2-1.6c0-0.9-0.1-1.6-0.2-1.6c-0.1,0-0.2,0.7-0.2,1.6C32.7,15.3,32.8,16,33,16z"/>
		<path fill="#3398CB" d="M15.4,16c0.1,0,0.2-0.7,0.2-1.6c0-0.9-0.1-1.6-0.2-1.6c-0.1,0-0.2,0.7-0.2,1.6C15.1,15.3,15.2,16,15.4,16z
			"/>
		<path fill="#3398CB" d="M29.1,16c0.1,0,0.2-0.7,0.2-1.6c0-0.9-0.1-1.6-0.2-1.6c-0.1,0-0.2,0.7-0.2,1.6C28.8,15.3,28.9,16,29.1,16z
			"/>
		<path fill="#3398CB" d="M25.1,16c0.1,0,0.2-0.7,0.2-1.6c0-0.9-0.1-1.6-0.2-1.6c-0.1,0-0.2,0.7-0.2,1.6C24.9,15.3,25,16,25.1,16z"
			/>
		<path fill="#3398CB" d="M27.1,16c0.1,0,0.2-0.7,0.2-1.6c0-0.9-0.1-1.6-0.2-1.6c-0.1,0-0.2,0.7-0.2,1.6C26.9,15.3,27,16,27.1,16z"
			/>
		<path fill="#3398CB" d="M25.1,1.1c-0.1,0-0.2,0.7-0.2,1.6c0,0.9,0.1,1.6,0.2,1.6c0.1,0,0.2-0.7,0.2-1.6S25.3,1.1,25.1,1.1z"/>
		<path fill="#3398CB" d="M27.1,1.1c-0.1,0-0.2,0.7-0.2,1.6c0,0.9,0.1,1.6,0.2,1.6c0.1,0,0.2-0.7,0.2-1.6S27.2,1.1,27.1,1.1z"/>
		<path fill="#3398CB" d="M29.1,1.1c-0.1,0-0.2,0.7-0.2,1.6c0,0.9,0.1,1.6,0.2,1.6c0.1,0,0.2-0.7,0.2-1.6S29.2,1.1,29.1,1.1z"/>
		<path fill="#3398CB" d="M31,1.1c-0.1,0-0.2,0.7-0.2,1.6c0,0.9,0.1,1.6,0.2,1.6c0.1,0,0.2-0.7,0.2-1.6S31.1,1.1,31,1.1z"/>
		<path fill="#3398CB" d="M23.2,1.1c-0.1,0-0.2,0.7-0.2,1.6c0,0.9,0.1,1.6,0.2,1.6c0.1,0,0.2-0.7,0.2-1.6S23.3,1.1,23.2,1.1z"/>
		<path fill="#3398CB" d="M33,1.1c-0.1,0-0.2,0.7-0.2,1.6c0,0.9,0.1,1.6,0.2,1.6c0.1,0,0.2-0.7,0.2-1.6S33.1,1.1,33,1.1z"/>
		<path fill="#3398CB" d="M17.3,1.1c-0.1,0-0.2,0.7-0.2,1.6c0,0.9,0.1,1.6,0.2,1.6c0.1,0,0.2-0.7,0.2-1.6S17.4,1.1,17.3,1.1z"/>
		<path fill="#3398CB" d="M15.4,1.1c-0.1,0-0.2,0.7-0.2,1.6c0,0.9,0.1,1.6,0.2,1.6c0.1,0,0.2-0.7,0.2-1.6S15.5,1.1,15.4,1.1z"/>
		<path fill="#3398CB" d="M21.2,1.1c-0.1,0-0.2,0.7-0.2,1.6c0,0.9,0.1,1.6,0.2,1.6c0.1,0,0.2-0.7,0.2-1.6S21.4,1.1,21.2,1.1z"/>
		<path fill="#3398CB" d="M34.9,1.1c-0.1,0-0.2,0.7-0.2,1.6c0,0.9,0.1,1.6,0.2,1.6c0.1,0,0.2-0.7,0.2-1.6S35,1.1,34.9,1.1z"/>
		<path fill="#3398CB" d="M19.3,1.1c-0.1,0-0.2,0.7-0.2,1.6c0,0.9,0.1,1.6,0.2,1.6c0.1,0,0.2-0.7,0.2-1.6S19.4,1.1,19.3,1.1z"/>
		<path fill="#3398CB" d="M48.6,1.1c-0.1,0-0.2,0.7-0.2,1.6c0,0.9,0.1,1.6,0.2,1.6c0.1,0,0.2-0.7,0.2-1.6S48.7,1.1,48.6,1.1z"/>
		<path fill="#3398CB" d="M50.6,1.1c-0.1,0-0.2,0.7-0.2,1.6c0,0.9,0.1,1.6,0.2,1.6c0.1,0,0.2-0.7,0.2-1.6S50.7,1.1,50.6,1.1z"/>
		<path fill="#3398CB" d="M13.4,1.1c-0.1,0-0.2,0.7-0.2,1.6c0,0.9,0.1,1.6,0.2,1.6c0.1,0,0.2-0.7,0.2-1.6S13.5,1.1,13.4,1.1z"/>
		<path fill="#3398CB" d="M36.9,1.1c-0.1,0-0.2,0.7-0.2,1.6c0,0.9,0.1,1.6,0.2,1.6c0.1,0,0.2-0.7,0.2-1.6S37,1.1,36.9,1.1z"/>
		<path fill="#3398CB" d="M46.7,1.1c-0.1,0-0.2,0.7-0.2,1.6c0,0.9,0.1,1.6,0.2,1.6c0.1,0,0.2-0.7,0.2-1.6S46.8,1.1,46.7,1.1z"/>
		<path fill="#3398CB" d="M52.5,1.1c-0.1,0-0.2,0.7-0.2,1.6c0,0.9,0.1,1.6,0.2,1.6c0.1,0,0.2-0.7,0.2-1.6S52.6,1.1,52.5,1.1z"/>
		<path fill="#3398CB" d="M40.8,1.1c-0.1,0-0.2,0.7-0.2,1.6c0,0.9,0.1,1.6,0.2,1.6c0.1,0,0.2-0.7,0.2-1.6S40.9,1.1,40.8,1.1z"/>
		<path fill="#3398CB" d="M19.3,10.3c0.1,0,0.2-0.7,0.2-1.6s-0.1-1.6-0.2-1.6c-0.1,0-0.2,0.7-0.2,1.6C19,9.6,19.2,10.3,19.3,10.3z"
			/>
		<path fill="#3398CB" d="M44.7,1.1c-0.1,0-0.2,0.7-0.2,1.6c0,0.9,0.1,1.6,0.2,1.6c0.1,0,0.2-0.7,0.2-1.6S44.8,1.1,44.7,1.1z"/>
		<path fill="#3398CB" d="M42.7,1.1c-0.1,0-0.2,0.7-0.2,1.6c0,0.9,0.1,1.6,0.2,1.6c0.1,0,0.2-0.7,0.2-1.6S42.9,1.1,42.7,1.1z"/>
		<path fill="#3398CB" d="M38.8,1.1c-0.1,0-0.2,0.7-0.2,1.6c0,0.9,0.1,1.6,0.2,1.6c0.1,0,0.2-0.7,0.2-1.6S39,1.1,38.8,1.1z"/>
		<path fill="#3398CB" d="M7.5,10.3c0.1,0,0.2-0.7,0.2-1.6S7.7,7.1,7.5,7.1c-0.1,0-0.2,0.7-0.2,1.6C7.3,9.6,7.4,10.3,7.5,10.3z"/>
		<path fill="#3398CB" d="M11.5,1.1c-0.1,0-0.2,0.7-0.2,1.6c0,0.9,0.1,1.6,0.2,1.6c0.1,0,0.2-0.7,0.2-1.6S11.6,1.1,11.5,1.1z"/>
		<path fill="#3398CB" d="M11.5,10.3c0.1,0,0.2-0.7,0.2-1.6s-0.1-1.6-0.2-1.6c-0.1,0-0.2,0.7-0.2,1.6C11.2,9.6,11.3,10.3,11.5,10.3z
			"/>
		<path fill="#3398CB" d="M5.6,10.3c0.1,0,0.2-0.7,0.2-1.6S5.7,7.1,5.6,7.1c-0.1,0-0.2,0.7-0.2,1.6C5.4,9.6,5.5,10.3,5.6,10.3z"/>
		<path fill="#3398CB" d="M15.4,10.3c0.1,0,0.2-0.7,0.2-1.6s-0.1-1.6-0.2-1.6c-0.1,0-0.2,0.7-0.2,1.6C15.1,9.6,15.2,10.3,15.4,10.3z
			"/>
		<path fill="#3398CB" d="M17.3,10.3c0.1,0,0.2-0.7,0.2-1.6s-0.1-1.6-0.2-1.6c-0.1,0-0.2,0.7-0.2,1.6C17.1,9.6,17.2,10.3,17.3,10.3z
			"/>
		<path fill="#3398CB" d="M13.4,10.3c0.1,0,0.2-0.7,0.2-1.6s-0.1-1.6-0.2-1.6c-0.1,0-0.2,0.7-0.2,1.6C13.2,9.6,13.3,10.3,13.4,10.3z
			"/>
		<path fill="#3398CB" d="M5.6,1.1c-0.1,0-0.2,0.7-0.2,1.6c0,0.9,0.1,1.6,0.2,1.6c0.1,0,0.2-0.7,0.2-1.6S5.7,1.1,5.6,1.1z"/>
		<path fill="#3398CB" d="M9.5,10.3c0.1,0,0.2-0.7,0.2-1.6S9.6,7.1,9.5,7.1c-0.1,0-0.2,0.7-0.2,1.6C9.3,9.6,9.4,10.3,9.5,10.3z"/>
		<path fill="#3398CB" d="M9.5,1.1c-0.1,0-0.2,0.7-0.2,1.6c0,0.9,0.1,1.6,0.2,1.6c0.1,0,0.2-0.7,0.2-1.6S9.6,1.1,9.5,1.1z"/>
		<path fill="#3398CB" d="M7.5,1.1c-0.1,0-0.2,0.7-0.2,1.6c0,0.9,0.1,1.6,0.2,1.6c0.1,0,0.2-0.7,0.2-1.6S7.7,1.1,7.5,1.1z"/>
		<g>
			<path fill="#3398CB" d="M0,16c0,0.5,0.4,0.9,0.9,0.9h55.8c0.5,0,0.9-0.4,0.9-0.9V13c0-0.5-0.4-0.9-0.9-0.9H0.9
				C0.4,12.1,0,12.5,0,13V16z M56.4,12.3c0.4,0,0.7,0.2,0.7,0.4c0,0.2-0.3,0.4-0.7,0.4c-0.4,0-0.7-0.2-0.7-0.4
				C55.7,12.5,56,12.3,56.4,12.3z M56.4,15.5c0.4,0,0.7,0.2,0.7,0.5c0,0.2-0.3,0.4-0.7,0.4c-0.4,0-0.7-0.2-0.7-0.4
				C55.7,15.7,56,15.5,56.4,15.5z M52.5,12.8c0.1,0,0.2,0.7,0.2,1.6c0,0.9-0.1,1.6-0.2,1.6c-0.1,0-0.2-0.7-0.2-1.6
				C52.3,13.6,52.4,12.8,52.5,12.8z M50.6,12.8c0.1,0,0.2,0.7,0.2,1.6c0,0.9-0.1,1.6-0.2,1.6c-0.1,0-0.2-0.7-0.2-1.6
				C50.3,13.6,50.4,12.8,50.6,12.8z M48.6,12.8c0.1,0,0.2,0.7,0.2,1.6c0,0.9-0.1,1.6-0.2,1.6c-0.1,0-0.2-0.7-0.2-1.6
				C48.4,13.6,48.5,12.8,48.6,12.8z M46.7,12.8c0.1,0,0.2,0.7,0.2,1.6c0,0.9-0.1,1.6-0.2,1.6c-0.1,0-0.2-0.7-0.2-1.6
				C46.4,13.6,46.5,12.8,46.7,12.8z M44.7,12.8c0.1,0,0.2,0.7,0.2,1.6c0,0.9-0.1,1.6-0.2,1.6c-0.1,0-0.2-0.7-0.2-1.6
				C44.5,13.6,44.6,12.8,44.7,12.8z M42.7,12.8c0.1,0,0.2,0.7,0.2,1.6c0,0.9-0.1,1.6-0.2,1.6c-0.1,0-0.2-0.7-0.2-1.6
				C42.5,13.6,42.6,12.8,42.7,12.8z M40.8,12.8c0.1,0,0.2,0.7,0.2,1.6c0,0.9-0.1,1.6-0.2,1.6c-0.1,0-0.2-0.7-0.2-1.6
				C40.6,13.6,40.7,12.8,40.8,12.8z M38.8,12.8c0.1,0,0.2,0.7,0.2,1.6c0,0.9-0.1,1.6-0.2,1.6c-0.1,0-0.2-0.7-0.2-1.6
				C38.6,13.6,38.7,12.8,38.8,12.8z M36.9,12.8c0.1,0,0.2,0.7,0.2,1.6c0,0.9-0.1,1.6-0.2,1.6c-0.1,0-0.2-0.7-0.2-1.6
				C36.7,13.6,36.8,12.8,36.9,12.8z M34.9,12.8c0.1,0,0.2,0.7,0.2,1.6c0,0.9-0.1,1.6-0.2,1.6c-0.1,0-0.2-0.7-0.2-1.6
				C34.7,13.6,34.8,12.8,34.9,12.8z M33,12.8c0.1,0,0.2,0.7,0.2,1.6c0,0.9-0.1,1.6-0.2,1.6c-0.1,0-0.2-0.7-0.2-1.6
				C32.7,13.6,32.8,12.8,33,12.8z M31,12.8c0.1,0,0.2,0.7,0.2,1.6c0,0.9-0.1,1.6-0.2,1.6c-0.1,0-0.2-0.7-0.2-1.6
				C30.8,13.6,30.9,12.8,31,12.8z M29.1,12.8c0.1,0,0.2,0.7,0.2,1.6c0,0.9-0.1,1.6-0.2,1.6c-0.1,0-0.2-0.7-0.2-1.6
				C28.8,13.6,28.9,12.8,29.1,12.8z M27.1,12.8c0.1,0,0.2,0.7,0.2,1.6c0,0.9-0.1,1.6-0.2,1.6c-0.1,0-0.2-0.7-0.2-1.6
				C26.9,13.6,27,12.8,27.1,12.8z M25.1,12.8c0.1,0,0.2,0.7,0.2,1.6c0,0.9-0.1,1.6-0.2,1.6c-0.1,0-0.2-0.7-0.2-1.6
				C24.9,13.6,25,12.8,25.1,12.8z M23.2,12.8c0.1,0,0.2,0.7,0.2,1.6c0,0.9-0.1,1.6-0.2,1.6c-0.1,0-0.2-0.7-0.2-1.6
				C23,13.6,23.1,12.8,23.2,12.8z M21.2,12.8c0.1,0,0.2,0.7,0.2,1.6c0,0.9-0.1,1.6-0.2,1.6c-0.1,0-0.2-0.7-0.2-1.6
				C21,13.6,21.1,12.8,21.2,12.8z M19.3,12.8c0.1,0,0.2,0.7,0.2,1.6c0,0.9-0.1,1.6-0.2,1.6c-0.1,0-0.2-0.7-0.2-1.6
				C19,13.6,19.2,12.8,19.3,12.8z M17.3,12.8c0.1,0,0.2,0.7,0.2,1.6c0,0.9-0.1,1.6-0.2,1.6c-0.1,0-0.2-0.7-0.2-1.6
				C17.1,13.6,17.2,12.8,17.3,12.8z M15.4,12.8c0.1,0,0.2,0.7,0.2,1.6c0,0.9-0.1,1.6-0.2,1.6c-0.1,0-0.2-0.7-0.2-1.6
				C15.1,13.6,15.2,12.8,15.4,12.8z M13.4,12.8c0.1,0,0.2,0.7,0.2,1.6c0,0.9-0.1,1.6-0.2,1.6c-0.1,0-0.2-0.7-0.2-1.6
				C13.2,13.6,13.3,12.8,13.4,12.8z M11.5,12.8c0.1,0,0.2,0.7,0.2,1.6c0,0.9-0.1,1.6-0.2,1.6c-0.1,0-0.2-0.7-0.2-1.6
				C11.2,13.6,11.3,12.8,11.5,12.8z M9.5,12.8c0.1,0,0.2,0.7,0.2,1.6c0,0.9-0.1,1.6-0.2,1.6c-0.1,0-0.2-0.7-0.2-1.6
				C9.3,13.6,9.4,12.8,9.5,12.8z M7.5,12.8c0.1,0,0.2,0.7,0.2,1.6c0,0.9-0.1,1.6-0.2,1.6c-0.1,0-0.2-0.7-0.2-1.6
				C7.3,13.6,7.4,12.8,7.5,12.8z M5.6,12.8c0.1,0,0.2,0.7,0.2,1.6c0,0.9-0.1,1.6-0.2,1.6c-0.1,0-0.2-0.7-0.2-1.6
				C5.4,13.6,5.5,12.8,5.6,12.8z M1.3,12.3c0.4,0,0.7,0.2,0.7,0.4c0,0.2-0.3,0.4-0.7,0.4c-0.4,0-0.7-0.2-0.7-0.4
				C0.6,12.5,0.9,12.3,1.3,12.3z M1.3,15.5C1.7,15.5,2,15.7,2,16c0,0.2-0.3,0.4-0.7,0.4c-0.4,0-0.7-0.2-0.7-0.4
				C0.6,15.7,0.9,15.5,1.3,15.5z"/>
		</g>
		<g>
			<path fill="#3398CB" d="M0,10.2c0,0.5,0.4,0.9,0.9,0.9h55.8c0.5,0,0.9-0.4,0.9-0.9V7.2c0-0.5-0.4-0.9-0.9-0.9H0.9
				C0.4,6.3,0,6.7,0,7.2V10.2z M56.4,6.5c0.4,0,0.7,0.2,0.7,0.4c0,0.2-0.3,0.4-0.7,0.4c-0.4,0-0.7-0.2-0.7-0.4
				C55.7,6.7,56,6.5,56.4,6.5z M56.4,9.8c0.4,0,0.7,0.2,0.7,0.4s-0.3,0.4-0.7,0.4c-0.4,0-0.7-0.2-0.7-0.4S56,9.8,56.4,9.8z
				 M52.5,7.1c0.1,0,0.2,0.7,0.2,1.6c0,0.9-0.1,1.6-0.2,1.6c-0.1,0-0.2-0.7-0.2-1.6C52.3,7.8,52.4,7.1,52.5,7.1z M50.6,7.1
				c0.1,0,0.2,0.7,0.2,1.6c0,0.9-0.1,1.6-0.2,1.6c-0.1,0-0.2-0.7-0.2-1.6C50.3,7.8,50.4,7.1,50.6,7.1z M48.6,7.1
				c0.1,0,0.2,0.7,0.2,1.6c0,0.9-0.1,1.6-0.2,1.6c-0.1,0-0.2-0.7-0.2-1.6C48.4,7.8,48.5,7.1,48.6,7.1z M46.7,7.1
				c0.1,0,0.2,0.7,0.2,1.6c0,0.9-0.1,1.6-0.2,1.6c-0.1,0-0.2-0.7-0.2-1.6C46.4,7.8,46.5,7.1,46.7,7.1z M44.7,7.1
				c0.1,0,0.2,0.7,0.2,1.6c0,0.9-0.1,1.6-0.2,1.6c-0.1,0-0.2-0.7-0.2-1.6C44.5,7.8,44.6,7.1,44.7,7.1z M42.7,7.1
				c0.1,0,0.2,0.7,0.2,1.6c0,0.9-0.1,1.6-0.2,1.6c-0.1,0-0.2-0.7-0.2-1.6C42.5,7.8,42.6,7.1,42.7,7.1z M40.8,7.1
				c0.1,0,0.2,0.7,0.2,1.6c0,0.9-0.1,1.6-0.2,1.6c-0.1,0-0.2-0.7-0.2-1.6C40.6,7.8,40.7,7.1,40.8,7.1z M38.8,7.1
				c0.1,0,0.2,0.7,0.2,1.6c0,0.9-0.1,1.6-0.2,1.6c-0.1,0-0.2-0.7-0.2-1.6C38.6,7.8,38.7,7.1,38.8,7.1z M36.9,7.1
				c0.1,0,0.2,0.7,0.2,1.6c0,0.9-0.1,1.6-0.2,1.6c-0.1,0-0.2-0.7-0.2-1.6C36.7,7.8,36.8,7.1,36.9,7.1z M34.9,7.1
				c0.1,0,0.2,0.7,0.2,1.6c0,0.9-0.1,1.6-0.2,1.6c-0.1,0-0.2-0.7-0.2-1.6C34.7,7.8,34.8,7.1,34.9,7.1z M33,7.1
				c0.1,0,0.2,0.7,0.2,1.6c0,0.9-0.1,1.6-0.2,1.6c-0.1,0-0.2-0.7-0.2-1.6C32.7,7.8,32.8,7.1,33,7.1z M31,7.1c0.1,0,0.2,0.7,0.2,1.6
				c0,0.9-0.1,1.6-0.2,1.6c-0.1,0-0.2-0.7-0.2-1.6C30.8,7.8,30.9,7.1,31,7.1z M29.1,7.1c0.1,0,0.2,0.7,0.2,1.6
				c0,0.9-0.1,1.6-0.2,1.6c-0.1,0-0.2-0.7-0.2-1.6C28.8,7.8,28.9,7.1,29.1,7.1z M27.1,7.1c0.1,0,0.2,0.7,0.2,1.6
				c0,0.9-0.1,1.6-0.2,1.6c-0.1,0-0.2-0.7-0.2-1.6C26.9,7.8,27,7.1,27.1,7.1z M25.1,7.1c0.1,0,0.2,0.7,0.2,1.6
				c0,0.9-0.1,1.6-0.2,1.6c-0.1,0-0.2-0.7-0.2-1.6C24.9,7.8,25,7.1,25.1,7.1z M23.2,7.1c0.1,0,0.2,0.7,0.2,1.6
				c0,0.9-0.1,1.6-0.2,1.6c-0.1,0-0.2-0.7-0.2-1.6C23,7.8,23.1,7.1,23.2,7.1z M21.2,7.1c0.1,0,0.2,0.7,0.2,1.6
				c0,0.9-0.1,1.6-0.2,1.6c-0.1,0-0.2-0.7-0.2-1.6C21,7.8,21.1,7.1,21.2,7.1z M19.3,7.1c0.1,0,0.2,0.7,0.2,1.6
				c0,0.9-0.1,1.6-0.2,1.6c-0.1,0-0.2-0.7-0.2-1.6C19,7.8,19.2,7.1,19.3,7.1z M17.3,7.1c0.1,0,0.2,0.7,0.2,1.6
				c0,0.9-0.1,1.6-0.2,1.6c-0.1,0-0.2-0.7-0.2-1.6C17.1,7.8,17.2,7.1,17.3,7.1z M15.4,7.1c0.1,0,0.2,0.7,0.2,1.6
				c0,0.9-0.1,1.6-0.2,1.6c-0.1,0-0.2-0.7-0.2-1.6C15.1,7.8,15.2,7.1,15.4,7.1z M13.4,7.1c0.1,0,0.2,0.7,0.2,1.6
				c0,0.9-0.1,1.6-0.2,1.6c-0.1,0-0.2-0.7-0.2-1.6C13.2,7.8,13.3,7.1,13.4,7.1z M11.5,7.1c0.1,0,0.2,0.7,0.2,1.6
				c0,0.9-0.1,1.6-0.2,1.6c-0.1,0-0.2-0.7-0.2-1.6C11.2,7.8,11.3,7.1,11.5,7.1z M9.5,7.1c0.1,0,0.2,0.7,0.2,1.6
				c0,0.9-0.1,1.6-0.2,1.6c-0.1,0-0.2-0.7-0.2-1.6C9.3,7.8,9.4,7.1,9.5,7.1z M7.5,7.1c0.1,0,0.2,0.7,0.2,1.6c0,0.9-0.1,1.6-0.2,1.6
				c-0.1,0-0.2-0.7-0.2-1.6C7.3,7.8,7.4,7.1,7.5,7.1z M5.6,7.1c0.1,0,0.2,0.7,0.2,1.6c0,0.9-0.1,1.6-0.2,1.6c-0.1,0-0.2-0.7-0.2-1.6
				C5.4,7.8,5.5,7.1,5.6,7.1z M1.3,6.5C1.7,6.5,2,6.7,2,7c0,0.2-0.3,0.4-0.7,0.4C0.9,7.4,0.6,7.2,0.6,7C0.6,6.7,0.9,6.5,1.3,6.5z
				 M1.3,9.8C1.7,9.8,2,10,2,10.2s-0.3,0.4-0.7,0.4c-0.4,0-0.7-0.2-0.7-0.4S0.9,9.8,1.3,9.8z"/>
		</g>
		<g>
			<path fill="#3398CB" d="M0.9,0C0.4,0,0,0.4,0,0.9v3.1c0,0.5,0.4,0.9,0.9,0.9h55.8c0.5,0,0.9-0.4,0.9-0.9V0.9
				c0-0.5-0.4-0.9-0.9-0.9H0.9z M1.3,4.7c-0.4,0-0.7-0.2-0.7-0.4c0-0.2,0.3-0.4,0.7-0.4C1.7,3.8,2,4,2,4.2C2,4.5,1.7,4.7,1.3,4.7z
				 M1.3,1.4C0.9,1.4,0.6,1.2,0.6,1c0-0.2,0.3-0.4,0.7-0.4C1.7,0.5,2,0.7,2,1C2,1.2,1.7,1.4,1.3,1.4z M5.6,4.3
				c-0.1,0-0.2-0.7-0.2-1.6c0-0.9,0.1-1.6,0.2-1.6c0.1,0,0.2,0.7,0.2,1.6S5.7,4.3,5.6,4.3z M7.5,4.3c-0.1,0-0.2-0.7-0.2-1.6
				c0-0.9,0.1-1.6,0.2-1.6c0.1,0,0.2,0.7,0.2,1.6S7.7,4.3,7.5,4.3z M9.5,4.3c-0.1,0-0.2-0.7-0.2-1.6c0-0.9,0.1-1.6,0.2-1.6
				c0.1,0,0.2,0.7,0.2,1.6S9.6,4.3,9.5,4.3z M11.5,4.3c-0.1,0-0.2-0.7-0.2-1.6c0-0.9,0.1-1.6,0.2-1.6c0.1,0,0.2,0.7,0.2,1.6
				S11.6,4.3,11.5,4.3z M13.4,4.3c-0.1,0-0.2-0.7-0.2-1.6c0-0.9,0.1-1.6,0.2-1.6c0.1,0,0.2,0.7,0.2,1.6S13.5,4.3,13.4,4.3z
				 M15.4,4.3c-0.1,0-0.2-0.7-0.2-1.6c0-0.9,0.1-1.6,0.2-1.6c0.1,0,0.2,0.7,0.2,1.6S15.5,4.3,15.4,4.3z M17.3,4.3
				c-0.1,0-0.2-0.7-0.2-1.6c0-0.9,0.1-1.6,0.2-1.6c0.1,0,0.2,0.7,0.2,1.6S17.4,4.3,17.3,4.3z M19.3,4.3c-0.1,0-0.2-0.7-0.2-1.6
				c0-0.9,0.1-1.6,0.2-1.6c0.1,0,0.2,0.7,0.2,1.6S19.4,4.3,19.3,4.3z M21.2,4.3c-0.1,0-0.2-0.7-0.2-1.6c0-0.9,0.1-1.6,0.2-1.6
				c0.1,0,0.2,0.7,0.2,1.6S21.4,4.3,21.2,4.3z M23.2,4.3c-0.1,0-0.2-0.7-0.2-1.6c0-0.9,0.1-1.6,0.2-1.6c0.1,0,0.2,0.7,0.2,1.6
				S23.3,4.3,23.2,4.3z M25.1,4.3c-0.1,0-0.2-0.7-0.2-1.6c0-0.9,0.1-1.6,0.2-1.6c0.1,0,0.2,0.7,0.2,1.6S25.3,4.3,25.1,4.3z
				 M27.1,4.3c-0.1,0-0.2-0.7-0.2-1.6c0-0.9,0.1-1.6,0.2-1.6c0.1,0,0.2,0.7,0.2,1.6S27.2,4.3,27.1,4.3z M29.1,4.3
				c-0.1,0-0.2-0.7-0.2-1.6c0-0.9,0.1-1.6,0.2-1.6c0.1,0,0.2,0.7,0.2,1.6S29.2,4.3,29.1,4.3z M31,4.3c-0.1,0-0.2-0.7-0.2-1.6
				c0-0.9,0.1-1.6,0.2-1.6c0.1,0,0.2,0.7,0.2,1.6S31.1,4.3,31,4.3z M33,4.3c-0.1,0-0.2-0.7-0.2-1.6c0-0.9,0.1-1.6,0.2-1.6
				c0.1,0,0.2,0.7,0.2,1.6S33.1,4.3,33,4.3z M34.9,4.3c-0.1,0-0.2-0.7-0.2-1.6c0-0.9,0.1-1.6,0.2-1.6c0.1,0,0.2,0.7,0.2,1.6
				S35,4.3,34.9,4.3z M36.9,4.3c-0.1,0-0.2-0.7-0.2-1.6c0-0.9,0.1-1.6,0.2-1.6c0.1,0,0.2,0.7,0.2,1.6S37,4.3,36.9,4.3z M38.8,4.3
				c-0.1,0-0.2-0.7-0.2-1.6c0-0.9,0.1-1.6,0.2-1.6c0.1,0,0.2,0.7,0.2,1.6S39,4.3,38.8,4.3z M40.8,4.3c-0.1,0-0.2-0.7-0.2-1.6
				c0-0.9,0.1-1.6,0.2-1.6c0.1,0,0.2,0.7,0.2,1.6S40.9,4.3,40.8,4.3z M42.7,4.3c-0.1,0-0.2-0.7-0.2-1.6c0-0.9,0.1-1.6,0.2-1.6
				c0.1,0,0.2,0.7,0.2,1.6S42.9,4.3,42.7,4.3z M44.7,4.3c-0.1,0-0.2-0.7-0.2-1.6c0-0.9,0.1-1.6,0.2-1.6c0.1,0,0.2,0.7,0.2,1.6
				S44.8,4.3,44.7,4.3z M46.7,4.3c-0.1,0-0.2-0.7-0.2-1.6c0-0.9,0.1-1.6,0.2-1.6c0.1,0,0.2,0.7,0.2,1.6S46.8,4.3,46.7,4.3z
				 M48.6,4.3c-0.1,0-0.2-0.7-0.2-1.6c0-0.9,0.1-1.6,0.2-1.6c0.1,0,0.2,0.7,0.2,1.6S48.7,4.3,48.6,4.3z M50.6,4.3
				c-0.1,0-0.2-0.7-0.2-1.6c0-0.9,0.1-1.6,0.2-1.6c0.1,0,0.2,0.7,0.2,1.6S50.7,4.3,50.6,4.3z M52.5,4.3c-0.1,0-0.2-0.7-0.2-1.6
				c0-0.9,0.1-1.6,0.2-1.6c0.1,0,0.2,0.7,0.2,1.6S52.6,4.3,52.5,4.3z M56.4,4.7c-0.4,0-0.7-0.2-0.7-0.4c0-0.2,0.3-0.4,0.7-0.4
				c0.4,0,0.7,0.2,0.7,0.4C57.1,4.5,56.8,4.7,56.4,4.7z M56.4,1.4c-0.4,0-0.7-0.2-0.7-0.4c0-0.2,0.3-0.4,0.7-0.4
				c0.4,0,0.7,0.2,0.7,0.4C57.1,1.2,56.8,1.4,56.4,1.4z"/>
		</g>
	</g>
</g>
</svg>
