<?xml version="1.0" encoding="utf-8"?>
<!-- Generator: Adobe Illustrator 18.0.0, SVG Export Plug-In . SVG Version: 6.00 Build 0)  -->
<!DOCTYPE svg PUBLIC "-//W3C//DTD SVG 1.1//EN" "http://www.w3.org/Graphics/SVG/1.1/DTD/svg11.dtd">
<svg version="1.1" id="Layer_1" xmlns="http://www.w3.org/2000/svg" xmlns:xlink="http://www.w3.org/1999/xlink" x="0px" y="0px"
	 viewBox="0 0 27.9 40.6" enable-background="new 0 0 27.9 40.6" xml:space="preserve">
<g>
	<g>
		<path id="path5203_10_" fill="#3398CB" d="M1.4,0l13.9,9.9h12.2L12.7,0H1.4z M0,0v27.9l15,12.5V10.3L0.6,0H0z M2.1,3.7
			c0.2,0.1,0.3,0.4,0.3,0.6c0,0.2-0.2,0.2-0.3,0.1C1.9,4.2,1.7,4,1.7,3.8c0-0.1,0-0.1,0.1-0.2C1.9,3.6,2,3.7,2.1,3.7z M3.1,4.5
			C3.2,4.6,3.4,4.8,3.4,5c0,0.2-0.2,0.2-0.3,0.1C2.9,5,2.7,4.7,2.7,4.5c0-0.1,0-0.1,0.1-0.2C2.9,4.4,3,4.4,3.1,4.5z M2.1,4.7
			c0.2,0.1,0.3,0.4,0.3,0.6c0,0.2-0.2,0.2-0.3,0.1C1.9,5.2,1.7,5,1.7,4.8c0-0.1,0-0.1,0.1-0.2C1.9,4.6,2,4.6,2.1,4.7z M4,5.2
			c0.2,0.1,0.3,0.4,0.3,0.6C4.4,5.9,4.2,6,4,5.9C3.9,5.7,3.7,5.4,3.7,5.3c0-0.1,0-0.1,0.1-0.2C3.9,5.1,4,5.1,4,5.2z M3.1,5.4
			C3.2,5.6,3.4,5.8,3.4,6c0,0.2-0.2,0.2-0.3,0.1C2.9,6,2.7,5.7,2.7,5.5c0-0.1,0-0.2,0.1-0.2C2.9,5.3,3,5.4,3.1,5.4z M2,5.6
			c0,0,0.1,0,0.1,0.1c0.2,0.1,0.3,0.4,0.3,0.6c0,0.2-0.2,0.2-0.3,0.1C1.9,6.2,1.7,6,1.7,5.8C1.7,5.7,1.8,5.6,2,5.6
			C1.9,5.6,1.9,5.6,2,5.6z M5,5.9c0.2,0.1,0.3,0.4,0.3,0.6c0,0.2-0.1,0.2-0.3,0.1C4.9,6.4,4.7,6.2,4.7,6c0-0.1,0-0.1,0.1-0.2
			C4.9,5.8,5,5.8,5,5.9z M4,6.2c0.2,0.1,0.3,0.4,0.3,0.6C4.4,6.9,4.2,7,4,6.8C3.9,6.7,3.7,6.4,3.7,6.3c0-0.1,0-0.2,0.1-0.2
			C3.9,6.1,4,6.1,4,6.2z M2.9,6.4c0,0,0.1,0,0.1,0.1C3.2,6.6,3.4,6.8,3.4,7c0,0.2-0.2,0.2-0.3,0.1C2.9,7,2.7,6.7,2.7,6.5
			C2.7,6.4,2.8,6.4,2.9,6.4C2.9,6.3,2.9,6.4,2.9,6.4z M6,6.6C6.2,6.8,6.4,7,6.4,7.2c0,0.2-0.2,0.2-0.3,0.1C5.8,7.2,5.7,6.9,5.7,6.7
			c0-0.1,0-0.2,0.1-0.2C5.8,6.6,5.9,6.6,6,6.6z M2,6.6c0,0,0.1,0,0.1,0.1c0.2,0.1,0.3,0.4,0.3,0.6c0,0.2-0.2,0.2-0.3,0.1
			C1.9,7.2,1.7,7,1.7,6.8C1.7,6.7,1.8,6.6,2,6.6C1.9,6.6,1.9,6.6,2,6.6z M4.9,6.8c0,0,0.1,0,0.1,0.1C5.2,7,5.4,7.3,5.4,7.5
			c0,0.2-0.1,0.2-0.3,0.1C4.9,7.4,4.7,7.2,4.7,7C4.7,6.9,4.8,6.8,4.9,6.8C4.8,6.8,4.9,6.8,4.9,6.8z M3.9,7.1c0,0,0.1,0,0.1,0.1
			c0.2,0.1,0.3,0.4,0.3,0.6C4.4,7.9,4.2,8,4,7.8C3.9,7.7,3.7,7.4,3.7,7.2C3.7,7.1,3.8,7.1,3.9,7.1C3.9,7.1,3.9,7.1,3.9,7.1z M7,7.4
			c0.2,0.1,0.3,0.4,0.3,0.6C7.3,8.1,7.2,8.2,7,8C6.8,7.9,6.7,7.7,6.7,7.5c0-0.1,0-0.2,0.1-0.2C6.8,7.3,6.9,7.3,7,7.4z M2.9,7.3
			c0,0,0.1,0,0.1,0.1C3.2,7.6,3.4,7.8,3.4,8c0,0.2-0.2,0.2-0.3,0.1C2.9,7.9,2.7,7.7,2.7,7.5C2.7,7.4,2.8,7.3,2.9,7.3
			C2.9,7.3,2.9,7.3,2.9,7.3z M5.9,7.6c0,0,0.1,0,0.1,0.1C6.2,7.8,6.4,8,6.4,8.2S6.2,8.4,6,8.3C5.8,8.2,5.7,7.9,5.7,7.7
			C5.7,7.6,5.7,7.6,5.9,7.6C5.8,7.5,5.9,7.6,5.9,7.6z M2,7.6c0,0,0.1,0,0.1,0.1c0.2,0.1,0.3,0.4,0.3,0.6c0,0.2-0.2,0.2-0.3,0.1
			C1.9,8.2,1.7,7.9,1.7,7.8C1.7,7.7,1.8,7.6,2,7.6C1.9,7.6,1.9,7.6,2,7.6z M4.9,7.8c0,0,0.1,0,0.1,0.1C5.2,8,5.4,8.3,5.4,8.5
			c0,0.2-0.1,0.2-0.3,0.1C4.9,8.4,4.7,8.2,4.7,8C4.7,7.9,4.8,7.8,4.9,7.8C4.8,7.8,4.9,7.8,4.9,7.8z M3.9,8.1c0,0,0.1,0,0.1,0.1
			c0.2,0.1,0.3,0.4,0.3,0.6S4.2,8.9,4,8.8C3.9,8.7,3.7,8.4,3.7,8.2C3.7,8.1,3.8,8.1,3.9,8.1C3.9,8.1,3.9,8.1,3.9,8.1z M6.9,8.3
			c0,0,0.1,0,0.1,0.1c0.2,0.1,0.3,0.4,0.3,0.6S7.2,9.2,7,9C6.8,8.9,6.7,8.6,6.7,8.5C6.7,8.4,6.7,8.3,6.9,8.3
			C6.8,8.3,6.9,8.3,6.9,8.3z M3.1,8.4C3.2,8.5,3.4,8.8,3.4,9c0,0.2-0.2,0.2-0.3,0.1C2.9,8.9,2.7,8.7,2.7,8.5c0-0.1,0-0.1,0.1-0.2
			C2.9,8.3,3,8.3,3.1,8.4z M5.9,8.6c0,0,0.1,0,0.1,0.1C6.2,8.8,6.4,9,6.4,9.2c0,0.2-0.2,0.2-0.3,0.1C5.8,9.1,5.7,8.9,5.7,8.7
			C5.7,8.6,5.7,8.5,5.9,8.6C5.8,8.5,5.9,8.5,5.9,8.6z M4.9,8.8c0,0,0.1,0,0.1,0.1C5.2,9,5.4,9.3,5.4,9.5c0,0.2-0.1,0.2-0.3,0.1
			C4.9,9.4,4.7,9.1,4.7,9C4.7,8.9,4.8,8.8,4.9,8.8C4.8,8.8,4.9,8.8,4.9,8.8z M4,9.1c0.2,0.1,0.3,0.4,0.3,0.6c0,0.2-0.2,0.2-0.3,0.1
			C3.9,9.7,3.7,9.4,3.7,9.2c0-0.1,0-0.1,0.1-0.2C3.9,9,4,9.1,4,9.1z M6.9,9.3c0,0,0.1,0,0.1,0.1c0.2,0.1,0.3,0.4,0.3,0.6
			c0,0.2-0.2,0.2-0.3,0.1C6.8,9.9,6.7,9.6,6.7,9.4C6.7,9.3,6.7,9.3,6.9,9.3C6.8,9.3,6.9,9.3,6.9,9.3z M6,9.6
			c0.2,0.1,0.3,0.4,0.3,0.6c0,0.2-0.2,0.2-0.3,0.1c-0.2-0.1-0.3-0.4-0.3-0.6c0-0.1,0-0.1,0.1-0.2C5.8,9.5,5.9,9.5,6,9.6z M5,9.9
			c0.2,0.1,0.3,0.4,0.3,0.6c0,0.2-0.1,0.2-0.3,0.1c-0.2-0.1-0.3-0.4-0.3-0.6c0-0.1,0-0.1,0.1-0.2C4.9,9.8,5,9.8,5,9.9z M7,10.3
			c0.2,0.1,0.3,0.4,0.3,0.6c0,0.2-0.2,0.2-0.3,0.1c-0.2-0.1-0.3-0.4-0.3-0.6c0-0.1,0-0.1,0.1-0.2C6.8,10.2,6.9,10.3,7,10.3z
			 M15.5,10.4v30.2h12.4V10.4H15.5z M6,10.6c0.2,0.1,0.3,0.4,0.3,0.6c0,0.2-0.2,0.2-0.3,0.1c-0.2-0.1-0.3-0.4-0.3-0.6
			c0-0.1,0-0.2,0.1-0.2C5.8,10.5,5.9,10.5,6,10.6z M7,11.3c0.2,0.1,0.3,0.4,0.3,0.6c0,0.2-0.2,0.2-0.3,0.1c-0.2-0.1-0.3-0.4-0.3-0.6
			c0-0.1,0-0.2,0.1-0.2C6.8,11.2,6.9,11.3,7,11.3z M26.4,14.2h-9.1v-1.5h9.1V14.2z M26.4,16.2h-9.1v-1.5h9.1V16.2z M26.4,18.3h-9.1
			v-1.5h9.1V18.3z M26.4,20.3h-9.1v-1.5h9.1V20.3z M18.5,20.8C18.6,20.8,18.6,20.8,18.5,20.8C18.6,20.9,18.6,20.9,18.5,20.8
			C18.6,20.9,18.6,20.9,18.5,20.8c0.1,0.1,0.1,0.1,0.1,0.2v1c0,0,0,0.1,0,0.1c0,0,0,0,0,0c0,0,0,0,0,0c0,0-0.1,0-0.2,0c0,0,0,0,0,0
			c0,0,0,0,0,0c0,0,0-0.1,0-0.1v-1c0,0,0-0.1,0-0.1c0,0,0,0,0,0c0,0,0,0,0,0C18.4,20.8,18.5,20.8,18.5,20.8
			C18.5,20.8,18.5,20.8,18.5,20.8z M19,21.3C19,21.3,19,21.3,19,21.3C19,21.3,19,21.3,19,21.3C19,21.3,19,21.3,19,21.3
			C19.1,21.3,19.1,21.3,19,21.3c0.2,0.1,0.2,0.2,0.3,0.3c0.3,0.4,0.2,1-0.2,1.3c-0.4,0.3-1,0.2-1.3-0.2c-0.3-0.4-0.2-1,0.2-1.3
			c0,0,0.1,0,0.1,0c0,0,0.1,0,0.1,0c0,0,0,0,0,0c0,0,0,0,0,0c0,0,0,0.1,0,0.1c0,0,0,0,0,0c0,0,0,0,0,0c-0.3,0.2-0.4,0.6-0.1,0.9
			c0.2,0.3,0.6,0.4,0.9,0.1c0.3-0.2,0.4-0.6,0.1-0.9c0-0.1-0.1-0.1-0.1-0.1l0,0c-0.1,0-0.2-0.1-0.1-0.2C18.8,21.3,18.8,21.2,19,21.3
			C19,21.3,19,21.3,19,21.3z M25.9,21.8c0,0.3-0.2,0.5-0.5,0.5c-0.3,0-0.5-0.2-0.5-0.5s0.2-0.5,0.5-0.5
			C25.7,21.3,25.9,21.5,25.9,21.8z M24.4,21.8c0,0.3-0.2,0.5-0.5,0.5c-0.3,0-0.5-0.2-0.5-0.5s0.2-0.5,0.5-0.5
			C24.2,21.3,24.4,21.5,24.4,21.8z M27.3,33.1c-0.1,0.1-0.2,0.2-0.3,0.2H16.8c0,0,0,0,0,0c-0.1,0-0.3-0.1-0.3-0.3
			c0-0.1,0.1-0.3,0.3-0.3h10.2c0,0,0,0,0,0c0,0,0,0,0,0c0,0,0,0,0,0c0,0,0,0,0,0s0,0,0,0c0,0,0,0,0,0c0,0,0,0,0,0c0,0,0,0,0,0
			C27.2,32.8,27.3,32.9,27.3,33.1z M27.3,34.1c-0.1,0.1-0.2,0.2-0.3,0.2H16.8c0,0,0,0,0,0c-0.1,0-0.3-0.1-0.3-0.3
			c0-0.1,0.1-0.3,0.3-0.3h10.2c0,0,0,0,0,0c0,0,0,0,0,0c0,0,0,0,0,0c0,0,0,0,0,0s0,0,0,0c0,0,0,0,0,0c0,0,0,0,0,0c0,0,0,0,0,0
			C27.2,33.8,27.3,34,27.3,34.1z M27.3,35.1c-0.1,0.1-0.2,0.2-0.3,0.2H16.8c0,0,0,0,0,0c-0.1,0-0.3-0.1-0.3-0.3
			c0-0.1,0.1-0.3,0.3-0.3h10.2c0,0,0,0,0,0c0,0,0,0,0,0c0,0,0,0,0,0c0,0,0,0,0,0s0,0,0,0c0,0,0,0,0,0c0,0,0,0,0,0c0,0,0,0,0,0
			C27.2,34.8,27.3,35,27.3,35.1z M27.3,36.1c-0.1,0.1-0.2,0.2-0.3,0.2H16.8c0,0,0,0,0,0c-0.1,0-0.3-0.1-0.3-0.3
			c0-0.1,0.1-0.3,0.3-0.3h10.2c0,0,0,0,0,0c0,0,0,0,0,0c0,0,0,0,0,0c0,0,0,0,0,0s0,0,0,0c0,0,0,0,0,0c0,0,0,0,0,0c0,0,0,0,0,0
			C27.2,35.8,27.3,36,27.3,36.1z M27.1,36.8c0.1,0.1,0.2,0.2,0.2,0.3c-0.1,0.1-0.2,0.2-0.3,0.2H16.8c0,0,0,0,0,0
			c-0.1,0-0.3-0.1-0.3-0.3c0-0.1,0.1-0.3,0.3-0.3h10.2c0,0,0,0,0,0c0,0,0,0,0,0C27,36.8,27,36.8,27.1,36.8
			C27,36.8,27,36.8,27.1,36.8C27,36.8,27,36.8,27.1,36.8C27.1,36.8,27.1,36.8,27.1,36.8C27.1,36.8,27.1,36.8,27.1,36.8
			C27.1,36.8,27.1,36.8,27.1,36.8L27.1,36.8z M27.3,38.2c-0.1,0.1-0.2,0.2-0.3,0.2H16.8c0,0,0,0,0,0c-0.1,0-0.3-0.1-0.3-0.3
			c0-0.1,0.1-0.3,0.3-0.3h10.2c0,0,0,0,0,0c0,0,0,0,0,0c0,0,0,0,0,0c0,0,0,0,0,0s0,0,0,0c0,0,0,0,0,0c0,0,0,0,0,0c0,0,0,0,0,0
			C27.2,37.9,27.3,38,27.3,38.2z M27.3,39.2c-0.1,0.1-0.2,0.2-0.3,0.2H16.8c0,0-0.1,0-0.1,0c0,0-0.1,0-0.1-0.1c0,0,0,0,0,0
			c0,0,0,0,0,0c0,0,0,0,0,0c0,0,0,0,0,0c0,0,0,0,0,0c0,0,0,0,0,0v0c0,0,0,0,0,0c0,0,0,0,0,0c0,0,0,0,0,0c0,0,0,0,0,0
			c0,0,0-0.1,0.1-0.1c0,0,0,0,0,0c0,0,0,0,0,0c0,0,0.1,0,0.1,0h10.2c0,0,0,0,0,0c0,0,0,0,0,0c0,0,0,0,0,0c0,0,0,0,0,0s0,0,0,0
			c0,0,0,0,0,0c0,0,0,0,0,0c0,0,0,0,0,0C27.2,38.9,27.3,39,27.3,39.2z"/>
	</g>
</g>
</svg>
