<?xml version="1.0" encoding="utf-8"?>
<!-- Generator: Adobe Illustrator 18.0.0, SVG Export Plug-In . SVG Version: 6.00 Build 0)  -->
<!DOCTYPE svg PUBLIC "-//W3C//DTD SVG 1.1//EN" "http://www.w3.org/Graphics/SVG/1.1/DTD/svg11.dtd">
<svg version="1.1" id="Layer_1" xmlns="http://www.w3.org/2000/svg" xmlns:xlink="http://www.w3.org/1999/xlink" x="0px" y="0px"
	 viewBox="0 0 30.5 30.7" enable-background="new 0 0 30.5 30.7" xml:space="preserve">
<g>
	<g>
		<path fill="#3398CB" d="M28.3,30.7l-26.1,0c-1.6,0-2.6-1.3-2.2-2.8l0.6-2.2c0.4-1.6,2.1-2.8,3.7-2.8h21.7c1.6,0,3.3,1.3,3.7,2.8
			l0.6,2.2C30.9,29.4,29.9,30.7,28.3,30.7z"/>
		<path fill="#3398CB" d="M28.6,0H1.9C1.2,0,0.6,0.6,0.6,1.3v18.6c0,0.7,0.6,1.3,1.3,1.3h26.7c0.7,0,1.3-0.6,1.3-1.3V1.3
			C29.9,0.6,29.3,0,28.6,0z M27.4,18.6H3.2V2.5h24.2V18.6L27.4,18.6z"/>
	</g>
</g>
</svg>
