<?xml version="1.0" encoding="utf-8"?>
<!-- Generator: Adobe Illustrator 18.0.0, SVG Export Plug-In . SVG Version: 6.00 Build 0)  -->
<!DOCTYPE svg PUBLIC "-//W3C//DTD SVG 1.1//EN" "http://www.w3.org/Graphics/SVG/1.1/DTD/svg11.dtd">
<svg version="1.1" id="Layer_1" xmlns="http://www.w3.org/2000/svg" xmlns:xlink="http://www.w3.org/1999/xlink" x="0px" y="0px"
	 viewBox="0 0 29.4 26.2" enable-background="new 0 0 29.4 26.2" xml:space="preserve">
<g>
	<g>
		<g>
			<path fill="#3398CB" d="M29.3,22.7l-2.8-5.6c-0.2-0.5-0.5-0.9-0.9-1.2c0.4-0.3,0.6-0.8,0.6-1.3v-13c0-0.9-0.8-1.7-1.7-1.7H4.9
				C4,0,3.2,0.8,3.2,1.7v13c0,0.5,0.2,1,0.6,1.3c-0.4,0.3-0.7,0.7-0.9,1.2l-2.8,5.6c-0.2,0.6-0.1,2.3,0.2,2.8
				c0.3,0.4,0.8,0.7,1.4,0.7h25.9c0.6,0,1.1-0.3,1.4-0.7C29.5,25.1,29.5,23.3,29.3,22.7z M27.7,24H1.7c-0.6,0-0.9-0.4-0.7-1l2.8-5.6
				c0.2-0.5,0.8-1,1.4-1h19c0.6,0,1.2,0.4,1.4,1l2.8,5.6C28.6,23.6,28.3,24,27.7,24z M4.2,1.7C4.2,1.3,4.5,1,4.9,1h19.6
				c0.4,0,0.7,0.3,0.7,0.7v13c0,0.4-0.3,0.7-0.7,0.7H4.9c-0.4,0-0.7-0.3-0.7-0.7V1.7z"/>
			<path fill="#3398CB" d="M18.3,20.4c0-0.2-0.3-0.4-0.6-0.4h-6.1c-0.3,0-0.5,0.2-0.6,0.4l-0.5,2.1c0,0.1,0,0.3,0.1,0.4
				c0.1,0.1,0.2,0.1,0.4,0.1h7.2c0.1,0,0.3-0.1,0.4-0.1c0.1-0.1,0.1-0.2,0.1-0.4L18.3,20.4z"/>
			<path fill="#3398CB" d="M5.8,14.7h17.9c0.5,0,1-0.5,1-1v-11c0-0.5-0.5-1-1-1H5.8c-0.6,0-1,0.5-1,1v11C4.8,14.3,5.2,14.7,5.8,14.7
				z"/>
		</g>
	</g>
</g>
</svg>
