<?xml version="1.0" encoding="utf-8"?>
<!-- Generator: Adobe Illustrator 18.0.0, SVG Export Plug-In . SVG Version: 6.00 Build 0)  -->
<!DOCTYPE svg PUBLIC "-//W3C//DTD SVG 1.1//EN" "http://www.w3.org/Graphics/SVG/1.1/DTD/svg11.dtd">
<svg version="1.1" id="Layer_1" xmlns="http://www.w3.org/2000/svg" xmlns:xlink="http://www.w3.org/1999/xlink" x="0px" y="0px"
	 viewBox="0 0 32.2 35.7" enable-background="new 0 0 32.2 35.7" xml:space="preserve">
<path fill="#3398CB" d="M27.7,29.8v-2.4h-5.3V26h9.1c0.3,0,0.6-0.3,0.6-0.6V0.6C32,0.3,31.7,0,31.4,0H0.7C0.4,0,0.1,0.3,0.1,0.6
	v24.8c0,0.3,0.3,0.6,0.6,0.6h9.2v1.4H4.5v2.4L0,33.1v2.6h32.2v-2.6L27.7,29.8z M2.3,23.6V2.2c0-0.3,0.2-0.5,0.5-0.5h26.5
	c0.3,0,0.5,0.2,0.5,0.5v21.5c0,0.3-0.2,0.5-0.5,0.5H2.8C2.5,24.2,2.3,23.9,2.3,23.6z M1.6,32.9L5.7,30h20.9l4.1,2.9H1.6z"/>
</svg>
