<?xml version="1.0" encoding="utf-8"?>
<!-- Generator: Adobe Illustrator 18.0.0, SVG Export Plug-In . SVG Version: 6.00 Build 0)  -->
<!DOCTYPE svg PUBLIC "-//W3C//DTD SVG 1.1//EN" "http://www.w3.org/Graphics/SVG/1.1/DTD/svg11.dtd">
<svg version="1.1" id="Layer_1" xmlns="http://www.w3.org/2000/svg" xmlns:xlink="http://www.w3.org/1999/xlink" x="0px" y="0px"
	 viewBox="0 0 27.9 40.6" enable-background="new 0 0 27.9 40.6" xml:space="preserve">
<g>
	<g>
		<path id="path5203_9_" fill="#3398CB" d="M15.2,0L0.4,9.9h12.2L26.5,0H15.2z M27.3,0L12.9,10.3v30.1l15-12.5V0H27.3z M26.1,3.6
			c0.1,0,0.1,0.1,0.1,0.2c0,0.2-0.2,0.4-0.3,0.6c-0.2,0.1-0.3,0.1-0.3-0.1c0-0.2,0.2-0.4,0.3-0.6C25.9,3.7,26,3.6,26.1,3.6z
			 M25.1,4.4c0.1,0,0.1,0.1,0.1,0.2c0,0.2-0.2,0.4-0.3,0.6c-0.2,0.1-0.3,0.1-0.3-0.1c0-0.2,0.2-0.4,0.3-0.6
			C24.9,4.4,25,4.4,25.1,4.4z M26.1,4.6c0.1,0,0.1,0.1,0.1,0.2c0,0.2-0.2,0.5-0.3,0.6c-0.2,0.1-0.3,0.1-0.3-0.1
			c0-0.2,0.2-0.4,0.3-0.6C25.9,4.6,26,4.6,26.1,4.6z M24.1,5.1c0.1,0,0.1,0.1,0.1,0.2c0,0.2-0.1,0.5-0.3,0.6
			c-0.2,0.1-0.3,0.1-0.3-0.1c0-0.2,0.2-0.4,0.3-0.6C24,5.1,24,5.1,24.1,5.1z M25.1,5.4c0.1,0,0.1,0.1,0.1,0.2c0,0.2-0.2,0.4-0.3,0.6
			c-0.2,0.1-0.3,0.1-0.3-0.1c0-0.2,0.2-0.4,0.3-0.6C24.9,5.4,25,5.3,25.1,5.4z M26,5.6c0.1,0,0.1,0.1,0.1,0.2c0,0.2-0.2,0.4-0.3,0.6
			c-0.2,0.1-0.3,0.1-0.3-0.1c0-0.2,0.2-0.4,0.3-0.6C25.9,5.7,25.9,5.6,26,5.6C26,5.6,26,5.6,26,5.6z M23.1,5.8
			c0.1,0,0.1,0.1,0.1,0.2c0,0.2-0.2,0.5-0.3,0.6c-0.2,0.1-0.3,0.1-0.3-0.1c0-0.2,0.1-0.4,0.3-0.6C23,5.8,23.1,5.8,23.1,5.8z
			 M24.1,6.1c0.1,0,0.1,0.1,0.1,0.2c0,0.2-0.1,0.4-0.3,0.6c-0.2,0.1-0.3,0.1-0.3-0.1c0-0.2,0.2-0.4,0.3-0.6C24,6.1,24,6.1,24.1,6.1z
			 M25.1,6.3c0.1,0,0.1,0.1,0.1,0.2c0,0.2-0.2,0.4-0.3,0.6c-0.2,0.1-0.3,0.1-0.3-0.1c0-0.2,0.2-0.5,0.3-0.6
			C24.9,6.4,24.9,6.4,25.1,6.3C25,6.4,25,6.3,25.1,6.3z M22.1,6.6c0.1,0,0.1,0.1,0.1,0.2c0,0.2-0.2,0.4-0.3,0.6
			c-0.2,0.1-0.3,0.1-0.3-0.1c0-0.2,0.2-0.4,0.3-0.6C22,6.6,22.1,6.6,22.1,6.6z M26,6.6c0.1,0,0.1,0.1,0.1,0.2c0,0.2-0.2,0.4-0.3,0.6
			c-0.2,0.1-0.3,0.1-0.3-0.1c0-0.2,0.2-0.4,0.3-0.6C25.9,6.7,25.9,6.6,26,6.6C26,6.6,26,6.6,26,6.6z M23.1,6.8
			c0.1,0,0.1,0.1,0.1,0.2c0,0.2-0.2,0.4-0.3,0.6c-0.2,0.1-0.3,0.1-0.3-0.1c0-0.2,0.1-0.4,0.3-0.6C22.9,6.9,23,6.8,23.1,6.8
			C23,6.8,23.1,6.8,23.1,6.8z M24.1,7.1c0.1,0,0.1,0.1,0.1,0.2c0,0.2-0.1,0.4-0.3,0.6c-0.2,0.1-0.3,0.1-0.3-0.1
			c0-0.2,0.2-0.5,0.3-0.6C23.9,7.1,24,7.1,24.1,7.1C24,7.1,24.1,7.1,24.1,7.1z M21.1,7.3c0.1,0,0.1,0.1,0.1,0.2
			c0,0.2-0.2,0.4-0.3,0.6c-0.2,0.1-0.3,0.1-0.3-0.1c0-0.2,0.2-0.4,0.3-0.6C21,7.3,21.1,7.3,21.1,7.3z M25.1,7.3
			c0.1,0,0.1,0.1,0.1,0.2c0,0.2-0.2,0.4-0.3,0.6c-0.2,0.1-0.3,0.1-0.3-0.1c0-0.2,0.2-0.4,0.3-0.6C24.9,7.4,24.9,7.4,25.1,7.3
			C25,7.3,25,7.3,25.1,7.3z M22.1,7.6c0.1,0,0.1,0.1,0.1,0.2c0,0.2-0.2,0.4-0.3,0.6c-0.2,0.1-0.3,0.1-0.3-0.1s0.2-0.5,0.3-0.6
			C21.9,7.6,22,7.6,22.1,7.6C22,7.6,22.1,7.5,22.1,7.6z M26,7.6c0.1,0,0.1,0.1,0.1,0.2c0,0.2-0.2,0.4-0.3,0.6
			c-0.2,0.1-0.3,0.1-0.3-0.1c0-0.2,0.2-0.4,0.3-0.6C25.9,7.6,25.9,7.6,26,7.6C26,7.6,26,7.6,26,7.6z M23.1,7.8
			c0.1,0,0.1,0.1,0.1,0.2c0,0.2-0.2,0.4-0.3,0.6c-0.2,0.1-0.3,0.1-0.3-0.1c0-0.2,0.1-0.4,0.3-0.6C22.9,7.9,23,7.8,23.1,7.8
			C23,7.8,23.1,7.8,23.1,7.8z M24.1,8.1c0.1,0,0.1,0.1,0.1,0.2c0,0.2-0.1,0.4-0.3,0.6c-0.2,0.1-0.3,0.1-0.3-0.1
			c0-0.2,0.2-0.4,0.3-0.6C23.9,8.1,24,8.1,24.1,8.1C24,8.1,24.1,8.1,24.1,8.1z M21.1,8.3c0.1,0,0.1,0.1,0.1,0.2
			c0,0.2-0.2,0.4-0.3,0.6c-0.2,0.1-0.3,0.1-0.3-0.1s0.2-0.5,0.3-0.6C21,8.3,21,8.3,21.1,8.3C21.1,8.3,21.1,8.3,21.1,8.3z M25.1,8.3
			c0.1,0,0.1,0.1,0.1,0.2c0,0.2-0.2,0.4-0.3,0.6c-0.2,0.1-0.3,0.1-0.3-0.1c0-0.2,0.2-0.4,0.3-0.6C24.9,8.3,25,8.3,25.1,8.3z
			 M22.1,8.5c0.1,0,0.1,0.1,0.1,0.2c0,0.2-0.2,0.4-0.3,0.6c-0.2,0.1-0.3,0.1-0.3-0.1c0-0.2,0.2-0.4,0.3-0.6
			C21.9,8.6,22,8.6,22.1,8.5C22,8.5,22.1,8.5,22.1,8.5z M23.1,8.8c0.1,0,0.1,0.1,0.1,0.2c0,0.2-0.2,0.4-0.3,0.6
			c-0.2,0.1-0.3,0.1-0.3-0.1c0-0.2,0.1-0.4,0.3-0.6C22.9,8.8,23,8.8,23.1,8.8C23,8.8,23.1,8.8,23.1,8.8z M24.1,9.1
			c0.1,0,0.1,0.1,0.1,0.2c0,0.2-0.1,0.4-0.3,0.6c-0.2,0.1-0.3,0.1-0.3-0.1c0-0.2,0.2-0.4,0.3-0.6C24,9.1,24,9,24.1,9.1z M21.1,9.3
			c0.1,0,0.1,0.1,0.1,0.2c0,0.2-0.2,0.4-0.3,0.6c-0.2,0.1-0.3,0.1-0.3-0.1c0-0.2,0.2-0.4,0.3-0.6C21,9.3,21,9.3,21.1,9.3
			C21.1,9.3,21.1,9.3,21.1,9.3z M22.1,9.5c0.1,0,0.1,0.1,0.1,0.2c0,0.2-0.2,0.4-0.3,0.6c-0.2,0.1-0.3,0.1-0.3-0.1s0.2-0.4,0.3-0.6
			C22,9.5,22.1,9.5,22.1,9.5z M23.1,9.8c0.1,0,0.1,0.1,0.1,0.2c0,0.2-0.2,0.5-0.3,0.6c-0.2,0.1-0.3,0.1-0.3-0.1
			c0-0.2,0.1-0.4,0.3-0.6C23,9.8,23.1,9.8,23.1,9.8z M21.1,10.3c0.1,0,0.1,0.1,0.1,0.2c0,0.2-0.2,0.4-0.3,0.6
			c-0.2,0.1-0.3,0.1-0.3-0.1s0.2-0.4,0.3-0.6C21,10.3,21.1,10.2,21.1,10.3z M0,10.4v30.2h12.4V10.4H0z M22.1,10.5
			c0.1,0,0.1,0.1,0.1,0.2c0,0.2-0.2,0.4-0.3,0.6c-0.2,0.1-0.3,0.1-0.3-0.1c0-0.2,0.2-0.4,0.3-0.6C22,10.5,22.1,10.5,22.1,10.5z
			 M21.1,11.2c0.1,0,0.1,0.1,0.1,0.2c0,0.2-0.2,0.4-0.3,0.6c-0.2,0.1-0.3,0.1-0.3-0.1c0-0.2,0.2-0.4,0.3-0.6
			C21,11.3,21.1,11.2,21.1,11.2z M1.5,12.7h9.1v1.5H1.5V12.7z M1.5,14.7h9.1v1.5H1.5V14.7z M1.5,16.8h9.1v1.5H1.5V16.8z M1.5,18.8
			h9.1v1.5H1.5V18.8z M9.4,20.8c0,0,0.1,0,0.1,0c0,0,0,0,0,0c0,0,0,0,0,0c0,0,0,0.1,0,0.1v1c0,0,0,0.1,0,0.1c0,0,0,0,0,0
			c0,0,0,0,0,0c-0.1,0-0.1,0-0.2,0c0,0,0,0,0,0c0,0,0,0,0,0c0,0,0-0.1,0-0.1v-1c0,0,0-0.1,0-0.1C9.3,20.9,9.3,20.9,9.4,20.8
			C9.3,20.9,9.3,20.9,9.4,20.8C9.3,20.8,9.4,20.8,9.4,20.8C9.4,20.8,9.4,20.8,9.4,20.8z M9,21.3c0.1,0,0.2,0,0.2,0.1
			c0,0.1,0,0.2-0.1,0.2l0,0c-0.1,0-0.1,0.1-0.1,0.1C8.7,22,8.8,22.4,9,22.6c0.3,0.2,0.7,0.1,0.9-0.1c0.2-0.3,0.1-0.7-0.1-0.9
			c0,0,0,0,0,0c0,0,0,0,0,0c0,0,0-0.1,0-0.1c0,0,0,0,0,0c0,0,0,0,0,0c0,0,0.1,0,0.1,0c0,0,0.1,0,0.1,0c0.4,0.3,0.5,0.9,0.2,1.3
			s-0.9,0.5-1.3,0.2c-0.4-0.3-0.5-0.9-0.2-1.3c0.1-0.1,0.1-0.1,0.2-0.2c0,0,0,0,0,0C8.9,21.3,8.9,21.3,9,21.3
			C8.9,21.3,8.9,21.3,9,21.3C8.9,21.3,8.9,21.3,9,21.3C8.9,21.3,9,21.3,9,21.3z M2.5,21.3c0.3,0,0.5,0.2,0.5,0.5s-0.2,0.5-0.5,0.5
			c-0.3,0-0.5-0.2-0.5-0.5S2.3,21.3,2.5,21.3z M4,21.3c0.3,0,0.5,0.2,0.5,0.5S4.3,22.3,4,22.3c-0.3,0-0.5-0.2-0.5-0.5
			S3.7,21.3,4,21.3z M0.8,32.7C0.8,32.7,0.8,32.7,0.8,32.7C0.8,32.7,0.9,32.7,0.8,32.7C0.9,32.7,0.9,32.7,0.8,32.7
			C0.9,32.7,0.9,32.7,0.8,32.7C0.9,32.7,0.9,32.7,0.8,32.7c0.1,0,0.1,0,0.1,0c0,0,0,0,0,0c0,0,0,0,0,0h10.2c0.1,0,0.3,0.1,0.3,0.3
			c0,0.1-0.1,0.3-0.3,0.3c0,0,0,0,0,0H1c-0.1,0.1-0.3,0-0.3-0.2C0.6,32.9,0.7,32.8,0.8,32.7z M0.8,33.8C0.8,33.8,0.8,33.8,0.8,33.8
			C0.8,33.8,0.9,33.8,0.8,33.8C0.9,33.8,0.9,33.8,0.8,33.8C0.9,33.8,0.9,33.8,0.8,33.8C0.9,33.8,0.9,33.8,0.8,33.8
			c0.1,0,0.1,0,0.1,0c0,0,0,0,0,0c0,0,0,0,0,0h10.2c0.1,0,0.3,0.1,0.3,0.3c0,0.1-0.1,0.3-0.3,0.3c0,0,0,0,0,0H1
			c-0.1,0.1-0.3,0-0.3-0.2C0.6,34,0.7,33.8,0.8,33.8z M0.8,34.8C0.8,34.8,0.8,34.8,0.8,34.8C0.8,34.8,0.9,34.8,0.8,34.8
			C0.9,34.8,0.9,34.8,0.8,34.8C0.9,34.8,0.9,34.8,0.8,34.8C0.9,34.8,0.9,34.8,0.8,34.8c0.1,0,0.1,0,0.1,0c0,0,0,0,0,0c0,0,0,0,0,0
			h10.2c0.1,0,0.3,0.1,0.3,0.3c0,0.1-0.1,0.3-0.3,0.3c0,0,0,0,0,0H1c-0.1,0.1-0.3,0-0.3-0.2C0.6,35,0.7,34.8,0.8,34.8z M0.8,35.8
			C0.8,35.8,0.8,35.8,0.8,35.8C0.8,35.8,0.9,35.8,0.8,35.8C0.9,35.8,0.9,35.8,0.8,35.8C0.9,35.8,0.9,35.8,0.8,35.8
			C0.9,35.8,0.9,35.8,0.8,35.8c0.1,0,0.1,0,0.1,0c0,0,0,0,0,0c0,0,0,0,0,0h10.2c0.1,0,0.3,0.1,0.3,0.3c0,0.1-0.1,0.3-0.3,0.3
			c0,0,0,0,0,0H1c-0.1,0.1-0.3,0-0.3-0.2C0.6,36,0.7,35.8,0.8,35.8z M0.8,36.8C0.8,36.8,0.8,36.8,0.8,36.8
			C0.8,36.8,0.9,36.8,0.8,36.8C0.9,36.8,0.9,36.8,0.8,36.8C0.9,36.8,0.9,36.8,0.8,36.8C0.9,36.8,0.9,36.8,0.8,36.8
			c0.1,0,0.1,0,0.1,0c0,0,0,0,0,0c0,0,0,0,0,0h10.2c0.1,0,0.3,0.1,0.3,0.3c0,0.1-0.1,0.3-0.3,0.3c0,0,0,0,0,0H1
			c-0.1,0.1-0.3,0-0.3-0.2C0.6,37,0.7,36.9,0.8,36.8L0.8,36.8z M0.8,37.8C0.8,37.8,0.8,37.8,0.8,37.8C0.8,37.8,0.9,37.8,0.8,37.8
			C0.9,37.8,0.9,37.8,0.8,37.8C0.9,37.8,0.9,37.8,0.8,37.8C0.9,37.8,0.9,37.8,0.8,37.8c0.1,0,0.1,0,0.1,0c0,0,0,0,0,0c0,0,0,0,0,0
			h10.2c0.1,0,0.3,0.1,0.3,0.3c0,0.1-0.1,0.3-0.3,0.3c0,0,0,0,0,0H1c-0.1,0.1-0.3,0-0.3-0.2C0.6,38,0.7,37.9,0.8,37.8z M0.8,38.8
			C0.8,38.8,0.8,38.8,0.8,38.8C0.8,38.8,0.9,38.8,0.8,38.8C0.9,38.8,0.9,38.8,0.8,38.8C0.9,38.8,0.9,38.8,0.8,38.8
			C0.9,38.8,0.9,38.8,0.8,38.8c0.1,0,0.1,0,0.1,0c0,0,0,0,0,0c0,0,0,0,0,0h10.2c0,0,0.1,0,0.1,0c0,0,0,0,0,0c0,0,0,0,0,0
			c0,0,0,0,0.1,0.1c0,0,0,0,0,0c0,0,0,0,0,0c0,0,0,0,0,0c0,0,0,0,0,0c0,0,0,0,0,0c0,0,0,0,0,0c0,0,0,0,0,0v0c0,0,0,0,0,0
			c0,0,0,0,0,0c0,0,0,0,0,0c0,0-0.1,0.1-0.1,0.1c0,0-0.1,0-0.1,0H1c-0.1,0.1-0.3,0-0.3-0.2C0.6,39,0.7,38.9,0.8,38.8z"/>
	</g>
</g>
</svg>
