<?xml version="1.0" encoding="utf-8"?>
<!-- Generator: Adobe Illustrator 18.0.0, SVG Export Plug-In . SVG Version: 6.00 Build 0)  -->
<!DOCTYPE svg PUBLIC "-//W3C//DTD SVG 1.1//EN" "http://www.w3.org/Graphics/SVG/1.1/DTD/svg11.dtd">
<svg version="1.1" id="Layer_1" xmlns="http://www.w3.org/2000/svg" xmlns:xlink="http://www.w3.org/1999/xlink" x="0px" y="0px"
	 viewBox="0 0 8.7 17.5" enable-background="new 0 0 8.7 17.5" xml:space="preserve">
<path fill="#3398CB" d="M7.4,0.1H7.2v0c0,0,0-0.1-0.1-0.1H5.7C5.6,0,5.6,0,5.6,0.1v0H1.5c-0.8,0-1.4,0.6-1.4,1.4v0.2H0.1
	C0,1.7,0,1.7,0,1.7v0.7c0,0,0,0.1,0.1,0.1h0.1v1.2H0.1C0,3.7,0,3.8,0,3.8v0.5c0,0,0,0.1,0.1,0.1h0.1v0.7H0.1C0,5.1,0,5.1,0,5.2v0.5
	c0,0.1,0,0.1,0.1,0.1h0.1v10.4c0,0.8,0.6,1.4,1.4,1.4h5.9c0.7,0,1.4-0.6,1.4-1.4V1.5C8.7,0.7,8.1,0.1,7.4,0.1z M3.8,1.5H5
	c0.1,0,0.2,0.1,0.2,0.1c0,0.1-0.1,0.1-0.2,0.1H3.8c-0.1,0-0.2-0.1-0.2-0.1C3.6,1.5,3.7,1.5,3.8,1.5z M3.1,1.5c0.1,0,0.1,0.1,0.1,0.1
	c0,0.1-0.1,0.1-0.1,0.1C3,1.8,3,1.7,3,1.6C3,1.5,3,1.5,3.1,1.5z M4.4,16.7c-0.5,0-0.8-0.4-0.8-0.8S3.9,15,4.4,15
	c0.5,0,0.8,0.4,0.8,0.8S4.9,16.7,4.4,16.7z M8.2,14.3H0.5V2.8h7.7V14.3z"/>
</svg>
