<?xml version="1.0" encoding="utf-8"?>
<!-- Generator: Adobe Illustrator 18.0.0, SVG Export Plug-In . SVG Version: 6.00 Build 0)  -->
<!DOCTYPE svg PUBLIC "-//W3C//DTD SVG 1.1//EN" "http://www.w3.org/Graphics/SVG/1.1/DTD/svg11.dtd">
<svg version="1.1" id="Layer_1" xmlns="http://www.w3.org/2000/svg" xmlns:xlink="http://www.w3.org/1999/xlink" x="0px" y="0px"
	 viewBox="0 0 81.8 78.9" enable-background="new 0 0 81.8 78.9" xml:space="preserve">
<g opacity="0.63">
	<g>
		<path fill="#CCCCCC" d="M80.6,64.5c-0.7,0-1.8-0.1-1.8-0.1l0-0.7l-0.1-0.2l-0.2,0v-0.8l-0.1-0.2v-4.3c0.3,0,0.7,0,0.9,0.1v-0.8
			c-0.2-0.3-0.5-0.7-0.9-1v-0.6v-6.1v-4.1l-0.2-0.1v-3.7l0-0.1v-3.3L78,38.2V38h-0.2v0.2l-0.2,0.3h-0.4l-0.2,0.1l-1.6,0l-0.2-0.1
			l-0.4,0l-0.2-0.3V38h-0.2v0.2l-0.2,0.3v0.8l-0.1,0c-0.3,1.7-1.9,8.9-3.7,12.3c-2.8-4.2-5.8-14.3-8.4-24.6c-2.1-8.5-4-17.2-5-22.3
			V1.6l-0.6-0.8V0.1h-0.6v0.7l-0.6,0.8h-1L53.7,2l-4.7,0l-0.4-0.4h-1V1.5L47,0.7V0h-0.6v0.7l-0.6,0.8v1.1c-1.5,2.3-4,6.2-6.8,10.3
			c-4.4,6.5-9.8,14-13.6,18.1c-3.5,3.9-6.8,7.1-9.7,9.8l-1.8,1.6c-0.4,0.3-1.5,1.2-1.5,1.2c-5,4.1-9.1,6.6-12.4,7.9v7.9
			c1.4,0,11.5-0.5,30.7-1.4h9.2V57c2.3-0.2,4.3-0.4,5.3-0.5v14.6l-0.3,0.6V74l-0.5,0L44,74.6l0,2c0,0-3.2,0.2-5.2,0.3
			c-2,0.1-3.4,0.5-3.4,0.5v0.8c0,0,2.4,0.6,6.9,0.6c1.3,0,16.8,0,18.1,0c4.6,0,6.9-0.6,6.9-0.6v-0.8c0,0-1.4-0.4-3.4-0.5
			c-2-0.1-5.2-0.3-5.2-0.3l0-2L58.3,74l-0.4,0v-2.2l-0.3-0.6V55.8c9.1-0.3,13.8,0.2,16.5,1.6v5.1L74,62.7v0.8l-0.1,0l-0.1,0.2l0,0.7
			c0,0-1.1,0.1-1.8,0.1c-0.7,0-1.2,0.2-1.2,0.2V65c0,0,0.8,0.2,2.4,0.2c0.2,0,1.7,0,3.2,0c1.4,0,2.8,0,3,0c1.6,0,2.4-0.2,2.4-0.2
			v-0.3C81.8,64.7,81.3,64.6,80.6,64.5z M0.7,51.8l-0.4,0l0.4-0.2h0V51.8z M2.2,51.8l-1.1,0v-0.3c0.4-0.2,0.8-0.3,1.1-0.5L2.2,51.8z
			 M3.6,51.8l-1.1,0v-1c0.4-0.2,0.8-0.4,1.1-0.6V51.8z M5.1,51.7l-1.1,0v-1.7c0.4-0.2,0.8-0.4,1.1-0.7V51.7z M6.6,51.7l-1.1,0v-2.5
			c0.4-0.2,0.8-0.5,1.1-0.7V51.7z M8,51.7l-1.1,0v-3.4C7.2,48,7.6,47.8,8,47.5V51.7z M9.5,51.7l-1.1,0v-4.4c0.4-0.3,0.8-0.5,1.1-0.8
			V51.7z M10.9,51.6l-1.1,0v-5.4c0.4-0.3,0.8-0.6,1.1-0.9V51.6z M12.4,51.6l-1.1,0v-6.5c0.4-0.3,0.8-0.6,1.1-0.9V51.6z M13.9,51.6
			l-1.1,0v-7.7c0.4-0.3,0.8-0.6,1.1-1V51.6z M15.3,51.5l-0.2,0.1l-0.9,0v-8.9c0.4-0.3,0.8-0.7,1.1-1V51.5z M16.8,51.6l-0.3,0
			l0.3-0.1V51.6z M16.8,50.9c-0.4,0.2-0.8,0.3-1.1,0.5v-10c0.4-0.3,0.8-0.7,1.1-1V50.9z M18.3,51.6l-1.1,0v-0.3
			c0.4-0.2,0.8-0.3,1.1-0.5V51.6z M18.3,50.2c-0.4,0.2-0.8,0.4-1.1,0.5V40.1c0.4-0.4,0.8-0.7,1.1-1.1V50.2z M19.7,51.5l-1.1,0v-0.9
			c0.4-0.2,0.8-0.4,1.1-0.6V51.5z M19.7,49.5c-0.4,0.2-0.8,0.4-1.1,0.6V38.7c0.4-0.4,0.8-0.7,1.1-1.1V49.5z M21.2,51.5l-1.1,0v-1.7
			c0.4-0.2,0.8-0.4,1.1-0.7V51.5z M21.2,48.6c-0.4,0.2-0.8,0.5-1.1,0.7v-12c0.4-0.4,0.8-0.8,1.1-1.2V48.6z M22.7,51.5l-1.1,0V49
			c0.4-0.2,0.8-0.5,1.1-0.7V51.5z M22.7,47.7c-0.4,0.3-0.8,0.5-1.1,0.7V35.8c0.4-0.4,0.8-0.8,1.1-1.2V47.7z M24.1,51.5l-1.1,0v-3.5
			c0.4-0.3,0.8-0.5,1.1-0.8V51.5z M24.1,46.7c-0.4,0.3-0.8,0.5-1.1,0.8V34.3c0.4-0.4,0.8-0.8,1.1-1.2V46.7z M25.6,51.5l-1.1,0v-4.5
			c0.4-0.3,0.8-0.6,1.1-0.9V51.5z M25.6,45.6c-0.4,0.3-0.8,0.6-1.1,0.9V32.7c0.4-0.4,0.8-0.8,1.1-1.3V45.6z M27.1,51.5h-1.1V46
			c0.4-0.3,0.8-0.6,1.1-0.9V51.5z M27.1,44.4c-0.4,0.3-0.8,0.6-1.1,0.9V31.1c0.4-0.4,0.8-0.9,1.1-1.3V44.4z M28.5,51.5l-1.1,0v-6.8
			c0.4-0.3,0.8-0.6,1.1-1V51.5z M28.5,43.1c-0.4,0.3-0.8,0.7-1.1,1V29.4c0.4-0.4,0.8-0.9,1.1-1.4V43.1z M30,51.5l-1.1,0v-8
			c0.4-0.3,0.8-0.7,1.1-1.1V51.5z M30,41.8L29.8,42c-0.3,0.3-0.6,0.6-1,0.9V27.6c0.4-0.5,0.8-1,1.1-1.5V41.8z M31.5,51.5l-1.1,0
			v-9.4c0.4-0.4,0.8-0.8,1.1-1.2V51.5z M31.5,40.3c-0.4,0.4-0.8,0.8-1.1,1.2V25.7c0.4-0.5,0.8-1,1.1-1.5V40.3z M32.9,51.5l-1.1,0
			V40.6c0.4-0.4,0.8-0.8,1.1-1.3V51.5z M32.9,38.6c-0.4,0.4-0.8,0.9-1.1,1.3V23.8c0.4-0.5,0.8-1,1.1-1.6V38.6z M34.4,51.6l-1.1,0V39
			c0.4-0.4,0.8-0.9,1.1-1.4V51.6z M34.4,36.9c-0.4,0.5-0.8,0.9-1.1,1.4V21.8c0.4-0.5,0.8-1.1,1.1-1.6V36.9z M35.8,51.6l-1.1,0V37.3
			c0.4-0.5,0.8-1,1.1-1.5V51.6z M35.8,35c-0.4,0.5-0.8,1-1.1,1.5V19.8c0.4-0.5,0.8-1.1,1.1-1.6V35z M37.3,51.6l-1.1,0V35.4
			c0.4-0.5,0.8-1,1.1-1.5V51.6z M37.3,33c-0.4,0.5-0.8,1-1.1,1.6V17.7c0.4-0.5,0.8-1.1,1.1-1.6V33z M38.8,51.6l-1.1,0V33.4
			c0.4-0.5,0.8-1.1,1.1-1.6V51.6z M38.8,30.9c-0.4,0.6-0.8,1.1-1.1,1.6v-17c0.4-0.6,0.8-1.1,1.1-1.7V30.9z M40.2,51.6l-1.1,0V31.3
			c0.4-0.6,0.8-1.1,1.1-1.7V51.6z M40.2,28.8c-0.4,0.6-0.8,1.1-1.1,1.7v-17l0.2-0.3l0.9-1.4V28.8z M41.7,51.6l-1.2,0V29.2
			c0.4-0.6,0.8-1.2,1.2-1.8V51.6z M41.7,26.5c-0.4,0.6-0.8,1.2-1.2,1.8v-17l1.2-1.7V26.5z M43.2,51.7l-1.1,0V26.9
			c0.4-0.6,0.8-1.2,1.1-1.8V51.7z M43.2,24.2c-0.4,0.6-0.8,1.2-1.1,1.8V9.1l1.1-1.7V24.2z M44.6,51.7l-1.2,0V24.6
			c0.4-0.6,0.8-1.2,1.2-1.9V51.7z M44.6,21.8c-0.4,0.6-0.8,1.3-1.2,1.9V6.9l1.2-1.7V21.8z M45.7,22.1l-0.4,0.4v11.8v17.5l-0.3,0
			V22.2l0.7-1.2h0L45.7,22.1L45.7,22.1z M45.7,19.9L45,21.3V4.7l0.8-1.2L45.7,19.9z M53.7,5.2L53.7,5.2v0.2V5.2z M53.7,27.2
			L53.7,27.2c0.4,0.9,0.7,1.8,1,2.7v6.1h-0.3l-0.5,0.5h-0.2L53.7,27.2L53.7,27.2z M53.7,41.5l0,0.1l0.3,0.6l0.1,0.6l0.1,1.2l0.4,0.1
			V52c-0.5,0-1,0-1,0L53.7,41.5L53.7,41.5z M52.3,5.2h1.2V6c-0.4,0.7-0.7,1.4-1.2,2.2V5.2z M52.3,9.3c0.4-0.8,0.8-1.5,1.2-2.2v0.6
			v4.7l-1.2,0V9.3z M52.3,15.6h1.2v7.7l-0.3,0c-0.3-1-0.6-1.9-0.8-2.9L52.3,15.6z M52.3,22.2l0.3,1.1h-0.3V22.2z M52.3,27.2h1.2v9.4
			l-1.2,0V27.2z M52.3,41.1l1.2,0v10.8l-1.2,0V41.1z M50.8,5.2l1.1,0v3.6c-0.4,0.7-0.7,1.4-1.1,2.2V5.2z M50.8,12
			c0.4-0.7,0.8-1.4,1.1-2.1v2.6l-1,0h-0.1L50.8,12z M52,15.6v3.7c-0.4-1.3-0.7-2.5-1-3.7l0.9,0L52,15.6z M50.8,17.1
			c0.4,1.3,0.7,2.7,1.1,4v2.2h-1.1V17.1z M50.8,27.2h0.2H52v9.4h-1.1L50.8,27.2L50.8,27.2z M50.8,41.1l1.1,0v10.8l-1.1,0V41.1z
			 M52.4,56.1L51.6,57h-0.4l-0.6-0.8L52.4,56.1z M51.5,65.6h-0.2l-2.1-2.5v-0.4h4.4v0.4L51.5,65.6z M51.6,67.6l2.2,2.6v0.2h-4.8
			v-0.3l2.2-2.5v0L51.6,67.6L51.6,67.6z M49.2,61.8v-0.4l2.1-2.5h0.2l2.1,2.5v0.4H49.2z M50.5,41.1v10.7l-1.1,0V41.1H50.5z
			 M49.3,36.6v-9.4l1.1,0v9.4H49.3z M49.3,5.2l1.1,0v6.3l-0.4,0.8c-0.3-1-0.5-1.9-0.7-2.7V5.2z M49.3,11.6l0.2,0.8h-0.2V11.6z
			 M49.3,15.6l1.1,0l0.1,0.3l0,0v7.4h-1.1L49.3,15.6L49.3,15.6z M49.2,56.3l1.2,1.4v0.7l-2,2.4h-0.3v-4.4L49.2,56.3z M49,51.8
			l-0.9,0v-7.7l0.3-0.1l0.1-1.2l0.1-0.6l0.3-0.6l0.1-0.3h0L49,51.8L49,51.8z M48.1,36.1v-7.6l0.3-0.1l0.1-0.7l0.3-0.5l0.2,0v9.4
			h-0.2l-0.5-0.5H48.1z M48.7,5.4V5.2H49v3.2c-0.3-1.1-0.5-2.1-0.7-3H48.7z M47.9,5.8c0.3,1.4,0.7,2.9,1.1,4.6v1.3l0,0.7L48.6,12
			h-0.7V5.8z M47.9,17.2c0.3-0.6,0.6-1.1,0.9-1.6l0.2,0v7.7h-0.3l-0.5-0.5h-0.2v-0.3l-0.2-0.2V17.2z M48.1,69.3v-5.2v-0.3h0.4l0,0.2
			l1.9,2.2v0.7l-2,2.4L48.1,69.3L48.1,69.3z M54.4,73.9l-5.9,0l0-2.2l0.5-0.4H54l0.4,0.7L54.4,73.9L54.4,73.9z M54.7,64.2v5.2
			l-0.2,0l-2.1-2.5v-0.8l2.1-2.4h0.2V64.2z M54.7,60.7h-0.3l-2-2.3v-0.8l1.4-1.6l0.9-0.1V60.7z M54.9,22.4l-0.2,0.2v0.2h-0.2
			l-0.5,0.5h-0.3l0,0v-7.7h0.4v0.2h0.3l0.4,0.8L54.9,22.4L54.9,22.4z M54.9,6.4V12h-0.7l-0.5,0.4V7.7V6.5l0.5-1.1v0h0.5l0.1,0.1
			L54.9,6.4L54.9,6.4z M72.9,46.6c0.2-0.5,0.3-1.1,0.4-1.6v8.4c-0.2,0.1-0.4,0.2-0.7,0.2v-6.3C72.8,47.1,72.8,46.8,72.9,46.6z
			 M71.8,49.8c0.2-0.6,0.5-1.2,0.7-1.9l0,5.7c0,0,0.1,0,0.1,0c0,0,0,0,0,0c0,0-0.1,0-0.1,0c-0.2-0.1-0.4-0.2-0.7-0.4L71.8,49.8
			L71.8,49.8z M70.1,51.9l0.1,0.1l-0.1,0.1V51.9z M57.9,52.1l-0.4,0V37.9l0.4,0.9V52.1z M57.9,11.4v26.2l-0.4-1v-14l-0.3-0.2V8.2
			C57.5,9.2,57.7,10.2,57.9,11.4L57.9,11.4z M58.8,52.2l-0.7,0V39.3c0.2,0.5,0.4,1.1,0.7,1.6V52.2z M58.8,39.7
			c-0.2-0.5-0.4-1.1-0.7-1.7V12.2c0.2,1,0.4,2,0.7,3.1V39.7z M59.7,52.2l-0.7,0V41.4c0.2,0.5,0.4,1,0.7,1.5V52.2z M59.7,41.7
			c-0.2-0.5-0.4-1-0.7-1.6v-24c0.2,1,0.4,2,0.7,3V41.7z M60.5,52.3l-0.7-0.1v-9c0.2,0.5,0.4,1,0.7,1.4V52.3z M60.5,43.6
			c-0.2-0.5-0.4-1-0.7-1.5V19.9c0.2,0.9,0.4,1.9,0.7,2.9V43.6z M61.4,52.4l-0.7-0.1v-7.2c0.2,0.4,0.4,0.9,0.7,1.3V52.4z M61.4,45.3
			c-0.2-0.4-0.4-0.9-0.7-1.4V23.6c0.2,0.9,0.4,1.8,0.7,2.7V45.3z M62.2,52.4l-0.7-0.1v-5.7c0.2,0.4,0.4,0.8,0.7,1.2V52.4z M62.2,47
			c-0.2-0.4-0.4-0.8-0.7-1.2V27c0.2,0.9,0.4,1.8,0.7,2.6V47z M63.1,52.5l-0.7-0.1v-4.3c0.2,0.4,0.4,0.7,0.7,1.1V52.5z M63.1,48.4
			c-0.2-0.4-0.4-0.7-0.7-1.1V30.4c0.2,0.8,0.4,1.7,0.7,2.5V48.4z M63.9,52.6l-0.7-0.1v-3c0.2,0.3,0.4,0.6,0.7,0.9V52.6z M63.9,49.7
			c-0.2-0.3-0.4-0.6-0.7-1V33.5c0.2,0.8,0.4,1.6,0.7,2.4V49.7z M64.8,52.7l-0.7-0.1v-1.9c0.2,0.3,0.4,0.6,0.7,0.8V52.7z M64.8,50.8
			c-0.2-0.3-0.4-0.6-0.7-0.9V36.6c0.2,0.8,0.4,1.5,0.7,2.2V50.8z M65.7,52.8L65,52.7v-1c0.2,0.2,0.4,0.5,0.7,0.7V52.8z M65.7,51.7
			c-0.2-0.2-0.4-0.5-0.7-0.7V39.4c0.2,0.7,0.4,1.4,0.7,2.1V51.7z M65.8,52.8v-0.3c0.2,0.1,0.3,0.2,0.5,0.4L65.8,52.8z M66.5,52.5
			c-0.2-0.2-0.4-0.4-0.7-0.6V42c0.2,0.7,0.4,1.3,0.7,1.9V52.5z M67.4,53c-0.2-0.1-0.4-0.2-0.7-0.4v-8.1c0.2,0.6,0.4,1.2,0.7,1.8V53z
			 M68.2,53.2l-0.7-0.1v-6.4c0.2,0.6,0.4,1.1,0.7,1.6V53.2z M69.1,53.2c-0.1,0-0.1,0.1-0.2,0.1l-0.5-0.1v-4.5c0.2,0.5,0.4,1,0.7,1.4
			V53.2z M69.9,53.5l-0.3-0.1c0.1-0.1,0.2-0.2,0.3-0.3V53.5z M69.9,52.4c-0.2,0.3-0.4,0.5-0.7,0.7v-2.7c0.2,0.4,0.4,0.8,0.7,1.2
			V52.4z M70.8,53.7c-0.2-0.1-0.4-0.1-0.7-0.1v-0.6c0.1-0.2,0.3-0.3,0.4-0.5c0.1,0.1,0.2,0.3,0.3,0.4V53.7z M71.7,53.9
			c-0.2-0.1-0.4-0.1-0.7-0.2V53c0.2,0.2,0.4,0.5,0.7,0.6V53.9z M71.7,53c-0.2-0.2-0.4-0.4-0.7-0.7v-0.7c0.2-0.4,0.5-0.9,0.7-1.4V53z
			 M73.4,54.3c-0.2-0.1-0.4-0.1-0.7-0.2c0,0-0.1,0-0.2,0c-0.2-0.1-0.4-0.1-0.7-0.2v-0.1c0.2,0.1,0.5,0.2,0.7,0.3c0,0,0.1,0,0.1,0
			c0.2,0,0.5,0,0.7-0.1h0L73.4,54.3L73.4,54.3L73.4,54.3z M74.1,54.5c-0.2-0.1-0.4-0.1-0.6-0.2v-0.5c0.2-0.1,0.4-0.3,0.6-0.5V54.5z
			 M74.2,45.6l-0.1,0.1v4.1v2.7c-0.2,0.3-0.4,0.6-0.6,0.8v-8.9c0.3-1,0.5-2,0.7-2.8V45.6z M77,39.8h0.2v0.1h0.1
			c-0.1,0.5-0.2,1.1-0.3,1.8L77,39.8L77,39.8z M76.1,39.8l0.8,0v2.4l0,0l-0.8,0V39.8z M76.9,45v1h-0.2C76.8,45.7,76.8,45.3,76.9,45z
			 M76.7,43.3c-0.2,0.8-0.3,1.7-0.5,2.7h-0.1l0-2.7L76.7,43.3z M76.1,48.4c0.1-0.3,0.2-0.7,0.3-1.1l0.5,0v3.2h-0.8V48.4z M76.1,52.1
			h0.3h0.5v3.4c-0.2-0.1-0.5-0.2-0.8-0.3V52.1z M76.3,60.6L76.3,60.6l-0.8-0.8v-0.1H77v0.1L76.3,60.6z M76.3,61.3l0.7,0.9v0.1h-1.6
			v-0.1l0.8-0.9L76.3,61.3L76.3,61.3z M75.5,52.1H76v3.1c-0.2-0.1-0.5-0.2-0.8-0.3v-2l0-0.1l0-0.2l0.1-0.2L75.5,52.1z M75.5,50.6
			c0.2-0.6,0.4-1.2,0.6-1.8v1.8L75.5,50.6z M75.9,58.1l-0.7,0.8h-0.1V58C75.2,58.1,75.5,58.1,75.9,58.1z M75.5,59.3v-0.2l0.7-0.9
			h0.1l0.7,0.9v0.1l0,0L75.5,59.3L75.5,59.3z M75.3,39.8L75.3,39.8l0.7-0.1l0,0v2.5l-0.6,0l-0.2-0.1L75.3,39.8L75.3,39.8L75.3,39.8z
			 M75.3,43.4L75.3,43.4l0.7-0.1V46l-0.7,0l-0.1-0.1L75.3,43.4z M75.3,47.5L75.3,47.5l0.6-0.1c-0.2,0.8-0.4,1.6-0.6,2.3l0,0
			L75.3,47.5L75.3,47.5z M75.2,49.9l-0.1,0.2v-0.3v-2l0.1,0V49.9z M74.9,41.8V40l0.1-0.2h0.1v2.3H75L74.9,41.8L74.9,41.8z M75,43.8
			l0.2-0.3l0,2.4h-0.1v-0.1L75,45.6L75,43.8z M75.1,53.2L75.1,53.2l0.1,1.7l-0.1,0V53.2z M75.1,61.9v-1.8V60h0.1l0.7,0.8v0.3
			L75.1,61.9L75.1,61.9z M77.3,63.5l-2,0v-0.7l0.1-0.2h1.8l0.2,0.1L77.3,63.5z M77.4,60.1v1.8h-0.1l-0.7-0.8v-0.3l0.6-0.8l0-0.1h0.2
			V60.1z M77.4,58.9h-0.1l-0.7-0.8l0.8,0V58.9z M77.4,55.8c-0.1-0.1-0.3-0.1-0.4-0.2v-3.5H77l0,0.2l0.1,0.2l0,0.2l0,0.4l0.1,0
			L77.4,55.8L77.4,55.8z M77.4,49.8v0.6h-0.1l-0.2,0.2H77v-3.2l0.2,0l0.1,0.2l0,0.2l0.1,0L77.4,49.8L77.4,49.8z M77.5,45.6L77.2,46
			H77v-1.5c0.1-0.4,0.1-0.8,0.2-1.1h0.1l0.2,0.4V45.6z M77.6,41.8L77.6,41.8l0,0.3h-0.1c0.1-0.4,0.1-0.7,0.2-1L77.6,41.8L77.6,41.8z
			"/>
	</g>
</g>
</svg>
