<?xml version="1.0" encoding="utf-8"?>
<!-- Generator: Adobe Illustrator 18.1.1, SVG Export Plug-In . SVG Version: 6.00 Build 0)  -->
<!DOCTYPE svg PUBLIC "-//W3C//DTD SVG 1.1//EN" "http://www.w3.org/Graphics/SVG/1.1/DTD/svg11.dtd">
<svg version="1.1" id="Layer_1" xmlns="http://www.w3.org/2000/svg" xmlns:xlink="http://www.w3.org/1999/xlink" x="0px" y="0px"
	 viewBox="0 0 118 118" enable-background="new 0 0 118 118" xml:space="preserve">
<g>
	<circle fill="#0F97B8" cx="59" cy="59" r="59"/>
	<g>
		<path fill="#0B97AF" d="M113.2,36.7c12.4,30.1-1.7,64.2-31.8,76.7s-64.5-2-76.9-32.1"/>
	</g>
	<g>
		<defs>
			<circle id="SVGID_1_" cx="59" cy="59" r="56.9"/>
		</defs>
		<clipPath id="SVGID_2_">
			<use xlink:href="#SVGID_1_"  overflow="visible"/>
		</clipPath>
		<g clip-path="url(#SVGID_2_)">
			<polygon fill="#FFFFFF" points="3,77.4 2.7,76.5 115.3,76.5 115,77.4 			"/>
			<polygon fill="#FFFFFF" points="4,80.4 3.7,79.5 114.3,79.5 114,80.4 			"/>
			<polygon fill="#FFFFFF" points="5.7,84.3 5.3,83.5 112.6,83.5 112.2,84.3 			"/>
			<polygon fill="#FFFFFF" points="9,90.3 8.5,89.4 109.5,89.4 109,90.3 			"/>
		</g>
	</g>
	<rect x="45.6" y="29.5" fill="#FFFFFF" width="26.9" height="44.3"/>
	<path fill="#FFFFFF" d="M72.4,76.6l-26.9,0L12.7,92.3c0,0,8.2,12.3,23.3,18.7c8.1,3.5,15.9,4.6,22.7,4.5c6.8,0,14.6-1.1,22.7-4.5
		c15-6.4,23.3-18.7,23.3-18.7L72.4,76.6z"/>
	<rect x="38.8" y="83.5" fill="#0F97B8" width="40.4" height="0.9"/>
	<rect x="44.3" y="79.5" fill="#0F97B8" width="29.4" height="0.9"/>
	<rect x="25.5" y="89.4" fill="#0F97B8" width="67" height="0.9"/>
	<rect x="23.2" y="99.1" fill="#0F97B8" width="71.5" height="0.9"/>
</g>
</svg>
