<?xml version="1.0" encoding="utf-8"?>
<!-- Generator: Adobe Illustrator 18.1.1, SVG Export Plug-In . SVG Version: 6.00 Build 0)  -->
<!DOCTYPE svg PUBLIC "-//W3C//DTD SVG 1.1//EN" "http://www.w3.org/Graphics/SVG/1.1/DTD/svg11.dtd">
<svg version="1.1" id="Layer_1" xmlns="http://www.w3.org/2000/svg" xmlns:xlink="http://www.w3.org/1999/xlink" x="0px" y="0px"
	 viewBox="0 0 86.2 67.8" enable-background="new 0 0 86.2 67.8" xml:space="preserve">
<g>
	<path fill="#0F96B7" d="M64.9,12.6c2.5,0.2,4.7-1.7,4.9-5.1c0.2-3.4-1.6-6.9-4.1-7.1c-2.5-0.2-4.7,1.7-4.9,5.1
		C60.6,8.8,62.4,12.4,64.9,12.6z"/>
	<path fill="#0F96B7" d="M19.3,12.2c2.5-0.2,4.3-3.7,4.1-7.1C23.2,1.7,21-0.1,18.5,0c-2.5,0.2-4.3,3.7-4.1,7.1
		C14.7,10.5,16.8,12.3,19.3,12.2z"/>
	<path fill="#0F96B7" d="M37.7,21.2c-5.7,3-6.1-4.9-10.5-6.3c-2.2-0.7-4.4-0.6-5.8-0.6c-1.1,0-8.7-0.4-10.6,0.3
		C6,16.5,6.9,25.2,6.9,28.4c0,2.3,1.4,4.2,3.1,5.7c0,1.4,0,2.4,0,2.4c0,1.3,0.2,2.5,0.5,3.6H1.7C0.7,40,0,40.7,0,41.7
		c0,0.9,0.7,1.7,1.7,1.7h10.4c3.4,5.5,10,9.2,10.5,21.1c0.2,3.8,4.3,3.8,5,0c1.3-8-3.9-17.4-5.7-21.9c2.7,0.1,9.8,1,9.8,1
		c-0.8,1.1-2.1,2.4-3.8,5.2c-1.8,2.8,1.8,4.8,3.8,3c4-3.5,10.4-8.8,7.3-11.7c-2.9-2.7-13.4-5.2-13.4-5.2c0.2-4.4,0.7-13.1,0.7-13.1
		s5.5,9.1,14.3,3.4C43.6,23.1,40.8,19.6,37.7,21.2z"/>
	<path fill="#0F96B7" d="M84.6,40H74.5c0.3-1,0.5-2.1,0.5-3.6c0,0-1.3-9.3-1.4-14.6C77.3,24,78,30.2,78,35.3c0,4,4,4.2,4.5,0.4
		c0.9-6.1-0.3-19.1-10.4-21.4c-2-0.5-7.2,0.7-11.2,0.6c-5.4-0.2-6.1,9.6-17.3,13.9c-2.6,1.6-1.3,5.1,3.1,3.7
		c7.8-2.7,12.1-9.2,12.1-9.2s0.4,8.7,0.5,13.1c0,0-1.1,1.3-2.7,3.6H43.8c-0.9,0-1.7,0.7-1.7,1.7c0,0.9,0.7,1.7,1.7,1.7h10.6
		c-0.8,1.3-1.7,2.7-2.5,4.2c-3.4,6.2-5,14-5.7,16.6c-0.9,3.7,3.5,5,4.6,1.3c1.1-3.6,2.9-8.6,4.3-11c2.4-4.4,4.9-8.1,8.8-11.2
		c0,0-2.3,5.6-1.3,11.2C63.4,59,65.1,63,66.9,66c2,3.4,6.1,1.5,4.5-2c-1.4-3-2.9-9.2-2.5-12.3c0.5-4.3,2.4-6.2,3.9-8.4h11.8
		c0.9,0,1.7-0.7,1.7-1.7C86.2,40.7,85.5,40,84.6,40z"/>
</g>
</svg>
