<?xml version="1.0" encoding="utf-8"?>
<!-- Generator: Adobe Illustrator 18.0.0, SVG Export Plug-In . SVG Version: 6.00 Build 0)  -->
<!DOCTYPE svg PUBLIC "-//W3C//DTD SVG 1.1//EN" "http://www.w3.org/Graphics/SVG/1.1/DTD/svg11.dtd">
<svg version="1.1" id="Layer_1" xmlns="http://www.w3.org/2000/svg" xmlns:xlink="http://www.w3.org/1999/xlink" x="0px" y="0px"
	 viewBox="0 0 595.8 370" enable-background="new 0 0 595.8 370" xml:space="preserve">
<g>
	
		<line fill-rule="evenodd" clip-rule="evenodd" fill="none" stroke="#95AEC6" stroke-width="0.5" stroke-miterlimit="10" x1="114.6" y1="181.1" x2="270.4" y2="240.2"/>
	
		<line fill-rule="evenodd" clip-rule="evenodd" fill="none" stroke="#95AEC6" stroke-width="0.5" stroke-miterlimit="10" x1="114.6" y1="181" x2="193.7" y2="160.6"/>
	<polygon fill-rule="evenodd" clip-rule="evenodd" fill="#3398CB" points="149.1,157.1 113.1,145.1 110.8,106.7 147.3,117.3 	"/>
	<polyline fill-rule="evenodd" clip-rule="evenodd" fill="#5F9CAF" points="147.6,117.7 192.4,107.6 193.3,146.5 149.1,157.1 
		147.6,117.7 	"/>
	<polygon fill-rule="evenodd" clip-rule="evenodd" fill="#82BFD8" points="147.3,117.2 110.8,106.6 156.2,97.6 193.6,107.1 	"/>
	
		<polyline fill-rule="evenodd" clip-rule="evenodd" fill="none" stroke="#000000" stroke-width="0.5" stroke-miterlimit="10" points="
		270.4,53.3 432.6,81.4 432.2,87 	"/>
	<rect x="306.5" y="56" fill-rule="evenodd" clip-rule="evenodd" fill="#FFFFFF" width="8.4" height="9.2"/>
	<rect x="383.3" y="69.2" fill-rule="evenodd" clip-rule="evenodd" fill="#FFFFFF" width="8.4" height="8.4"/>
	
		<polyline fill-rule="evenodd" clip-rule="evenodd" fill="none" stroke="#000000" stroke-width="0.5" stroke-miterlimit="10" points="
		110.4,99.3 110.1,93.5 195,77.5 195,83.5 	"/>
	
		<polyline fill-rule="evenodd" clip-rule="evenodd" fill="none" stroke="#000000" stroke-width="0.5" stroke-miterlimit="10" points="
		109.7,87 109.4,81.4 270.4,53.3 	"/>
	<rect x="226" y="56.3" fill-rule="evenodd" clip-rule="evenodd" fill="#FFFFFF" width="8.4" height="8.4"/>
	<polygon fill-rule="evenodd" clip-rule="evenodd" fill="#82BFD8" points="414.1,111.2 395,106.7 409.7,102.6 429.7,106.7 	"/>
	
		<line fill-rule="evenodd" clip-rule="evenodd" fill="none" stroke="#95AEC6" stroke-width="0.5" stroke-miterlimit="10" x1="395.3" y1="107" x2="372.6" y2="112.7"/>
	
		<line fill-rule="evenodd" clip-rule="evenodd" fill="none" stroke="#95AEC6" stroke-width="0.5" stroke-miterlimit="10" x1="394.9" y1="126.2" x2="372.4" y2="132"/>
	<polygon fill-rule="evenodd" clip-rule="evenodd" fill="#5F9CAF" points="429.9,126.7 413.8,131.4 414,111.8 431,107 	"/>
	
		<line fill-rule="evenodd" clip-rule="evenodd" fill="none" stroke="#95AEC6" stroke-width="0.5" stroke-miterlimit="10" x1="387.5" y1="97.8" x2="348.7" y2="108.3"/>
	<polyline fill-rule="evenodd" clip-rule="evenodd" fill="none" stroke="#489BD3" stroke-miterlimit="10" points="269.3,74.8 
		110.8,106.7 119.5,258.5 	"/>
	
		<line fill-rule="evenodd" clip-rule="evenodd" fill="none" stroke="#000000" stroke-width="3" stroke-miterlimit="10" x1="270.4" y1="205.5" x2="270.4" y2="37.8"/>
	
		<line fill-rule="evenodd" clip-rule="evenodd" fill="none" stroke="#95AEC6" stroke-width="0.5" stroke-miterlimit="10" x1="429" y1="146.4" x2="394.4" y2="158.1"/>
	
		<line fill-rule="evenodd" clip-rule="evenodd" fill="none" stroke="#489BD3" stroke-miterlimit="10" x1="422.1" y1="258.1" x2="270.4" y2="331.5"/>
	
		<line fill-rule="evenodd" clip-rule="evenodd" fill="none" stroke="#95AEC6" stroke-width="0.5" stroke-miterlimit="10" x1="113.1" y1="145.1" x2="185.4" y2="169.1"/>
	
		<line fill-rule="evenodd" clip-rule="evenodd" fill="none" stroke="#95AEC6" stroke-width="0.5" stroke-miterlimit="10" x1="157.9" y1="169.8" x2="232.1" y2="194.4"/>
	
		<line fill-rule="evenodd" clip-rule="evenodd" fill="none" stroke="#95AEC6" stroke-width="0.5" stroke-miterlimit="10" x1="157" y1="97.9" x2="231.3" y2="117"/>
	
		<line fill-rule="evenodd" clip-rule="evenodd" fill="none" stroke="#95AEC6" stroke-width="0.5" stroke-miterlimit="10" x1="193.7" y1="160.6" x2="266.6" y2="182.4"/>
	
		<line fill-rule="evenodd" clip-rule="evenodd" fill="none" stroke="#95AEC6" stroke-width="0.5" stroke-miterlimit="10" x1="146.9" y1="117.6" x2="230.9" y2="98.7"/>
	
		<line fill-rule="evenodd" clip-rule="evenodd" fill="none" stroke="#95AEC6" stroke-width="0.5" stroke-miterlimit="10" x1="149.1" y1="157.1" x2="231.3" y2="137.4"/>
	
		<line fill-rule="evenodd" clip-rule="evenodd" fill="none" stroke="#95AEC6" stroke-width="0.5" stroke-miterlimit="10" x1="150.1" y1="194.8" x2="231.7" y2="172.1"/>
	
		<line fill-rule="evenodd" clip-rule="evenodd" fill="none" stroke="#95AEC6" stroke-width="0.5" stroke-miterlimit="10" x1="185.4" y1="169.1" x2="270.4" y2="148.5"/>
	
		<line fill-rule="evenodd" clip-rule="evenodd" fill="none" stroke="#95AEC6" stroke-width="0.5" stroke-miterlimit="10" x1="195" y1="90.3" x2="394.6" y2="137.4"/>
	
		<line fill-rule="evenodd" clip-rule="evenodd" fill="none" stroke="#95AEC6" stroke-width="0.5" stroke-miterlimit="10" x1="348.6" y1="90.3" x2="184.1" y2="127.8"/>
	
		<line fill-rule="evenodd" clip-rule="evenodd" fill="none" stroke="#95AEC6" stroke-width="0.5" stroke-miterlimit="10" x1="426.7" y1="179.8" x2="270.4" y2="240.2"/>
	
		<line fill-rule="evenodd" clip-rule="evenodd" fill="none" stroke="#95AEC6" stroke-width="0.5" stroke-miterlimit="10" x1="355.6" y1="127.8" x2="354.1" y2="290.6"/>
	
		<line fill-rule="evenodd" clip-rule="evenodd" fill="none" stroke="#95AEC6" stroke-width="0.5" stroke-miterlimit="10" x1="413.7" y1="131.5" x2="413.1" y2="151.8"/>
	
		<line fill-rule="evenodd" clip-rule="evenodd" fill="none" stroke="#95AEC6" stroke-width="0.5" stroke-miterlimit="10" x1="372.6" y1="112.7" x2="372.6" y2="152.2"/>
	
		<line fill-rule="evenodd" clip-rule="evenodd" fill="none" stroke="#95AEC6" stroke-width="0.5" stroke-miterlimit="10" x1="349" y1="108.3" x2="349" y2="145.8"/>
	
		<line fill-rule="evenodd" clip-rule="evenodd" fill="none" stroke="#95AEC6" stroke-width="0.5" stroke-miterlimit="10" x1="430.1" y1="126.6" x2="395" y2="137.5"/>
	
		<line fill-rule="evenodd" clip-rule="evenodd" fill="none" stroke="#95AEC6" stroke-width="0.5" stroke-miterlimit="10" x1="395.2" y1="117.3" x2="348.9" y2="108.2"/>
	
		<line fill-rule="evenodd" clip-rule="evenodd" fill="none" stroke="#95AEC6" stroke-width="0.5" stroke-miterlimit="10" x1="395.5" y1="107" x2="370.7" y2="102.2"/>
	
		<line fill-rule="evenodd" clip-rule="evenodd" fill="none" stroke="#95AEC6" stroke-width="0.5" stroke-miterlimit="10" x1="394.4" y1="158" x2="348.9" y2="145.8"/>
	
		<line fill-rule="evenodd" clip-rule="evenodd" fill="none" stroke="#000000" stroke-width="3" stroke-miterlimit="10" x1="97.9" y1="267.5" x2="270.4" y2="205.5"/>
	<polygon fill-rule="evenodd" clip-rule="evenodd" points="100.3,261 82.8,272.5 102.1,271.1 	"/>
	<polygon fill-rule="evenodd" clip-rule="evenodd" points="470.8,263.9 479.5,283.2 484.8,285.1 477,266.2 	"/>
	<polygon fill-rule="evenodd" clip-rule="evenodd" points="484,268.7 489.2,270.6 471.7,280.3 466.4,278.2 	"/>
	<polygon fill-rule="evenodd" clip-rule="evenodd" points="72.6,267.1 62.4,283 62.4,288 80.5,281.4 80.5,277.5 68.7,281.3 
		78.9,264.4 78.5,260.6 60.8,266.4 61.3,271 	"/>
	<g>
		<path d="M268.7,16.5V9.8L262.3,0h4l4.1,6.6l4.1-6.6h4l-6.3,9.8v6.8H268.7z"/>
	</g>
	<polygon points="270.4,21.7 265.3,39.1 275.5,39.1 	"/>
	
		<polyline fill-rule="evenodd" clip-rule="evenodd" fill="none" stroke="#000000" stroke-width="0.5" stroke-miterlimit="10" points="
		387.2,94.8 387.2,89.8 431.6,98.4 431.3,103.3 	"/>
	
		<line fill-rule="evenodd" clip-rule="evenodd" fill="none" stroke="#000000" stroke-width="0.5" stroke-miterlimit="10" x1="387.2" y1="86.7" x2="387.2" y2="81.8"/>
	
		<line fill-rule="evenodd" clip-rule="evenodd" fill="none" stroke="#000000" stroke-width="0.5" stroke-miterlimit="10" x1="349.5" y1="71.5" x2="349.5" y2="67"/>
	
		<line fill-rule="evenodd" clip-rule="evenodd" fill="none" stroke="#000000" stroke-width="0.5" stroke-miterlimit="10" x1="195" y1="71.3" x2="195" y2="66.5"/>
	
		<line fill-rule="evenodd" clip-rule="evenodd" fill="none" stroke="#000000" stroke-width="0.5" stroke-miterlimit="10" x1="409.8" y1="94.2" x2="409.8" y2="99"/>
	
		<line fill-rule="evenodd" clip-rule="evenodd" fill="none" stroke="#95AEC6" stroke-width="0.5" stroke-miterlimit="10" x1="184.1" y1="127.8" x2="188.8" y2="293.1"/>
	
		<line fill-rule="evenodd" clip-rule="evenodd" fill="none" stroke="#95AEC6" stroke-width="0.5" stroke-miterlimit="10" x1="147.3" y1="117.3" x2="150.7" y2="194.4"/>
	
		<line fill-rule="evenodd" clip-rule="evenodd" fill="none" stroke="#95AEC6" stroke-width="0.5" stroke-miterlimit="10" x1="231.3" y1="117" x2="232.1" y2="194.4"/>
	
		<line fill-rule="evenodd" clip-rule="evenodd" fill="none" stroke="#95AEC6" stroke-width="0.5" stroke-miterlimit="10" x1="192.5" y1="107.4" x2="194.2" y2="182.4"/>
	
		<line fill-rule="evenodd" clip-rule="evenodd" fill="none" stroke="#95AEC6" stroke-width="0.5" stroke-miterlimit="10" x1="270.4" y1="108.1" x2="270.4" y2="183.1"/>
	<polyline fill-rule="evenodd" clip-rule="evenodd" fill="none" stroke="#489BD3" stroke-miterlimit="10" points="272,74.8 
		431.1,106.7 422.1,257.3 	"/>
	
		<line fill-rule="evenodd" clip-rule="evenodd" fill="none" stroke="#000000" stroke-width="3" stroke-miterlimit="10" x1="442.9" y1="264.4" x2="270.4" y2="205.5"/>
	<polygon fill-rule="evenodd" clip-rule="evenodd" points="442.9,259.2 461.2,269.4 441.9,269.4 	"/>
	<polygon fill-rule="evenodd" clip-rule="evenodd" fill="#5F9CAF" points="270.4,331.2 353.8,290.6 354.8,207 270.4,240.2 	"/>
	<polygon fill-rule="evenodd" clip-rule="evenodd" fill="#3398CB" points="270.4,331.5 188.8,291.7 186.4,208.4 270.4,240.2 	"/>
	<polygon fill-rule="evenodd" clip-rule="evenodd" fill="#82BFD8" points="270.4,240.2 186.4,208.4 270.4,181.1 354.8,207 	"/>
	
		<polyline fill-rule="evenodd" clip-rule="evenodd" fill="none" stroke="#000000" stroke-width="0.5" stroke-miterlimit="10" points="
		438.7,107.4 448.4,108.7 436.8,262 	"/>
	
		<line fill-rule="evenodd" clip-rule="evenodd" fill="none" stroke="#489BD3" stroke-miterlimit="10" x1="119.5" y1="258.6" x2="270.4" y2="331.5"/>
	<g>
		<path fill="#231F20" d="M308.1,60.3c0-1.6,0.8-3.2,2.6-3.2c1.8,0,2.6,1.6,2.6,3.2c0,1.6-0.8,3.3-2.6,3.3
			C308.9,63.6,308.1,62,308.1,60.3z M311.9,60.3c0-1.2-0.3-2.1-1.2-2.1c-0.9,0-1.2,0.9-1.2,2.1c0,1.2,0.3,2.1,1.2,2.1
			C311.6,62.4,311.9,61.5,311.9,60.3z"/>
	</g>
	<g>
		<path fill="#231F20" d="M227.5,60.3c0-1.6,0.8-3.2,2.6-3.2c1.8,0,2.6,1.6,2.6,3.2c0,1.6-0.8,3.3-2.6,3.3
			C228.3,63.6,227.5,62,227.5,60.3z M231.4,60.3c0-1.2-0.3-2.1-1.2-2.1c-0.9,0-1.2,0.9-1.2,2.1c0,1.2,0.3,2.1,1.2,2.1
			C231,62.4,231.4,61.5,231.4,60.3z"/>
	</g>
	<g>
		<path fill="#231F20" d="M387.5,76.3v-4.6l-1,1.1l-0.8-0.8l2-2h1.2v6.3H387.5z"/>
	</g>
	<rect x="436" y="212.1" fill-rule="evenodd" clip-rule="evenodd" fill="#FFFFFF" width="8.4" height="10.5"/>
	<g>
		<path fill="#231F20" d="M437.6,217.2c0-1.6,0.8-3.2,2.6-3.2c1.8,0,2.6,1.6,2.6,3.2c0,1.6-0.8,3.3-2.6,3.3
			C438.4,220.4,437.6,218.8,437.6,217.2z M441.4,217.2c0-1.2-0.3-2.1-1.2-2.1c-0.9,0-1.2,0.9-1.2,2.1c0,1.2,0.3,2.1,1.2,2.1
			S441.4,218.3,441.4,217.2z"/>
	</g>
	
		<polyline fill-rule="evenodd" clip-rule="evenodd" fill="none" stroke="#000000" stroke-width="0.5" stroke-miterlimit="10" points="
		349.5,79.4 349.5,74.6 432.1,90.1 431.8,95.3 	"/>
	
		<line fill-rule="evenodd" clip-rule="evenodd" fill="none" stroke="#000000" stroke-width="0.5" stroke-miterlimit="10" x1="433.5" y1="180.4" x2="442.9" y2="181.9"/>
	<polygon fill-rule="evenodd" clip-rule="evenodd" fill="#3398CB" points="413.8,131.4 395.1,126.6 395.1,106.7 414.5,111.1 	"/>
	
		<line fill-rule="evenodd" clip-rule="evenodd" fill="none" stroke="#95AEC6" stroke-width="0.5" stroke-miterlimit="10" x1="395.2" y1="117" x2="394.4" y2="158.4"/>
	
		<line fill-rule="evenodd" clip-rule="evenodd" fill="none" stroke="#489BD3" stroke-miterlimit="10" x1="431.1" y1="106.7" x2="270.4" y2="152.6"/>
	<rect x="149.9" y="69.2" fill-rule="evenodd" clip-rule="evenodd" fill="#FFFFFF" width="8.4" height="8.4"/>
	<g>
		<path fill="#231F20" d="M154.1,76.3v-4.6l-1,1.1l-0.8-0.8l2-2h1.2v6.3H154.1z"/>
	</g>
	<rect x="393.6" y="87.8" fill-rule="evenodd" clip-rule="evenodd" fill="#FFFFFF" width="10" height="9.2"/>
	<rect x="417.1" y="91.5" fill-rule="evenodd" clip-rule="evenodd" fill="#FFFFFF" width="8.4" height="8.4"/>
	<g>
		<path fill="#231F20" d="M396,92.6c0-1.6,0.8-3.2,2.6-3.2c1.8,0,2.6,1.6,2.6,3.2c0,1.6-0.8,3.3-2.6,3.3
			C396.8,95.8,396,94.2,396,92.6z M399.8,92.6c0-1.2-0.3-2.1-1.2-2.1c-0.9,0-1.2,0.9-1.2,2.1c0,1.2,0.3,2.1,1.2,2.1
			S399.8,93.7,399.8,92.6z"/>
	</g>
	<g>
		<path fill="#231F20" d="M421.4,99.3v-4.6l-1,1.1l-0.8-0.8l2-2h1.2v6.3H421.4z"/>
	</g>
	<polygon points="423.5,119 433.5,115.7 430.2,110.9 	"/>
	<path fill="none" stroke="#000000" stroke-miterlimit="10" d="M430.1,114.7c11.7-8.2,8.4-20.1,8.4-20.1s-5.7-17.1,11.9-18.7"/>
	<g>
		<g>
			<path d="M355.4,340.3l-2.7-3.6l-2.7,3.6h-1.3l3.3-4.3l-3.1-4.1h1.3l2.5,3.3l2.5-3.3h1.3l-3.1,4.1l3.3,4.3H355.4z"/>
			<path d="M358,341.9l-0.5-0.4c0.4-0.3,0.8-0.8,0.8-1.2c0,0-0.1,0-0.2,0c-0.3,0-0.6-0.3-0.6-0.6s0.3-0.7,0.7-0.7
				c0.4,0,0.8,0.4,0.8,1C359,340.7,358.6,341.5,358,341.9z"/>
			<path d="M362,340.3v-3.5l-3.3-4.8h1.2l2.6,3.9l2.6-3.9h1.2l-3.3,4.8v3.5H362z"/>
			<path d="M366.5,341.9l-0.5-0.4c0.4-0.3,0.8-0.8,0.8-1.2c0,0-0.1,0-0.2,0c-0.3,0-0.6-0.3-0.6-0.6s0.3-0.7,0.7-0.7
				c0.4,0,0.8,0.4,0.8,1C367.5,340.7,367.1,341.5,366.5,341.9z"/>
			<path d="M368.8,340.3v-0.9l4.7-6.6h-4.7v-0.9h6.1v0.9l-4.7,6.6h4.8v0.9H368.8z"/>
			<path d="M386.9,335.3l-0.2-1.6l3.5,2.6l-3.5,2.6l0.2-1.6h-3.4v-1.9H386.9z"/>
			<path d="M399.1,336.9v-4.1l-0.8,0.9l-0.4-0.5l1.4-1.4h0.7v5H399.1z M399.7,340.3h-0.7l5.4-8.4h0.7L399.7,340.3z M403.6,340.3
				v-0.6c1.9-1.4,2.9-2.2,2.9-3c0-0.6-0.5-0.9-1.1-0.9c-0.6,0-1.1,0.3-1.4,0.7l-0.4-0.5c0.4-0.5,1.1-0.8,1.9-0.8
				c0.9,0,1.8,0.5,1.8,1.5c0,1-1,1.9-2.5,3h2.6v0.6H403.6z"/>
			<path d="M409,341.9l-0.5-0.4c0.4-0.3,0.8-0.8,0.8-1.2c0,0-0.1,0-0.2,0c-0.3,0-0.6-0.3-0.6-0.6s0.3-0.7,0.7-0.7
				c0.4,0,0.8,0.4,0.8,1C410.1,340.7,409.6,341.5,409,341.9z"/>
			<path d="M411,336.1c0-2.1,0.9-4.3,3.2-4.3c2.3,0,3.2,2.3,3.2,4.3c0,2-0.9,4.3-3.2,4.3C411.9,340.4,411,338.1,411,336.1z
				 M416.3,336.1c0-1.7-0.5-3.4-2.1-3.4c-1.6,0-2.1,1.7-2.1,3.4c0,1.7,0.5,3.4,2.1,3.4C415.8,339.5,416.3,337.8,416.3,336.1z"/>
			<path d="M418.9,341.9l-0.5-0.4c0.4-0.3,0.8-0.8,0.8-1.2c0,0-0.1,0-0.2,0c-0.3,0-0.6-0.3-0.6-0.6s0.3-0.7,0.7-0.7
				c0.4,0,0.8,0.4,0.8,1C419.9,340.7,419.4,341.5,418.9,341.9z"/>
			<path d="M422,336.9v-4.1l-0.8,0.9l-0.4-0.5l1.4-1.4h0.7v5H422z M422.6,340.3h-0.7l5.4-8.4h0.7L422.6,340.3z M426.5,340.3v-0.6
				c1.9-1.4,2.9-2.2,2.9-3c0-0.6-0.5-0.9-1.1-0.9c-0.6,0-1.1,0.3-1.4,0.7l-0.4-0.5c0.4-0.5,1.1-0.8,1.9-0.8c0.9,0,1.8,0.5,1.8,1.5
				c0,1-1,1.9-2.5,3h2.6v0.6H426.5z"/>
		</g>
	</g>
	<g>
		<g>
			<path d="M468,79.8l-2.7-3.6l-2.7,3.6h-1.3l3.3-4.3l-3.1-4.1h1.3l2.5,3.3l2.5-3.3h1.3l-3.1,4.1l3.3,4.3H468z"/>
			<path d="M470.6,81.4l-0.5-0.4c0.4-0.3,0.8-0.8,0.8-1.2c0,0-0.1,0-0.2,0c-0.3,0-0.6-0.3-0.6-0.6s0.3-0.7,0.7-0.7
				c0.4,0,0.8,0.4,0.8,1C471.6,80.3,471.2,81,470.6,81.4z"/>
			<path d="M474.6,79.8v-3.5l-3.3-4.8h1.2l2.6,3.9l2.6-3.9h1.2l-3.3,4.8v3.5H474.6z"/>
			<path d="M479.1,81.4l-0.5-0.4c0.4-0.3,0.8-0.8,0.8-1.2c0,0-0.1,0-0.2,0c-0.3,0-0.6-0.3-0.6-0.6s0.3-0.7,0.7-0.7
				c0.4,0,0.8,0.4,0.8,1C480.1,80.3,479.7,81,479.1,81.4z"/>
			<path d="M481.4,79.8V79l4.7-6.6h-4.7v-0.9h6.1v0.9l-4.7,6.6h4.8v0.9H481.4z"/>
			<path d="M499.5,74.9l-0.2-1.6l3.5,2.6l-3.5,2.6l0.2-1.6h-3.4v-1.9H499.5z"/>
			<path d="M512.6,76.5h-1.1l2-4.2h-2.7v-0.8h3.8v0.7L512.6,76.5z M512.9,79.8h-0.8l5.4-8.4h0.8L512.9,79.8z M518.6,79.9
				c-1.1,0-2.1-0.4-2.1-1.4c0-0.6,0.6-1.1,1.2-1.3c-0.6-0.2-1.1-0.6-1.1-1.2c0-1,1-1.3,2-1.3c0.9,0,2,0.4,2,1.3c0,0.6-0.5,1-1.1,1.2
				c0.7,0.2,1.2,0.7,1.2,1.3C520.6,79.5,519.7,79.9,518.6,79.9z M518.6,77.6c-0.2,0-1,0.2-1,0.8c0,0.5,0.5,0.7,1,0.7
				c0.6,0,1-0.3,1-0.7C519.6,77.8,518.8,77.6,518.6,77.6z M518.6,75.5c-0.6,0-1,0.2-1,0.7c0,0.5,0.7,0.7,1,0.7
				c0.2,0,0.9-0.2,0.9-0.7C519.5,75.7,519.1,75.5,518.6,75.5z"/>
			<path d="M522.3,81.4l-0.5-0.4c0.4-0.3,0.8-0.8,0.8-1.2c0,0-0.1,0-0.2,0c-0.3,0-0.6-0.3-0.6-0.6s0.3-0.7,0.7-0.7
				c0.4,0,0.8,0.4,0.8,1C523.3,80.3,522.9,81,522.3,81.4z"/>
			<path d="M526.2,76.5h-1.1l2-4.2h-2.7v-0.8h3.8v0.7L526.2,76.5z M526.6,79.8h-0.8l5.4-8.4h0.8L526.6,79.8z M532.3,79.9
				c-1.1,0-2.1-0.4-2.1-1.4c0-0.6,0.6-1.1,1.2-1.3c-0.6-0.2-1.1-0.6-1.1-1.2c0-1,1-1.3,2-1.3c0.9,0,2,0.4,2,1.3c0,0.6-0.5,1-1.1,1.2
				c0.7,0.2,1.2,0.7,1.2,1.3C534.3,79.5,533.3,79.9,532.3,79.9z M532.3,77.6c-0.2,0-1,0.2-1,0.8c0,0.5,0.5,0.7,1,0.7
				c0.6,0,1-0.3,1-0.7C533.3,77.8,532.5,77.6,532.3,77.6z M532.3,75.5c-0.6,0-1,0.2-1,0.7c0,0.5,0.7,0.7,1,0.7
				c0.2,0,0.9-0.2,0.9-0.7C533.2,75.7,532.8,75.5,532.3,75.5z"/>
			<path d="M535.9,81.4l-0.5-0.4c0.4-0.3,0.8-0.8,0.8-1.2c0,0-0.1,0-0.2,0c-0.3,0-0.6-0.3-0.6-0.6s0.3-0.7,0.7-0.7
				c0.4,0,0.8,0.4,0.8,1C537,80.3,536.5,81,535.9,81.4z"/>
			<path d="M537.9,75.6c0-2.1,0.9-4.3,3.2-4.3c2.3,0,3.2,2.3,3.2,4.3c0,2-0.9,4.3-3.2,4.3C538.8,80,537.9,77.7,537.9,75.6z
				 M543.2,75.6c0-1.7-0.5-3.4-2.1-3.4c-1.6,0-2.1,1.7-2.1,3.4c0,1.7,0.5,3.4,2.1,3.4C542.7,79.1,543.2,77.3,543.2,75.6z"/>
		</g>
	</g>
	<polygon points="316.2,293.1 326.2,296.3 322.9,301.1 	"/>
	<path fill="none" stroke="#000000" stroke-miterlimit="10" d="M322.8,297.3c11.7,8.2,8.4,20.1,8.4,20.1s-5.7,17.1,11.9,18.7"/>
	<g>
		<g>
			<path d="M6.7,169.8L4,166.2l-2.7,3.6H0.1l3.3-4.3l-3.1-4.1h1.3l2.5,3.3l2.5-3.3h1.3l-3.1,4.1l3.3,4.3H6.7z"/>
			<path d="M9.3,171.4L8.8,171c0.4-0.3,0.8-0.8,0.8-1.2c0,0-0.1,0-0.2,0c-0.3,0-0.6-0.3-0.6-0.6s0.3-0.7,0.7-0.7
				c0.4,0,0.8,0.4,0.8,1C10.3,170.3,9.9,171,9.3,171.4z"/>
			<path d="M13.3,169.8v-3.5l-3.3-4.8h1.2l2.6,3.9l2.6-3.9h1.2l-3.3,4.8v3.5H13.3z"/>
			<path d="M17.8,171.4l-0.5-0.4c0.4-0.3,0.8-0.8,0.8-1.2c0,0-0.1,0-0.2,0c-0.3,0-0.6-0.3-0.6-0.6s0.3-0.7,0.7-0.7
				c0.4,0,0.8,0.4,0.8,1C18.8,170.3,18.4,171,17.8,171.4z"/>
			<path d="M20.1,169.8V169l4.7-6.6h-4.7v-0.9h6.1v0.9l-4.7,6.6h4.8v0.9H20.1z"/>
			<path fill="#666666" d="M38.2,164.8l-0.2-1.6l3.5,2.6l-3.5,2.6l0.2-1.6h-3.4v-1.9H38.2z"/>
			<path d="M49.7,165.6c0-2.1,0.9-4.3,3.2-4.3c2.3,0,3.2,2.3,3.2,4.3c0,2-0.9,4.3-3.2,4.3C50.6,170,49.7,167.7,49.7,165.6z
				 M55,165.6c0-1.7-0.5-3.4-2.1-3.4s-2.1,1.7-2.1,3.4c0,1.7,0.5,3.4,2.1,3.4S55,167.3,55,165.6z"/>
			<path d="M57.5,171.4l-0.5-0.4c0.4-0.3,0.8-0.8,0.8-1.2c0,0-0.1,0-0.2,0c-0.3,0-0.6-0.3-0.6-0.6s0.3-0.7,0.7-0.7
				c0.4,0,0.8,0.4,0.8,1C58.6,170.3,58.1,171,57.5,171.4z"/>
			<path d="M61.6,166.6c-0.9,0-1.6-0.4-1.9-0.8l0.4-0.5c0.3,0.4,0.9,0.7,1.5,0.7c0.7,0,1.2-0.3,1.2-0.9c0-0.6-0.6-0.9-1.3-0.9
				c-0.2,0-0.4,0-0.5,0v-0.6c0.1,0,0.3,0,0.5,0c0.7,0,1.2-0.2,1.2-0.8c0-0.5-0.5-0.8-1.1-0.8c-0.6,0-1,0.2-1.4,0.6l-0.4-0.4
				c0.4-0.4,1-0.8,1.8-0.8c1.1,0,1.8,0.5,1.8,1.3c0,0.7-0.6,1.1-1.1,1.2c0.5,0,1.2,0.4,1.2,1.2C63.5,165.9,62.8,166.6,61.6,166.6z
				 M62.6,169.8H62l5.4-8.4H68L62.6,169.8z M69.1,168.6v1.3h-0.8v-1.3h-2.5V168l2.2-3.2h1v3.2h0.7v0.6H69.1z M68.4,165.5l-1.7,2.5
				h1.7V165.5z"/>
			<path d="M71.5,171.4L71,171c0.4-0.3,0.8-0.8,0.8-1.2c0,0-0.1,0-0.2,0c-0.3,0-0.6-0.3-0.6-0.6s0.3-0.7,0.7-0.7
				c0.4,0,0.8,0.4,0.8,1C72.5,170.3,72.1,171,71.5,171.4z"/>
			<path d="M75.6,166.6c-0.9,0-1.6-0.4-1.9-0.8l0.4-0.5c0.3,0.4,0.9,0.7,1.5,0.7c0.7,0,1.2-0.3,1.2-0.9c0-0.6-0.6-0.9-1.3-0.9
				c-0.2,0-0.4,0-0.5,0v-0.6c0.1,0,0.3,0,0.5,0c0.7,0,1.2-0.2,1.2-0.8c0-0.5-0.5-0.8-1.1-0.8c-0.6,0-1,0.2-1.4,0.6l-0.4-0.4
				c0.4-0.4,1-0.8,1.8-0.8c1.1,0,1.8,0.5,1.8,1.3c0,0.7-0.6,1.1-1.1,1.2c0.5,0,1.2,0.4,1.2,1.2C77.5,165.9,76.8,166.6,75.6,166.6z
				 M76.6,169.8h-0.7l5.4-8.4H82L76.6,169.8z M83.1,168.6v1.3h-0.8v-1.3h-2.5V168l2.2-3.2h1v3.2h0.7v0.6H83.1z M82.3,165.5l-1.7,2.5
				h1.7V165.5z"/>
		</g>
	</g>
	<g>
		<g>
			<path fill="#666666" d="M5.7,185.2l-0.6-1.6H1.6L1,185.2H0l2.8-7h1.1l2.8,7H5.7z M3.4,179.1l-1.5,3.8h3L3.4,179.1z"/>
			<path fill="#666666" d="M7.2,184.5l0.4-0.6c0.3,0.4,1,0.7,1.7,0.7c0.8,0,1.2-0.4,1.2-0.9c0-1.2-3.1-0.5-3.1-2.4
				c0-0.8,0.7-1.5,1.9-1.5c0.9,0,1.5,0.3,1.9,0.7l-0.4,0.5c-0.3-0.4-0.9-0.6-1.5-0.6c-0.7,0-1.1,0.3-1.1,0.8c0,1.1,3.1,0.4,3.1,2.4
				c0,0.8-0.7,1.5-2,1.5C8.4,185.3,7.7,185,7.2,184.5z"/>
			<path fill="#666666" d="M18.4,185.2v-0.6c-0.4,0.5-1,0.7-1.7,0.7c-0.9,0-1.8-0.6-1.8-1.7c0-1.1,0.9-1.7,1.8-1.7
				c0.7,0,1.3,0.2,1.7,0.7v-0.9c0-0.7-0.5-1.1-1.3-1.1c-0.6,0-1.1,0.2-1.6,0.7l-0.4-0.5c0.5-0.6,1.2-0.8,2-0.8c1.1,0,2,0.5,2,1.7
				v3.5H18.4z M18.4,184.1v-1c-0.3-0.4-0.8-0.6-1.4-0.6c-0.7,0-1.3,0.5-1.3,1.1c0,0.7,0.5,1.1,1.3,1.1
				C17.5,184.7,18.1,184.5,18.4,184.1z"/>
			<path fill="#666666" d="M24.2,185.2v-3.3c0-0.9-0.5-1.2-1.1-1.2c-0.6,0-1.2,0.4-1.5,0.8v3.7h-0.8v-5.1h0.8v0.7
				c0.4-0.4,1-0.9,1.8-0.9c1,0,1.6,0.5,1.6,1.6v3.6H24.2z"/>
			<path fill="#666666" d="M28.9,182.6c0-1.5,1-2.7,2.5-2.7s2.5,1.2,2.5,2.7c0,1.5-1,2.7-2.5,2.7S28.9,184.1,28.9,182.6z
				 M33.1,182.6c0-1-0.6-2-1.7-2s-1.7,0.9-1.7,2c0,1,0.6,2,1.7,2S33.1,183.7,33.1,182.6z"/>
			<path fill="#666666" d="M34.9,182.6c0-1.5,1-2.7,2.5-2.7c0.9,0,1.5,0.4,1.9,0.9l-0.5,0.5c-0.3-0.5-0.8-0.7-1.3-0.7
				c-1.1,0-1.8,0.8-1.8,2c0,1.1,0.7,2,1.8,2c0.5,0,1-0.2,1.3-0.7l0.5,0.5c-0.4,0.5-0.9,0.9-1.9,0.9C36,185.3,34.9,184.1,34.9,182.6z
				"/>
			<path fill="#666666" d="M40.6,184.1v-3.3h-0.8v-0.7h0.8v-1.4h0.8v1.4h1v0.7h-1v3.1c0,0.4,0.2,0.7,0.5,0.7c0.2,0,0.4-0.1,0.5-0.2
				l0.2,0.6c-0.2,0.2-0.5,0.3-0.9,0.3C41,185.3,40.6,184.9,40.6,184.1z"/>
			<path fill="#666666" d="M46.7,185.2v-0.6c-0.4,0.5-1,0.7-1.7,0.7c-0.9,0-1.8-0.6-1.8-1.7c0-1.1,0.9-1.7,1.8-1.7
				c0.7,0,1.3,0.2,1.7,0.7v-0.9c0-0.7-0.5-1.1-1.3-1.1c-0.6,0-1.1,0.2-1.6,0.7l-0.4-0.5c0.5-0.6,1.2-0.8,2-0.8c1.1,0,2,0.5,2,1.7
				v3.5H46.7z M46.7,184.1v-1c-0.3-0.4-0.8-0.6-1.4-0.6c-0.7,0-1.3,0.5-1.3,1.1c0,0.7,0.5,1.1,1.3,1.1
				C45.9,184.7,46.4,184.5,46.7,184.1z"/>
			<path fill="#666666" d="M49.1,185.2v-7h0.8v7H49.1z"/>
			<path fill="#666666" d="M51.3,180.6c0-0.3,0.3-0.6,0.6-0.6c0.3,0,0.6,0.3,0.6,0.6c0,0.3-0.3,0.6-0.6,0.6
				C51.5,181.2,51.3,180.9,51.3,180.6z M51.3,184.7c0-0.3,0.3-0.6,0.6-0.6c0.3,0,0.6,0.3,0.6,0.6c0,0.3-0.3,0.6-0.6,0.6
				C51.5,185.3,51.3,185,51.3,184.7z"/>
			<path fill="#666666" d="M5.6,197.8l-2.2-3l-2.2,3H0l2.7-3.6l-2.6-3.4h1.1l2.1,2.8l2.1-2.8h1.1l-2.6,3.4l2.7,3.6H5.6z"/>
			<path fill="#666666" d="M10,197.8v-3l-2.8-4h1l2.2,3.3l2.2-3.3h1l-2.8,4v3H10z"/>
			<path fill="#666666" d="M14.7,197.8V197l3.9-5.5h-3.9v-0.8h5.1v0.7l-3.9,5.5h4v0.8H14.7z"/>
			<path fill="#666666" d="M21.7,199.1l-0.4-0.3c0.3-0.2,0.6-0.6,0.7-1c0,0-0.1,0-0.1,0c-0.3,0-0.5-0.2-0.5-0.5
				c0-0.3,0.2-0.6,0.6-0.6c0.4,0,0.7,0.3,0.7,0.8C22.6,198.1,22.2,198.7,21.7,199.1z"/>
			<path fill="#666666" d="M29.2,197.8l-2.2-3l-2.2,3h-1.1l2.7-3.6l-2.6-3.4h1.1l2.1,2.8l2.1-2.8h1.1l-2.6,3.4l2.7,3.6H29.2z"/>
			<path fill="#666666" d="M33.7,197.8v-3l-2.8-4h1l2.2,3.3l2.2-3.3h1l-2.8,4v3H33.7z"/>
			<path fill="#666666" d="M38.3,197.8V197l3.9-5.5h-3.9v-0.8h5.1v0.7l-3.9,5.5h4v0.8H38.3z"/>
			<path fill="#666666" d="M54.6,193.8l-0.1-1.4l2.9,2.2l-2.9,2.1l0.1-1.4h-2.8v-1.6H54.6z"/>
			<path fill="#666666" d="M64.6,194.3c0-1.7,0.8-3.6,2.7-3.6c1.9,0,2.7,1.9,2.7,3.6c0,1.7-0.8,3.6-2.7,3.6
				C65.3,197.9,64.6,196,64.6,194.3z M69.1,194.3c0-1.4-0.5-2.8-1.8-2.8s-1.8,1.4-1.8,2.8c0,1.4,0.5,2.8,1.8,2.8
				S69.1,195.7,69.1,194.3z"/>
			<path fill="#666666" d="M72.8,197.8v-5.9l-1.1,1.2l-0.5-0.5l1.8-1.8h0.8v7H72.8z"/>
			<path fill="#666666" d="M76.7,197.8v-5.9l-1.1,1.2l-0.5-0.5l1.8-1.8h0.8v7H76.7z"/>
			<path fill="#666666" d="M79.8,199.1l-0.4-0.3c0.3-0.2,0.6-0.6,0.7-1c0,0-0.1,0-0.1,0c-0.3,0-0.5-0.2-0.5-0.5
				c0-0.3,0.2-0.6,0.6-0.6c0.4,0,0.7,0.3,0.7,0.8C80.7,198.1,80.3,198.7,79.8,199.1z"/>
			<path fill="#666666" d="M81.9,194.3c0-1.7,0.8-3.6,2.7-3.6c1.9,0,2.7,1.9,2.7,3.6c0,1.7-0.8,3.6-2.7,3.6
				C82.6,197.9,81.9,196,81.9,194.3z M86.4,194.3c0-1.4-0.5-2.8-1.8-2.8s-1.8,1.4-1.8,2.8c0,1.4,0.5,2.8,1.8,2.8
				S86.4,195.7,86.4,194.3z"/>
			<path fill="#666666" d="M90.1,197.8v-5.9l-1.1,1.2l-0.5-0.5l1.8-1.8h0.8v7H90.1z"/>
			<path fill="#666666" d="M94,197.8v-5.9l-1.1,1.2l-0.5-0.5l1.8-1.8h0.8v7H94z"/>
		</g>
	</g>
	<g>
		<g>
			<path fill="#666666" d="M354.8,357.2l-0.6-1.6h-3.5l-0.6,1.6h-1l2.8-7h1.1l2.8,7H354.8z M352.4,351.1l-1.5,3.8h3L352.4,351.1z"/>
			<path fill="#666666" d="M356.2,356.6l0.4-0.6c0.3,0.4,1,0.7,1.7,0.7c0.8,0,1.2-0.4,1.2-0.9c0-1.2-3.1-0.5-3.1-2.4
				c0-0.8,0.7-1.5,1.9-1.5c0.9,0,1.5,0.3,1.9,0.7l-0.4,0.5c-0.3-0.4-0.8-0.6-1.5-0.6c-0.7,0-1.1,0.3-1.1,0.8c0,1.1,3.1,0.4,3.1,2.4
				c0,0.8-0.7,1.5-2,1.5C357.5,357.4,356.8,357.1,356.2,356.6z"/>
			<path fill="#666666" d="M367.4,357.2v-0.6c-0.4,0.5-1,0.7-1.7,0.7c-0.9,0-1.8-0.6-1.8-1.7c0-1.1,0.9-1.7,1.8-1.7
				c0.7,0,1.3,0.2,1.7,0.7v-0.9c0-0.7-0.5-1.1-1.3-1.1c-0.6,0-1.1,0.2-1.6,0.7l-0.4-0.5c0.5-0.6,1.2-0.8,2-0.8c1.1,0,2,0.5,2,1.7
				v3.5H367.4z M367.4,356.2v-1c-0.3-0.4-0.8-0.6-1.4-0.6c-0.7,0-1.3,0.5-1.3,1.1c0,0.7,0.5,1.1,1.3,1.1
				C366.6,356.8,367.1,356.6,367.4,356.2z"/>
			<path fill="#666666" d="M373.2,357.2v-3.3c0-0.9-0.5-1.2-1.1-1.2c-0.6,0-1.2,0.4-1.5,0.8v3.7h-0.8v-5.1h0.8v0.7
				c0.4-0.4,1-0.9,1.8-0.9c1,0,1.6,0.5,1.6,1.6v3.6H373.2z"/>
			<path fill="#666666" d="M378,354.7c0-1.5,1-2.7,2.5-2.7c1.5,0,2.5,1.2,2.5,2.7c0,1.5-1,2.7-2.5,2.7
				C379,357.4,378,356.2,378,354.7z M382.2,354.7c0-1-0.6-2-1.7-2c-1.1,0-1.7,0.9-1.7,2c0,1,0.6,2,1.7,2
				C381.6,356.7,382.2,355.7,382.2,354.7z"/>
			<path fill="#666666" d="M384,354.7c0-1.5,1-2.7,2.5-2.7c0.9,0,1.5,0.4,1.9,0.9l-0.5,0.5c-0.3-0.5-0.8-0.7-1.3-0.7
				c-1.1,0-1.8,0.8-1.8,2c0,1.1,0.7,2,1.8,2c0.5,0,1-0.2,1.3-0.7l0.5,0.5c-0.4,0.5-0.9,0.9-1.9,0.9C385,357.4,384,356.2,384,354.7z"
				/>
			<path fill="#666666" d="M389.7,356.2v-3.3h-0.8v-0.7h0.8v-1.4h0.8v1.4h1v0.7h-1v3.1c0,0.4,0.2,0.7,0.5,0.7c0.2,0,0.4-0.1,0.5-0.2
				l0.2,0.6c-0.2,0.2-0.5,0.3-0.9,0.3C390.1,357.4,389.7,356.9,389.7,356.2z"/>
			<path fill="#666666" d="M395.8,357.2v-0.6c-0.4,0.5-1,0.7-1.7,0.7c-0.9,0-1.8-0.6-1.8-1.7c0-1.1,0.9-1.7,1.8-1.7
				c0.7,0,1.3,0.2,1.7,0.7v-0.9c0-0.7-0.5-1.1-1.3-1.1c-0.6,0-1.1,0.2-1.6,0.7l-0.4-0.5c0.5-0.6,1.2-0.8,2-0.8c1.1,0,2,0.5,2,1.7
				v3.5H395.8z M395.8,356.2v-1c-0.3-0.4-0.8-0.6-1.4-0.6c-0.7,0-1.3,0.5-1.3,1.1c0,0.7,0.5,1.1,1.3,1.1
				C394.9,356.8,395.5,356.6,395.8,356.2z"/>
			<path fill="#666666" d="M398.2,357.2v-7h0.8v7H398.2z"/>
			<path fill="#666666" d="M400.4,352.7c0-0.3,0.3-0.6,0.6-0.6c0.3,0,0.6,0.3,0.6,0.6c0,0.3-0.3,0.6-0.6,0.6
				C400.6,353.2,400.4,353,400.4,352.7z M400.4,356.8c0-0.3,0.3-0.6,0.6-0.6c0.3,0,0.6,0.3,0.6,0.6c0,0.3-0.3,0.6-0.6,0.6
				C400.6,357.3,400.4,357.1,400.4,356.8z"/>
			<path fill="#666666" d="M354.6,369.8l-2.2-3l-2.2,3h-1.1l2.7-3.6l-2.6-3.4h1.1l2.1,2.8l2.1-2.8h1.1l-2.6,3.4l2.7,3.6H354.6z"/>
			<path fill="#666666" d="M359.1,369.8v-3l-2.8-4h1l2.2,3.3l2.2-3.3h1l-2.8,4v3H359.1z"/>
			<path fill="#666666" d="M363.7,369.8v-0.7l3.9-5.5h-3.9v-0.8h5.1v0.7l-3.9,5.5h4v0.8H363.7z"/>
			<path fill="#666666" d="M380.1,365.9l-0.1-1.4l2.9,2.2l-2.9,2.1l0.1-1.4h-2.8v-1.6H380.1z"/>
			<path fill="#666666" d="M391.4,369.8V364l-1.1,1.2l-0.5-0.5l1.8-1.8h0.8v7H391.4z"/>
			<path fill="#666666" d="M394,366.3c0-1.7,0.8-3.6,2.7-3.6c1.9,0,2.7,1.9,2.7,3.6c0,1.7-0.8,3.6-2.7,3.6
				C394.8,370,394,368,394,366.3z M398.5,366.3c0-1.4-0.5-2.8-1.8-2.8c-1.3,0-1.8,1.4-1.8,2.8c0,1.4,0.5,2.8,1.8,2.8
				C398,369.2,398.5,367.7,398.5,366.3z"/>
			<path fill="#666666" d="M402.2,369.8V364l-1.1,1.2l-0.5-0.5l1.8-1.8h0.8v7H402.2z"/>
		</g>
	</g>
	<g>
		<g>
			<path fill="#666666" d="M467,97.8l-0.6-1.6h-3.5l-0.6,1.6h-1l2.8-7h1.1l2.8,7H467z M464.7,91.7l-1.5,3.8h3L464.7,91.7z"/>
			<path fill="#666666" d="M468.5,97.1l0.4-0.6c0.3,0.4,1,0.7,1.7,0.7c0.8,0,1.2-0.4,1.2-0.9c0-1.2-3.1-0.5-3.1-2.4
				c0-0.8,0.7-1.5,1.9-1.5c0.9,0,1.5,0.3,1.9,0.7l-0.4,0.5c-0.3-0.4-0.9-0.6-1.5-0.6c-0.7,0-1.1,0.3-1.1,0.8c0,1.1,3.1,0.4,3.1,2.4
				c0,0.8-0.7,1.5-2,1.5C469.7,97.9,469,97.6,468.5,97.1z"/>
			<path fill="#666666" d="M479.7,97.8v-0.6c-0.4,0.5-1,0.7-1.7,0.7c-0.9,0-1.8-0.6-1.8-1.7c0-1.1,0.9-1.7,1.8-1.7
				c0.7,0,1.3,0.2,1.7,0.7v-0.9c0-0.7-0.5-1.1-1.3-1.1c-0.6,0-1.1,0.2-1.6,0.7l-0.4-0.5c0.5-0.6,1.2-0.8,2-0.8c1.1,0,2,0.5,2,1.7
				v3.5H479.7z M479.7,96.7v-1c-0.3-0.4-0.8-0.6-1.4-0.6c-0.7,0-1.3,0.5-1.3,1.1c0,0.7,0.5,1.1,1.3,1.1
				C478.8,97.3,479.4,97.1,479.7,96.7z"/>
			<path fill="#666666" d="M485.5,97.8v-3.3c0-0.9-0.5-1.2-1.1-1.2c-0.6,0-1.2,0.4-1.5,0.8v3.7H482v-5.1h0.8v0.7
				c0.4-0.4,1.1-0.9,1.8-0.9c1,0,1.6,0.5,1.6,1.6v3.6H485.5z"/>
			<path fill="#666666" d="M490.2,95.2c0-1.5,1-2.7,2.5-2.7c1.5,0,2.5,1.2,2.5,2.7c0,1.5-1,2.7-2.5,2.7
				C491.2,97.9,490.2,96.7,490.2,95.2z M494.4,95.2c0-1-0.6-2-1.7-2c-1.1,0-1.7,0.9-1.7,2c0,1,0.6,2,1.7,2
				C493.8,97.2,494.4,96.3,494.4,95.2z"/>
			<path fill="#666666" d="M496.2,95.2c0-1.5,1-2.7,2.5-2.7c0.9,0,1.5,0.4,1.9,0.9l-0.5,0.5c-0.3-0.5-0.8-0.7-1.3-0.7
				c-1.1,0-1.8,0.8-1.8,2c0,1.1,0.7,2,1.8,2c0.5,0,1-0.2,1.3-0.7l0.5,0.5c-0.4,0.5-0.9,0.9-1.9,0.9
				C497.3,97.9,496.2,96.7,496.2,95.2z"/>
			<path fill="#666666" d="M501.9,96.7v-3.3h-0.8v-0.7h0.8v-1.4h0.8v1.4h1v0.7h-1v3.1c0,0.4,0.2,0.7,0.5,0.7c0.2,0,0.4-0.1,0.5-0.2
				l0.2,0.6c-0.2,0.2-0.5,0.3-0.9,0.3C502.3,97.9,501.9,97.5,501.9,96.7z"/>
			<path fill="#666666" d="M508,97.8v-0.6c-0.4,0.5-1,0.7-1.7,0.7c-0.9,0-1.8-0.6-1.8-1.7c0-1.1,0.9-1.7,1.8-1.7
				c0.7,0,1.3,0.2,1.7,0.7v-0.9c0-0.7-0.5-1.1-1.3-1.1c-0.6,0-1.1,0.2-1.6,0.7l-0.4-0.5c0.5-0.6,1.2-0.8,2-0.8c1.1,0,2,0.5,2,1.7
				v3.5H508z M508,96.7v-1c-0.3-0.4-0.8-0.6-1.4-0.6c-0.7,0-1.3,0.5-1.3,1.1c0,0.7,0.5,1.1,1.3,1.1C507.2,97.3,507.7,97.1,508,96.7z
				"/>
			<path fill="#666666" d="M510.4,97.8v-7h0.8v7H510.4z"/>
			<path fill="#666666" d="M512.6,93.2c0-0.3,0.3-0.6,0.6-0.6c0.3,0,0.6,0.3,0.6,0.6c0,0.3-0.3,0.6-0.6,0.6
				C512.8,93.8,512.6,93.5,512.6,93.2z M512.6,97.3c0-0.3,0.3-0.6,0.6-0.6c0.3,0,0.6,0.3,0.6,0.6c0,0.3-0.3,0.6-0.6,0.6
				C512.8,97.9,512.6,97.6,512.6,97.3z"/>
			<path fill="#666666" d="M466.9,110.4l-2.2-3l-2.2,3h-1.1l2.7-3.6l-2.6-3.4h1.1l2.1,2.8l2.1-2.8h1.1l-2.6,3.4l2.7,3.6H466.9z"/>
			<path fill="#666666" d="M471.3,110.4v-3l-2.8-4h1l2.2,3.3l2.2-3.3h1l-2.8,4v3H471.3z"/>
			<path fill="#666666" d="M475.9,110.4v-0.7l3.9-5.5h-3.9v-0.8h5.1v0.7l-3.9,5.5h4v0.8H475.9z"/>
			<path fill="#666666" d="M483,111.7l-0.4-0.3c0.3-0.2,0.6-0.6,0.7-1c0,0-0.1,0-0.1,0c-0.3,0-0.5-0.2-0.5-0.5
				c0-0.3,0.2-0.6,0.6-0.6c0.4,0,0.7,0.3,0.7,0.8C483.9,110.8,483.5,111.4,483,111.7z"/>
			<path fill="#666666" d="M490.5,110.4l-2.2-3l-2.2,3H485l2.7-3.6l-2.6-3.4h1.1l2.1,2.8l2.1-2.8h1.1l-2.6,3.4l2.7,3.6H490.5z"/>
			<path fill="#666666" d="M495,110.4v-3l-2.8-4h1l2.2,3.3l2.2-3.3h1l-2.8,4v3H495z"/>
			<path fill="#666666" d="M499.6,110.4v-0.7l3.9-5.5h-3.9v-0.8h5.1v0.7l-3.9,5.5h4v0.8H499.6z"/>
			<path fill="#666666" d="M506.6,111.7l-0.4-0.3c0.3-0.2,0.6-0.6,0.7-1c0,0-0.1,0-0.1,0c-0.3,0-0.5-0.2-0.5-0.5
				c0-0.3,0.2-0.6,0.6-0.6c0.4,0,0.7,0.3,0.7,0.8C507.5,110.8,507.1,111.4,506.6,111.7z"/>
			<path fill="#666666" d="M514.1,110.4l-2.2-3l-2.2,3h-1.1l2.7-3.6l-2.6-3.4h1.1l2.1,2.8l2.1-2.8h1.1l-2.6,3.4l2.7,3.6H514.1z"/>
			<path fill="#666666" d="M518.6,110.4v-3l-2.8-4h1l2.2,3.3l2.2-3.3h1l-2.8,4v3H518.6z"/>
			<path fill="#666666" d="M523.2,110.4v-0.7l3.9-5.5h-3.9v-0.8h5.1v0.7l-3.9,5.5h4v0.8H523.2z"/>
			<path fill="#666666" d="M539.6,106.4l-0.1-1.4l3,2.2l-3,2.1l0.1-1.4h-2.8v-1.6H539.6z"/>
			<path fill="#666666" d="M550.9,110.4v-5.9l-1.1,1.2l-0.5-0.5l1.8-1.8h0.8v7H550.9z"/>
			<path fill="#666666" d="M554.8,110.4v-5.9l-1.1,1.2l-0.5-0.5l1.8-1.8h0.8v7H554.8z"/>
			<path fill="#666666" d="M557.5,106.9c0-1.7,0.8-3.6,2.7-3.6c1.9,0,2.7,1.9,2.7,3.6c0,1.7-0.8,3.6-2.7,3.6
				C558.2,110.5,557.5,108.6,557.5,106.9z M561.9,106.9c0-1.4-0.5-2.8-1.8-2.8c-1.3,0-1.8,1.4-1.8,2.8c0,1.4,0.5,2.8,1.8,2.8
				C561.5,109.7,561.9,108.3,561.9,106.9z"/>
			<path fill="#666666" d="M564.5,111.7l-0.4-0.3c0.3-0.2,0.6-0.6,0.7-1c0,0-0.1,0-0.1,0c-0.3,0-0.5-0.2-0.5-0.5
				c0-0.3,0.2-0.6,0.6-0.6c0.4,0,0.7,0.3,0.7,0.8C565.3,110.8,564.9,111.4,564.5,111.7z"/>
			<path fill="#666666" d="M567.3,110.4v-5.9l-1.1,1.2l-0.5-0.5l1.8-1.8h0.8v7H567.3z"/>
			<path fill="#666666" d="M571.3,110.4v-5.9l-1.1,1.2l-0.5-0.5l1.8-1.8h0.8v7H571.3z"/>
			<path fill="#666666" d="M574,106.9c0-1.7,0.8-3.6,2.7-3.6c1.9,0,2.7,1.9,2.7,3.6c0,1.7-0.8,3.6-2.7,3.6
				C574.7,110.5,574,108.6,574,106.9z M578.4,106.9c0-1.4-0.5-2.8-1.8-2.8c-1.3,0-1.8,1.4-1.8,2.8c0,1.4,0.5,2.8,1.8,2.8
				C578,109.7,578.4,108.3,578.4,106.9z"/>
			<path fill="#666666" d="M580.9,111.7l-0.4-0.3c0.3-0.2,0.6-0.6,0.7-1c0,0-0.1,0-0.1,0c-0.3,0-0.5-0.2-0.5-0.5
				c0-0.3,0.2-0.6,0.6-0.6c0.4,0,0.7,0.3,0.7,0.8C581.8,110.8,581.4,111.4,580.9,111.7z"/>
			<path fill="#666666" d="M583.8,110.4v-5.9l-1.1,1.2l-0.5-0.5l1.8-1.8h0.8v7H583.8z"/>
			<path fill="#666666" d="M587.8,110.4v-5.9l-1.1,1.2l-0.5-0.5l1.8-1.8h0.8v7H587.8z"/>
			<path fill="#666666" d="M590.4,106.9c0-1.7,0.8-3.6,2.7-3.6c1.9,0,2.7,1.9,2.7,3.6c0,1.7-0.8,3.6-2.7,3.6
				C591.2,110.5,590.4,108.6,590.4,106.9z M594.9,106.9c0-1.4-0.5-2.8-1.8-2.8c-1.3,0-1.8,1.4-1.8,2.8c0,1.4,0.5,2.8,1.8,2.8
				C594.5,109.7,594.9,108.3,594.9,106.9z"/>
		</g>
	</g>
	<polygon points="126.5,132.7 116,132.6 117.6,138.2 	"/>
	<path fill="none" stroke="#000000" stroke-miterlimit="10" d="M118.9,134.6c-16.7,3.6-13.1,14.8-13.1,14.8s5.6,16.1-12.3,15.6"/>
	<rect x="366.5" y="74.2" fill-rule="evenodd" clip-rule="evenodd" fill="#FFFFFF" width="8.4" height="9.2"/>
	<g>
		<path fill="#231F20" d="M368.1,78.6c0-1.6,0.8-3.2,2.6-3.2c1.8,0,2.6,1.6,2.6,3.2c0,1.6-0.8,3.3-2.6,3.3
			C368.9,81.8,368.1,80.2,368.1,78.6z M371.9,78.6c0-1.2-0.3-2.1-1.2-2.1c-0.9,0-1.2,0.9-1.2,2.1c0,1.2,0.3,2.1,1.2,2.1
			S371.9,79.7,371.9,78.6z"/>
	</g>
	<rect x="404.5" y="81.4" fill-rule="evenodd" clip-rule="evenodd" fill="#FFFFFF" width="8.4" height="8.4"/>
	<g>
		<path fill="#231F20" d="M408.7,88.6V84l-1,1.1l-0.8-0.8l2-2h1.2v6.3H408.7z"/>
	</g>
	<rect x="441.9" y="138.9" fill-rule="evenodd" clip-rule="evenodd" fill="#FFFFFF" width="8.4" height="10.5"/>
	<g>
		<path fill="#231F20" d="M445.2,147.1v-4.6l-1,1.1l-0.8-0.8l2-2h1.2v6.3H445.2z"/>
	</g>
	<g>
		<rect x="170.3" y="77" fill-rule="evenodd" clip-rule="evenodd" fill="#FFFFFF" width="8.4" height="8.4"/>
		<g>
			<path fill="#231F20" d="M171.9,81c0-1.6,0.8-3.2,2.6-3.2c1.8,0,2.6,1.6,2.6,3.2c0,1.6-0.8,3.3-2.6,3.3
				C172.7,84.2,171.9,82.6,171.9,81z M175.8,81c0-1.2-0.3-2.1-1.2-2.1c-0.9,0-1.2,0.9-1.2,2.1c0,1.2,0.3,2.1,1.2,2.1
				C175.4,83,175.8,82.1,175.8,81z"/>
		</g>
	</g>
	<g>
		<rect x="129.7" y="84.6" fill-rule="evenodd" clip-rule="evenodd" fill="#FFFFFF" width="8.4" height="8.4"/>
		<g>
			<path fill="#231F20" d="M133.9,91.8v-4.6l-1,1.1l-0.8-0.8l2-2h1.2v6.3H133.9z"/>
		</g>
	</g>
	
		<line fill-rule="evenodd" clip-rule="evenodd" fill="none" stroke="#489BD3" stroke-miterlimit="10" x1="110.8" y1="106.7" x2="270.4" y2="152.6"/>
	
		<line fill-rule="evenodd" clip-rule="evenodd" fill="none" stroke="#489BD3" stroke-miterlimit="10" x1="270.4" y1="152.6" x2="270.4" y2="331.5"/>
</g>
</svg>
