<?xml version="1.0" encoding="utf-8"?>
<!-- Generator: Adobe Illustrator 18.1.1, SVG Export Plug-In . SVG Version: 6.00 Build 0)  -->
<!DOCTYPE svg PUBLIC "-//W3C//DTD SVG 1.1//EN" "http://www.w3.org/Graphics/SVG/1.1/DTD/svg11.dtd">
<svg version="1.1" id="Layer_1" xmlns="http://www.w3.org/2000/svg" xmlns:xlink="http://www.w3.org/1999/xlink" x="0px" y="0px"
	 viewBox="0 0 87.6 87.6" enable-background="new 0 0 87.6 87.6" xml:space="preserve">
<g>
	<g>
		<g>
			<path fill="#0F96B7" d="M43.8,3c22.5,0,40.8,18.3,40.8,40.8c0,22.5-18.3,40.8-40.8,40.8S3,66.3,3,43.8C3,21.3,21.3,3,43.8,3
				 M43.8,0C19.6,0,0,19.6,0,43.8C0,68,19.6,87.6,43.8,87.6S87.6,68,87.6,43.8C87.6,19.6,68,0,43.8,0L43.8,0z"/>
		</g>
	</g>
	<path fill="#0F96B7" d="M64.6,22.2c-12.1-4.4-24.1,4.4-36.2,0c0,1.7,0,3.4,0,5.2c0,3.9,0,7.9,0,11.8v27.5H31V39.9
		c11.2,2.4,22.4-4.8,33.5-0.7c-2.4-3.7-4.7-6.9-7.1-9.7C59.9,26.7,62.2,24.2,64.6,22.2z"/>
</g>
</svg>
