<?xml version="1.0" encoding="utf-8"?>
<!-- Generator: Adobe Illustrator 18.1.1, SVG Export Plug-In . SVG Version: 6.00 Build 0)  -->
<!DOCTYPE svg PUBLIC "-//W3C//DTD SVG 1.1//EN" "http://www.w3.org/Graphics/SVG/1.1/DTD/svg11.dtd">
<svg version="1.1" id="Layer_1" xmlns="http://www.w3.org/2000/svg" xmlns:xlink="http://www.w3.org/1999/xlink" x="0px" y="0px"
	 viewBox="0 0 73.4 73.1" enable-background="new 0 0 73.4 73.1" xml:space="preserve">
<path fill="#0F96B7" d="M37.1,30.8c3.8,0,6.8,3,6.8,6.8c0,3.7-3,6.8-6.8,6.8c-3.8,0-6.8-3.1-6.8-6.8C30.3,33.8,33.4,30.8,37.1,30.8
	L37.1,30.8z M24.9,21.2l6.7,7.7L30.3,30l-6.6-7.7l-1.8,1.5l-0.7-5.2l5.5,1.1L24.9,21.2L24.9,21.2z M17.7,33.2l10.1,1.3l-0.2,1.6
	l-10.1-1.3l-0.3,2.4l-3.9-3.4l4.7-2.9L17.7,33.2L17.7,33.2z M20.1,46.5l8.5-5.5l0.9,1.4L21,47.9l1.3,2L17,49.8l1.8-5.3L20.1,46.5
	L20.1,46.5z M30.3,55L28,54.3l2,5.2l4.2-3.3l-2.3-0.7l3.1-9.8l-1.6-0.5L30.3,55L30.3,55z M42.9,55.3l-3.5-9.6l1.5-0.5l3.4,9.5
	l2.3-0.8L45.4,59l-4.8-2.9L42.9,55.3L42.9,55.3z M53.6,46.9l-1.1,2l5.5-0.9l-2.4-4.7l-1.1,2l-9-4.9l-0.7,1.4L53.6,46.9L53.6,46.9z
	 M56.2,33l-9.9,2.4l-0.4-1.6l9.9-2.3l-0.6-2.4l5,1.9l-3.5,4.3L56.2,33L56.2,33z M48.1,20.5l2,1.2l-0.6-5.5l-4.8,2.2l2,1.2l-5.4,8.6
	l1.4,0.9L48.1,20.5L48.1,20.5z M37.8,17.1v10.2h-1.6V17.1h-2.4l2.9-4.4l3.4,4.4H37.8L37.8,17.1z M37.1,0c2.6,0,4.7,2.1,4.7,4.7
	c0,2.7-2.1,4.8-4.7,4.8c-2.6,0-4.7-2.1-4.7-4.8C32.4,2.1,34.5,0,37.1,0L37.1,0z M12.8,8.9c2-1.7,5-1.5,6.7,0.5c1.7,2,1.5,5-0.5,6.8
	c-2,1.7-5,1.5-6.7-0.6C10.6,13.6,10.8,10.6,12.8,8.9L12.8,8.9z M0.1,31.4c0.4-2.5,2.8-4.3,5.5-3.9c2.5,0.4,4.3,2.8,3.9,5.4
	c-0.4,2.6-2.9,4.4-5.4,4C1.4,36.5-0.3,34,0.1,31.4L0.1,31.4z M5.1,56.8c-1.4-2.2-0.7-5.1,1.5-6.5c2.2-1.4,5.1-0.7,6.5,1.6
	c1.4,2.3,0.7,5.1-1.5,6.5C9.4,59.8,6.5,59.1,5.1,56.8L5.1,56.8z M25.5,72.9c-2.5-0.7-3.9-3.4-3.1-5.9c0.8-2.4,3.4-3.8,5.9-3.1
	c2.5,0.8,3.9,3.5,3.1,6C30.6,72.3,27.9,73.7,25.5,72.9L25.5,72.9z M51.3,71.9c-2.4,1-5.1-0.2-6.2-2.5c-1-2.4,0.2-5.2,2.5-6.3
	c2.4-1,5.2,0.2,6.3,2.5C54.8,68.1,53.7,70.8,51.3,71.9L51.3,71.9z M70.3,54.2c-1.2,2.4-4.1,3.3-6.4,2.1c-2.3-1.1-3.3-4-2.1-6.4
	c1.2-2.4,4.1-3.3,6.4-2.1C70.5,49,71.5,51.9,70.3,54.2L70.3,54.2z M73.2,28.5c0.7,2.5-0.9,5.1-3.5,5.8c-2.5,0.6-5-1-5.7-3.5
	c-0.6-2.5,0.9-5.1,3.4-5.7C70.1,24.4,72.6,26,73.2,28.5L73.2,28.5z M58.8,7c2.1,1.5,2.6,4.5,1.1,6.7c-1.5,2.1-4.5,2.6-6.7,1.1
	c-2.1-1.5-2.6-4.5-1.1-6.6C53.6,6,56.6,5.5,58.8,7z"/>
</svg>
