<?xml version="1.0" encoding="utf-8"?>
<!-- Generator: Adobe Illustrator 18.1.1, SVG Export Plug-In . SVG Version: 6.00 Build 0)  -->
<!DOCTYPE svg PUBLIC "-//W3C//DTD SVG 1.1//EN" "http://www.w3.org/Graphics/SVG/1.1/DTD/svg11.dtd">
<svg version="1.1" id="Layer_1" xmlns="http://www.w3.org/2000/svg" xmlns:xlink="http://www.w3.org/1999/xlink" x="0px" y="0px"
	 viewBox="0 0 118.3 118.3" enable-background="new 0 0 118.3 118.3" xml:space="preserve">
<g>
	<circle fill="#0F9ABB" cx="59.1" cy="59.1" r="59.1"/>
	<path fill="#0B9AB2" d="M113.7,36.5c12.4,30.2-1.9,64.8-32.1,77.2s-64.8-1.9-77.2-32.1"/>
	<g>
		<g>
			<g>
				<path fill="#FFFFFF" d="M16.7,41c-1,0-1.8,0.8-1.8,1.8V55c0,1,0.8,1.8,1.8,1.8h83.7c1,0,1.8-0.8,1.8-1.8V42.8
					c0-1-0.8-1.8-1.8-1.8H16.7z"/>
				<ellipse fill="#0F9ABB" cx="17.3" cy="55.2" rx="1.4" ry="0.9"/>
				<ellipse fill="#0F9ABB" cx="17.3" cy="42.6" rx="1.4" ry="0.9"/>
				<ellipse fill="#0F9ABB" cx="99.7" cy="55.2" rx="1.4" ry="0.9"/>
				<ellipse fill="#0F9ABB" cx="99.7" cy="42.6" rx="1.4" ry="0.9"/>
			</g>
			<path fill="#0F9ABB" d="M21.8,54.5L21.8,54.5c-0.3,0-0.5-0.2-0.5-0.5V43.9c0-0.3,0.2-0.5,0.5-0.5h0c0.3,0,0.5,0.2,0.5,0.5v10.1
				C22.4,54.2,22.1,54.5,21.8,54.5z"/>
			<path fill="#0F9ABB" d="M25.4,54.5L25.4,54.5c-0.3,0-0.5-0.2-0.5-0.5V43.9c0-0.3,0.2-0.5,0.5-0.5l0,0c0.3,0,0.5,0.2,0.5,0.5v10.1
				C25.9,54.2,25.7,54.5,25.4,54.5z"/>
			<path fill="#0F9ABB" d="M28.9,54.5L28.9,54.5c-0.3,0-0.5-0.2-0.5-0.5V43.9c0-0.3,0.2-0.5,0.5-0.5h0c0.3,0,0.5,0.2,0.5,0.5v10.1
				C29.5,54.2,29.2,54.5,28.9,54.5z"/>
			<path fill="#0F9ABB" d="M32.5,54.5L32.5,54.5c-0.3,0-0.5-0.2-0.5-0.5V43.9c0-0.3,0.2-0.5,0.5-0.5h0c0.3,0,0.5,0.2,0.5,0.5v10.1
				C33,54.2,32.8,54.5,32.5,54.5z"/>
			<path fill="#0F9ABB" d="M36.1,54.5L36.1,54.5c-0.3,0-0.5-0.2-0.5-0.5V43.9c0-0.3,0.2-0.5,0.5-0.5l0,0c0.3,0,0.5,0.2,0.5,0.5v10.1
				C36.6,54.2,36.4,54.5,36.1,54.5z"/>
			<path fill="#0F9ABB" d="M39.6,54.5L39.6,54.5c-0.3,0-0.5-0.2-0.5-0.5V43.9c0-0.3,0.2-0.5,0.5-0.5l0,0c0.3,0,0.5,0.2,0.5,0.5v10.1
				C40.2,54.2,39.9,54.5,39.6,54.5z"/>
			<path fill="#0F9ABB" d="M43.2,54.5L43.2,54.5c-0.3,0-0.5-0.2-0.5-0.5V43.9c0-0.3,0.2-0.5,0.5-0.5h0c0.3,0,0.5,0.2,0.5,0.5v10.1
				C43.7,54.2,43.5,54.5,43.2,54.5z"/>
			<path fill="#0F9ABB" d="M46.7,54.5L46.7,54.5c-0.3,0-0.5-0.2-0.5-0.5V43.9c0-0.3,0.2-0.5,0.5-0.5l0,0c0.3,0,0.5,0.2,0.5,0.5v10.1
				C47.3,54.2,47,54.5,46.7,54.5z"/>
			<path fill="#0F9ABB" d="M50.3,54.5L50.3,54.5c-0.3,0-0.5-0.2-0.5-0.5V43.9c0-0.3,0.2-0.5,0.5-0.5l0,0c0.3,0,0.5,0.2,0.5,0.5v10.1
				C50.8,54.2,50.6,54.5,50.3,54.5z"/>
			<path fill="#0F9ABB" d="M53.9,54.5L53.9,54.5c-0.3,0-0.5-0.2-0.5-0.5V43.9c0-0.3,0.2-0.5,0.5-0.5l0,0c0.3,0,0.5,0.2,0.5,0.5v10.1
				C54.4,54.2,54.2,54.5,53.9,54.5z"/>
			<g>
				<path fill="#0F9ABB" d="M94,44.8c-1.1-1.1-2.5-1.7-4.1-1.7c-1.5,0-3,0.6-4.1,1.7c-1.1,1.1-1.7,2.5-1.7,4.1c0,1.5,0.6,3,1.7,4.1
					c1.1,1.1,2.5,1.7,4.1,1.7c1.5,0,3-0.6,4.1-1.7c1.1-1.1,1.7-2.5,1.7-4.1C95.7,47.4,95.1,45.9,94,44.8z M94.9,48.9
					c0,1.3-0.5,2.6-1.4,3.5c-0.9,0.9-2.2,1.4-3.5,1.4c-1.3,0-2.6-0.5-3.5-1.4c-0.9-0.9-1.4-2.2-1.4-3.5c0-1.3,0.5-2.6,1.4-3.5
					c0.9-0.9,2.2-1.4,3.5-1.4c1.3,0,2.6,0.5,3.5,1.4C94.4,46.4,94.9,47.6,94.9,48.9z"/>
				<path fill="#0F9ABB" d="M92.1,51.2v-3.8c0,0,0-0.1,0-0.1c0.2-0.2,0.1-0.4,0.1-0.5c0-0.2-0.1-0.4-0.3-0.5
					c-0.1-0.1-0.4-0.2-0.6-0.2c-0.2,0-0.4,0.1-0.6,0.2c-0.3,0.3-0.3,0.8-0.1,1.1c0,0,0.1,0,0.1,0c0,0,0.2,0.1,0.2,0.1V49l-2-1.1
					v-1.3c0,0-0.1-0.1,0-0.1c0.2-0.2,0.1-0.4,0.1-0.5c0-0.2-0.1-0.4-0.3-0.5c-0.1-0.1-0.4-0.2-0.6-0.2c-0.2,0-0.4,0.1-0.6,0.2
					c-0.3,0.3-0.3,0.8-0.1,1.1c0,0,0.1,0,0.1,0c0,0,0.2,0.1,0.2,0.1v3.8c0,0-0.1,0.1-0.2,0.1c0,0-0.1,0-0.1,0
					c-0.1,0.1-0.2,0.3-0.2,0.5c0,0.2,0.1,0.4,0.2,0.5c0.1,0.1,0.3,0.2,0.5,0.2c0.2,0,0.4-0.1,0.5-0.2c0.1-0.1,0.2-0.3,0.2-0.5
					c0-0.2,0.1-0.4-0.1-0.5c-0.1-0.1,0-0.1,0-0.1v-1.7l2,1.1v1.5c0,0-0.1,0.1-0.2,0.1c0,0-0.1,0-0.1,0c-0.3,0.3-0.3,0.8,0,1.1
					c0.1,0.1,0.3,0.2,0.5,0.2c0.2,0,0.4-0.1,0.5-0.2c0.1-0.1,0.2-0.3,0.2-0.5c0-0.2,0.1-0.4-0.1-0.5C92.1,51.3,92.1,51.3,92.1,51.2z
					"/>
			</g>
		</g>
		<g>
			<g>
				<path fill="#FFFFFF" d="M16.7,61.5c-1,0-1.8,0.8-1.8,1.8v12.2c0,1,0.8,1.8,1.8,1.8h83.7c1,0,1.8-0.8,1.8-1.8V63.2
					c0-1-0.8-1.8-1.8-1.8H16.7z"/>
				<ellipse fill="#0F9ABB" cx="17.3" cy="75.7" rx="1.4" ry="0.9"/>
				<ellipse fill="#0F9ABB" cx="17.3" cy="63" rx="1.4" ry="0.9"/>
				<ellipse fill="#0F9ABB" cx="99.7" cy="75.7" rx="1.4" ry="0.9"/>
				<ellipse fill="#0F9ABB" cx="99.7" cy="63" rx="1.4" ry="0.9"/>
			</g>
			<path fill="#0F9ABB" d="M21.8,74.9L21.8,74.9c-0.3,0-0.5-0.2-0.5-0.5V64.3c0-0.3,0.2-0.5,0.5-0.5h0c0.3,0,0.5,0.2,0.5,0.5v10.1
				C22.4,74.7,22.1,74.9,21.8,74.9z"/>
			<path fill="#0F9ABB" d="M25.4,74.9L25.4,74.9c-0.3,0-0.5-0.2-0.5-0.5V64.3c0-0.3,0.2-0.5,0.5-0.5l0,0c0.3,0,0.5,0.2,0.5,0.5v10.1
				C25.9,74.7,25.7,74.9,25.4,74.9z"/>
			<path fill="#0F9ABB" d="M28.9,74.9L28.9,74.9c-0.3,0-0.5-0.2-0.5-0.5V64.3c0-0.3,0.2-0.5,0.5-0.5h0c0.3,0,0.5,0.2,0.5,0.5v10.1
				C29.5,74.7,29.2,74.9,28.9,74.9z"/>
			<path fill="#0F9ABB" d="M32.5,74.9L32.5,74.9c-0.3,0-0.5-0.2-0.5-0.5V64.3c0-0.3,0.2-0.5,0.5-0.5h0c0.3,0,0.5,0.2,0.5,0.5v10.1
				C33,74.7,32.8,74.9,32.5,74.9z"/>
			<path fill="#0F9ABB" d="M36.1,74.9L36.1,74.9c-0.3,0-0.5-0.2-0.5-0.5V64.3c0-0.3,0.2-0.5,0.5-0.5l0,0c0.3,0,0.5,0.2,0.5,0.5v10.1
				C36.6,74.7,36.4,74.9,36.1,74.9z"/>
			<path fill="#0F9ABB" d="M39.6,74.9L39.6,74.9c-0.3,0-0.5-0.2-0.5-0.5V64.3c0-0.3,0.2-0.5,0.5-0.5l0,0c0.3,0,0.5,0.2,0.5,0.5v10.1
				C40.2,74.7,39.9,74.9,39.6,74.9z"/>
			<path fill="#0F9ABB" d="M43.2,74.9L43.2,74.9c-0.3,0-0.5-0.2-0.5-0.5V64.3c0-0.3,0.2-0.5,0.5-0.5h0c0.3,0,0.5,0.2,0.5,0.5v10.1
				C43.7,74.7,43.5,74.9,43.2,74.9z"/>
			<path fill="#0F9ABB" d="M46.7,74.9L46.7,74.9c-0.3,0-0.5-0.2-0.5-0.5V64.3c0-0.3,0.2-0.5,0.5-0.5l0,0c0.3,0,0.5,0.2,0.5,0.5v10.1
				C47.3,74.7,47,74.9,46.7,74.9z"/>
			<path fill="#0F9ABB" d="M50.3,74.9L50.3,74.9c-0.3,0-0.5-0.2-0.5-0.5V64.3c0-0.3,0.2-0.5,0.5-0.5l0,0c0.3,0,0.5,0.2,0.5,0.5v10.1
				C50.8,74.7,50.6,74.9,50.3,74.9z"/>
			<path fill="#0F9ABB" d="M53.9,74.9L53.9,74.9c-0.3,0-0.5-0.2-0.5-0.5V64.3c0-0.3,0.2-0.5,0.5-0.5l0,0c0.3,0,0.5,0.2,0.5,0.5v10.1
				C54.4,74.7,54.2,74.9,53.9,74.9z"/>
			<g>
				<path fill="#0F9ABB" d="M94,65.3c-1.1-1.1-2.5-1.7-4.1-1.7c-1.5,0-3,0.6-4.1,1.7c-1.1,1.1-1.7,2.5-1.7,4.1c0,1.5,0.6,3,1.7,4.1
					c1.1,1.1,2.5,1.7,4.1,1.7c1.5,0,3-0.6,4.1-1.7c1.1-1.1,1.7-2.5,1.7-4.1C95.7,67.8,95.1,66.3,94,65.3z M94.9,69.3
					c0,1.3-0.5,2.6-1.4,3.5c-0.9,0.9-2.2,1.4-3.5,1.4c-1.3,0-2.6-0.5-3.5-1.4c-0.9-0.9-1.4-2.2-1.4-3.5c0-1.3,0.5-2.6,1.4-3.5
					c0.9-0.9,2.2-1.4,3.5-1.4c1.3,0,2.6,0.5,3.5,1.4C94.4,66.8,94.9,68,94.9,69.3z"/>
				<path fill="#0F9ABB" d="M92.1,71.6v-3.8c0,0,0-0.1,0-0.1c0.2-0.2,0.1-0.4,0.1-0.5c0-0.2-0.1-0.4-0.3-0.5
					c-0.1-0.1-0.4-0.2-0.6-0.2c-0.2,0-0.4,0.1-0.6,0.2c-0.3,0.3-0.3,0.8-0.1,1.1c0,0,0.1,0,0.1,0c0,0,0.2,0.1,0.2,0.1v1.5l-2-1.1V67
					c0,0-0.1-0.1,0-0.1c0.2-0.2,0.1-0.4,0.1-0.5c0-0.2-0.1-0.4-0.3-0.5c-0.1-0.1-0.4-0.2-0.6-0.2c-0.2,0-0.4,0.1-0.6,0.2
					c-0.3,0.3-0.3,0.8-0.1,1.1c0,0,0.1,0,0.1,0c0,0,0.2,0.1,0.2,0.1v3.8c0,0-0.1,0.1-0.2,0.1c0,0-0.1,0-0.1,0
					c-0.1,0.1-0.2,0.3-0.2,0.5c0,0.2,0.1,0.4,0.2,0.5c0.1,0.1,0.3,0.2,0.5,0.2c0.2,0,0.4-0.1,0.5-0.2c0.1-0.1,0.2-0.3,0.2-0.5
					c0-0.2,0.1-0.4-0.1-0.5c-0.1-0.1,0-0.1,0-0.1v-1.7l2,1.1v1.5c0,0-0.1,0.1-0.2,0.1c0,0-0.1,0-0.1,0c-0.3,0.3-0.3,0.8,0,1.1
					c0.1,0.1,0.3,0.2,0.5,0.2c0.2,0,0.4-0.1,0.5-0.2c0.1-0.1,0.2-0.3,0.2-0.5c0-0.2,0.1-0.4-0.1-0.5C92.1,71.7,92.1,71.7,92.1,71.6z
					"/>
			</g>
		</g>
	</g>
</g>
</svg>
