<?xml version="1.0" encoding="utf-8"?>
<!-- Generator: Adobe Illustrator 18.1.1, SVG Export Plug-In . SVG Version: 6.00 Build 0)  -->
<!DOCTYPE svg PUBLIC "-//W3C//DTD SVG 1.1//EN" "http://www.w3.org/Graphics/SVG/1.1/DTD/svg11.dtd">
<svg version="1.1" id="Layer_1" xmlns="http://www.w3.org/2000/svg" xmlns:xlink="http://www.w3.org/1999/xlink" x="0px" y="0px"
	 viewBox="0 0 203 195.6" enable-background="new 0 0 203 195.6" xml:space="preserve">
<g>
	<g>
		<g>
			<path fill="#C8C8C8" d="M1,2.4c0,0.1,0,0.2,0,0.2c0,0,0,0.1,0,0.1l1.6,4l0.9-2c0.3-0.7,0.6-1.5,0.7-2.3H5C4.8,3.2,4.5,4,4.2,4.8
				L2.8,7.9H2.2L0,2.4H1z"/>
			<path fill="#C8C8C8" d="M8.6,2.3c0.9,0,1.5,0.3,1.9,0.9c0.3,0.4,0.3,0.8,0.3,1.3v3.4H9.9V7.3C9.3,7.8,8.6,8,8,8
				C6.8,8,6.1,7.3,6.1,6.5c0-0.6,0.4-1.2,1.3-1.6c0.7-0.3,1.6-0.2,2.4-0.2h0.2V4.4c0-0.3,0-0.6-0.2-0.9C9.6,3.2,9.3,3,8.6,3
				C8.1,3,7.5,3.1,7,3.6L6.6,3C7.1,2.5,7.8,2.3,8.6,2.3z M9.7,5.3c-0.6,0-1.3,0-1.8,0.1C7.3,5.5,7,6,7,6.4c0,0.5,0.4,0.9,1.2,0.9
				c0.7,0,1.2-0.4,1.4-0.6c0.4-0.4,0.4-0.7,0.4-1V5.3H9.7z"/>
			<path fill="#C8C8C8" d="M13.6,2.4l0,1.1c0.4-0.8,1.2-1.2,2-1.2c0.6,0,1.1,0.2,1.5,0.6l-0.4,0.8c-0.1-0.1-0.1-0.2-0.2-0.3
				C16.3,3.2,16,3,15.5,3c-0.4,0-1,0.1-1.5,0.9c-0.4,0.6-0.4,1-0.4,1.3v2.7h-0.9V2.4H13.6z"/>
			<path fill="#C8C8C8" d="M25.1,2.4v0.8c0.4-0.6,1-1,1.7-1c1.1,0,2.2,0.9,2.2,2.8c0,2-1.2,2.9-2.3,2.9c-0.7,0-1.3-0.3-1.6-0.9v2.7
				h-0.9l0-7.5H25.1z M25.3,3.8c-0.1,0.3-0.1,0.6-0.1,1.1c0,0.8,0,1.2,0.2,1.6C25.5,7,26,7.2,26.5,7.2c0.5,0,1.6-0.3,1.6-2
				c0-2-1.2-2.2-1.6-2.2C26,3,25.5,3.3,25.3,3.8z"/>
			<path fill="#C8C8C8" d="M31.6,2.4l0,1.1c0.4-0.8,1.2-1.2,2-1.2c0.6,0,1.1,0.2,1.5,0.6l-0.4,0.8c-0.1-0.1-0.1-0.2-0.2-0.3
				C34.3,3.2,34,3,33.5,3c-0.4,0-1,0.1-1.5,0.9c-0.4,0.6-0.4,1-0.4,1.3v2.7h-0.9V2.4H31.6z"/>
			<path fill="#C8C8C8" d="M38.6,8C37.2,8,36,6.8,36,5.2c0-1.7,1.2-2.9,2.6-2.9c1.2,0,2.4,1,2.4,2.9C41,7,39.9,8,38.6,8z M36.9,5.1
				c0,1.4,0.8,2.2,1.7,2.2c0.8,0,1.6-0.7,1.6-2.1c0-1.5-0.8-2.2-1.6-2.2C37.7,3,36.9,3.8,36.9,5.1z"/>
			<path fill="#C8C8C8" d="M43.1,2.4v0.8c0.4-0.6,1-1,1.7-1c1.1,0,2.2,0.9,2.2,2.8c0,2-1.2,2.9-2.3,2.9c-0.7,0-1.3-0.3-1.6-0.9v2.7
				h-0.9l0-7.5H43.1z M43.3,3.8c-0.1,0.3-0.1,0.6-0.1,1.1c0,0.8,0,1.2,0.2,1.6C43.5,7,44,7.2,44.5,7.2c0.5,0,1.6-0.3,1.6-2
				c0-2-1.2-2.2-1.6-2.2C44,3,43.5,3.3,43.3,3.8z"/>
			<path fill="#C8C8C8" d="M52.8,4.2c0.1,0.3,0.1,0.7,0,1h-3.9c0.1,1.6,1.1,2,1.9,2c0.5,0,1.1-0.2,1.4-0.6l0.5,0.5
				c-0.5,0.6-1.2,0.9-2,0.9c-1.5,0-2.6-1-2.6-2.8c0-2,1.2-2.9,2.5-2.9C51.5,2.3,52.5,2.7,52.8,4.2z M52,4.6c0.1-0.9-0.5-1.7-1.4-1.7
				c-0.6,0-1.4,0.4-1.6,1.7H52z"/>
			<path fill="#C8C8C8" d="M55.6,2.4l0,1.1c0.4-0.8,1.2-1.2,2-1.2c0.6,0,1.1,0.2,1.5,0.6l-0.4,0.8c-0.1-0.1-0.1-0.2-0.2-0.3
				C58.3,3.2,58,3,57.5,3c-0.4,0-1,0.1-1.5,0.9c-0.4,0.6-0.4,1-0.4,1.3v2.7h-0.9V2.4H55.6z"/>
			<path fill="#C8C8C8" d="M62.7,0.8c0,0.1,0,0.2-0.1,0.3c-0.1,0.3-0.1,1.3-0.1,1.3h1.8v0.7h-1.8c-0.1,0.7-0.1,1.4-0.1,2.1
				c0,0.8,0,1,0,1.1c0.1,0.7,0.5,0.9,0.9,0.9c0.3,0,0.8-0.2,1.2-0.5l0.3,0.7C64.4,7.7,63.8,8,63.1,8c-0.6,0-1-0.2-1.2-0.6
				c-0.3-0.4-0.3-1-0.3-1.5c0-0.9,0-1.9,0.1-2.8h-1.3l0-0.7h1.3l0.1-1.5L62.7,0.8z"/>
			<path fill="#C8C8C8" d="M69,2.4v4.8h1.3v0.7h-3.5V7.2h1.4V3.1h-1.3V2.4H69z M69.2,0.6c0,0.3-0.3,0.6-0.6,0.6
				C68.2,1.2,68,1,68,0.6C68,0.3,68.2,0,68.6,0C68.9,0,69.2,0.3,69.2,0.6z"/>
			<path fill="#C8C8C8" d="M76.8,4.2c0.1,0.3,0.1,0.7,0,1h-3.9c0.1,1.6,1.1,2,1.9,2c0.5,0,1.1-0.2,1.4-0.6l0.5,0.5
				c-0.5,0.6-1.2,0.9-2,0.9c-1.5,0-2.6-1-2.6-2.8c0-2,1.2-2.9,2.5-2.9C75.5,2.3,76.5,2.7,76.8,4.2z M76,4.6c0.1-0.9-0.5-1.7-1.4-1.7
				c-0.6,0-1.4,0.4-1.6,1.7H76z"/>
			<path fill="#C8C8C8" d="M82.2,3.9C82.2,3.9,82.1,3.8,82.2,3.9c-0.1-0.1-0.1-0.2-0.1-0.2c-0.2-0.3-0.7-0.8-1.5-0.8
				c-0.6,0-1.2,0.3-1.2,0.7c0,0.2,0.1,0.4,0.5,0.7c0.5,0.2,1.4,0.4,2,0.7c0.6,0.4,0.8,0.9,0.8,1.2C82.8,7.1,82,8,80.5,8
				c-0.8,0-1.7-0.3-2.3-0.9l0.5-0.9c0.1,0,0.1,0.1,0.1,0.1c0,0,0,0.1,0,0.1c0.2,0.2,0.8,0.8,1.7,0.8c0.8,0,1.4-0.4,1.4-0.9
				c0-0.2-0.1-0.5-0.5-0.7c-0.4-0.2-1-0.3-1.5-0.5c-0.3-0.1-1.3-0.5-1.3-1.4c0-0.8,0.8-1.5,2.1-1.5c0.8,0,1.5,0.3,2,0.9L82.2,3.9z"
				/>
			<path fill="#C8C8C8" d="M95,2.6v0.7h-4.9V2.6H95z M95,5.1v0.7h-4.9V5.1H95z"/>
			<path fill="#C8C8C8" d="M106.8,0.4v0.7H103v2.5h3.1v0.8H103v2.8h3.8v0.7h-4.6V0.4H106.8z"/>
			<path fill="#C8C8C8" d="M108.3,2.4h0.9v1c0.4-0.6,1.1-1.1,1.8-1.1c0.6,0,1.2,0.4,1.5,1c0.2,0.4,0.2,0.9,0.2,1.3v3.3h-0.8V4.6
				c0-0.4,0-0.9-0.3-1.2c-0.2-0.2-0.5-0.3-0.7-0.3c-0.6,0-1.1,0.5-1.3,0.8c-0.2,0.3-0.3,0.6-0.3,0.9v3.2h-0.9V2.4z"/>
			<path fill="#C8C8C8" d="M116.7,0.8c0,0.1,0,0.2-0.1,0.3c-0.1,0.3-0.1,1.3-0.1,1.3h1.8v0.7h-1.8c-0.1,0.7-0.1,1.4-0.1,2.1
				c0,0.8,0,1,0,1.1c0.1,0.7,0.5,0.9,0.9,0.9c0.3,0,0.8-0.2,1.2-0.5l0.3,0.7c-0.5,0.3-1.1,0.6-1.8,0.6c-0.6,0-1-0.2-1.2-0.6
				c-0.3-0.4-0.3-1-0.3-1.5c0-0.9,0-1.9,0.1-2.8h-1.3l0-0.7h1.3l0.1-1.5L116.7,0.8z"/>
			<path fill="#C8C8C8" d="M123,2.4v4.8h1.3v0.7h-3.5V7.2h1.4V3.1h-1.3V2.4H123z M123.2,0.6c0,0.3-0.3,0.6-0.6,0.6
				c-0.3,0-0.6-0.3-0.6-0.6c0-0.3,0.3-0.6,0.6-0.6C122.9,0,123.2,0.3,123.2,0.6z"/>
			<path fill="#C8C8C8" d="M128.7,0.8c0,0.1,0,0.2-0.1,0.3c-0.1,0.3-0.1,1.3-0.1,1.3h1.8v0.7h-1.8c-0.1,0.7-0.1,1.4-0.1,2.1
				c0,0.8,0,1,0,1.1c0.1,0.7,0.5,0.9,0.9,0.9c0.3,0,0.8-0.2,1.2-0.5l0.3,0.7c-0.5,0.3-1.1,0.6-1.8,0.6c-0.6,0-1-0.2-1.2-0.6
				c-0.3-0.4-0.3-1-0.3-1.5c0-0.9,0-1.9,0.1-2.8h-1.3l0-0.7h1.3l0.1-1.5L128.7,0.8z"/>
			<path fill="#C8C8C8" d="M135,2.4v4.8h1.3v0.7h-3.5V7.2h1.4V3.1h-1.3V2.4H135z M135.2,0.6c0,0.3-0.3,0.6-0.6,0.6
				c-0.3,0-0.6-0.3-0.6-0.6c0-0.3,0.3-0.6,0.6-0.6C134.9,0,135.2,0.3,135.2,0.6z"/>
			<path fill="#C8C8C8" d="M142.8,4.2c0.1,0.3,0.1,0.7,0,1h-3.9c0.1,1.6,1.1,2,1.9,2c0.5,0,1.1-0.2,1.4-0.6l0.5,0.5
				c-0.5,0.6-1.2,0.9-2,0.9c-1.5,0-2.6-1-2.6-2.8c0-2,1.2-2.9,2.5-2.9C141.5,2.3,142.5,2.7,142.8,4.2z M142,4.6
				c0.1-0.9-0.5-1.7-1.4-1.7c-0.6,0-1.4,0.4-1.6,1.7H142z"/>
			<path fill="#C8C8C8" d="M148.2,3.9C148.2,3.9,148.1,3.8,148.2,3.9c-0.1-0.1-0.1-0.2-0.1-0.2c-0.2-0.3-0.7-0.8-1.5-0.8
				c-0.6,0-1.2,0.3-1.2,0.7c0,0.2,0.1,0.4,0.5,0.7c0.5,0.2,1.4,0.4,2,0.7c0.6,0.4,0.8,0.9,0.8,1.2c0,0.8-0.8,1.7-2.3,1.7
				c-0.8,0-1.7-0.3-2.3-0.9l0.5-0.9c0.1,0,0.1,0.1,0.1,0.1c0,0,0,0.1,0,0.1c0.2,0.2,0.8,0.8,1.7,0.8c0.8,0,1.4-0.4,1.4-0.9
				c0-0.2-0.1-0.5-0.5-0.7c-0.4-0.2-1-0.3-1.5-0.5c-0.3-0.1-1.3-0.5-1.3-1.4c0-0.8,0.8-1.5,2.1-1.5c0.8,0,1.5,0.3,2,0.9L148.2,3.9z"
				/>
			<path fill="#C8C8C8" d="M152.4,8c-0.4,0-0.7-0.3-0.7-0.7c0-0.4,0.3-0.7,0.7-0.7s0.7,0.3,0.7,0.7C153.1,7.7,152.8,8,152.4,8z"/>
			<path fill="#C8C8C8" d="M159.6,2.7c0.4-0.4,1-0.5,1.5-0.5l0.1,0.7c-0.1,0-0.2,0-0.3,0c-0.3,0-0.7,0.1-1,0.3
				c0.2,0.3,0.3,0.6,0.3,0.9c0,1-0.9,1.9-2,1.9c-0.2,0-0.5,0-0.7-0.1c-0.1,0-0.4,0.3-0.4,0.6c0,0.2,0.1,0.3,0.3,0.4
				c0.1,0,0.4,0.1,0.8,0.1c0.6,0,1.3-0.1,1.9,0.2c0.6,0.2,0.9,0.7,0.9,1.2c0,0.7-0.7,1.7-2.5,1.7c-1.9,0-2.5-0.7-2.5-1.3
				c0-0.4,0.3-0.8,0.9-1.2c-0.3-0.2-0.4-0.5-0.4-0.7c0-0.4,0.2-0.7,0.6-1.1c-0.5-0.3-0.8-0.9-0.8-1.5c0-1.1,1-1.9,2-1.9
				C158.8,2.2,159.3,2.4,159.6,2.7z M156.8,8.4c0,0.2,0.1,0.5,0.5,0.7c0.4,0.2,0.9,0.2,1.1,0.2c0.4,0,0.8,0,1.2-0.2
				c0.4-0.2,0.5-0.5,0.5-0.7c0-0.2-0.1-0.6-0.7-0.6c-0.3,0-0.8,0-1.2,0c-0.4,0-0.7,0-0.9-0.1C157.1,7.7,156.8,8,156.8,8.4z
				 M158.2,5.3c0.7,0,1.2-0.5,1.2-1.2s-0.5-1.2-1.2-1.2S157,3.4,157,4.1S157.6,5.3,158.2,5.3z"/>
			<path fill="#C8C8C8" d="M166.8,4.2c0.1,0.3,0.1,0.7,0,1h-3.9c0.1,1.6,1.1,2,1.9,2c0.5,0,1.1-0.2,1.4-0.6l0.5,0.5
				c-0.5,0.6-1.2,0.9-2,0.9c-1.5,0-2.6-1-2.6-2.8c0-2,1.2-2.9,2.5-2.9C165.5,2.3,166.5,2.7,166.8,4.2z M166,4.6
				c0.1-0.9-0.5-1.7-1.4-1.7c-0.6,0-1.4,0.4-1.6,1.7H166z"/>
			<path fill="#C8C8C8" d="M170.7,0.8c0,0.1,0,0.2-0.1,0.3c-0.1,0.3-0.1,1.3-0.1,1.3h1.8v0.7h-1.8c-0.1,0.7-0.1,1.4-0.1,2.1
				c0,0.8,0,1,0,1.1c0.1,0.7,0.5,0.9,0.9,0.9c0.3,0,0.8-0.2,1.2-0.5l0.3,0.7c-0.5,0.3-1.1,0.6-1.8,0.6c-0.6,0-1-0.2-1.2-0.6
				c-0.3-0.4-0.3-1-0.3-1.5c0-0.9,0-1.9,0.1-2.8h-1.3l0-0.7h1.3l0.1-1.5L170.7,0.8z"/>
			<path fill="#C8C8C8" d="M178.8,0.4v0.7H175v2.5h3.1v0.8H175v2.8h3.8v0.7h-4.6V0.4H178.8z"/>
			<path fill="#C8C8C8" d="M180.3,2.4h0.9v1c0.4-0.6,1.1-1.1,1.8-1.1c0.6,0,1.2,0.4,1.5,1c0.2,0.4,0.2,0.9,0.2,1.3v3.3h-0.8V4.6
				c0-0.4,0-0.9-0.3-1.2c-0.2-0.2-0.5-0.3-0.7-0.3c-0.6,0-1.1,0.5-1.3,0.8c-0.2,0.3-0.3,0.6-0.3,0.9v3.2h-0.9V2.4z"/>
			<path fill="#C8C8C8" d="M188.7,0.8c0,0.1,0,0.2-0.1,0.3c-0.1,0.3-0.1,1.3-0.1,1.3h1.8v0.7h-1.8c-0.1,0.7-0.1,1.4-0.1,2.1
				c0,0.8,0,1,0,1.1c0.1,0.7,0.5,0.9,0.9,0.9c0.3,0,0.8-0.2,1.2-0.5l0.3,0.7c-0.5,0.3-1.1,0.6-1.8,0.6c-0.6,0-1-0.2-1.2-0.6
				c-0.3-0.4-0.3-1-0.3-1.5c0-0.9,0-1.9,0.1-2.8h-1.3l0-0.7h1.3l0.1-1.5L188.7,0.8z"/>
			<path fill="#C8C8C8" d="M195,2.4v4.8h1.3v0.7h-3.5V7.2h1.4V3.1h-1.3V2.4H195z M195.2,0.6c0,0.3-0.3,0.6-0.6,0.6
				c-0.3,0-0.6-0.3-0.6-0.6c0-0.3,0.3-0.6,0.6-0.6C194.9,0,195.2,0.3,195.2,0.6z"/>
			<path fill="#C8C8C8" d="M200.7,0.8c0,0.1,0,0.2-0.1,0.3c-0.1,0.3-0.1,1.3-0.1,1.3h1.8v0.7h-1.8c-0.1,0.7-0.1,1.4-0.1,2.1
				c0,0.8,0,1,0,1.1c0.1,0.7,0.5,0.9,0.9,0.9c0.3,0,0.8-0.2,1.2-0.5l0.3,0.7c-0.5,0.3-1.1,0.6-1.8,0.6c-0.6,0-1-0.2-1.2-0.6
				c-0.3-0.4-0.3-1-0.3-1.5c0-0.9,0-1.9,0.1-2.8h-1.3l0-0.7h1.3l0.1-1.5L200.7,0.8z"/>
			<path fill="#C8C8C8" d="M27,16.8v4.8h1.3v0.7h-3.5v-0.7h1.4v-4.1h-1.3v-0.7H27z M27.2,15c0,0.3-0.3,0.6-0.6,0.6
				c-0.3,0-0.6-0.3-0.6-0.6c0-0.3,0.3-0.6,0.6-0.6C26.9,14.4,27.2,14.7,27.2,15z"/>
			<path fill="#C8C8C8" d="M35.3,15l-0.4,0.8c0,0-0.1,0-0.1-0.1c0-0.1,0-0.1,0-0.1c-0.2-0.3-0.7-0.6-1.2-0.6c-0.5,0-0.9,0.2-1.1,0.6
				c-0.2,0.4-0.2,0.8-0.2,1.2v0.4h1.8v0.7h-1.8v4.5h-0.8v-4.5h-1.2v-0.7h1.2v-0.5c0-0.5,0-0.9,0.3-1.4c0.4-0.6,1.1-1,1.9-1
				C34.3,14.2,34.9,14.5,35.3,15z"/>
			<path fill="#C8C8C8" d="M46.6,15C46.5,15,46.5,15,46.6,15c-0.1,0-0.2,0-0.2,0c0,0-0.1,0-0.1,0c-1.4,0.8-2.2,2.4-2.2,4.1
				c0,1.9,1,3.6,2.6,4.6l-0.4,0.6c-1.9-1-3-3-3-5.2c0-2.2,1.2-4.1,3-4.9L46.6,15z"/>
			<path fill="#C8C8C8" d="M51,16.8v4.8h1.3v0.7h-3.5v-0.7h1.4v-4.1h-1.3v-0.7H51z M51.2,15c0,0.3-0.3,0.6-0.6,0.6
				c-0.3,0-0.6-0.3-0.6-0.6c0-0.3,0.3-0.6,0.6-0.6C50.9,14.4,51.2,14.7,51.2,15z"/>
			<path fill="#C8C8C8" d="M58.2,18.3C58.2,18.3,58.1,18.2,58.2,18.3c-0.1-0.1-0.1-0.2-0.1-0.2c-0.2-0.3-0.7-0.8-1.5-0.8
				c-0.6,0-1.2,0.3-1.2,0.7c0,0.2,0.1,0.4,0.5,0.7c0.5,0.2,1.4,0.4,2,0.7c0.6,0.4,0.8,0.9,0.8,1.2c0,0.8-0.8,1.7-2.3,1.7
				c-0.8,0-1.7-0.3-2.3-0.9l0.5-0.9c0.1,0,0.1,0.1,0.1,0.1c0,0,0,0.1,0,0.1c0.2,0.2,0.8,0.8,1.7,0.8c0.8,0,1.4-0.4,1.4-0.9
				c0-0.2-0.1-0.5-0.5-0.7c-0.4-0.2-1-0.3-1.5-0.5c-0.3-0.1-1.3-0.5-1.3-1.4c0-0.8,0.8-1.5,2.1-1.5c0.8,0,1.5,0.3,2,0.9L58.2,18.3z"
				/>
			<path fill="#C8C8C8" d="M61.3,14.8c0,0.1,0,0.2,0,0.2c0,0.1-0.1,0.1-0.1,0.2v6.4h3.6v0.7h-4.5v-7.5H61.3z"/>
			<path fill="#C8C8C8" d="M68.6,22.4c-1.4,0-2.6-1.2-2.6-2.8c0-1.7,1.2-2.9,2.6-2.9c1.2,0,2.4,1,2.4,2.9
				C71,21.4,69.9,22.4,68.6,22.4z M66.9,19.5c0,1.4,0.8,2.2,1.7,2.2c0.8,0,1.6-0.7,1.6-2.1c0-1.5-0.8-2.2-1.6-2.2
				C67.7,17.4,66.9,18.2,66.9,19.5z"/>
			<path fill="#C8C8C8" d="M76.4,18.4c-0.1-0.1,0-0.2-0.1-0.3c0-0.1-0.5-0.7-1.4-0.7c-1,0-1.8,0.8-1.8,2c0,1.3,0.8,2.2,1.9,2.2
				c0.5,0,1.1-0.2,1.5-0.7l0.5,0.6c-0.5,0.6-1.3,0.9-2,0.9c-1.5,0-2.7-1.2-2.7-2.9c0-1.6,1.1-2.9,2.8-2.9c0.9,0,1.6,0.4,2,1
				L76.4,18.4z"/>
			<path fill="#C8C8C8" d="M79.3,14.3c0,0.1,0,0.1-0.1,0.2c0,0.1,0,0.1,0,0.1v4.7l2.7-2.5c0.2,0.1,0.4,0.1,0.6,0.1h0.3L80.6,19
				l2.7,3.3c0,0-0.1,0-0.1,0c-0.6,0-1,0-1,0l-2.2-2.8l-0.7,0.7v2.1h-0.9v-8H79.3z"/>
			<path fill="#C8C8C8" d="M88.8,18.6c0.1,0.3,0.1,0.7,0,1h-3.9c0.1,1.6,1.1,2,1.9,2c0.5,0,1.1-0.2,1.4-0.6l0.5,0.5
				c-0.5,0.6-1.2,0.9-2,0.9c-1.5,0-2.6-1-2.6-2.8c0-2,1.2-2.9,2.5-2.9C87.5,16.7,88.5,17.1,88.8,18.6z M88,19
				c0.1-0.9-0.5-1.7-1.4-1.7c-0.6,0-1.4,0.4-1.6,1.7H88z"/>
			<path fill="#C8C8C8" d="M94,14.3h0.9c0,0.1,0,0.1-0.1,0.2c0,0.1,0,0.1,0,0.2l0,7.1c0,0.2,0,0.3,0.1,0.5H94c0-0.1-0.1-0.3-0.1-0.4
				v-0.5c-0.3,0.6-1,1-1.7,1c-1.1,0-2.2-0.9-2.2-2.9c0-2.1,1.3-2.8,2.3-2.8c0.8,0,1.3,0.4,1.6,0.9V14.3z M90.9,19.3
				c0,1.8,0.9,2.3,1.5,2.3c0.6,0,1.1-0.4,1.3-1c0.1-0.3,0.1-0.6,0.1-1c0-0.6,0-0.9-0.1-1.2c-0.2-0.8-0.9-1.1-1.4-1.1
				C91.8,17.3,90.9,17.8,90.9,19.3z"/>
			<path fill="#C8C8C8" d="M100.6,15C100.5,15,100.5,15,100.6,15c-0.1,0-0.2,0-0.2,0c0,0-0.1,0-0.1,0c-1.4,0.8-2.2,2.4-2.2,4.1
				c0,1.9,1,3.6,2.6,4.6l-0.4,0.6c-1.9-1-3-3-3-5.2c0-2.2,1.2-4.1,3-4.9L100.6,15z"/>
			<path fill="#C8C8C8" d="M103.1,16.8v0.8c0.4-0.6,1-1,1.7-1c1.1,0,2.2,0.9,2.2,2.8c0,2-1.2,2.9-2.3,2.9c-0.7,0-1.3-0.3-1.6-0.9
				v2.7h-0.9l0-7.5H103.1z M103.3,18.2c-0.1,0.3-0.1,0.6-0.1,1.1c0,0.8,0,1.2,0.2,1.6c0.2,0.5,0.7,0.8,1.3,0.8c0.5,0,1.6-0.3,1.6-2
				c0-2-1.2-2.2-1.6-2.2C104,17.4,103.5,17.7,103.3,18.2z"/>
			<path fill="#C8C8C8" d="M109.6,16.8l0,1.1c0.4-0.8,1.2-1.2,2-1.2c0.6,0,1.1,0.2,1.5,0.6l-0.4,0.8c-0.1-0.1-0.1-0.2-0.2-0.3
				c-0.2-0.2-0.4-0.4-0.9-0.4c-0.4,0-1,0.1-1.5,0.9c-0.4,0.6-0.4,1-0.4,1.3v2.7h-0.9v-5.5H109.6z"/>
			<path fill="#C8C8C8" d="M116.6,22.4c-1.4,0-2.6-1.2-2.6-2.8c0-1.7,1.2-2.9,2.6-2.9c1.2,0,2.4,1,2.4,2.9
				C119,21.4,117.9,22.4,116.6,22.4z M114.9,19.5c0,1.4,0.8,2.2,1.7,2.2c0.8,0,1.6-0.7,1.6-2.1c0-1.5-0.8-2.2-1.6-2.2
				C115.7,17.4,114.9,18.2,114.9,19.5z"/>
			<path fill="#C8C8C8" d="M121.1,16.8v0.8c0.4-0.6,1-1,1.7-1c1.1,0,2.2,0.9,2.2,2.8c0,2-1.2,2.9-2.3,2.9c-0.7,0-1.3-0.3-1.6-0.9
				v2.7h-0.9l0-7.5H121.1z M121.3,18.2c-0.1,0.3-0.1,0.6-0.1,1.1c0,0.8,0,1.2,0.2,1.6c0.2,0.5,0.7,0.8,1.3,0.8c0.5,0,1.6-0.3,1.6-2
				c0-2-1.2-2.2-1.6-2.2C122,17.4,121.5,17.7,121.3,18.2z"/>
			<path fill="#C8C8C8" d="M130.8,18.6c0.1,0.3,0.1,0.7,0,1h-3.9c0.1,1.6,1.1,2,1.9,2c0.5,0,1.1-0.2,1.4-0.6l0.5,0.5
				c-0.5,0.6-1.2,0.9-2,0.9c-1.5,0-2.6-1-2.6-2.8c0-2,1.2-2.9,2.5-2.9C129.5,16.7,130.5,17.1,130.8,18.6z M130,19
				c0.1-0.9-0.5-1.7-1.4-1.7c-0.6,0-1.4,0.4-1.6,1.7H130z"/>
			<path fill="#C8C8C8" d="M133.6,16.8l0,1.1c0.4-0.8,1.2-1.2,2-1.2c0.6,0,1.1,0.2,1.5,0.6l-0.4,0.8c-0.1-0.1-0.1-0.2-0.2-0.3
				c-0.2-0.2-0.4-0.4-0.9-0.4c-0.4,0-1,0.1-1.5,0.9c-0.4,0.6-0.4,1-0.4,1.3v2.7h-0.9v-5.5H133.6z"/>
			<path fill="#C8C8C8" d="M140.7,15.2c0,0.1,0,0.2-0.1,0.3c-0.1,0.3-0.1,1.3-0.1,1.3h1.8v0.7h-1.8c-0.1,0.7-0.1,1.4-0.1,2.1
				c0,0.8,0,1,0,1.1c0.1,0.7,0.5,0.9,0.9,0.9c0.3,0,0.8-0.2,1.2-0.5l0.3,0.7c-0.5,0.3-1.1,0.6-1.8,0.6c-0.6,0-1-0.2-1.2-0.6
				c-0.3-0.4-0.3-1-0.3-1.5c0-0.9,0-1.9,0.1-2.8h-1.3l0-0.7h1.3l0.1-1.5L140.7,15.2z"/>
			<path fill="#C8C8C8" d="M147,16.8v4.8h1.3v0.7h-3.5v-0.7h1.4v-4.1h-1.3v-0.7H147z M147.2,15c0,0.3-0.3,0.6-0.6,0.6
				c-0.3,0-0.6-0.3-0.6-0.6c0-0.3,0.3-0.6,0.6-0.6C146.9,14.4,147.2,14.7,147.2,15z"/>
			<path fill="#C8C8C8" d="M154.8,18.6c0.1,0.3,0.1,0.7,0,1h-3.9c0.1,1.6,1.1,2,1.9,2c0.5,0,1.1-0.2,1.4-0.6l0.5,0.5
				c-0.5,0.6-1.2,0.9-2,0.9c-1.5,0-2.6-1-2.6-2.8c0-2,1.2-2.9,2.5-2.9C153.5,16.7,154.5,17.1,154.8,18.6z M154,19
				c0.1-0.9-0.5-1.7-1.4-1.7c-0.6,0-1.4,0.4-1.6,1.7H154z"/>
			<path fill="#C8C8C8" d="M160.2,18.3C160.2,18.3,160.1,18.2,160.2,18.3c-0.1-0.1-0.1-0.2-0.1-0.2c-0.2-0.3-0.7-0.8-1.5-0.8
				c-0.6,0-1.2,0.3-1.2,0.7c0,0.2,0.1,0.4,0.5,0.7c0.5,0.2,1.4,0.4,2,0.7c0.6,0.4,0.8,0.9,0.8,1.2c0,0.8-0.8,1.7-2.3,1.7
				c-0.8,0-1.7-0.3-2.3-0.9l0.5-0.9c0.1,0,0.1,0.1,0.1,0.1c0,0,0,0.1,0,0.1c0.2,0.2,0.8,0.8,1.7,0.8c0.8,0,1.4-0.4,1.4-0.9
				c0-0.2-0.1-0.5-0.5-0.7c-0.4-0.2-1-0.3-1.5-0.5c-0.3-0.1-1.3-0.5-1.3-1.4c0-0.8,0.8-1.5,2.1-1.5c0.8,0,1.5,0.3,2,0.9L160.2,18.3z
				"/>
			<path fill="#C8C8C8" d="M162.7,14.3c1.9,0.9,3.2,2.8,3.2,5c0,2.2-1.3,4.1-3.3,5.1l-0.2-0.7c1.6-0.9,2.7-2.5,2.7-4.3
				c0-1.8-1-3.4-2.6-4.3L162.7,14.3z"/>
			<path fill="#C8C8C8" d="M168.7,14.3c1.9,0.9,3.2,2.8,3.2,5c0,2.2-1.3,4.1-3.3,5.1l-0.2-0.7c1.6-0.9,2.7-2.5,2.7-4.3
				c0-1.8-1-3.4-2.6-4.3L168.7,14.3z"/>
			<path fill="#C8C8C8" d="M180.4,18.9c0.2,0,0.5,0,0.8-0.3c0.3-0.3,0.3-0.7,0.3-1c0-0.3,0-0.6,0-0.9c0-0.5,0.1-1.1,0.6-1.6
				c0.6-0.5,1.3-0.5,2-0.5h0.4v0.7H184c-0.5,0-0.9,0-1.2,0.2c-0.5,0.3-0.5,0.9-0.5,1.1c0,0.3,0,0.5,0,0.8c0,0.3,0,0.6-0.2,1
				c-0.2,0.4-0.5,0.6-0.9,0.8c0.5,0.2,1,0.6,1,1.9c0,0.4,0,0.7,0,1c0,0.4,0.1,0.9,0.5,1.2c0.3,0.2,0.7,0.2,1.2,0.2h0.4v0.7H184
				c-0.7,0-1.4,0-1.9-0.4c-0.6-0.5-0.7-1.3-0.7-1.7c0-0.5,0-0.8,0-1.2c0-0.5-0.1-0.9-0.3-1.1c-0.2-0.2-0.6-0.2-0.8-0.2h-0.2v-0.7
				H180.4z"/>
			<path fill="#C8C8C8" d="M49.1,31.2V32c0.4-0.6,1-1,1.7-1c1.1,0,2.2,0.9,2.2,2.8c0,2-1.2,2.9-2.3,2.9c-0.7,0-1.3-0.3-1.6-0.9v2.7
				h-0.9l0-7.5H49.1z M49.3,32.6c-0.1,0.3-0.1,0.6-0.1,1.1c0,0.8,0,1.2,0.2,1.6c0.2,0.5,0.7,0.8,1.3,0.8c0.5,0,1.6-0.3,1.6-2
				c0-2-1.2-2.2-1.6-2.2C50,31.8,49.5,32.1,49.3,32.6z"/>
			<path fill="#C8C8C8" d="M55.6,31.2l0,1.1c0.4-0.8,1.2-1.2,2-1.2c0.6,0,1.1,0.2,1.5,0.6l-0.4,0.8c-0.1-0.1-0.1-0.2-0.2-0.3
				c-0.2-0.2-0.4-0.4-0.9-0.4c-0.4,0-1,0.1-1.5,0.9c-0.4,0.6-0.4,1-0.4,1.3v2.7h-0.9v-5.5H55.6z"/>
			<path fill="#C8C8C8" d="M63,31.2V36h1.3v0.7h-3.5V36h1.4v-4.1h-1.3v-0.7H63z M63.2,29.4c0,0.3-0.3,0.6-0.6,0.6
				c-0.3,0-0.6-0.3-0.6-0.6c0-0.3,0.3-0.6,0.6-0.6C62.9,28.8,63.2,29.1,63.2,29.4z"/>
			<path fill="#C8C8C8" d="M66.3,31.2h0.9v1c0.4-0.6,1.1-1.1,1.8-1.1c0.6,0,1.2,0.4,1.5,1c0.2,0.4,0.2,0.9,0.2,1.3v3.3h-0.8v-3.3
				c0-0.4,0-0.9-0.3-1.2c-0.2-0.2-0.5-0.3-0.7-0.3c-0.6,0-1.1,0.5-1.3,0.8c-0.2,0.3-0.3,0.6-0.3,0.9v3.2h-0.9V31.2z"/>
			<path fill="#C8C8C8" d="M74.7,29.6c0,0.1,0,0.2-0.1,0.3c-0.1,0.3-0.1,1.3-0.1,1.3h1.8v0.7h-1.8c-0.1,0.7-0.1,1.4-0.1,2.1
				c0,0.8,0,1,0,1.1c0.1,0.7,0.5,0.9,0.9,0.9c0.3,0,0.8-0.2,1.2-0.5l0.3,0.7c-0.5,0.3-1.1,0.6-1.8,0.6c-0.6,0-1-0.2-1.2-0.6
				c-0.3-0.4-0.3-1-0.3-1.5c0-0.9,0-1.9,0.1-2.8h-1.3l0-0.7h1.3l0.1-1.5L74.7,29.6z"/>
			<path fill="#C8C8C8" d="M82.6,29.4C82.5,29.4,82.5,29.4,82.6,29.4c-0.1,0-0.2,0-0.2,0c0,0-0.1,0-0.1,0c-1.4,0.8-2.2,2.4-2.2,4.1
				c0,1.9,1,3.6,2.6,4.6l-0.4,0.6c-1.9-1-3-3-3-5.2c0-2.2,1.2-4.1,3-4.9L82.6,29.4z"/>
			<path fill="#C8C8C8" d="M85.8,30.9l-0.3,0.8l-0.7-0.2l0.3-0.8c0.1-0.2,0.1-0.4,0.1-0.7c0-0.3-0.1-0.5-0.1-0.8
				c0-0.5,0.3-0.7,0.5-0.7c0.2,0,0.5,0.2,0.5,0.7C86.2,29.7,86.1,30.1,85.8,30.9z M87.9,30.9l-0.3,0.8l-0.7-0.2l0.3-0.8
				c0.1-0.2,0.1-0.4,0.1-0.7c0-0.3-0.1-0.5-0.1-0.8c0-0.5,0.3-0.7,0.5-0.7c0.2,0,0.5,0.2,0.5,0.7C88.3,29.7,88.2,30.1,87.9,30.9z"/>
			<path fill="#C8C8C8" d="M90.7,29.2l1.9,3.7l1.9-3.7H95v7.5h-0.8V31l-1.6,3h-0.3l-1.5-3v5.6H90v-7.5H90.7z"/>
			<path fill="#C8C8C8" d="M98.6,36.8c-1.4,0-2.6-1.2-2.6-2.8c0-1.7,1.2-2.9,2.6-2.9c1.2,0,2.4,1,2.4,2.9
				C101,35.8,99.9,36.8,98.6,36.8z M96.9,33.9c0,1.4,0.8,2.2,1.7,2.2c0.8,0,1.6-0.7,1.6-2.1c0-1.5-0.8-2.2-1.6-2.2
				C97.7,31.8,96.9,32.6,96.9,33.9z"/>
			<path fill="#C8C8C8" d="M106,28.7h0.9c0,0.1,0,0.1-0.1,0.2c0,0.1,0,0.1,0,0.2l0,7.1c0,0.2,0,0.3,0.1,0.5H106
				c0-0.1-0.1-0.3-0.1-0.4v-0.5c-0.3,0.6-1,1-1.7,1c-1.1,0-2.2-0.9-2.2-2.9c0-2.1,1.3-2.8,2.3-2.8c0.8,0,1.3,0.4,1.6,0.9V28.7z
				 M102.9,33.7c0,1.8,0.9,2.3,1.5,2.3c0.6,0,1.1-0.4,1.3-1c0.1-0.3,0.1-0.6,0.1-1c0-0.6,0-0.9-0.1-1.2c-0.2-0.8-0.9-1.1-1.4-1.1
				C103.8,31.7,102.9,32.2,102.9,33.7z"/>
			<path fill="#C8C8C8" d="M112.8,33c0.1,0.3,0.1,0.7,0,1h-3.9c0.1,1.6,1.1,2,1.9,2c0.5,0,1.1-0.2,1.4-0.6l0.5,0.5
				c-0.5,0.6-1.2,0.9-2,0.9c-1.5,0-2.6-1-2.6-2.8c0-2,1.2-2.9,2.5-2.9C111.5,31.1,112.5,31.5,112.8,33z M112,33.4
				c0.1-0.9-0.5-1.7-1.4-1.7c-0.6,0-1.4,0.4-1.6,1.7H112z"/>
			<path fill="#C8C8C8" d="M117,28.7V36h1.6v0.7h-4.1V36h1.6v-6.6h-1.6v-0.7H117z"/>
			<path fill="#C8C8C8" d="M129,28.7V36h1.6v0.7h-4.1V36h1.6v-6.6h-1.6v-0.7H129z"/>
			<path fill="#C8C8C8" d="M134.6,36.8c-1.4,0-2.6-1.2-2.6-2.8c0-1.7,1.2-2.9,2.6-2.9c1.2,0,2.4,1,2.4,2.9
				C137,35.8,135.9,36.8,134.6,36.8z M132.9,33.9c0,1.4,0.8,2.2,1.7,2.2c0.8,0,1.6-0.7,1.6-2.1c0-1.5-0.8-2.2-1.6-2.2
				C133.7,31.8,132.9,32.6,132.9,33.9z"/>
			<path fill="#C8C8C8" d="M142.4,32.8c-0.1-0.1,0-0.2-0.1-0.3c0-0.1-0.5-0.7-1.4-0.7c-1,0-1.8,0.8-1.8,2c0,1.3,0.8,2.2,1.9,2.2
				c0.5,0,1.1-0.2,1.5-0.7l0.5,0.6c-0.5,0.6-1.3,0.9-2,0.9c-1.5,0-2.7-1.2-2.7-2.9c0-1.6,1.1-2.9,2.8-2.9c0.9,0,1.6,0.4,2,1
				L142.4,32.8z"/>
			<path fill="#C8C8C8" d="M145.3,28.7c0,0.1,0,0.1-0.1,0.2c0,0.1,0,0.1,0,0.1v4.7l2.7-2.5c0.2,0.1,0.4,0.1,0.6,0.1h0.3l-2.3,2.2
				l2.7,3.3c0,0-0.1,0-0.1,0c-0.6,0-1,0-1,0l-2.2-2.8l-0.7,0.7v2.1h-0.9v-8H145.3z"/>
			<path fill="#C8C8C8" d="M154.8,33c0.1,0.3,0.1,0.7,0,1h-3.9c0.1,1.6,1.1,2,1.9,2c0.5,0,1.1-0.2,1.4-0.6l0.5,0.5
				c-0.5,0.6-1.2,0.9-2,0.9c-1.5,0-2.6-1-2.6-2.8c0-2,1.2-2.9,2.5-2.9C153.5,31.1,154.5,31.5,154.8,33z M154,33.4
				c0.1-0.9-0.5-1.7-1.4-1.7c-0.6,0-1.4,0.4-1.6,1.7H154z"/>
			<path fill="#C8C8C8" d="M160,28.7h0.9c0,0.1,0,0.1-0.1,0.2c0,0.1,0,0.1,0,0.2l0,7.1c0,0.2,0,0.3,0.1,0.5H160
				c0-0.1-0.1-0.3-0.1-0.4v-0.5c-0.3,0.6-1,1-1.7,1c-1.1,0-2.2-0.9-2.2-2.9c0-2.1,1.3-2.8,2.3-2.8c0.8,0,1.3,0.4,1.6,0.9V28.7z
				 M156.9,33.7c0,1.8,0.9,2.3,1.5,2.3c0.6,0,1.1-0.4,1.3-1c0.1-0.3,0.1-0.6,0.1-1c0-0.6,0-0.9-0.1-1.2c-0.2-0.8-0.9-1.1-1.4-1.1
				C157.8,31.7,156.9,32.2,156.9,33.7z"/>
			<path fill="#C8C8C8" d="M169.8,30.9l-0.3,0.8l-0.7-0.2l0.3-0.8c0.1-0.2,0.1-0.4,0.1-0.7c0-0.3-0.1-0.5-0.1-0.8
				c0-0.5,0.3-0.7,0.5-0.7c0.2,0,0.5,0.2,0.5,0.7C170.2,29.7,170.1,30.1,169.8,30.9z M171.9,30.9l-0.3,0.8l-0.7-0.2l0.3-0.8
				c0.1-0.2,0.1-0.4,0.1-0.7c0-0.3-0.1-0.5-0.1-0.8c0-0.5,0.3-0.7,0.5-0.7c0.2,0,0.5,0.2,0.5,0.7C172.3,29.7,172.2,30.1,171.9,30.9z
				"/>
			<path fill="#C8C8C8" d="M182.9,30.4v2h2v0.7h-2v2.2h-0.8v-2.2h-2.1v-0.7h2.1v-2H182.9z"/>
			<path fill="#C8C8C8" d="M193.1,31.2V32c0.4-0.6,1-1,1.7-1c1.1,0,2.2,0.9,2.2,2.8c0,2-1.2,2.9-2.3,2.9c-0.7,0-1.3-0.3-1.6-0.9v2.7
				h-0.9l0-7.5H193.1z M193.3,32.6c-0.1,0.3-0.1,0.6-0.1,1.1c0,0.8,0,1.2,0.2,1.6c0.2,0.5,0.7,0.8,1.3,0.8c0.5,0,1.6-0.3,1.6-2
				c0-2-1.2-2.2-1.6-2.2C194,31.8,193.5,32.1,193.3,32.6z"/>
			<path fill="#C8C8C8" d="M199.6,31.2l0,1.1c0.4-0.8,1.2-1.2,2-1.2c0.6,0,1.1,0.2,1.5,0.6l-0.4,0.8c-0.1-0.1-0.1-0.2-0.2-0.3
				c-0.2-0.2-0.4-0.4-0.9-0.4c-0.4,0-1,0.1-1.5,0.9c-0.4,0.6-0.4,1-0.4,1.3v2.7h-0.9v-5.5H199.6z"/>
			<path fill="#C8C8C8" d="M28.9,48.3h-0.2c-0.2,0-0.5,0-0.8,0.2c-0.2,0.2-0.3,0.6-0.3,1.1c0,0.4,0,0.7,0,1.2c0,0.4,0,1.3-0.7,1.7
				C26.4,53,25.8,53,25.1,53h-0.4v-0.7h0.4c0.5,0,0.9,0,1.2-0.2c0.4-0.3,0.5-0.8,0.5-1.2c0-0.3,0-0.6,0-1c0-1.3,0.6-1.7,1-1.9
				c-0.4-0.2-0.7-0.4-0.9-0.8c-0.2-0.3-0.2-0.7-0.2-1c0-0.3,0-0.6,0-0.8c0-0.2,0-0.8-0.5-1.1c-0.3-0.2-0.7-0.2-1.2-0.2h-0.4v-0.7H25
				c0.6,0,1.4,0,2,0.5c0.5,0.5,0.6,1.2,0.6,1.6c0,0.3,0,0.6,0,0.9c0,0.3,0,0.7,0.3,1c0.3,0.3,0.6,0.3,0.8,0.3h0.2V48.3z"/>
			<path fill="#C8C8C8" d="M40.8,47.4c0.1,0.3,0.1,0.7,0,1h-3.9c0.1,1.6,1.1,2,1.9,2c0.5,0,1.1-0.2,1.4-0.6l0.5,0.5
				c-0.5,0.6-1.2,0.9-2,0.9c-1.5,0-2.6-1-2.6-2.8c0-2,1.2-2.9,2.5-2.9C39.5,45.5,40.5,45.9,40.8,47.4z M40,47.8
				c0.1-0.9-0.5-1.7-1.4-1.7c-0.6,0-1.4,0.4-1.6,1.7H40z"/>
			<path fill="#C8C8C8" d="M45,43.1v7.3h1.6v0.7h-4.1v-0.7h1.6v-6.6h-1.6v-0.7H45z"/>
			<path fill="#C8C8C8" d="M52.2,47.1C52.2,47.1,52.1,47,52.2,47.1c-0.1-0.1-0.1-0.2-0.1-0.2c-0.2-0.3-0.7-0.8-1.5-0.8
				c-0.6,0-1.2,0.3-1.2,0.7c0,0.2,0.1,0.4,0.5,0.7c0.5,0.2,1.4,0.4,2,0.7c0.6,0.4,0.8,0.9,0.8,1.2c0,0.8-0.8,1.7-2.3,1.7
				c-0.8,0-1.7-0.3-2.3-0.9l0.5-0.9c0.1,0,0.1,0.1,0.1,0.1c0,0,0,0.1,0,0.1c0.2,0.2,0.8,0.8,1.7,0.8c0.8,0,1.4-0.4,1.4-0.9
				c0-0.2-0.1-0.5-0.5-0.7c-0.4-0.2-1-0.3-1.5-0.5c-0.3-0.1-1.3-0.5-1.3-1.4c0-0.8,0.8-1.5,2.1-1.5c0.8,0,1.5,0.3,2,0.9L52.2,47.1z"
				/>
			<path fill="#C8C8C8" d="M58.8,47.4c0.1,0.3,0.1,0.7,0,1h-3.9c0.1,1.6,1.1,2,1.9,2c0.5,0,1.1-0.2,1.4-0.6l0.5,0.5
				c-0.5,0.6-1.2,0.9-2,0.9c-1.5,0-2.6-1-2.6-2.8c0-2,1.2-2.9,2.5-2.9C57.5,45.5,58.5,45.9,58.8,47.4z M58,47.8
				c0.1-0.9-0.5-1.7-1.4-1.7c-0.6,0-1.4,0.4-1.6,1.7H58z"/>
			<path fill="#C8C8C8" d="M66.4,47.7c0.2,0,0.5,0,0.8-0.3c0.3-0.3,0.3-0.7,0.3-1c0-0.3,0-0.6,0-0.9c0-0.5,0.1-1.1,0.6-1.6
				c0.6-0.5,1.3-0.5,2-0.5h0.4v0.7H70c-0.5,0-0.9,0-1.2,0.2c-0.5,0.3-0.5,0.9-0.5,1.1c0,0.3,0,0.5,0,0.8c0,0.3,0,0.6-0.2,1
				c-0.2,0.4-0.5,0.6-0.9,0.8c0.5,0.2,1,0.6,1,1.9c0,0.4,0,0.7,0,1c0,0.4,0.1,0.9,0.5,1.2c0.3,0.2,0.7,0.2,1.2,0.2h0.4V53H70
				c-0.7,0-1.4,0-1.9-0.4c-0.6-0.5-0.7-1.3-0.7-1.7c0-0.5,0-0.8,0-1.2c0-0.5-0.1-0.9-0.3-1.1c-0.2-0.2-0.6-0.2-0.8-0.2h-0.2v-0.7
				H66.4z"/>
			<path fill="#C8C8C8" d="M49,60c0,0.1,0,0.2,0,0.2c0,0,0,0.1,0,0.1l1.6,4l0.9-2c0.3-0.7,0.6-1.5,0.7-2.3H53
				c-0.2,0.8-0.5,1.6-0.8,2.4l-1.3,3.1h-0.7L48,60H49z"/>
			<path fill="#C8C8C8" d="M56.6,59.9c0.9,0,1.5,0.3,1.9,0.9c0.3,0.4,0.3,0.8,0.3,1.3v3.4h-0.8v-0.6c-0.6,0.5-1.3,0.7-2,0.7
				c-1.1,0-1.8-0.7-1.8-1.6c0-0.6,0.4-1.2,1.3-1.6c0.7-0.3,1.6-0.2,2.4-0.2h0.2V62c0-0.3,0-0.6-0.2-0.9c-0.2-0.3-0.5-0.5-1.1-0.5
				c-0.5,0-1.1,0.1-1.6,0.6l-0.4-0.5C55.1,60.1,55.8,59.9,56.6,59.9z M57.7,62.9c-0.6,0-1.3,0-1.8,0.1c-0.7,0.2-1,0.6-1,1
				c0,0.5,0.4,0.9,1.2,0.9c0.7,0,1.2-0.4,1.4-0.6c0.4-0.4,0.4-0.7,0.4-1v-0.4H57.7z"/>
			<path fill="#C8C8C8" d="M61.6,60l0,1.1c0.4-0.8,1.2-1.2,2-1.2c0.6,0,1.1,0.2,1.5,0.6l-0.4,0.8c-0.1-0.1-0.1-0.2-0.2-0.3
				c-0.2-0.2-0.4-0.4-0.9-0.4c-0.4,0-1,0.1-1.5,0.9c-0.4,0.6-0.4,1-0.4,1.3v2.7h-0.9V60H61.6z"/>
			<path fill="#C8C8C8" d="M72.4,57.5h1c0,0,0,0,0,0c0,0.1,0,0.1-0.1,0.1c0,0,0,0.1,0,0.1V61c0.4-0.6,1.1-1.1,1.8-1.1
				c0.6,0,1.2,0.4,1.5,1c0.2,0.4,0.2,0.9,0.2,1.3v3.3h-0.8v-3.3c0-0.4,0-0.9-0.3-1.2c-0.2-0.2-0.5-0.3-0.7-0.3
				c-0.6,0-1.1,0.5-1.3,0.8c-0.2,0.3-0.3,0.6-0.3,0.9v3.2h-0.9V57.5z"/>
			<path fill="#C8C8C8" d="M80.6,59.9c0.9,0,1.5,0.3,1.9,0.9c0.3,0.4,0.3,0.8,0.3,1.3v3.4h-0.8v-0.6c-0.6,0.5-1.3,0.7-2,0.7
				c-1.1,0-1.8-0.7-1.8-1.6c0-0.6,0.4-1.2,1.3-1.6c0.7-0.3,1.6-0.2,2.4-0.2h0.2V62c0-0.3,0-0.6-0.2-0.9c-0.2-0.3-0.5-0.5-1.1-0.5
				c-0.5,0-1.1,0.1-1.6,0.6l-0.4-0.5C79.1,60.1,79.8,59.9,80.6,59.9z M81.7,62.9c-0.6,0-1.3,0-1.8,0.1c-0.7,0.2-1,0.6-1,1
				c0,0.5,0.4,0.9,1.2,0.9c0.7,0,1.2-0.4,1.4-0.6c0.4-0.4,0.4-0.7,0.4-1v-0.4H81.7z"/>
			<path fill="#C8C8C8" d="M87,57.5v7.3h1.6v0.7h-4.1v-0.7h1.6v-6.6h-1.6v-0.7H87z"/>
			<path fill="#C8C8C8" d="M95.3,58.2L94.9,59c0,0-0.1,0-0.1-0.1c0-0.1,0-0.1,0-0.1c-0.2-0.3-0.7-0.6-1.2-0.6
				c-0.5,0-0.9,0.2-1.1,0.6c-0.2,0.4-0.2,0.8-0.2,1.2v0.4h1.8V61h-1.8v4.5h-0.8V61h-1.2v-0.7h1.2v-0.5c0-0.5,0-0.9,0.3-1.4
				c0.4-0.6,1.1-1,1.9-1C94.3,57.4,94.9,57.7,95.3,58.2z"/>
			<path fill="#C8C8C8" d="M97.9,58c0.7,0,1.2,0,1.7,0.4c1,0.6,1.4,1.9,1.4,3.3c0,1.6-0.6,2.9-1.7,3.5c-0.5,0.3-1,0.3-1.6,0.3h-1.6
				V58H97.9z M97,64.8h0.8c0.5,0,0.9,0,1.4-0.3c0.6-0.4,1.1-1.2,1.1-2.6c0-1.1-0.2-2.1-0.9-2.7c-0.5-0.4-0.9-0.4-1.4-0.4H97V64.8z"
				/>
			<path fill="#C8C8C8" d="M105,60v4.8h1.3v0.7h-3.5v-0.7h1.4v-4.1h-1.3V60H105z M105.2,58.2c0,0.3-0.3,0.6-0.6,0.6
				c-0.3,0-0.6-0.3-0.6-0.6c0-0.3,0.3-0.6,0.6-0.6C104.9,57.6,105.2,57.9,105.2,58.2z"/>
			<path fill="#C8C8C8" d="M110.6,59.9c0.9,0,1.5,0.3,1.9,0.9c0.3,0.4,0.3,0.8,0.3,1.3v3.4h-0.8v-0.6c-0.6,0.5-1.3,0.7-2,0.7
				c-1.1,0-1.8-0.7-1.8-1.6c0-0.6,0.4-1.2,1.3-1.6c0.7-0.3,1.6-0.2,2.4-0.2h0.2V62c0-0.3,0-0.6-0.2-0.9c-0.2-0.3-0.5-0.5-1.1-0.5
				c-0.5,0-1.1,0.1-1.6,0.6l-0.4-0.5C109.1,60.1,109.8,59.9,110.6,59.9z M111.7,62.9c-0.6,0-1.3,0-1.8,0.1c-0.7,0.2-1,0.6-1,1
				c0,0.5,0.4,0.9,1.2,0.9c0.7,0,1.2-0.4,1.4-0.6c0.4-0.4,0.4-0.7,0.4-1v-0.4H111.7z"/>
			<path fill="#C8C8C8" d="M117.6,60.3c0.4-0.4,1-0.5,1.5-0.5l0.1,0.7c-0.1,0-0.2,0-0.3,0c-0.3,0-0.7,0.1-1,0.3
				c0.2,0.3,0.3,0.6,0.3,0.9c0,1-0.9,1.9-2,1.9c-0.2,0-0.5,0-0.7-0.1c-0.1,0-0.4,0.3-0.4,0.6c0,0.2,0.1,0.3,0.3,0.4
				c0.1,0,0.4,0.1,0.8,0.1c0.6,0,1.3-0.1,1.9,0.2c0.6,0.2,0.9,0.7,0.9,1.2c0,0.7-0.7,1.7-2.5,1.7c-1.9,0-2.5-0.7-2.5-1.3
				c0-0.4,0.3-0.8,0.9-1.2c-0.3-0.2-0.4-0.5-0.4-0.7c0-0.4,0.2-0.7,0.6-1.1c-0.5-0.3-0.8-0.9-0.8-1.5c0-1.1,1-1.9,2-1.9
				C116.8,59.8,117.3,60,117.6,60.3z M114.8,66c0,0.2,0.1,0.5,0.5,0.7c0.4,0.2,0.9,0.2,1.1,0.2c0.4,0,0.8,0,1.2-0.2
				c0.4-0.2,0.5-0.5,0.5-0.7c0-0.2-0.1-0.6-0.7-0.6c-0.3,0-0.8,0-1.2,0c-0.4,0-0.7,0-0.9-0.1C115.1,65.3,114.8,65.6,114.8,66z
				 M116.2,62.9c0.7,0,1.2-0.5,1.2-1.2s-0.5-1.2-1.2-1.2S115,61,115,61.7S115.6,62.9,116.2,62.9z"/>
			<path fill="#C8C8C8" d="M122.6,65.6c-1.4,0-2.6-1.2-2.6-2.8c0-1.7,1.2-2.9,2.6-2.9c1.2,0,2.4,1,2.4,2.9
				C125,64.6,123.9,65.6,122.6,65.6z M120.9,62.7c0,1.4,0.8,2.2,1.7,2.2c0.8,0,1.6-0.7,1.6-2.1c0-1.5-0.8-2.2-1.6-2.2
				C121.7,60.6,120.9,61.4,120.9,62.7z"/>
			<path fill="#C8C8C8" d="M126.3,60h0.9v1c0.4-0.6,1.1-1.1,1.8-1.1c0.6,0,1.2,0.4,1.5,1c0.2,0.4,0.2,0.9,0.2,1.3v3.3h-0.8v-3.3
				c0-0.4,0-0.9-0.3-1.2c-0.2-0.2-0.5-0.3-0.7-0.3c-0.6,0-1.1,0.5-1.3,0.8c-0.2,0.3-0.3,0.6-0.3,0.9v3.2h-0.9V60z"/>
			<path fill="#C8C8C8" d="M134.6,59.9c0.9,0,1.5,0.3,1.9,0.9c0.3,0.4,0.3,0.8,0.3,1.3v3.4h-0.8v-0.6c-0.6,0.5-1.3,0.7-2,0.7
				c-1.1,0-1.8-0.7-1.8-1.6c0-0.6,0.4-1.2,1.3-1.6c0.7-0.3,1.6-0.2,2.4-0.2h0.2V62c0-0.3,0-0.6-0.2-0.9c-0.2-0.3-0.5-0.5-1.1-0.5
				c-0.5,0-1.1,0.1-1.6,0.6l-0.4-0.5C133.1,60.1,133.8,59.9,134.6,59.9z M135.7,62.9c-0.6,0-1.3,0-1.8,0.1c-0.7,0.2-1,0.6-1,1
				c0,0.5,0.4,0.9,1.2,0.9c0.7,0,1.2-0.4,1.4-0.6c0.4-0.4,0.4-0.7,0.4-1v-0.4H135.7z"/>
			<path fill="#C8C8C8" d="M141,57.5v7.3h1.6v0.7h-4.1v-0.7h1.6v-6.6h-1.6v-0.7H141z"/>
			<path fill="#C8C8C8" d="M155,60.2v0.7h-4.9v-0.7H155z M155,62.7v0.7h-4.9v-0.7H155z"/>
			<path fill="#C8C8C8" d="M162.7,58l1.9,5.7l1.8-5.7h0.8l-2.5,7.5h-0.4l-2.5-7.5H162.7z"/>
			<path fill="#C8C8C8" d="M172.8,61.8c0.1,0.3,0.1,0.7,0,1h-3.9c0.1,1.6,1.1,2,1.9,2c0.5,0,1.1-0.2,1.4-0.6l0.5,0.5
				c-0.5,0.6-1.2,0.9-2,0.9c-1.5,0-2.6-1-2.6-2.8c0-2,1.2-2.9,2.5-2.9C171.5,59.9,172.5,60.3,172.8,61.8z M172,62.2
				c0.1-0.9-0.5-1.7-1.4-1.7c-0.6,0-1.4,0.4-1.6,1.7H172z"/>
			<path fill="#C8C8C8" d="M178.4,61.6c-0.1-0.1,0-0.2-0.1-0.3c0-0.1-0.5-0.7-1.4-0.7c-1,0-1.8,0.8-1.8,2c0,1.3,0.8,2.2,1.9,2.2
				c0.5,0,1.1-0.2,1.5-0.7l0.5,0.6c-0.5,0.6-1.3,0.9-2,0.9c-1.5,0-2.7-1.2-2.7-2.9c0-1.6,1.1-2.9,2.8-2.9c0.9,0,1.6,0.4,2,1
				L178.4,61.6z"/>
			<path fill="#C8C8C8" d="M183.3,61.5c0.8,0.3,1.3,1,1.3,1.9c0,1.2-0.9,2.2-2.3,2.2c-0.7,0-1.5-0.3-2-0.9L181,64
				c0.1,0.1,0.1,0.2,0.2,0.3c0.1,0.1,0.5,0.5,1.2,0.5c0.9,0,1.5-0.7,1.5-1.5c0-0.9-0.7-1.4-1.8-1.4c-0.1,0-0.3,0-0.4,0v-0.7
				c0.7,0,1-0.1,1.2-0.2c0.5-0.2,0.8-0.7,0.8-1.2c0-0.6-0.5-1.2-1.3-1.2c-0.5,0-0.9,0.2-1.3,0.6l-0.5-0.5c0.5-0.5,1.1-0.8,1.8-0.8
				c1.2,0,2.1,0.9,2.1,1.9C184.5,60.6,184,61.2,183.3,61.5z"/>
			<path fill="#C8C8C8" d="M188.4,65.6c-0.4,0-0.7-0.3-0.7-0.7c0-0.4,0.3-0.7,0.7-0.7s0.7,0.3,0.7,0.7
				C189.1,65.3,188.8,65.6,188.4,65.6z"/>
			<path fill="#C8C8C8" d="M195,57.5v7.3h1.6v0.7h-4.1v-0.7h1.6v-6.6h-1.6v-0.7H195z"/>
			<path fill="#C8C8C8" d="M202.8,61.8c0.1,0.3,0.1,0.7,0,1h-3.9c0.1,1.6,1.1,2,1.9,2c0.5,0,1.1-0.2,1.4-0.6l0.5,0.5
				c-0.5,0.6-1.2,0.9-2,0.9c-1.5,0-2.6-1-2.6-2.8c0-2,1.2-2.9,2.5-2.9C201.5,59.9,202.5,60.3,202.8,61.8z M202,62.2
				c0.1-0.9-0.5-1.7-1.4-1.7c-0.6,0-1.4,0.4-1.6,1.7H202z"/>
			<path fill="#C8C8C8" d="M49.1,88.8v0.8c0.4-0.6,1-1,1.7-1c1.1,0,2.2,0.9,2.2,2.8c0,2-1.2,2.9-2.3,2.9c-0.7,0-1.3-0.3-1.6-0.9v2.7
				h-0.9l0-7.5H49.1z M49.3,90.2c-0.1,0.3-0.1,0.6-0.1,1.1c0,0.8,0,1.2,0.2,1.6c0.2,0.5,0.7,0.8,1.3,0.8c0.5,0,1.6-0.3,1.6-2
				c0-2-1.2-2.2-1.6-2.2C50,89.4,49.5,89.7,49.3,90.2z"/>
			<path fill="#C8C8C8" d="M55.6,88.8l0,1.1c0.4-0.8,1.2-1.2,2-1.2c0.6,0,1.1,0.2,1.5,0.6l-0.4,0.8c-0.1-0.1-0.1-0.2-0.2-0.3
				c-0.2-0.2-0.4-0.4-0.9-0.4c-0.4,0-1,0.1-1.5,0.9c-0.4,0.6-0.4,1-0.4,1.3v2.7h-0.9v-5.5H55.6z"/>
			<path fill="#C8C8C8" d="M63,88.8v4.8h1.3v0.7h-3.5v-0.7h1.4v-4.1h-1.3v-0.7H63z M63.2,87c0,0.3-0.3,0.6-0.6,0.6
				c-0.3,0-0.6-0.3-0.6-0.6c0-0.3,0.3-0.6,0.6-0.6C62.9,86.4,63.2,86.7,63.2,87z"/>
			<path fill="#C8C8C8" d="M66.3,88.8h0.9v1c0.4-0.6,1.1-1.1,1.8-1.1c0.6,0,1.2,0.4,1.5,1c0.2,0.4,0.2,0.9,0.2,1.3v3.3h-0.8V91
				c0-0.4,0-0.9-0.3-1.2c-0.2-0.2-0.5-0.3-0.7-0.3c-0.6,0-1.1,0.5-1.3,0.8c-0.2,0.3-0.3,0.6-0.3,0.9v3.2h-0.9V88.8z"/>
			<path fill="#C8C8C8" d="M74.7,87.2c0,0.1,0,0.2-0.1,0.3c-0.1,0.3-0.1,1.3-0.1,1.3h1.8v0.7h-1.8c-0.1,0.7-0.1,1.4-0.1,2.1
				c0,0.8,0,1,0,1.1c0.1,0.7,0.5,0.9,0.9,0.9c0.3,0,0.8-0.2,1.2-0.5l0.3,0.7c-0.5,0.3-1.1,0.6-1.8,0.6c-0.6,0-1-0.2-1.2-0.6
				c-0.3-0.4-0.3-1-0.3-1.5c0-0.9,0-1.9,0.1-2.8h-1.3l0-0.7h1.3l0.1-1.5L74.7,87.2z"/>
			<path fill="#C8C8C8" d="M82.6,87C82.5,87,82.5,87,82.6,87c-0.1,0-0.2,0-0.2,0c0,0-0.1,0-0.1,0c-1.4,0.8-2.2,2.4-2.2,4.1
				c0,1.9,1,3.6,2.6,4.6l-0.4,0.6c-1.9-1-3-3-3-5.2c0-2.2,1.2-4.1,3-4.9L82.6,87z"/>
			<path fill="#C8C8C8" d="M85.8,88.5l-0.3,0.8l-0.7-0.2l0.3-0.8c0.1-0.2,0.1-0.4,0.1-0.7c0-0.3-0.1-0.5-0.1-0.8
				c0-0.5,0.3-0.7,0.5-0.7c0.2,0,0.5,0.2,0.5,0.7C86.2,87.3,86.1,87.7,85.8,88.5z M87.9,88.5l-0.3,0.8l-0.7-0.2l0.3-0.8
				c0.1-0.2,0.1-0.4,0.1-0.7c0-0.3-0.1-0.5-0.1-0.8c0-0.5,0.3-0.7,0.5-0.7c0.2,0,0.5,0.2,0.5,0.7C88.3,87.3,88.2,87.7,87.9,88.5z"/>
			<path fill="#C8C8C8" d="M95.1,88.2l-0.8,0.4c-0.1,0-0.1-0.1-0.1-0.1c0,0,0-0.1,0-0.1c0-0.1,0-0.1,0-0.1c-0.3-0.5-0.8-0.9-1.4-0.9
				c-1.1,0-2,1.1-2,3.1c0,2,1,3.2,2.1,3.2c0.6,0,1.2-0.3,1.5-0.9l0.6,0.4c-0.5,0.8-1.3,1.2-2.2,1.2c-1.2,0-2.8-0.9-2.8-3.8
				c0-3,1.7-3.8,2.8-3.8C93.8,86.7,94.7,87.3,95.1,88.2z"/>
			<path fill="#C8C8C8" d="M96.4,86.3h1c0,0,0,0,0,0c0,0.1,0,0.1-0.1,0.1c0,0,0,0.1,0,0.1v3.2c0.4-0.6,1.1-1.1,1.8-1.1
				c0.6,0,1.2,0.4,1.5,1c0.2,0.4,0.2,0.9,0.2,1.3v3.3h-0.8V91c0-0.4,0-0.9-0.3-1.2c-0.2-0.2-0.5-0.3-0.7-0.3c-0.6,0-1.1,0.5-1.3,0.8
				c-0.2,0.3-0.3,0.6-0.3,0.9v3.2h-0.9V86.3z"/>
			<path fill="#C8C8C8" d="M106.8,90.6c0.1,0.3,0.1,0.7,0,1h-3.9c0.1,1.6,1.1,2,1.9,2c0.5,0,1.1-0.2,1.4-0.6l0.5,0.5
				c-0.5,0.6-1.2,0.9-2,0.9c-1.5,0-2.6-1-2.6-2.8c0-2,1.2-2.9,2.5-2.9C105.5,88.7,106.5,89.1,106.8,90.6z M106,91
				c0.1-0.9-0.5-1.7-1.4-1.7c-0.6,0-1.4,0.4-1.6,1.7H106z"/>
			<path fill="#C8C8C8" d="M112.4,90.4c-0.1-0.1,0-0.2-0.1-0.3c0-0.1-0.5-0.7-1.4-0.7c-1,0-1.8,0.8-1.8,2c0,1.3,0.8,2.2,1.9,2.2
				c0.5,0,1.1-0.2,1.5-0.7l0.5,0.6c-0.5,0.6-1.3,0.9-2,0.9c-1.5,0-2.7-1.2-2.7-2.9c0-1.6,1.1-2.9,2.8-2.9c0.9,0,1.6,0.4,2,1
				L112.4,90.4z"/>
			<path fill="#C8C8C8" d="M115.3,86.3c0,0.1,0,0.1-0.1,0.2c0,0.1,0,0.1,0,0.1v4.7l2.7-2.5c0.2,0.1,0.4,0.1,0.6,0.1h0.3l-2.3,2.2
				l2.7,3.3c0,0-0.1,0-0.1,0c-0.6,0-1,0-1,0l-2.2-2.8l-0.7,0.7v2.1h-0.9v-8H115.3z"/>
			<path fill="#C8C8C8" d="M123,88.8v4.8h1.3v0.7h-3.5v-0.7h1.4v-4.1h-1.3v-0.7H123z M123.2,87c0,0.3-0.3,0.6-0.6,0.6
				c-0.3,0-0.6-0.3-0.6-0.6c0-0.3,0.3-0.6,0.6-0.6C122.9,86.4,123.2,86.7,123.2,87z"/>
			<path fill="#C8C8C8" d="M126.3,88.8h0.9v1c0.4-0.6,1.1-1.1,1.8-1.1c0.6,0,1.2,0.4,1.5,1c0.2,0.4,0.2,0.9,0.2,1.3v3.3h-0.8V91
				c0-0.4,0-0.9-0.3-1.2c-0.2-0.2-0.5-0.3-0.7-0.3c-0.6,0-1.1,0.5-1.3,0.8c-0.2,0.3-0.3,0.6-0.3,0.9v3.2h-0.9V88.8z"/>
			<path fill="#C8C8C8" d="M135.6,89.1c0.4-0.4,1-0.5,1.5-0.5l0.1,0.7c-0.1,0-0.2,0-0.3,0c-0.3,0-0.7,0.1-1,0.3
				c0.2,0.3,0.3,0.6,0.3,0.9c0,1-0.9,1.9-2,1.9c-0.2,0-0.5,0-0.7-0.1c-0.1,0-0.4,0.3-0.4,0.6c0,0.2,0.1,0.3,0.3,0.4
				c0.1,0,0.4,0.1,0.8,0.1c0.6,0,1.3-0.1,1.9,0.2c0.6,0.2,0.9,0.7,0.9,1.2c0,0.7-0.7,1.7-2.5,1.7c-1.9,0-2.5-0.7-2.5-1.3
				c0-0.4,0.3-0.8,0.9-1.2c-0.3-0.2-0.4-0.5-0.4-0.7c0-0.4,0.2-0.7,0.6-1.1c-0.5-0.3-0.8-0.9-0.8-1.5c0-1.1,1-1.9,2-1.9
				C134.8,88.6,135.3,88.8,135.6,89.1z M132.8,94.8c0,0.2,0.1,0.5,0.5,0.7c0.4,0.2,0.9,0.2,1.1,0.2c0.4,0,0.8,0,1.2-0.2
				c0.4-0.2,0.5-0.5,0.5-0.7c0-0.2-0.1-0.6-0.7-0.6c-0.3,0-0.8,0-1.2,0c-0.4,0-0.7,0-0.9-0.1C133.1,94.1,132.8,94.4,132.8,94.8z
				 M134.2,91.7c0.7,0,1.2-0.5,1.2-1.2s-0.5-1.2-1.2-1.2s-1.2,0.5-1.2,1.2S133.6,91.7,134.2,91.7z"/>
			<path fill="#C8C8C8" d="M145.1,88.8v0.8c0.4-0.6,1-1,1.7-1c1.1,0,2.2,0.9,2.2,2.8c0,2-1.2,2.9-2.3,2.9c-0.7,0-1.3-0.3-1.6-0.9
				v2.7h-0.9l0-7.5H145.1z M145.3,90.2c-0.1,0.3-0.1,0.6-0.1,1.1c0,0.8,0,1.2,0.2,1.6c0.2,0.5,0.7,0.8,1.3,0.8c0.5,0,1.6-0.3,1.6-2
				c0-2-1.2-2.2-1.6-2.2C146,89.4,145.5,89.7,145.3,90.2z"/>
			<path fill="#C8C8C8" d="M151.6,88.8l0,1.1c0.4-0.8,1.2-1.2,2-1.2c0.6,0,1.1,0.2,1.5,0.6l-0.4,0.8c-0.1-0.1-0.1-0.2-0.2-0.3
				c-0.2-0.2-0.4-0.4-0.9-0.4c-0.4,0-1,0.1-1.5,0.9c-0.4,0.6-0.4,1-0.4,1.3v2.7h-0.9v-5.5H151.6z"/>
			<path fill="#C8C8C8" d="M158.6,94.4c-1.4,0-2.6-1.2-2.6-2.8c0-1.7,1.2-2.9,2.6-2.9c1.2,0,2.4,1,2.4,2.9
				C161,93.4,159.9,94.4,158.6,94.4z M156.9,91.5c0,1.4,0.8,2.2,1.7,2.2c0.8,0,1.6-0.7,1.6-2.1c0-1.5-0.8-2.2-1.6-2.2
				C157.7,89.4,156.9,90.2,156.9,91.5z"/>
			<path fill="#C8C8C8" d="M163.1,88.8v0.8c0.4-0.6,1-1,1.7-1c1.1,0,2.2,0.9,2.2,2.8c0,2-1.2,2.9-2.3,2.9c-0.7,0-1.3-0.3-1.6-0.9
				v2.7h-0.9l0-7.5H163.1z M163.3,90.2c-0.1,0.3-0.1,0.6-0.1,1.1c0,0.8,0,1.2,0.2,1.6c0.2,0.5,0.7,0.8,1.3,0.8c0.5,0,1.6-0.3,1.6-2
				c0-2-1.2-2.2-1.6-2.2C164,89.4,163.5,89.7,163.3,90.2z"/>
			<path fill="#C8C8C8" d="M172.8,90.6c0.1,0.3,0.1,0.7,0,1h-3.9c0.1,1.6,1.1,2,1.9,2c0.5,0,1.1-0.2,1.4-0.6l0.5,0.5
				c-0.5,0.6-1.2,0.9-2,0.9c-1.5,0-2.6-1-2.6-2.8c0-2,1.2-2.9,2.5-2.9C171.5,88.7,172.5,89.1,172.8,90.6z M172,91
				c0.1-0.9-0.5-1.7-1.4-1.7c-0.6,0-1.4,0.4-1.6,1.7H172z"/>
			<path fill="#C8C8C8" d="M175.6,88.8l0,1.1c0.4-0.8,1.2-1.2,2-1.2c0.6,0,1.1,0.2,1.5,0.6l-0.4,0.8c-0.1-0.1-0.1-0.2-0.2-0.3
				c-0.2-0.2-0.4-0.4-0.9-0.4c-0.4,0-1,0.1-1.5,0.9c-0.4,0.6-0.4,1-0.4,1.3v2.7h-0.9v-5.5H175.6z"/>
			<path fill="#C8C8C8" d="M182.7,87.2c0,0.1,0,0.2-0.1,0.3c-0.1,0.3-0.1,1.3-0.1,1.3h1.8v0.7h-1.8c-0.1,0.7-0.1,1.4-0.1,2.1
				c0,0.8,0,1,0,1.1c0.1,0.7,0.5,0.9,0.9,0.9c0.3,0,0.8-0.2,1.2-0.5l0.3,0.7c-0.5,0.3-1.1,0.6-1.8,0.6c-0.6,0-1-0.2-1.2-0.6
				c-0.3-0.4-0.3-1-0.3-1.5c0-0.9,0-1.9,0.1-2.8h-1.3l0-0.7h1.3l0.1-1.5L182.7,87.2z"/>
			<path fill="#C8C8C8" d="M189,88.8v4.8h1.3v0.7h-3.5v-0.7h1.4v-4.1h-1.3v-0.7H189z M189.2,87c0,0.3-0.3,0.6-0.6,0.6
				c-0.3,0-0.6-0.3-0.6-0.6c0-0.3,0.3-0.6,0.6-0.6C188.9,86.4,189.2,86.7,189.2,87z"/>
			<path fill="#C8C8C8" d="M196.8,90.6c0.1,0.3,0.1,0.7,0,1h-3.9c0.1,1.6,1.1,2,1.9,2c0.5,0,1.1-0.2,1.4-0.6l0.5,0.5
				c-0.5,0.6-1.2,0.9-2,0.9c-1.5,0-2.6-1-2.6-2.8c0-2,1.2-2.9,2.5-2.9C195.5,88.7,196.5,89.1,196.8,90.6z M196,91
				c0.1-0.9-0.5-1.7-1.4-1.7c-0.6,0-1.4,0.4-1.6,1.7H196z"/>
			<path fill="#C8C8C8" d="M202.2,90.3C202.2,90.3,202.1,90.2,202.2,90.3c-0.1-0.1-0.1-0.2-0.1-0.2c-0.2-0.3-0.7-0.8-1.5-0.8
				c-0.6,0-1.2,0.3-1.2,0.7c0,0.2,0.1,0.4,0.5,0.7c0.5,0.2,1.4,0.4,2,0.7c0.6,0.4,0.8,0.9,0.8,1.2c0,0.8-0.8,1.7-2.3,1.7
				c-0.8,0-1.7-0.3-2.3-0.9l0.5-0.9c0.1,0,0.1,0.1,0.1,0.1c0,0,0,0.1,0,0.1c0.2,0.2,0.8,0.8,1.7,0.8c0.8,0,1.4-0.4,1.4-0.9
				c0-0.2-0.1-0.5-0.5-0.7c-0.4-0.2-1-0.3-1.5-0.5c-0.3-0.1-1.3-0.5-1.3-1.4c0-0.8,0.8-1.5,2.1-1.5c0.8,0,1.5,0.3,2,0.9L202.2,90.3z
				"/>
			<path fill="#C8C8C8" d="M52,100.7l0.7,0.4l-3.8,8.1l-0.7-0.4L52,100.7z"/>
			<path fill="#C8C8C8" d="M58,100.7l0.7,0.4l-3.8,8.1l-0.7-0.4L58,100.7z"/>
			<path fill="#C8C8C8" d="M158.5,101.2c0.5,0,0.9,0,1.4,0.3c0.7,0.4,1.1,1.1,1.1,1.9c0,0.8-0.4,1.5-1.1,1.8
				c-0.5,0.2-0.9,0.2-1.4,0.2h-1.5v3.3h-0.9v-7.5H158.5z M157.1,104.6h1.5c0.3,0,0.6,0,0.9-0.2c0.4-0.2,0.7-0.7,0.7-1.1
				c0-0.5-0.2-1-0.7-1.2c-0.3-0.2-0.6-0.2-0.9-0.2h-1.4L157.1,104.6z"/>
			<path fill="#C8C8C8" d="M52,115.1l0.7,0.4l-3.8,8.1l-0.7-0.4L52,115.1z"/>
			<path fill="#C8C8C8" d="M58,115.1l0.7,0.4l-3.8,8.1l-0.7-0.4L58,115.1z"/>
			<path fill="#C8C8C8" d="M154,115.1l0.7,0.4l-3.8,8.1l-0.7-0.4L154,115.1z"/>
			<path fill="#C8C8C8" d="M158.9,115.2v9.6h-0.8v-9.6H158.9z"/>
			<path fill="#C8C8C8" d="M52,129.5l0.7,0.4L49,138l-0.7-0.4L52,129.5z"/>
			<path fill="#C8C8C8" d="M58,129.5l0.7,0.4L55,138l-0.7-0.4L58,129.5z"/>
			<path fill="#C8C8C8" d="M148,129.5l0.7,0.4L145,138l-0.7-0.4L148,129.5z"/>
			<path fill="#C8C8C8" d="M158.9,129.6v9.6h-0.8v-9.6H158.9z"/>
			<path fill="#C8C8C8" d="M172,129.5h0.9c0,0.1,0,0.1-0.1,0.2c0,0.1,0,0.1,0,0.2l0,7.1c0,0.2,0,0.3,0.1,0.5H172
				c0-0.1-0.1-0.3-0.1-0.4v-0.5c-0.3,0.6-1,1-1.7,1c-1.1,0-2.2-0.9-2.2-2.9c0-2.1,1.3-2.8,2.3-2.8c0.8,0,1.3,0.4,1.6,0.9V129.5z
				 M168.9,134.5c0,1.8,0.9,2.3,1.5,2.3c0.6,0,1.1-0.4,1.3-1c0.1-0.3,0.1-0.6,0.1-1c0-0.6,0-0.9-0.1-1.2c-0.2-0.8-0.9-1.1-1.4-1.1
				C169.8,132.5,168.9,133,168.9,134.5z"/>
			<path fill="#C8C8C8" d="M52,143.9l0.7,0.4l-3.8,8.1l-0.7-0.4L52,143.9z"/>
			<path fill="#C8C8C8" d="M58,143.9l0.7,0.4l-3.8,8.1l-0.7-0.4L58,143.9z"/>
			<path fill="#C8C8C8" d="M142,143.9l0.7,0.4l-3.8,8.1l-0.7-0.4L142,143.9z"/>
			<path fill="#C8C8C8" d="M158.9,144v9.6h-0.8V144H158.9z"/>
			<path fill="#C8C8C8" d="M52,158.3l0.7,0.4l-3.8,8.1l-0.7-0.4L52,158.3z"/>
			<path fill="#C8C8C8" d="M58,158.3l0.7,0.4l-3.8,8.1l-0.7-0.4L58,158.3z"/>
			<path fill="#C8C8C8" d="M134.3,158.7L134.3,158.7l3,7.6h-0.9l-0.8-2.2h-2.4l-0.7,2.2h-0.8L134.3,158.7z M134.4,160.6l-1,2.8h2
				L134.4,160.6z"/>
			<path fill="#C8C8C8" d="M142.7,162.1v0.8h-4.3v-0.8H142.7z"/>
			<path fill="#C8C8C8" d="M148.7,162.1v0.8h-4.3v-0.8H148.7z"/>
			<path fill="#C8C8C8" d="M154.7,162.1v0.8h-4.3v-0.8H154.7z"/>
			<path fill="#C8C8C8" d="M160.9,158.8l-1.9,3.7l2.1,3.8h-0.9l-1.7-3l-1.6,3H156l2-3.8l-2-3.7h0.9l1.6,2.8l1.5-2.8H160.9z"/>
			<path fill="#C8C8C8" d="M166.7,162.1v0.8h-4.3v-0.8H166.7z"/>
			<path fill="#C8C8C8" d="M172.7,162.1v0.8h-4.3v-0.8H172.7z"/>
			<path fill="#C8C8C8" d="M178.7,162.1v0.8h-4.3v-0.8H178.7z"/>
			<path fill="#C8C8C8" d="M184.7,162.1v0.8h-4.3v-0.8H184.7z"/>
			<path fill="#C8C8C8" d="M190.7,162.1v0.8h-4.3v-0.8H190.7z"/>
			<path fill="#C8C8C8" d="M192,159.5l5.1,2.7v0.6l-5.1,3v-0.9l4.2-2.4l-4.2-2.1V159.5z"/>
			<path fill="#C8C8C8" d="M200.2,158.8c0.5,0,0.9,0,1.4,0.2c0.7,0.3,1.1,0.9,1.1,1.6c0,0.7-0.4,1.4-1.1,1.6
				c0.8,0.3,1.4,1.1,1.4,1.9c0,0.8-0.4,1.5-1.2,1.8c-0.5,0.2-1,0.2-1.5,0.2h-2.1v-7.5H200.2z M198.9,161.9h1.2c0.3,0,0.7,0,1-0.2
				c0.5-0.2,0.7-0.6,0.7-1c0-0.4-0.3-0.9-0.8-1.1c-0.3-0.1-0.7-0.1-1-0.1h-1.2V161.9z M198.9,165.5h1.4c0.3,0,0.6,0,1-0.2
				c0.5-0.2,0.8-0.7,0.8-1.3c0-0.5-0.3-1.1-0.8-1.3c-0.4-0.2-0.7-0.2-1.1-0.2h-1.2V165.5z"/>
			<path fill="#C8C8C8" d="M52,172.7l0.7,0.4l-3.8,8.1l-0.7-0.4L52,172.7z"/>
			<path fill="#C8C8C8" d="M58,172.7l0.7,0.4l-3.8,8.1l-0.7-0.4L58,172.7z"/>
			<path fill="#C8C8C8" d="M148.8,175.2l-1.8,2.7l2,2.8h-1l-1.5-2.1l-1.4,2.1h-1l1.9-2.8l-1.9-2.7h0.9l1.4,2l1.4-2H148.8z"/>
			<path fill="#C8C8C8" d="M52,187.1l0.7,0.4l-3.8,8.1l-0.7-0.4L52,187.1z"/>
			<path fill="#C8C8C8" d="M58,187.1l0.7,0.4l-3.8,8.1l-0.7-0.4L58,187.1z"/>
		</g>
	</g>
	<polygon fill="#FFFFFF" points="75.5,53.5 113.2,53.5 122.5,63 122.5,109.1 75.5,109.6 	"/>
	<g>
		<path fill="#0F96B7" d="M113.1,52.1h-39v58.4h49V62L113.1,52.1z M113.6,55.1l6.4,6.4h-6.4V55.1z M75.9,108.7V53.8h36v9.4h9.4v45.4
			H75.9z"/>
		<g>
			<path fill="#0F96B7" d="M86,87c-0.7,0-1.3-0.6-1.3-1.3c0-0.7,0.6-1.3,1.3-1.3s1.3,0.6,1.3,1.3S86.8,87,86,87z"/>
			<path fill="#0F96B7" d="M98,76.4V86c0,0.9,0,1.7-0.5,2.6c-0.7,1.4-2.1,2.1-3.6,2.1c-1.3,0-2.4-0.5-3.2-1.5l1.1-1.4
				c0.1,0.1,0.1,0.3,0.2,0.4c0.1,0.1,0.8,1,2,1c0.9,0,1.7-0.5,2.1-1.3c0.3-0.6,0.3-1.1,0.3-1.6v-8.6h-3.9v-1.3H98z M98.4,73
				c0,0.6-0.5,1.2-1.2,1.2c-0.6,0-1.2-0.5-1.2-1.2c0-0.6,0.5-1.2,1.2-1.2C97.9,71.9,98.4,72.4,98.4,73z"/>
			<path fill="#0F96B7" d="M109.8,79.2c0,0-0.1,0-0.1-0.2c0-0.1,0-0.1,0-0.2c-0.4-0.5-1.4-1.4-2.9-1.4c-1.2,0-2.2,0.6-2.2,1.4
				c0,0.3,0.2,0.8,1,1.3c1,0.5,2.6,0.7,3.8,1.4c1.2,0.7,1.5,1.6,1.5,2.3c0,1.6-1.5,3.2-4.3,3.2c-1.6,0-3.2-0.5-4.4-1.6l0.9-1.6
				c0.1,0.1,0.1,0.2,0.1,0.2c0,0.1,0,0.2,0.1,0.2c0.3,0.4,1.5,1.4,3.2,1.4c1.5,0,2.7-0.7,2.7-1.6c0-0.4-0.2-0.9-1-1.3
				c-0.8-0.4-1.9-0.6-2.8-0.9c-0.6-0.2-2.5-0.9-2.5-2.7c0-1.5,1.6-2.9,4-2.9c1.5,0,2.9,0.6,3.9,1.6L109.8,79.2z"/>
		</g>
	</g>
	<path fill="#FFFFFF" d="M137.6,111.9c0,3.7-3.7,8.7-12.9,8.7c-2.7,0-16.1-13.1-16.6-15.9c-2-11.4,10.3,3.8,9.9,2.4
		c-2.9-9.3-4.4-17.3-5.2-21.1c7.1-7.2,6.6,5,7.6,7.9c1.4,0.4,2.9-1.7,3.6-0.9c3.6,4.1,4.8-0.5,6.3,1
		C132.5,96.4,137.6,102.3,137.6,111.9z"/>
	<g id="Your_Icon_2_">
		<g>
			<g>
				<path fill="#666666" d="M123.1,105.9"/>
			</g>
			<g>
				<path fill="#666666" d="M123.3,106.7c-0.5,0.1-0.9-0.2-1-0.6l-4.7-19.9c-0.2-1-1.3-1.7-2.3-1.4c-1,0.2-1.7,1.3-1.4,2.3l4.7,19.9
					c0.1,0.5-0.2,0.9-0.6,1c-0.5,0.1-0.9-0.2-1-0.6l-4.7-19.9c-0.5-1.9,0.7-3.9,2.7-4.4s3.9,0.7,4.4,2.7l4.7,19.9
					C124.1,106.1,123.8,106.6,123.3,106.7z"/>
			</g>
			<g>
				<path fill="#666666" d="M122.6,120.8c-0.3,0.1-0.6,0-0.8-0.2l-14.2-14.8c-1.4-1.4-1.3-3.7,0.1-5.1c1.4-1.4,3.7-1.3,5.1,0.1
					l5.6,5.8c0.3,0.3,0.3,0.9,0,1.2c-0.3,0.3-0.9,0.3-1.2,0l-5.6-5.8c-0.7-0.8-1.9-0.8-2.7-0.1c-0.8,0.7-0.8,1.9,0,2.7l14.2,14.8
					c0.3,0.3,0.3,0.9,0,1.2C122.9,120.7,122.7,120.7,122.6,120.8z"/>
			</g>
			<g>
				<path fill="#666666" d="M128.2,103.1c-0.5,0.1-0.9-0.2-1-0.6l-1.7-7.2c-0.2-1-1.3-1.7-2.3-1.4c-1,0.2-1.7,1.3-1.4,2.3l1.7,7.2
					c0.1,0.5-0.2,0.9-0.6,1c-0.5,0.1-0.9-0.2-1-0.6l-1.7-7.2c-0.5-1.9,0.7-3.9,2.7-4.4c1.9-0.5,3.9,0.7,4.4,2.7l1.7,7.2
					C128.9,102.6,128.6,103,128.2,103.1z"/>
			</g>
			<g>
				<path fill="#666666" d="M134.3,105c-0.5,0.1-0.9-0.2-1-0.6l-1.9-8.2c-0.2-1-1.3-1.7-2.3-1.4c-1,0.2-1.7,1.3-1.4,2.3l1.6,6.8
					c0.1,0.5-0.2,0.9-0.6,1c-0.5,0.1-0.9-0.2-1-0.6l-1.6-6.8c-0.5-1.9,0.7-3.9,2.7-4.4c1.9-0.5,3.9,0.7,4.4,2.7l1.9,8.2
					C135,104.4,134.7,104.9,134.3,105z"/>
			</g>
			<g>
				<path fill="#666666" d="M139.9,116.7c-0.1,0-0.3,0-0.4,0c-0.5-0.1-0.7-0.6-0.6-1l1.4-5.5l-2.8-12c-0.2-1-1.3-1.7-2.3-1.4
					c-1,0.2-1.7,1.3-1.4,2.3l1.6,6.7c0.1,0.5-0.2,0.9-0.6,1s-0.9-0.2-1-0.6l-1.6-6.7c-0.5-1.9,0.7-3.9,2.7-4.4
					c1.9-0.5,3.9,0.7,4.4,2.7l2.9,12.2c0,0.1,0,0.3,0,0.4l-1.5,5.8C140.4,116.4,140.2,116.6,139.9,116.7z"/>
			</g>
			<g>
				<path fill="#666666" d="M127.2,99.1"/>
			</g>
			<g>
				<path fill="#666666" d="M121.8,100.4"/>
			</g>
		</g>
	</g>
</g>
</svg>
