<?xml version="1.0" encoding="utf-8"?>
<!-- Generator: Adobe Illustrator 18.1.1, SVG Export Plug-In . SVG Version: 6.00 Build 0)  -->
<!DOCTYPE svg PUBLIC "-//W3C//DTD SVG 1.1//EN" "http://www.w3.org/Graphics/SVG/1.1/DTD/svg11.dtd">
<svg version="1.1" id="Layer_1" xmlns="http://www.w3.org/2000/svg" xmlns:xlink="http://www.w3.org/1999/xlink" x="0px" y="0px"
	 viewBox="0 0 214 95.4" enable-background="new 0 0 214 95.4" xml:space="preserve">
<g>
	<line fill="none" stroke="#666666" stroke-width="3" stroke-miterlimit="10" x1="0" y1="93.9" x2="214" y2="93.9"/>
	<g id="Your_Icon">
		<path fill="#666666" d="M68.2,44.3c3.2,0,4.6,3.9,2.6,6c-0.3,0.3-0.4,0.5-0.4,0.9c0,0.5,0.3,1.1,0.9,1.2l3.1,1.2
			c0.6,0.3,1.1,0.7,1.4,1.3l3.2,7.6c0.3,0.8,0.3,1.6,0,2.4L76.1,71c-0.1,0.2-0.1,0.4,0,0.5l0.6,1.6c0.3,0.6-0.4,1.2-1,0.9
			c-0.3-0.1-0.4-0.3-0.5-0.5l-0.9-1.7c-0.2-0.3-0.2-0.7-0.1-1l2.2-6.7c0.1-0.3,0-0.6-0.1-0.9l-1.9-3.9c-0.3-0.6-1.3-0.5-1.4,0.3
			l-0.6,8.3L74.2,90c0,0.3,0.2,0.5,0.4,0.6l1.8,0.9c0.3,0.1,0.4,0.4,0.4,0.6c0,0.4-0.3,0.8-0.8,0.8H76h0l-4.8-0.5
			c-0.3,0-0.6-0.3-0.6-0.7l-2.4-18.2l-2.4,18.2c0,0.3-0.3,0.6-0.6,0.7c-4.8,0.5-4.9,0.5-4.9,0.5c-0.4,0-0.8-0.3-0.8-0.8
			c0-0.3,0.2-0.5,0.4-0.6l1.8-0.9c0.3-0.1,0.4-0.3,0.4-0.6L64,67.9l-0.6-8.3c0-0.7-1.1-0.9-1.4-0.3L60,63.3
			c-0.1,0.3-0.2,0.6-0.1,0.9l2.2,6.7c0.1,0.3,0.1,0.7-0.1,1l-0.9,1.7c-0.1,0.3-0.3,0.4-0.5,0.5c-0.6,0.3-1.2-0.4-1-0.9l0.6-1.6
			c0.1-0.2,0.1-0.4,0-0.5l-2.7-6.1c-0.3-0.8-0.3-1.6,0-2.4l3.2-7.6c0.3-0.6,0.7-1.1,1.4-1.3l3.1-1.2c0.5-0.2,0.9-0.7,0.9-1.2
			c0-0.4-0.1-0.7-0.4-0.9C63.6,48.2,65.1,44.3,68.2,44.3"/>
	</g>
	<g id="Your_Icon_1_">
		<path fill="#666666" d="M138.6,11.3c-1-8.8-7.7-9.9-7.7-9.9c-6.6-2.2-7.7-1.1-12.2-1.1c-4.4,0-4.4,5.5-13.3,2.2
			c-8-3-15.1,2.9-14.8,2.5l-1.8,1.7c-10-3.3-8.8-2.2-14.4,2.2c-5.5,4.4-1.1,13.2-5.5,17.7c-4.4,4.4-2.2,13.2,5.5,17.7
			c6.6,7.7,11.1,7.7,14.4,5.5c2.4-1.6,7.2-1.7,9.9-1.7c-7-5.4-21.4-13.2-21.4-13.2l21,8.3l3.4-8.9l-2,9.4l5.7,2.2l4-6.6l5.1-3.3
			l-1.5-9.1l2.9,7.9l0,0l12.2-7.7c0,0-13.4,14.3-17.4,16.5c-0.8,0.4-1.4,1.9-1.9,4.1h6.4c0,0,13.3,3.3,15.5-3.3
			c2.2-6.6,5.1-3.2,8.9-8.8C146.4,25.6,139.8,21.2,138.6,11.3z"/>
		<path fill="#666666" d="M129.6,28.8l-2.4-2.8l-19.1,12.4l-3.4,5.6L78,33.5l-1.5,3.4C87.6,42.5,100.1,50,101,52.3
			c0.4,1.2,1.3,6.8,1.3,31.5c0,4.7-2.2,7.6-2.3,7.7l-2.5,3h19.3l-1.7-2.8c0,0-1.3-2.2-3.9-9.6c-2.9-8.3-2-34.1,0.5-36.4
			C115.9,43.4,128.2,30.3,129.6,28.8z M109.5,82.7c2.7,7.7,4,9.9,4,9.9h-12.1c0,0,2.7-3.3,2.7-8.8c0-4.9,0-27.6-1.3-32
			c-1.3-4.4-25.4-16.5-25.4-16.5l28.1,11l4-6.6l18.7-12.1c0,0-13.4,14.3-17.4,16.5C106.8,46.3,106.8,75,109.5,82.7z"/>
	</g>
</g>
</svg>
