<?xml version="1.0" encoding="utf-8"?>
<!-- Generator: Adobe Illustrator 18.1.1, SVG Export Plug-In . SVG Version: 6.00 Build 0)  -->
<!DOCTYPE svg PUBLIC "-//W3C//DTD SVG 1.1//EN" "http://www.w3.org/Graphics/SVG/1.1/DTD/svg11.dtd">
<svg version="1.1" id="Layer_1" xmlns="http://www.w3.org/2000/svg" xmlns:xlink="http://www.w3.org/1999/xlink" x="0px" y="0px"
	 viewBox="0 0 89.8 58.4" enable-background="new 0 0 89.8 58.4" xml:space="preserve">
<g>
	<g transform="translate(0.000000,2000.000000) scale(0.100000,-0.100000)">
		<path fill="#0F96B7" d="M534.1,19999.5c-9.1-0.5-21-1.5-27.9-2.6c-6.7-1-13.1-2.6-22.6-5.7c-42.7-14.2-84.4-44-110.7-78.7
			c-3.5-4.7-9.2-13.5-12.8-19.8c-1.9-3.3-3.5-6.1-3.6-6.2c0-0.1-2.7,1-5.8,2.4c-16.2,7.4-32.1,11.6-51.8,13.9
			c-9.9,1.2-32.5,1.2-41.5,0c-18.1-2.4-32.9-6.8-49.3-14.9c-19.8-9.7-35.8-21-51.1-36.1c-20.1-19.9-31.3-38.1-40.6-66.3
			c-4.5-13.5-7.5-27.2-8.6-39l-0.6-5.8l-11.1-5.5c-13.7-6.8-21-11.5-31.8-20.4c-15.1-12.3-29.8-28.5-39.5-43.6
			c-12.3-18.9-20.7-42.8-24.1-68c-1-7.5-1.2-28.4-0.3-35.7c4.1-32.9,15.6-60.1,36.3-86c4.5-5.6,17.5-18.9,24.7-25.3
			c19.3-17,36.3-25.5,65.6-32.7c17-4.2,33.4-5.3,95.6-6.2c78.1-1.1,396-1.9,440.1-1.1c71.8,1.3,98.7,4.5,123.8,14.4
			c17.9,7.1,32.6,14.8,44.3,23.3c41.2,30.1,64.7,76.8,66.4,131.7c0.7,22.7-3.4,43.6-13.1,66.2c-9,20.9-19.4,36.1-36.3,53
			c-23.2,23.1-48.9,38.4-77,45.6c-3.2,0.8-6,1.7-6.2,1.8c-0.1,0.1,0.3,5.2,1.1,11.2c1.2,9.7,1.3,12.3,1.3,23.4
			c0,17.3-1.6,29.9-5.8,46.5c-13.7,54.5-48.6,103.9-93.7,132.6c-21.1,13.4-62,29.7-81.3,32.5C575,20000,553.1,20000.5,534.1,19999.5
			z M576.6,19973.3c9.5-0.7,15.8-2.3,28.7-6.9c13.6-4.9,29.7-12,41-18c17.3-9.3,36.5-25.8,51.2-44.1c20-25,34.3-55.1,40.5-85.8
			c2.5-12.4,3-17.9,3-31.8c0-11.6-0.1-13.6-1.5-24c-2-14.8-2.3-21.2-1.3-24.3c0.9-2.9,3-5.3,5.5-6.9c1.1-0.6,4.6-1.9,7.7-2.7
			c3.1-0.9,9.2-2.5,13.5-3.7c23.2-6.3,44.1-18.6,63-36.9c9.2-8.9,16.4-17.7,22.4-27.2c3.6-5.6,9.8-18.5,12.6-26
			c6.6-17.6,8.8-30.8,8.3-49.1c-1.1-38.2-14.9-72.1-39.4-97c-11.1-11.2-22.4-19.1-38.4-26.9c-28.9-13.9-44.3-16.9-101.2-19
			c-18.6-0.7-109.6-1.5-144.1-1.3c-16.6,0.1-69.7,0.3-118,0.4c-48.3,0.1-98.1,0.3-110.7,0.4c-12.5,0.1-38.3,0.3-57.2,0.4
			c-53.8,0.4-89.8,1.2-107,2.5c-9,0.7-14.9,1.6-23.1,3.6c-28.8,7.2-43.1,15.6-65.1,38c-7.8,8-12.9,14.2-18.2,22.3
			c-11.4,17.3-18.3,35.1-21.5,55.4c-0.9,5.8-1,8.4-1,19.6c0,14.6,0.7,20.6,3.7,32.5c6.3,25.2,17.3,44.6,36.3,64.1
			c14.7,15.1,25.7,23.2,43,31.7c10.7,5.3,13.8,7.1,17,10c5.2,4.8,7,9.3,7.6,19.1c0.6,11.1,3.3,23.3,8.3,37.9
			c5.9,17.3,11.6,28.2,21.2,40.4c4.6,5.9,18,19.2,24,24c18.4,14.7,38.6,25.1,57.9,30.1c22.4,5.7,51.9,4.8,76.5-2.2
			c8.8-2.5,13.9-4.6,25.3-10.3c10-5,10.8-5.3,14-5.5c3-0.2,3.6-0.1,6.3,1.2c1.8,0.9,3.5,2.1,4.3,3.2c0.7,0.9,4.4,7.1,8.2,13.7
			c9.7,17.1,15,24.5,25.4,36c24.5,26.8,61.7,49.8,95.9,59.1C515,19973.2,552.7,19975.1,576.6,19973.3z"/>
		<path fill="#0F96B7" d="M622.3,19815.6c-0.7-0.3-2.1-1-3-1.6c-0.9-0.6-15.4-14.8-32.3-31.7c-88.2-88-203.6-202.8-204.3-203
			c-0.1,0-23.2,22.7-51.3,50.6c-35.6,35.3-51.8,51.1-53.5,52.1c-2.1,1.2-2.8,1.4-6.1,1.4c-3.3,0-4-0.1-6.2-1.4
			c-6.2-3.5-8.5-10.9-5.3-17.2c1.5-2.9,112.8-113.4,116.2-115.5c2.1-1.2,2.8-1.4,6.1-1.4c3.1,0,4.1,0.2,5.9,1.2
			c2.5,1.3,2.6,1.4,103.6,101.9c143.2,142.6,145.2,144.5,146.4,147c1.3,2.8,1.5,6.8,0.4,10.1c-0.9,2.5-3.8,5.7-6.4,7
			C630.3,19816,624.5,19816.3,622.3,19815.6z"/>
	</g>
</g>
</svg>
