<?xml version="1.0" encoding="utf-8"?>
<!-- Generator: Adobe Illustrator 18.0.0, SVG Export Plug-In . SVG Version: 6.00 Build 0)  -->
<!DOCTYPE svg PUBLIC "-//W3C//DTD SVG 1.1//EN" "http://www.w3.org/Graphics/SVG/1.1/DTD/svg11.dtd">
<svg version="1.1" id="Layer_1" xmlns="http://www.w3.org/2000/svg" xmlns:xlink="http://www.w3.org/1999/xlink" x="0px" y="0px"
	 viewBox="0 0 77.5 77.5" enable-background="new 0 0 77.5 77.5" xml:space="preserve">
<g>
	<g>
		<path fill="#CCCCCC" d="M66.1,11.3C58.8,4,49.1,0,38.7,0C28.4,0,18.7,4,11.3,11.3C4,18.7,0,28.4,0,38.7c0,10.3,4,20.1,11.3,27.4
			c7.3,7.3,17,11.3,27.4,11.3c10.3,0,20.1-4,27.4-11.3c7.3-7.3,11.3-17,11.3-27.4C77.5,28.4,73.4,18.7,66.1,11.3z M63.4,63.4
			C56.8,70,48,73.6,38.7,73.6c-9.3,0-18.1-3.6-24.6-10.2C7.5,56.8,3.9,48,3.9,38.7c0-9.3,3.6-18.1,10.2-24.6
			C20.7,7.5,29.4,3.9,38.7,3.9c9.3,0,18.1,3.6,24.6,10.2c6.6,6.6,10.2,15.3,10.2,24.6C73.6,48,70,56.8,63.4,63.4z"/>
		<g>
			<path fill="#CCCCCC" d="M28.4,52.5c-0.9,0-1.6-0.7-1.6-1.6v-30c0-0.9,0.7-1.6,1.6-1.6s1.6,0.7,1.6,1.6v30
				C30,51.8,29.3,52.5,28.4,52.5z"/>
			<path fill="#CCCCCC" d="M30.3,20.2c-1.1,1.1-2.8,1.1-3.8,0c-1.1-1.1-1.1-2.8,0-3.8c1.1-1.1,2.8-1.1,3.8,0
				C31.3,17.4,31.3,19.1,30.3,20.2"/>
			<g>
				<path fill="#CCCCCC" d="M28.4,22.6c-1.2,0-2.2-0.4-3.1-1.3c-1.7-1.7-1.7-4.4,0-6.1c0.8-0.8,1.9-1.3,3.1-1.3
					c1.2,0,2.2,0.4,3.1,1.3c0.8,0.8,1.3,1.9,1.3,3.1c0,1.2-0.4,2.2-1.3,3.1C30.6,22.1,29.5,22.6,28.4,22.6z M28.4,17.1
					c-0.3,0-0.6,0.1-0.8,0.3c-0.4,0.4-0.4,1.1,0,1.6c0.4,0.4,1.1,0.4,1.6,0c0.2-0.2,0.3-0.5,0.3-0.8c0-0.3-0.1-0.6-0.3-0.8
					C28.9,17.3,28.7,17.1,28.4,17.1z"/>
			</g>
			<path fill="#CCCCCC" d="M26.4,51.7c1.1-1.1,2.8-1.1,3.8,0c1.1,1.1,1.1,2.8,0,3.8c-1.1,1.1-2.8,1.1-3.8,0
				C25.4,54.5,25.4,52.8,26.4,51.7"/>
			<g>
				<path fill="#CCCCCC" d="M28.4,57.9c-1.2,0-2.2-0.4-3.1-1.3c-0.8-0.8-1.3-1.9-1.3-3.1c0-1.2,0.5-2.2,1.3-3.1
					c0.8-0.8,1.9-1.3,3.1-1.3c1.2,0,2.2,0.4,3.1,1.3c0.8,0.8,1.3,1.9,1.3,3.1c0,1.2-0.4,2.2-1.3,3.1C30.6,57.5,29.5,57.9,28.4,57.9z
					 M28.4,52.5c-0.3,0-0.6,0.1-0.8,0.3c-0.2,0.2-0.3,0.5-0.3,0.8c0,0.3,0.1,0.6,0.3,0.8c0.4,0.4,1.1,0.4,1.6,0
					c0.2-0.2,0.3-0.5,0.3-0.8c0-0.3-0.1-0.6-0.3-0.8C28.9,52.6,28.7,52.5,28.4,52.5z"/>
			</g>
			<g>
				<path fill="#CCCCCC" d="M49.1,58.1c-0.9,0-1.6-0.7-1.6-1.6v-30c0-0.9,0.7-1.6,1.6-1.6c0.9,0,1.6,0.7,1.6,1.6v30
					C50.7,57.4,50,58.1,49.1,58.1z"/>
			</g>
			<path fill="#CCCCCC" d="M51,25.8c-1.1,1.1-2.8,1.1-3.8,0c-1.1-1.1-1.1-2.8,0-3.8c1.1-1.1,2.8-1.1,3.8,0
				C52.1,23,52.1,24.7,51,25.8"/>
			<g>
				<path fill="#CCCCCC" d="M49.1,28.2c-1.2,0-2.2-0.5-3.1-1.3c-1.7-1.7-1.7-4.4,0-6.1c0.8-0.8,1.9-1.3,3.1-1.3
					c1.2,0,2.2,0.5,3.1,1.3c0.8,0.8,1.3,1.9,1.3,3.1c0,1.2-0.4,2.2-1.3,3.1C51.4,27.7,50.3,28.2,49.1,28.2z M49.1,22.8
					c-0.3,0-0.6,0.1-0.8,0.3c-0.4,0.4-0.4,1.1,0,1.6c0.4,0.4,1.1,0.4,1.6,0c0.2-0.2,0.3-0.5,0.3-0.8c0-0.3-0.1-0.6-0.3-0.8
					C49.7,22.9,49.4,22.8,49.1,22.8z"/>
			</g>
			<g>
				<path fill="#CCCCCC" d="M49.1,63.6c-1.2,0-2.2-0.4-3.1-1.3c-1.7-1.7-1.7-4.4,0-6.1c0.8-0.8,1.9-1.3,3.1-1.3
					c1.2,0,2.2,0.4,3.1,1.3c0.8,0.8,1.3,1.9,1.3,3.1c0,1.2-0.4,2.2-1.3,3.1C51.4,63.1,50.3,63.6,49.1,63.6z M49.1,58.1
					c-0.3,0-0.6,0.1-0.8,0.3c-0.4,0.4-0.4,1.1,0,1.5c0.4,0.4,1.1,0.4,1.6,0c0.2-0.2,0.3-0.5,0.3-0.8c0-0.3-0.1-0.6-0.3-0.8
					C49.7,58.3,49.4,58.1,49.1,58.1z"/>
			</g>
			<path fill="#CCCCCC" d="M47.2,57.3c1.1-1.1,2.8-1.1,3.8,0c1.1,1.1,1.1,2.8,0,3.8c-1.1,1.1-2.8,1.1-3.8,0
				C46.1,60.1,46.1,58.4,47.2,57.3"/>
			<g>
					<rect x="27.3" y="36.6" transform="matrix(0.9064 0.4224 -0.4224 0.9064 19.7621 -12.7881)" fill="#CCCCCC" width="22.9" height="3.2"/>
			</g>
		</g>
	</g>
</g>
</svg>
