<?xml version="1.0" encoding="utf-8"?>
<!-- Generator: Adobe Illustrator 18.0.0, SVG Export Plug-In . SVG Version: 6.00 Build 0)  -->
<!DOCTYPE svg PUBLIC "-//W3C//DTD SVG 1.1//EN" "http://www.w3.org/Graphics/SVG/1.1/DTD/svg11.dtd">
<svg xmlns="http://www.w3.org/2000/svg" xmlns:xlink="http://www.w3.org/1999/xlink" version="1.1" id="Layer_1" x="0px" y="0px" viewBox="0 0 154.3 63.2" enable-background="new 0 0 154.3 63.2" xml:space="preserve">

<g>
        <g>
                <g>
                        <g>
                                <path fill="#666666" d="M26.9,4.6c-3-3-6.9-4.6-11.1-4.6C11.5,0,7.6,1.6,4.6,4.6c-3,3-4.6,6.9-4.6,11.1c0,4.2,1.6,8.2,4.6,11.1      c3,3,6.9,4.6,11.1,4.6c4.2,0,8.2-1.6,11.1-4.6c3-3,4.6-6.9,4.6-11.1C31.5,11.5,29.8,7.6,26.9,4.6z M25.3,25.3      c-2.6,2.6-6,4-9.6,4c-3.6,0-7-1.4-9.6-4c-2.6-2.6-4-6-4-9.6c0-3.6,1.4-7,4-9.6c2.6-2.6,6-4,9.6-4c3.6,0,7,1.4,9.6,4      c2.6,2.6,4,6,4,9.6C29.3,19.4,27.9,22.8,25.3,25.3z"/>
                                <g>
                                        <path fill="#666666" d="M11.8,20.9c-0.5,0-0.9-0.3-0.9-0.6V8.5c0-0.3,0.4-0.6,0.9-0.6c0.5,0,0.9,0.3,0.9,0.6v11.7       C12.7,20.6,12.3,20.9,11.8,20.9z"/>
                                        <g>
                                                <path fill="#666666" d="M11.8,9.8c-0.5,0-1-0.2-1.3-0.5c-0.7-0.7-0.7-1.9,0-2.6c0.4-0.4,0.8-0.5,1.3-0.5c0.5,0,1,0.2,1.3,0.5        c0.4,0.4,0.5,0.8,0.5,1.3c0,0.5-0.2,1-0.5,1.3C12.7,9.6,12.3,9.8,11.8,9.8z"/>
                                        </g>
                                        <g>
                                                <path fill="#666666" d="M11.8,23.3c-0.5,0-1-0.2-1.3-0.5c-0.4-0.4-0.5-0.8-0.5-1.3c0-0.5,0.2-1,0.5-1.3        c0.4-0.4,0.8-0.5,1.3-0.5c0.5,0,1,0.2,1.3,0.5c0.4,0.4,0.5,0.8,0.5,1.3c0,0.5-0.2,1-0.5,1.3C12.7,23.1,12.3,23.3,11.8,23.3z"/>
                                        </g>
                                        <g>
                                                <path fill="#666666" d="M19.7,23.1c-0.5,0-0.9-0.3-0.9-0.6V11.1c0-0.3,0.4-0.6,0.9-0.6c0.5,0,0.9,0.3,0.9,0.6v11.4        C20.6,22.9,20.2,23.1,19.7,23.1z"/>
                                        </g>
                                        <g>
                                                <path fill="#666666" d="M19.7,11.9c-0.5,0-1-0.2-1.3-0.5c-0.7-0.7-0.7-1.9,0-2.6c0.4-0.4,0.8-0.5,1.3-0.5c0.5,0,1,0.2,1.3,0.5        c0.4,0.4,0.5,0.8,0.5,1.3c0,0.5-0.2,1-0.5,1.3C20.7,11.7,20.2,11.9,19.7,11.9z"/>
                                        </g>
                                        <g>
                                                <path fill="#666666" d="M19.7,25.4c-0.5,0-1-0.2-1.3-0.5c-0.7-0.7-0.7-1.9,0-2.6c0.4-0.4,0.8-0.5,1.3-0.5c0.5,0,1,0.2,1.3,0.5        c0.4,0.4,0.5,0.8,0.5,1.3c0,0.5-0.2,1-0.5,1.3C20.7,25.2,20.2,25.4,19.7,25.4z"/>
                                        </g>
                                        <g>
                                                <polygon fill="#666666" points="19.8,18.5 11.9,14.8 12,13.1 20,16.8       "/>
                                        </g>
                                </g>
                        </g>
                </g>
        </g>
        <g>
                <g>
                        <path fill="#666666" d="M52.7,11.9c-0.4,0.1-0.8,0.1-1.2,0.1v7.3c0.4,0,0.8,0.1,1.2,0.1v1.5h-4.2v-1.5c0.3,0,0.7-0.1,1-0.1v-2.8     H45v2.8c0.3,0,0.6,0.1,0.9,0.1v1.5h-4.2v-1.5c0.4-0.1,0.8-0.1,1.2-0.1V12c-0.4,0-0.8-0.1-1.2-0.1v-1.5h4.2v1.5     c-0.3,0-0.6,0.1-0.9,0.1v2.8h4.4V12c-0.3,0-0.6-0.1-1-0.1v-1.5h4.2V11.9z"/>
                        <path fill="#666666" d="M57.9,11.9c-0.4,0.1-0.8,0.1-1.2,0.1v7.3c0.4,0,0.8,0.1,1.2,0.1v1.5h-4.4v-1.5c0.4-0.1,0.8-0.1,1.1-0.1     V12c-0.4,0-0.8-0.1-1.2-0.1v-1.5h4.4V11.9z"/>
                        <path fill="#666666" d="M67.9,18c0,2.3-2.2,3.1-3.6,3.1h-1.4c-2.6,0-3.9-1.2-3.9-3.8v-2.9c0-2.6,1.5-4.2,4-4.2h0.7     c0.6,0,2.5,0.2,3.9,0.6v3h-1.7l-0.3-1.5c-0.7-0.2-1.6-0.2-2.4-0.2c-1.3,0-2.1,0.9-2.1,2.3v3.1c0,1.2,0.7,1.8,2,1.8h1.2     c1,0,1.7-0.5,1.7-1.4v-0.7c-0.8,0-1.7-0.1-2.8-0.2v-1.5h4.7V18z"/>
                        <path fill="#666666" d="M80,11.9c-0.4,0.1-0.8,0.1-1.2,0.1v7.3c0.4,0,0.8,0.1,1.2,0.1v1.5h-4.2v-1.5c0.3,0,0.7-0.1,1-0.1v-2.8     h-4.4v2.8c0.3,0,0.6,0.1,0.9,0.1v1.5h-4.2v-1.5c0.4-0.1,0.8-0.1,1.2-0.1V12c-0.4,0-0.8-0.1-1.2-0.1v-1.5h4.2v1.5     c-0.3,0-0.6,0.1-0.9,0.1v2.8h4.4V12c-0.3,0-0.6-0.1-1-0.1v-1.5H80V11.9z"/>
                        <path fill="#666666" d="M93,13.5h-1.3l-0.2-1.4h-3.7v3h3.3v1.8h-3.3v2.5c0.4,0,1.4,0.1,1.8,0.1v1.5h-5v-1.5     c0.4-0.1,0.8-0.1,1.1-0.1V12c-0.3,0-0.6-0.1-1.2-0.1v-1.5H93V13.5z"/>
                        <path fill="#666666" d="M98.2,11.9c-0.4,0.1-0.8,0.1-1.2,0.1v7.3c0.4,0,0.8,0.1,1.2,0.1v1.5h-4.4v-1.5c0.4-0.1,0.8-0.1,1.1-0.1     V12c-0.4,0-0.8-0.1-1.2-0.1v-1.5h4.4V11.9z"/>
                        <path fill="#666666" d="M104.9,10.4c2.6,0,3.7,1.2,3.7,3.7v3.1c0,2.5-1.2,3.7-3.7,3.7h-5.8v-1.5c0.5-0.1,0.9-0.1,1.2-0.2V12     c-0.3,0-0.7-0.1-1.2-0.1v-1.5H104.9z M106.5,14c0-1.2-0.7-1.8-1.9-1.8h-2.4v7.1h2.4c1.2,0,1.8-0.6,1.9-1.8V14z"/>
                        <path fill="#666666" d="M118,13.5h-1.3l-0.2-1.4h-3.6v2.7h2.8v1.8h-2.8v2.7h3.7l0.2-1.4h1.3v3h-8.4v-1.5c0.5-0.1,0.9-0.1,1.1-0.1     V12c-0.3,0-0.6-0.1-1.2-0.1v-1.5h8.3V13.5z"/>
                        <path fill="#666666" d="M119.3,20.9v-1.5c0.5-0.1,0.9-0.1,1.1-0.1V12c-0.4,0-0.8-0.1-1.2-0.1v-1.5h4.7v1.5     c-0.5,0.1-0.9,0.1-1.4,0.1v7.2h3.6l0.2-1.6h1.4v3.3H119.3z"/>
                        <path fill="#666666" d="M133,11.9c-0.4,0.1-0.8,0.1-1.2,0.1v7.3c0.4,0,0.8,0.1,1.2,0.1v1.5h-4.4v-1.5c0.4-0.1,0.8-0.1,1.1-0.1V12     c-0.4,0-0.8-0.1-1.2-0.1v-1.5h4.4V11.9z"/>
                        <path fill="#666666" d="M142,13.6l-0.1-1.5h-2.2v7.2c0.4,0,0.9,0.1,1.3,0.1v1.5h-4.6v-1.5c0.4-0.1,0.9-0.1,1.2-0.1v-7.2h-2.2     l-0.1,1.5h-1.4v-3.2h9.6v3.2H142z"/>
                        <path fill="#666666" d="M148.2,11.9c-0.3,0-0.6,0.1-0.9,0.1l1.9,3.8h0.1l1.9-3.7c-0.3,0-0.6,0-1-0.1v-1.5h4.1v1.5     c-0.4,0.1-0.8,0.1-1.1,0.1l-3,5.2v2.1c0.4,0,0.8,0.1,1.2,0.1v1.5H147v-1.5c0.4-0.1,0.7-0.1,1.1-0.1v-2l-3-5.3     c-0.3,0-0.7-0.1-1-0.1v-1.5h4.1V11.9z"/>
                </g>
        </g>
</g>
</svg>