<?xml version="1.0" encoding="utf-8"?>
<!DOCTYPE svg PUBLIC "-//W3C//DTD SVG 1.1//EN" "http://www.w3.org/Graphics/SVG/1.1/DTD/svg11.dtd">
<svg version="1.1" id="Layer_1" xmlns="http://www.w3.org/2000/svg" xmlns:xlink="http://www.w3.org/1999/xlink" x="0px" y="0px"
   viewBox="0 0 109 99" enable-background="new 0 0 109 99" xml:space="preserve">
<g>
  <g>
    <g>
      <path fill="#CCCCCC" d="M80.4,11.3C73.1,4,63.4,0,53,0C42.7,0,32.9,4,25.6,11.3c-7.3,7.3-11.3,17-11.3,27.4
        c0,10.3,4,20.1,11.3,27.4c7.3,7.3,17,11.3,27.4,11.3c10.3,0,20.1-4,27.4-11.3c7.3-7.3,11.3-17,11.3-27.4
        C91.7,28.4,87.7,18.7,80.4,11.3z M77.6,63.4C71.1,70,62.3,73.6,53,73.6c-9.3,0-18.1-3.6-24.6-10.2C21.8,56.8,18.2,48,18.2,38.7
        c0-9.3,3.6-18.1,10.2-24.6C35,7.5,43.7,3.9,53,3.9c9.3,0,18.1,3.6,24.6,10.2c6.6,6.6,10.2,15.3,10.2,24.6
        C87.8,48,84.2,56.8,77.6,63.4z"/>
      <g>
        <path fill="#CCCCCC" d="M42.6,52.5c-0.9,0-1.6-0.7-1.6-1.6v-30c0-0.9,0.7-1.6,1.6-1.6c0.9,0,1.6,0.7,1.6,1.6v30
          C44.2,51.8,43.5,52.5,42.6,52.5z"/>
        <path fill="#CCCCCC" d="M44.6,20.2c-1.1,1.1-2.8,1.1-3.8,0c-1.1-1.1-1.1-2.8,0-3.8c1.1-1.1,2.8-1.1,3.8,0
          C45.6,17.4,45.6,19.1,44.6,20.2"/>
        <g>
          <path fill="#CCCCCC" d="M42.6,22.6c-1.2,0-2.2-0.4-3.1-1.3c-1.7-1.7-1.7-4.4,0-6.1c0.8-0.8,1.9-1.3,3.1-1.3
            c1.2,0,2.2,0.4,3.1,1.3c0.8,0.8,1.3,1.9,1.3,3.1c0,1.2-0.4,2.2-1.3,3.1C44.9,22.1,43.8,22.6,42.6,22.6z M42.6,17.1
            c-0.3,0-0.6,0.1-0.8,0.3c-0.4,0.4-0.4,1.1,0,1.6c0.4,0.4,1.1,0.4,1.6,0c0.2-0.2,0.3-0.5,0.3-0.8c0-0.3-0.1-0.6-0.3-0.8
            C43.2,17.3,42.9,17.1,42.6,17.1z"/>
        </g>
        <path fill="#CCCCCC" d="M40.7,51.7c1.1-1.1,2.8-1.1,3.8,0c1.1,1.1,1.1,2.8,0,3.8c-1.1,1.1-2.8,1.1-3.8,0
          C39.7,54.5,39.7,52.8,40.7,51.7"/>
        <g>
          <path fill="#CCCCCC" d="M42.6,57.9c-1.2,0-2.2-0.4-3.1-1.3c-0.8-0.8-1.3-1.9-1.3-3.1c0-1.2,0.5-2.2,1.3-3.1
            c0.8-0.8,1.9-1.3,3.1-1.3c1.2,0,2.2,0.4,3.1,1.3c0.8,0.8,1.3,1.9,1.3,3.1c0,1.2-0.4,2.2-1.3,3.1C44.9,57.5,43.8,57.9,42.6,57.9
            z M42.6,52.5c-0.3,0-0.6,0.1-0.8,0.3c-0.2,0.2-0.3,0.5-0.3,0.8c0,0.3,0.1,0.6,0.3,0.8c0.4,0.4,1.1,0.4,1.6,0
            c0.2-0.2,0.3-0.5,0.3-0.8c0-0.3-0.1-0.6-0.3-0.8C43.2,52.6,42.9,52.5,42.6,52.5z"/>
        </g>
        <g>
          <path fill="#CCCCCC" d="M63.4,58.1c-0.9,0-1.6-0.7-1.6-1.6v-30c0-0.9,0.7-1.6,1.6-1.6c0.9,0,1.6,0.7,1.6,1.6v30
            C65,57.4,64.3,58.1,63.4,58.1z"/>
        </g>
        <path fill="#CCCCCC" d="M65.3,25.8c-1.1,1.1-2.8,1.1-3.8,0c-1.1-1.1-1.1-2.8,0-3.8c1.1-1.1,2.8-1.1,3.8,0
          C66.4,23,66.4,24.7,65.3,25.8"/>
        <g>
          <path fill="#CCCCCC" d="M63.4,28.2c-1.2,0-2.2-0.5-3.1-1.3c-1.7-1.7-1.7-4.4,0-6.1c0.8-0.8,1.9-1.3,3.1-1.3
            c1.2,0,2.2,0.5,3.1,1.3c0.8,0.8,1.3,1.9,1.3,3.1c0,1.2-0.4,2.2-1.3,3.1C65.6,27.7,64.5,28.2,63.4,28.2z M63.4,22.8
            c-0.3,0-0.6,0.1-0.8,0.3c-0.4,0.4-0.4,1.1,0,1.6c0.4,0.4,1.1,0.4,1.6,0c0.2-0.2,0.3-0.5,0.3-0.8c0-0.3-0.1-0.6-0.3-0.8
            C64,22.9,63.7,22.8,63.4,22.8z"/>
        </g>
        <g>
          <path fill="#CCCCCC" d="M63.4,63.6c-1.2,0-2.2-0.4-3.1-1.3c-1.7-1.7-1.7-4.4,0-6.1c0.8-0.8,1.9-1.3,3.1-1.3
            c1.2,0,2.2,0.4,3.1,1.3c0.8,0.8,1.3,1.9,1.3,3.1c0,1.2-0.4,2.2-1.3,3.1C65.6,63.1,64.5,63.6,63.4,63.6z M63.4,58.1
            c-0.3,0-0.6,0.1-0.8,0.3c-0.4,0.4-0.4,1.1,0,1.5c0.4,0.4,1.1,0.4,1.6,0c0.2-0.2,0.3-0.5,0.3-0.8c0-0.3-0.1-0.6-0.3-0.8
            C64,58.3,63.7,58.1,63.4,58.1z"/>
        </g>
        <path fill="#CCCCCC" d="M61.5,57.3c1.1-1.1,2.8-1.1,3.8,0c1.1,1.1,1.1,2.8,0,3.8c-1.1,1.1-2.8,1.1-3.8,0
          C60.4,60.1,60.4,58.4,61.5,57.3"/>
        <g>
            <rect x="41.6" y="36.6" transform="matrix(0.9064 0.4224 -0.4224 0.9064 21.0978 -18.8166)" fill="#CCCCCC" width="22.9" height="3.2"/>
        </g>
      </g>
    </g>
  </g>
  <g>
    <path fill="#CCCCCC" d="M7.3,98.9v-4.5h-5v4.5H0V88.2h2.3v4.2h5v-4.2h2.3v10.7H7.3z"/>
    <path fill="#CCCCCC" d="M11.7,98.9V88.2H14v10.7H11.7z"/>
    <path fill="#CCCCCC" d="M15.6,93.5c0-3.4,2.6-5.5,5.7-5.5c2.2,0,3.6,1.1,4.4,2.4l-1.9,1c-0.5-0.8-1.4-1.4-2.5-1.4
      c-2,0-3.4,1.5-3.4,3.5c0,2,1.4,3.5,3.4,3.5c0.9,0,1.8-0.4,2.3-0.8v-1.3h-2.8v-2h5.1V97c-1.1,1.2-2.6,2-4.5,2
      C18.1,99,15.6,96.9,15.6,93.5z"/>
    <path fill="#CCCCCC" d="M34.9,98.9v-4.5h-5v4.5h-2.3V88.2h2.3v4.2h5v-4.2h2.3v10.7H34.9z"/>
    <path fill="#CCCCCC" d="M43.4,98.9V88.2H51v2h-5.3v2.2h5.2v2h-5.2v4.4H43.4z"/>
    <path fill="#CCCCCC" d="M52.5,98.9V88.2h2.3v10.7H52.5z"/>
    <path fill="#CCCCCC" d="M56.9,98.9V88.2h4.2c3.3,0,5.7,2.1,5.7,5.3c0,3.2-2.3,5.3-5.7,5.3H56.9z M64.5,93.5c0-1.9-1.2-3.3-3.3-3.3
      h-2v6.7h1.9C63.2,96.9,64.5,95.3,64.5,93.5z"/>
    <path fill="#CCCCCC" d="M68.4,98.9V88.2H76v2h-5.3v2.2h5.2v2h-5.2v2.4H76v2H68.4z"/>
    <path fill="#CCCCCC" d="M77.6,98.9V88.2h2.3v8.7h4.5v2H77.6z"/>
    <path fill="#CCCCCC" d="M86,98.9V88.2h2.3v10.7H86z"/>
    <path fill="#CCCCCC" d="M92.8,98.9v-8.7h-3.1v-2h8.5v2h-3.1v8.7H92.8z"/>
    <path fill="#CCCCCC" d="M102.7,98.9v-4.4l-4.1-6.3h2.6l2.6,4.3l2.6-4.3h2.6l-4.1,6.3v4.4H102.7z"/>
  </g>
</g>
</svg>
