<?xml version="1.0" encoding="UTF-8"?>
<!DOCTYPE svg PUBLIC "-//W3C//DTD SVG 1.1//EN" "http://www.w3.org/Graphics/SVG/1.1/DTD/svg11.dtd">
<svg version="1.1" id="Layer_1" xmlns="http://www.w3.org/2000/svg" xmlns:xlink="http://www.w3.org/1999/xlink" x="0px" y="0px" viewBox="0 0 30.5 30.5" enable-background="new 0 0 30.5 30.5" xml:space="preserve">
<g>
  <g>
    <g>
      <path fill="#3398CB" stroke="#3398CB" stroke-miterlimit="10" d="M25.7,4.8C22.9,2,19.2,0.5,15.2,0.5C11.3,0.5,7.6,2,4.8,4.8     C2,7.6,0.5,11.3,0.5,15.2c0,3.9,1.5,7.6,4.3,10.4c2.8,2.8,6.5,4.3,10.4,4.3c3.9,0,7.6-1.5,10.4-4.3c2.8-2.8,4.3-6.5,4.3-10.4     C30,11.3,28.4,7.6,25.7,4.8z M24.6,24.6c-2.5,2.5-5.8,3.9-9.4,3.9c-3.5,0-6.9-1.4-9.4-3.9C3.4,22.1,2,18.8,2,15.2     c0-3.5,1.4-6.9,3.9-9.4C8.4,3.4,11.7,2,15.2,2c3.5,0,6.9,1.4,9.4,3.9c2.5,2.5,3.9,5.8,3.9,9.4C28.5,18.8,27.1,22.1,24.6,24.6z"/>
      <g>
        <path fill="#3398CB" stroke="#3398CB" stroke-miterlimit="10" d="M11.3,20.5c-0.3,0-0.6-0.3-0.6-0.6V8.5c0-0.3,0.3-0.6,0.6-0.6      c0.3,0,0.6,0.3,0.6,0.6v11.4C11.9,20.2,11.6,20.5,11.3,20.5z"/>
        <path fill="#3398CB" stroke="#3398CB" stroke-miterlimit="10" d="M12,8.2c-0.4,0.4-1.1,0.4-1.5,0c-0.4-0.4-0.4-1.1,0-1.5      c0.4-0.4,1.1-0.4,1.5,0C12.4,7.1,12.4,7.8,12,8.2"/>
        <g>
          <path fill="#3398CB" stroke="#3398CB" stroke-miterlimit="10" d="M11.3,9.1c-0.4,0-0.9-0.2-1.2-0.5c-0.6-0.6-0.6-1.7,0-2.3       c0.3-0.3,0.7-0.5,1.2-0.5c0.4,0,0.9,0.2,1.2,0.5c0.3,0.3,0.5,0.7,0.5,1.2c0,0.4-0.2,0.9-0.5,1.2C12.1,8.9,11.7,9.1,11.3,9.1z        M11.3,7c-0.1,0-0.2,0-0.3,0.1c-0.2,0.2-0.2,0.4,0,0.6c0.2,0.2,0.4,0.2,0.6,0c0.1-0.1,0.1-0.2,0.1-0.3c0-0.1,0-0.2-0.1-0.3       C11.5,7.1,11.4,7,11.3,7z"/>
        </g>
        <path fill="#3398CB" stroke="#3398CB" stroke-miterlimit="10" d="M10.6,20.2c0.4-0.4,1.1-0.4,1.5,0c0.4,0.4,0.4,1.1,0,1.5      c-0.4,0.4-1.1,0.4-1.5,0C10.2,21.2,10.2,20.6,10.6,20.2"/>
        <g>
          <path fill="#3398CB" stroke="#3398CB" stroke-miterlimit="10" d="M11.3,22.5c-0.4,0-0.9-0.2-1.2-0.5c-0.3-0.3-0.5-0.7-0.5-1.2       c0-0.4,0.2-0.9,0.5-1.2c0.3-0.3,0.7-0.5,1.2-0.5c0.4,0,0.9,0.2,1.2,0.5c0.3,0.3,0.5,0.7,0.5,1.2c0,0.4-0.2,0.9-0.5,1.2       C12.1,22.4,11.7,22.5,11.3,22.5z M11.3,20.5c-0.1,0-0.2,0-0.3,0.1c-0.1,0.1-0.1,0.2-0.1,0.3c0,0.1,0,0.2,0.1,0.3       c0.2,0.2,0.4,0.2,0.6,0c0.1-0.1,0.1-0.2,0.1-0.3c0-0.1,0-0.2-0.1-0.3C11.5,20.5,11.4,20.5,11.3,20.5z"/>
        </g>
        <g>
          <path fill="#3398CB" stroke="#3398CB" stroke-miterlimit="10" d="M19.2,22.6c-0.3,0-0.6-0.3-0.6-0.6V10.6       c0-0.3,0.3-0.6,0.6-0.6c0.3,0,0.6,0.3,0.6,0.6V22C19.8,22.3,19.5,22.6,19.2,22.6z"/>
        </g>
        <path fill="#3398CB" stroke="#3398CB" stroke-miterlimit="10" d="M19.9,10.3c-0.4,0.4-1.1,0.4-1.5,0c-0.4-0.4-0.4-1.1,0-1.5      c0.4-0.4,1.1-0.4,1.5,0C20.3,9.3,20.3,9.9,19.9,10.3"/>
        <g>
          <path fill="#3398CB" stroke="#3398CB" stroke-miterlimit="10" d="M19.2,11.2c-0.4,0-0.9-0.2-1.2-0.5c-0.6-0.6-0.6-1.7,0-2.3       c0.3-0.3,0.7-0.5,1.2-0.5c0.4,0,0.9,0.2,1.2,0.5c0.3,0.3,0.5,0.7,0.5,1.2c0,0.4-0.2,0.9-0.5,1.2C20,11.1,19.6,11.2,19.2,11.2z        M19.2,9.2c-0.1,0-0.2,0-0.3,0.1c-0.2,0.2-0.2,0.4,0,0.6c0.2,0.2,0.4,0.2,0.6,0c0.1-0.1,0.1-0.2,0.1-0.3c0-0.1,0-0.2-0.1-0.3       C19.4,9.2,19.3,9.2,19.2,9.2z"/>
        </g>
        <g>
          <path fill="#3398CB" stroke="#3398CB" stroke-miterlimit="10" d="M19.2,24.7c-0.4,0-0.9-0.2-1.2-0.5c-0.6-0.6-0.6-1.7,0-2.3       c0.3-0.3,0.7-0.5,1.2-0.5c0.4,0,0.9,0.2,1.2,0.5c0.3,0.3,0.5,0.7,0.5,1.2c0,0.4-0.2,0.9-0.5,1.2C20,24.5,19.6,24.7,19.2,24.7z        M19.2,22.6c-0.1,0-0.2,0-0.3,0.1c-0.2,0.2-0.2,0.4,0,0.6c0.2,0.2,0.4,0.2,0.6,0c0.1-0.1,0.1-0.2,0.1-0.3s0-0.2-0.1-0.3       C19.4,22.7,19.3,22.6,19.2,22.6z"/>
        </g>
        <path fill="#3398CB" stroke="#3398CB" stroke-miterlimit="10" d="M18.5,22.3c0.4-0.4,1.1-0.4,1.5,0c0.4,0.4,0.4,1.1,0,1.5      c-0.4,0.4-1.1,0.4-1.5,0C18.1,23.4,18.1,22.7,18.5,22.3"/>
        <g>
            <rect x="10.9" y="14.4" transform="matrix(0.9064 0.4224 -0.4224 0.9064 7.7766 -5.0297)" fill="#3398CB" stroke="#3398CB" stroke-miterlimit="10" width="8.7" height="1.2"/>
        </g>
      </g>
    </g>
  </g>
</g>
</svg>