<?xml version="1.0" encoding="UTF-8" standalone="no"?>
<svg width="136px" height="263px" viewBox="0 0 136 263" version="1.1" xmlns="http://www.w3.org/2000/svg" xmlns:xlink="http://www.w3.org/1999/xlink" xmlns:sketch="http://www.bohemiancoding.com/sketch/ns">
    <g id="Page-1" stroke="none" stroke-width="1" fill="none" fill-rule="evenodd" sketch:type="MSPage">
        <g id="under-the-hood" sketch:type="MSLayerGroup" transform="translate(2.000000, 1.000000)">
            <g id="own-domain" transform="translate(80.000000, 210.000000)" stroke="#0A9DC0" stroke-width="3.2161" sketch:type="MSShapeGroup">
                <path d="M31.3,19.4 L15.6,34.7 L0.7,18.5 C3.7,8.3 13.1,0.8 24.3,0.8 C37.9,0.8 48.8,11.8 48.8,25.3 C48.8,38.9 37.8,49.8 24.3,49.8 C21.4,49.8 18.6,49.3 16,48.3" id="XMLID_65_"></path>
                <path d="M16.5,18 L32.4,18 L32.4,34" id="XMLID_64_"></path>
            </g>
            <g id="open-source" transform="translate(0.000000, 210.000000)" fill="#0A9DC0" sketch:type="MSShapeGroup">
                <path d="M20.2,51.8 L18.7,51.4 C7.7,48 0,37.7 0,26.2 C0,11.7 11.8,2.84217094e-14 26.2,2.84217094e-14 C40.7,2.84217094e-14 52.4,11.8 52.4,26.2 C52.4,37.8 45,47.8 33.9,51.2 L32.4,51.7 L28.3,35 L29.5,34.5 C32.9,33.1 35.2,29.8 35.2,26.1 C35.2,21.1 31.2,17.1 26.2,17.1 C21.2,17.1 17.2,21.1 17.2,26.1 C17.2,30 19.7,33.4 23.3,34.6 L24.6,35.1 L20.2,51.8 L20.2,51.8 Z M26.2,3 C13.4,3 3,13.4 3,26.2 C3,35.9 9.2,44.6 18.1,48 L21,37.1 C16.9,35.1 14.2,30.9 14.2,26.3 C14.2,19.7 19.6,14.3 26.2,14.3 C32.8,14.3 38.2,19.7 38.2,26.3 C38.2,30.8 35.7,34.8 31.8,36.9 L34.5,48 C43.4,44.6 49.3,36 49.3,26.3 C49.4,13.4 39,3 26.2,3 L26.2,3 Z"></path>
            </g>
            <g id="scalability" transform="translate(80.000000, 140.000000)" fill="#0A9DC0" sketch:type="MSShapeGroup">
                <path d="M12.1,25.4 L20.8,30.4 L20.8,40.4 L12.1,45.4 L3.4,40.4 L3.4,30.4 L12.1,25.4 L12.1,25.4 Z M12.1,21.9 L0.4,28.6 L0.4,42.1 L12.1,48.8 L23.8,42.1 L23.8,28.6 L12.1,21.9 L12.1,21.9 Z" id="XMLID_60_"></path>
                <path d="M24.4,55.9 L0.5,42.1 L0.5,14.5 L24.4,0.7 L48.3,14.5 L48.3,42.1 L24.4,55.9 L24.4,55.9 Z M3.6,40.4 L24.5,52.4 L45.4,40.4 L45.4,16.3 L24.5,4.3 L3.6,16.3 L3.6,40.4 L3.6,40.4 Z" id="XMLID_57_"></path>
                <path d="M38.5,38.3 L38.5,19.8 L24.1,11.8 L24.1,15.4 L35.4,21.7 L35.4,36.8 C36.4,37.3 37.5,37.7 38.5,38.3 L38.5,38.3 Z" id="XMLID_56_"></path>
            </g>
            <g id="devices" transform="translate(0.000000, 140.000000)" fill="#0A9DC0" sketch:type="MSShapeGroup">
                <g id="XMLID_14_-+-XMLID_12_">
                    <path d="M32.2,12.2 C33.7,8.1 32.1,3.8 28.3,1.7 C25.3,3.99680289e-14 20.7,0.2 17.7,3.6 C15.9,5.7 15.1,8.4 15.7,10.9 C16.2,13.5 18,15.7 20.6,17 C21.2,17.3 21.9,17.6 22.5,17.7 L22.7,17.8 L22.7,19.8 L22.7,32.4 L25.6,32.4 L25.6,19.8 L25.6,17.9 L25.8,17.8 C28.4,16.7 31.1,15.4 32.2,12.2 L32.2,12.2 Z M29.5,11.2 C28.7,13.5 26.5,14.4 24.4,15.2 L24.3,15.2 L23.7,15 C23.1,14.8 22.5,14.6 21.9,14.3 C20.1,13.4 18.9,12 18.6,10.3 C18.3,8.6 18.8,6.9 20,5.5 C21.1,4.3 22.6,3.6 24.2,3.6 C25.2,3.6 26.1,3.8 26.9,4.3 C29.4,5.6 30.5,8.5 29.5,11.2 L29.5,11.2 Z" id="XMLID_14_"></path>
                    <path d="M47.8,42.2 L47.8,31.9 L29.1,21.1 L29.1,24 L45.3,33.4 L45.3,40.7 L24.2,52.9 L3.1,40.7 L3.1,33.4 L19.4,24 L19.4,21.1 L0.6,31.9 L0.6,42.2 L24.2,55.8 L47.8,42.2 Z" id="XMLID_12_"></path>
                </g>
                <path d="M36.2,35.6 L36.2,32.3 L29.1,28.2 L29.1,31.1 L33.7,33.8 L33.7,34.2 L24.1,39.7 L14.7,34.3 L14.7,33.9 L19.4,31.1 L19.4,28.2 L12.2,32.5 L12.2,35.7 L24.1,42.6 L36.2,35.6 Z" id="XMLID_11_"></path>
            </g>
            <g id="scriptable" transform="translate(80.000000, 70.000000)" fill="#0A9DC0" sketch:type="MSShapeGroup">
                <path d="M-1.42108547e-14,9.2 C-1.42108547e-14,4.1 4.10000006,-1.42108547e-14 9.20000013,-1.42108547e-14 C14.1000002,-1.42108547e-14 18.1000003,3.9 18.4000003,8.7 L34.7000005,8.8 C34.9000005,3.9 38.9000006,-1.42108547e-14 43.9000006,-1.42108547e-14 C49.0000007,-1.42108547e-14 53.1000008,4.1 53.1000008,9.2 C53.1000008,14.3 49.0000007,18.4 43.9000006,18.4 C41.9000006,18.4 39.9000006,17.7 38.3000005,16.5 L40.1000006,14.2 C41.2000006,15 42.5000006,15.5 43.9000006,15.5 C47.4000007,15.5 50.2000007,12.7 50.2000007,9.2 C50.2000007,5.7 47.4000007,2.9 43.9000006,2.9 C40.4000006,2.9 37.6000005,5.7 37.6000005,9.2 C37.6000005,9.5 37.6000005,9.8 37.7000005,10.1 L37.9000005,11.8 L15.3000002,11.6 L15.5000002,10 C15.5000002,9.7 15.6000002,9.5 15.6000002,9.2 C15.6000002,5.7 12.8000002,2.9 9.30000013,2.9 C5.80000008,2.9 3.00000004,5.7 3.00000004,9.2 C3.00000004,12.7 5.80000008,15.5 9.30000013,15.5 C11.2000002,15.5 13.8000002,14.1 14.6000002,13.5 L14.9000002,13.3 L15.3000002,13.3 C21.1000003,12.8 25.1000004,15.7 27.2000004,21.8 C27.3000004,22.2 29.3000004,28.8 34.8000005,29.9 C35.0000005,25.1 39.1000006,21.2 44.0000006,21.2 C49.1000007,21.2 53.2000008,25.3 53.2000008,30.4 C53.2000008,35.5 49.1000007,39.6 44.0000006,39.6 C42.0000006,39.6 40.0000006,38.9 38.4000006,37.7 L40.2000006,35.4 C41.3000006,36.2 42.6000006,36.7 44.0000006,36.7 C47.5000007,36.7 50.3000007,33.9 50.3000007,30.4 C50.3000007,26.9 47.5000007,24.1 44.0000006,24.1 C40.5000006,24.1 37.7000005,26.9 37.7000005,30.4 C37.7000005,30.7 37.8000005,31.3 37.8000005,31.4 L38.0000005,33 L36.4000005,33 C27.5000004,33.1 24.6000004,23.2 24.5000004,22.8 C22.9000003,18.2 20.2000003,16 15.9000002,16.3 C14.9000002,16.9 12.0000002,18.5 9.40000013,18.5 C4.20000006,18.4 -1.42108547e-14,14.3 -1.42108547e-14,9.2 L-1.42108547e-14,9.2 Z"></path>
            </g>
            <g id="limitless" transform="translate(0.000000, 70.000000)" stroke="#0A9DC0" sketch:type="MSShapeGroup">
                <g id="XMLID_40_" stroke-width="3.2161" stroke-dasharray="7.7453,7.7453">
                    <circle id="XMLID_48_" cx="27.2" cy="27.2" r="27.1"></circle>
                </g>
                <circle id="XMLID_37_" stroke-width="2.3746" cx="27.2" cy="27.2" r="5.2"></circle>
                <g id="XMLID_30_" transform="translate(13.000000, 12.000000)" stroke-width="2.3746">
                    <path d="M1.3,1.8 L7.8,8.2" id="XMLID_34_"></path>
                    <path d="M0.3,8.6 L0.3,0.9 L8.1,0.9" id="XMLID_31_"></path>
                </g>
                <g id="XMLID_23_" transform="translate(13.000000, 33.000000)" stroke-width="2.3746">
                    <path d="M1.2,7.3 L7.7,0.8" id="XMLID_27_"></path>
                    <path d="M8.1,8.3 L0.4,8.3 L0.4,0.5" id="XMLID_24_"></path>
                </g>
                <g id="XMLID_16_" transform="translate(33.000000, 33.000000)" stroke-width="2.3746">
                    <path d="M7.7,7.4 L1.3,1" id="XMLID_20_"></path>
                    <path d="M8.7,0.5 L8.7,8.3 L0.9,8.3" id="XMLID_17_"></path>
                </g>
                <g id="XMLID_9_" transform="translate(33.000000, 12.000000)" stroke-width="2.3746">
                    <path d="M7.8,1.9 L1.4,8.4" id="XMLID_13_"></path>
                    <path d="M0.9,0.9 L8.7,0.9 L8.7,8.7" id="XMLID_10_"></path>
                </g>
            </g>
            <g id="facial" transform="translate(80.000000, 0.000000)" fill="#0A9DC0" sketch:type="MSShapeGroup">
                <path d="M4.49720614,21.7815 C4.49720614,23.3815 4.09717039,24.8815 3.09708099,26.7815 C2.19700054,28.4815 1.39692903,30.0815 0.696866453,31.6815 C0.0968128181,32.9815 -0.303222939,34.2815 0.296830697,35.4815 C0.896884332,36.6815 2.29700948,36.9815 3.59712569,37.2815 C4.49720614,37.3815 4.59721508,37.4815 4.59721508,38.4815 L4.59721508,39.6815 C4.49720614,41.1815 4.49720614,42.7815 4.8972419,44.4815 C5.69731341,47.4815 8.69758159,49.4815 11.6978498,48.8815 C17.0983325,47.7815 21.5987348,46.9815 25.6991013,46.2815 C31.2996019,45.2815 32.7997359,44.1815 32.8997449,38.2815 L32.8997449,32.1815 L32.8997449,30.4815 C35.4999773,29.4815 38.2002187,28.1815 39.4003259,24.7815 C40.90046,20.5815 39.300317,16.0815 35.3999684,13.9815 C32.2996913,12.2815 27.5992711,12.3815 24.498994,15.8815 C22.5988241,18.0815 21.8987616,20.7815 22.3988063,23.3815 C22.898851,26.0815 24.7990208,28.3815 27.4992622,29.6815 C28.0993158,29.9815 28.7993784,30.2815 29.399432,30.4815 L29.399432,32.2815 L29.399432,38.1815 C29.2994231,42.1815 29.2994231,42.1815 24.9990387,42.8815 C20.8986722,43.5815 16.3982699,44.4815 10.8977783,45.5815 C9.69767098,45.7815 8.39755477,44.8815 8.09752796,43.6815 C7.79750114,42.4815 7.79750114,41.1815 7.89751008,39.8815 L7.89751008,38.5815 C7.89751008,35.8815 6.59739387,34.2815 3.99716145,33.8815 C3.79714357,33.8815 3.59712569,33.7815 3.39710781,33.7815 C3.49711675,33.5815 3.49711675,33.3815 3.69713463,33.1815 C4.3971972,31.6815 5.19726872,30.1815 5.99734023,28.4815 C6.89742069,26.8815 7.89751008,24.6815 7.79750114,21.7815 C7.6974922,13.9815 11.0977961,8.4815 17.898404,5.3815 C25.0990476,2.0815 31.5996287,2.9815 37.8001829,8.1815 C44.5007818,13.7815 45.800898,24.4815 40.6004332,30.9815 C38.0002008,34.2815 37.0001114,37.6815 37.4001472,42.0815 C37.5001561,43.6815 37.5001561,45.3815 37.5001561,47.0815 L37.5001561,49.3815 C37.5001561,50.2815 38.3002276,51.0815 39.2003081,51.0815 C40.1003885,51.0815 40.90046,50.2815 40.90046,49.3815 L40.90046,47.0815 C40.90046,45.3815 41.000469,43.5815 40.8004511,41.7815 C40.5004243,38.2815 41.3004958,35.6815 43.3006746,33.0815 C49.6012377,25.1815 48.0010947,12.2815 40.0003796,5.5815 C32.7997359,-0.5185 24.8990297,-1.6185 16.3982699,2.2815 C8.59757265,5.8815 4.3971972,12.6815 4.49720614,21.7815 L4.49720614,21.7815 Z M26.9992175,18.0815 C27.9993069,16.8815 29.399432,16.2815 30.999575,16.2815 C31.8996555,16.2815 32.8997449,16.4815 33.5998075,16.9815 C36.000022,18.2815 37.0001114,20.9815 36.000022,23.5815 C35.1999505,25.6815 33.2997806,26.4815 31.099584,27.3815 C30.8995661,27.2815 30.7995572,27.2815 30.5995393,27.1815 C29.9994856,26.9815 29.399432,26.7815 28.7993784,26.4815 C27.0992264,25.6815 25.8991191,24.2815 25.5990923,22.5815 C25.3990744,21.1815 25.8991191,19.4815 26.9992175,18.0815 L26.9992175,18.0815 Z"></path>
            </g>
            <g id="3d-audio" stroke="#0A9DC0" sketch:type="MSShapeGroup">
                <path d="M45.6,14.5 C45.1,14 44.5,13.5 44,12.9 C39,17.6 36.1,24.2 36.2,31.2 C36.3,38.4 39.5,45.2 44.9,49.8 L46.5,48.2 C41.5,44 38.5,37.8 38.5,31.2 C38.4,24.8 41,18.9 45.6,14.5 L45.6,14.5 Z" id="XMLID_8_" stroke-width="0.705" fill="#0A9DC0"></path>
                <circle id="XMLID_7_" stroke-width="2.8198" cx="61" cy="31" r="4.5"></circle>
                <path d="M48.4,31.1 C48.4,27.4 49.9,23.9 52.7,21.5 C52.2,21 51.6,20.4 51.1,19.9 C47.9,22.7 46.1,26.8 46.1,31.1 C46.1,35.7 48.3,39.9 51.8,42.7 L53.4,41.1 C50.3,38.8 48.4,35.1 48.4,31.1 L48.4,31.1 Z" id="XMLID_6_" stroke-width="0.705" fill="#0A9DC0"></path>
                <path d="M20.8,35.7 C21.3,36.2 21.9,36.7 22.4,37.3 C27.4,32.6 30.3,26 30.2,19 C30.1,11.8 26.9,5 21.5,0.4 L20,2 C25,6.2 28,12.4 28,19 C28.1,25.4 25.5,31.4 20.8,35.7 L20.8,35.7 Z" id="XMLID_5_" stroke-width="0.705" fill="#0A9DC0"></path>
                <circle id="XMLID_4_" stroke-width="2.8198" cx="5.4" cy="19.2" r="4.5"></circle>
                <path d="M18,19.1 C18,22.8 16.5,26.3 13.7,28.7 L15.3,30.3 C18.5,27.5 20.3,23.4 20.3,19.1 C20.3,14.5 18.1,10.3 14.6,7.5 L13,9.1 C16.1,11.5 18,15.1 18,19.1 L18,19.1 Z" id="XMLID_3_" stroke-width="0.705" fill="#0A9DC0"></path>
            </g>
        </g>
    </g>
</svg>
