<?xml version="1.0" encoding="UTF-8" standalone="no"?>
<svg width="70px" height="29px" viewBox="0 0 70 29" version="1.1" xmlns="http://www.w3.org/2000/svg" xmlns:xlink="http://www.w3.org/1999/xlink" xmlns:sketch="http://www.bohemiancoding.com/sketch/ns">
    <!-- Generator: Sketch 3.3.3 (12081) - http://www.bohemiancoding.com/sketch -->
    <title>up-to-date</title>
    <desc>Created with Sketch.</desc>
    <defs></defs>
    <g id="Page-1" stroke="none" stroke-width="1" fill="none" fill-rule="evenodd" sketch:type="MSPage">
        <g id="up-to-date" sketch:type="MSLayerGroup" fill="#FFFFFF">
            <g id="twitter" sketch:type="MSShapeGroup">
                <path d="M1,22.8 C1.7,21.6 2.7,21.2 4,21.4 C4.8,21.5 5.6,21.3 6.5,21.3 C6.3,21 6.2,20.8 6,20.7 C5,19.5 4.1,18.3 4.1,16.7 C4.1,16.5 3.9,16.3 3.8,16.1 C2.9,14.9 2.3,13.5 2.1,12 C2,11.6 1.9,11 2.1,10.7 C2.7,9.8 2.3,8.9 2.2,7.9 C1.9,6.2 2.3,4.7 3,3.2 C3.9,1.5 5.6,1.3 6.8,2.8 C8.7,5.1 11.1,6.6 14,7.4 C14.3,7.5 14.5,7.5 14.8,7.6 C14.9,7.3 15,7.1 15,6.9 C16.3,1.6 22.3,-0.8 26.9,2 C27.6,2.4 28.1,2.4 28.7,2.1 C29.1,1.9 29.5,1.7 29.9,1.5 C31.4,0.8 32.9,1.8 33,3.4 C33,3.8 33.2,4.2 33.4,4.5 C33.9,5.4 34,6.2 33.4,7 C33,7.6 32.5,8.3 31.9,8.8 C31,9.5 30.8,10.4 30.7,11.4 C29.8,21.4 21.6,28.7 11.5,28.4 C8.3,28.3 5.3,27.5 2.6,25.9 C1.9,25.5 1.4,24.8 0.9,24.3 C1,23.6 1,23.2 1,22.8 L1,22.8 L1,22.8 Z M30.9,3.7 C30.8,3.7 30.8,3.6 30.7,3.6 C29.8,3.9 28.9,4.2 28,4.6 C27.4,4.8 27.1,4.7 26.6,4.3 C24.9,2.9 22.9,2.5 20.8,3.3 C18.7,4.1 17.4,5.7 17.2,8 C17.1,8.7 17.2,9.4 17.2,10.1 C12.3,9.8 8.4,7.7 5.1,4 C3.7,7.1 4.4,9.6 6.6,11.8 C5.9,11.6 5.1,11.4 4.3,11.2 C4.5,14.2 6.1,15.9 8.6,17 L6.4,17 C7.2,19.2 8,19.9 11.6,21.1 C9.2,22.9 6.5,23.7 3.5,23.5 C3.7,23.7 4,23.9 4.2,24 C7.9,26 11.8,26.5 15.9,25.6 C23.3,23.9 28.7,17.2 28.7,9.6 C28.7,8.9 28.9,8.4 29.5,8 C30.2,7.4 30.8,6.7 31.5,6 L31.4,5.9 C30.5,6.1 29.6,6.3 28.8,6.6 C29.5,5.5 30.2,4.6 30.9,3.7 L30.9,3.7 L30.9,3.7 Z" id="twitter-path"></path>
            </g>
            <g id="subscribe" transform="translate(40.000000, 0.000000)" sketch:type="MSShapeGroup">
                <path d="M23.1,11.6 L23.1,14.2 L16.9,14.2 L16.9,11.6 L23.1,11.6 L23.1,11.6 Z M24,10.1 L16,10.1 C15.7,10.1 15.4,10.4 15.4,10.7 L15.4,15.1 C15.4,15.4 15.7,15.7 16,15.7 L24,15.7 C24.3,15.7 24.6,15.4 24.6,15.1 L24.6,10.7 C24.6,10.4 24.3,10.1 24,10.1 L24,10.1 Z M25.1,2.8 C24.6,2.9 24.3,3.1 24.3,3.5 C24.3,4 24.5,4.3 25,4.4 C25.3,4.4 25.5,4.4 25.7,4.2 C25.9,4.1 25.9,3.9 25.9,3.6 C25.9,3.2 25.7,2.9 25.1,2.8 L25.1,2.8 Z M19.4,2.8 C19.1,2.8 18.9,2.9 18.8,3 C18.7,3.2 18.6,3.4 18.6,3.7 C18.6,4.2 18.9,4.4 19.4,4.4 C19.9,4.4 20.1,4.1 20.2,3.6 C20.1,3.1 19.8,2.8 19.4,2.8 L19.4,2.8 Z M21.4,3.7 C21.4,4 21.5,4.2 21.7,4.3 C21.9,4.4 22.1,4.5 22.4,4.5 C22.9,4.4 23.1,4.2 23.1,3.6 C23,3.1 22.7,2.8 22.3,2.8 L22.2,2.8 C21.6,2.9 21.3,3.2 21.4,3.7 L21.4,3.7 Z M23.5,17.4 L16.4,17.4 C15.5,17.4 15.4,17.8 15.4,18.2 C15.4,18.4 15.5,18.6 15.6,18.7 C15.8,18.9 16,18.9 16.4,18.9 L18.9,18.9 L20,18.9 L20.9,18.9 L23.5,18.9 C23.8,18.9 24.4,18.8 24.4,18.2 C24.4,18 24.4,17.8 24.2,17.6 C24.1,17.5 23.9,17.4 23.5,17.4 L23.5,17.4 Z M12.6,10.1 L10,10.1 L7.6,10.1 L5.9,10.1 C5.6,10.1 5.2,10.1 5,10.3 C4.9,10.4 4.8,10.6 4.9,10.8 C4.9,11.3 5.3,11.6 6,11.6 L8.4,11.6 L10.5,11.6 L12.6,11.6 C13,11.6 13.4,11.6 13.6,11.4 C13.7,11.3 13.8,11.1 13.8,10.8 C13.8,10.2 13.3,10.1 12.6,10.1 L12.6,10.1 Z M12.9,17.4 L11.1,17.4 L5.7,17.4 C5.4,17.4 4.9,17.5 4.8,18.1 C4.8,18.3 4.8,18.5 5,18.6 C5.1,18.8 5.4,18.8 5.8,18.8 L7.1,18.8 L8.8,18.8 L10.9,18.8 L12.8,18.8 C13.5,18.8 13.8,18.6 13.8,18.1 C13.8,17.8 13.8,17.7 13.6,17.5 C13.5,17.5 13.2,17.4 12.9,17.4 L12.9,17.4 Z M12.9,13.8 L5.7,13.8 C4.8,13.8 4.8,14.3 4.8,14.5 C4.8,14.7 4.8,14.9 5,15.1 C5.1,15.3 5.4,15.3 5.7,15.3 L8.2,15.3 L9.3,15.3 L10.2,15.3 L12.8,15.3 C13.1,15.3 13.4,15.2 13.5,15.1 C13.6,15 13.7,14.8 13.7,14.5 C13.8,14 13.5,13.8 12.9,13.8 L12.9,13.8 Z M27.4,5.1 C27.2,5.3 26.8,5.5 26.2,5.4 C23.4,5.3 20.5,5.4 17.7,5.4 L14.5,5.4 L11.3,5.4 L3.1,5.4 L3,5.4 C2.4,5.4 2.1,5.3 1.8,5 C1.6,4.7 1.5,4.4 1.5,3.7 L1.5,3.3 C1.5,2.6 1.5,1.9 2.9,1.9 L2.9,1.9 C10.5,2 18.3,2 26.2,1.9 C26.7,1.9 27.1,2 27.3,2.2 C27.6,2.5 27.6,2.9 27.5,3.3 L27.5,3.8 C27.7,4.4 27.7,4.8 27.4,5.1 L27.4,5.1 L27.4,5.1 Z M27.4,21.4 C27.1,21.7 26.8,21.7 26.2,21.7 L17.7,21.7 L14.6,21.7 L11.4,21.7 L3.1,21.7 L3,21.7 C2.5,21.7 2.1,21.6 1.8,21.4 C1.6,21.2 1.5,20.8 1.5,20.2 C1.6,16.8 1.6,13.2 1.5,8.5 C1.5,7.9 1.6,7.5 1.8,7.3 C2,7.1 2.4,7 3,7 L26.1,7 C26.6,7 27,7.1 27.3,7.3 C27.5,7.5 27.6,7.8 27.6,8.4 C27.5,12.4 27.5,16.5 27.6,20.4 C27.7,20.8 27.6,21.2 27.4,21.4 L27.4,21.4 L27.4,21.4 Z M28.9,0.6 C28.7,0.4 28.3,0.3 27.7,0.3 L1.6,0.3 C1,0.3 0.6,0.4 0.4,0.7 C0.2,0.9 0,1.4 0,2 L0,21.8 C0,22.6 0.2,23.1 0.8,23.4 L28.7,23.4 C29.1,23 29.3,22.6 29.3,21.8 L29.3,1.8 C29.2,1.3 29.1,0.9 28.9,0.6 L28.9,0.6 L28.9,0.6 Z" id="subscribe-path"></path>
            </g>
        </g>
    </g>
</svg>