<?xml version="1.0" encoding="utf-8"?>
<!-- Generator: Adobe Illustrator 18.0.0, SVG Export Plug-In . SVG Version: 6.00 Build 0)  -->
<!DOCTYPE svg PUBLIC "-//W3C//DTD SVG 1.1//EN" "http://www.w3.org/Graphics/SVG/1.1/DTD/svg11.dtd">
<svg version="1.1" id="Layer_1" xmlns="http://www.w3.org/2000/svg" xmlns:xlink="http://www.w3.org/1999/xlink" x="0px" y="0px"
	 viewBox="0 0 38.4 21.4" enable-background="new 0 0 38.4 21.4" xml:space="preserve">
  <defs>
    <g id="logo">
	  <polygon points="0,0 7.1,21.4 10.1,21.4 2.9,0 	"/>
	  <polygon points="38.4,0 35.5,0 29.8,16.9 24.2,0.1 24.2,0 24.2,0 21.3,0 21.3,0 21.3,0 15.7,16.9 10,0 7.1,0
        14.2,21.4 14.2,21.4 14.2,21.4 17.1,21.4 17.2,21.4 17.1,21.3 22.7,4.5 28.4,21.4 28.3,21.4 28.4,21.4 31.3,21.4 31.3,21.4
        31.3,21.3 	"/>
    </g>
  </defs>
</svg>
