<?xml version="1.0" encoding="UTF-8" standalone="no"?>
<svg width="39px" height="39px" viewBox="0 0 39 39" version="1.1" xmlns="http://www.w3.org/2000/svg" xmlns:xlink="http://www.w3.org/1999/xlink" xmlns:sketch="http://www.bohemiancoding.com/sketch/ns">
    <!-- Generator: Sketch 3.3.3 (12081) - http://www.bohemiancoding.com/sketch -->
    <title>worklist</title>
    <desc>Created with Sketch.</desc>
    <defs></defs>
    <g id="Page-1" stroke="none" stroke-width="1" fill="none" fill-rule="evenodd" sketch:type="MSPage">
        <g id="worklist" sketch:type="MSLayerGroup" fill="#FFFFFF">
            <path d="M19.5,39 C16.9,39 14.3,38.5 11.9,37.5 C9.6,36.5 7.5,35.1 5.7,33.3 C3.9,31.5 2.5,29.4 1.5,27.1 C0.5,24.7 0,22.2 0,19.5 C0,16.8 0.5,14.3 1.5,11.9 C2.5,9.6 3.9,7.5 5.7,5.7 C7.5,3.9 9.6,2.5 11.9,1.5 C14.3,0.5 16.8,0 19.5,0 C22.1,0 24.7,0.5 27.1,1.5 C29.4,2.5 31.5,3.9 33.3,5.7 C35.1,7.5 36.5,9.6 37.5,11.9 C38.5,14.3 39,16.8 39,19.5 C39,22.2 38.5,24.7 37.5,27.1 C36.5,29.4 35.1,31.5 33.3,33.3 C31.5,35.1 29.4,36.5 27.1,37.5 C24.7,38.5 22.2,39 19.5,39 L19.5,39 Z M19.5,2.2 C9.9,2.2 2.1,10 2.1,19.6 C2.1,29.2 9.9,37 19.5,37 C29.1,37 36.9,29.2 36.9,19.6 C37,10 29.2,2.2 19.5,2.2 L19.5,2.2 Z M12,13.1 L16.5,26.3 L18.4,26.3 L21.9,15.8 L25.4,26.4 L27.3,26.4 L31.8,13.1 L29.9,13 L26.4,23.7 L22.8,13.1 L21,13.1 L17.4,23.6 L13.9,13.1 L12,13.1 Z M13.9,26.3 L12,26.3 L7.6,13.1 L9.4,13.1 L13.9,26.3 Z" sketch:type="MSShapeGroup"></path>
        </g>
    </g>
</svg>